<svg width="380" height="528" viewBox="0 0 380 528" fill="none" xmlns="http://www.w3.org/2000/svg">
<g opacity="0.05">
<path d="M44.3172 326.059C25.2686 335.965 12.6343 354.031 12.6343 374.815V375.981C12.6343 388.024 16.7161 399.097 24.1023 408.032C26.4348 411.334 29.3504 414.248 32.4604 416.968C44.1228 426.875 60.0614 432.896 77.7494 432.896H164.829C183.1 432.896 198.261 445.717 198.261 461.645C198.261 477.574 183.1 490.394 164.829 490.394H89.2174C70.9463 490.394 55.9796 477.574 55.9796 461.645H12.8287C12.8287 498.164 47.0384 527.885 89.2174 527.885H164.829C207.008 527.885 241.217 498.164 241.217 461.645C241.217 445.717 234.609 431.148 223.918 419.687C222.946 418.716 222.169 417.939 221.197 416.968C207.397 403.759 187.376 395.406 164.829 395.406H77.7494C65.6982 395.406 55.5908 386.665 55.5908 376.175V375.01C55.5908 364.52 65.6982 355.779 77.7494 355.779H114.486C118.568 356.167 122.65 356.362 126.926 356.362C196.9 356.362 253.852 299.641 253.852 229.516C253.852 159.586 197.095 102.671 126.926 102.671C56.9514 102.671 0 159.392 0 229.516C0 268.172 17.2992 302.554 44.5115 325.864L44.3172 326.059ZM117.596 318.094C72.8901 313.432 37.9028 275.748 37.9028 229.711C37.9028 180.565 77.7494 140.938 126.732 140.938C175.908 140.938 215.56 180.759 215.56 229.711C215.56 284.878 170.854 320.814 117.402 318.094H117.596Z" fill="#2B154D"/>
<path d="M353.175 49.6387C349.093 71.0062 345.595 74.697 326.352 79.359C345.595 84.021 348.899 87.7117 353.175 109.079C357.257 87.7117 360.756 84.021 379.999 79.359C360.756 74.697 357.451 71.0062 353.175 49.6387Z" fill="#2B154D"/>
<path d="M273.095 42.0674C264.737 84.4139 258.128 91.7954 219.837 101.119C258.128 110.249 264.932 117.825 273.095 160.172C281.453 117.825 288.062 110.443 326.354 101.119C288.062 91.9897 281.259 84.4139 273.095 42.0674Z" fill="#2B154D"/>
<path d="M304.586 52.5579C308.279 33.7156 311.194 30.4134 328.299 26.3341C311.389 22.2549 308.279 18.9526 304.586 0.110352C300.893 18.9526 297.977 22.2549 280.872 26.3341C297.783 30.4134 300.893 33.7156 304.586 52.5579Z" fill="#2B154D"/>
</g>
</svg>
