<svg width="37" height="36" viewBox="0 0 37 36" fill="none" xmlns="http://www.w3.org/2000/svg">
<path d="M26.3873 30.42C24.9173 31.845 23.3123 31.62 21.7673 30.945C20.1323 30.255 18.6323 30.225 16.9073 30.945C14.7473 31.875 13.6073 31.605 12.3173 30.42C4.99726 22.875 6.07726 11.385 14.3873 10.965C16.4123 11.07 17.8223 12.075 19.0073 12.165C20.7773 11.805 22.4723 10.77 24.3623 10.905C26.6273 11.085 28.3373 11.985 29.4623 13.605C24.7823 16.41 25.8923 22.575 30.1823 24.3C29.3273 26.55 28.2173 28.785 26.3723 30.435L26.3873 30.42ZM18.8573 10.875C18.6323 7.53 21.3473 4.77 24.4673 4.5C24.9023 8.37 20.9573 11.25 18.8573 10.875Z" fill="white"/>
</svg>
