<svg width="45" height="44" viewBox="0 0 45 44" fill="none" xmlns="http://www.w3.org/2000/svg">
<path fill-rule="evenodd" clip-rule="evenodd" d="M22.5 34.4667C29.3851 34.4667 34.9667 28.8851 34.9667 22C34.9667 15.1149 29.3851 9.53333 22.5 9.53333C15.6148 9.53333 10.0333 15.1149 10.0333 22C10.0333 28.8851 15.6148 34.4667 22.5 34.4667ZM22.5 44C34.6503 44 44.5 34.1503 44.5 22C44.5 9.84974 34.6503 0 22.5 0C10.3497 0 0.5 9.84974 0.5 22C0.5 34.1503 10.3497 44 22.5 44Z" fill="#6938EF"/>
<path d="M22.752 22.4816C25.0431 20.1905 28.7577 20.1905 31.0488 22.4816L42.4567 33.8896C44.7478 36.1807 44.7478 39.8952 42.4567 42.1863C40.1657 44.4774 36.4511 44.4774 34.16 42.1863L22.752 30.7783C20.461 28.4873 20.461 24.7727 22.752 22.4816Z" fill="#F670C7"/>
<path d="M25.9551 33.9818L33.2004 41.2271C36.6756 39.289 39.5709 36.436 41.5605 32.9938L34.3746 25.8079C33.1124 29.7473 29.9441 32.8336 25.9551 33.9818Z" fill="#6519BA"/>
</svg>
