<svg width="120" height="50" viewBox="0 0 120 50" fill="none" xmlns="http://www.w3.org/2000/svg">
<rect width="120" height="50" rx="25" fill="#FE4567" fill-opacity="0.1"/>
<path d="M59.6187 21.7922C59.8289 22.0025 60.1699 22.0025 60.3802 21.7922L68.4848 13.6876C69.2658 12.9066 70.5322 12.9066 71.3132 13.6876C72.0942 14.4687 72.0942 15.735 71.3132 16.5161L63.2086 24.6206C62.9983 24.8309 62.9983 25.1719 63.2086 25.3821L71.3132 33.4866C72.0942 34.2676 72.0942 35.534 71.3132 36.315C70.5322 37.096 69.2658 37.0961 68.4848 36.315L60.3802 28.2105C60.1699 28.0003 59.8289 28.0003 59.6187 28.2105L51.5141 36.315C50.7331 37.096 49.4668 37.096 48.6857 36.315C47.9047 35.534 47.9047 34.2676 48.6857 33.4866L56.7903 25.3821C57.0005 25.1719 57.0005 24.8309 56.7903 24.6207L48.6857 16.5161C47.9046 15.735 47.9047 14.4687 48.6857 13.6876C49.4668 12.9066 50.7331 12.9066 51.5141 13.6877L59.6187 21.7922Z" fill="#FE4567"/>
</svg>
