<svg width="32" height="32" viewBox="0 0 32 32" fill="none" xmlns="http://www.w3.org/2000/svg">
<circle cx="16" cy="16" r="16" fill="#F9F6FF"/>
<path d="M16.227 8.5332C16.7255 8.53595 17.9727 8.54801 19.2978 8.60108L19.7677 8.62157C21.1019 8.68474 22.435 8.79265 23.0961 8.977C23.978 9.22476 24.6712 9.94767 24.9055 10.864C25.2785 12.3192 25.3252 15.1593 25.331 15.8466L25.3318 15.989V15.999C25.3318 15.999 25.3318 16.0025 25.3318 16.0091L25.331 16.1515C25.3252 16.8388 25.2785 19.679 24.9055 21.1341C24.668 22.0538 23.9748 22.7768 23.0961 23.0211C22.435 23.2055 21.1019 23.3134 19.7677 23.3766L19.2978 23.397C17.9727 23.4501 16.7255 23.4621 16.227 23.4649L16.0082 23.4657H15.9985C15.9985 23.4657 15.9952 23.4657 15.9888 23.4657L15.7702 23.4649C14.7152 23.4592 10.3039 23.4115 8.90089 23.0211C8.01898 22.7733 7.32581 22.0505 7.09149 21.1341C6.71847 19.679 6.67184 16.8388 6.66602 16.1515V15.8466C6.67184 15.1593 6.71847 12.3192 7.09149 10.864C7.32906 9.94427 8.02222 9.22137 8.90089 8.977C10.3039 8.58662 14.7152 8.53901 15.7702 8.5332H16.227ZM14.1319 12.7324V19.2657L19.7318 15.999L14.1319 12.7324Z" fill="#9047FF"/>
</svg>
