<svg width="490" height="214" viewBox="0 0 490 214" fill="none" xmlns="http://www.w3.org/2000/svg">
<g filter="url(#filter0_d_573_15398)">
<rect x="4" y="4" width="466" height="190" rx="95" fill="#F2FCFB"/>
<rect x="2" y="2" width="470" height="194" rx="97" stroke="#110F0A" stroke-width="4"/>
</g>
<mask id="mask0_573_15398" style="mask-type:alpha" maskUnits="userSpaceOnUse" x="0" y="0" width="474" height="198">
<rect x="2" y="2" width="470" height="194" rx="97" fill="#F2FCFB" stroke="#110F0A" stroke-width="4"/>
</mask>
<g mask="url(#mask0_573_15398)">
<rect x="121.994" y="43.145" width="230.257" height="53.759" rx="26.8795" fill="#DDC7FF"/>
<rect x="97.6123" y="50.4526" width="279.02" height="65.1439" rx="32.5719" fill="#D3B5FF"/>
<rect x="74.3633" y="58.0247" width="325.518" height="76" rx="38" fill="#BC91FF"/>
<rect x="59.1221" y="66.355" width="356" height="90" rx="45" fill="#F9FAFB"/>
<rect x="59.1221" y="66.355" width="356" height="90" rx="45" stroke="#050308" stroke-width="3"/>
<path d="M91.4121 94.073V90.055H93.0221V99.855H91.4121V95.613H87.2121V99.855H85.6021V90.055H87.2121V94.073H91.4121ZM100.427 93.849V92.855H101.939V99.855H100.427V98.847C99.8576 99.6403 99.041 100.037 97.977 100.037C97.0156 100.037 96.1943 99.6823 95.513 98.973C94.8316 98.2636 94.491 97.391 94.491 96.355C94.491 95.319 94.8316 94.4463 95.513 93.737C96.1943 93.0276 97.0156 92.673 97.977 92.673C99.041 92.673 99.8576 93.065 100.427 93.849ZM96.633 97.965C97.053 98.385 97.5803 98.595 98.215 98.595C98.8496 98.595 99.377 98.385 99.797 97.965C100.217 97.5356 100.427 96.999 100.427 96.355C100.427 95.711 100.217 95.179 99.797 94.759C99.377 94.3296 98.8496 94.115 98.215 94.115C97.5803 94.115 97.053 94.3296 96.633 94.759C96.213 95.179 96.003 95.711 96.003 96.355C96.003 96.9896 96.213 97.5263 96.633 97.965ZM107.383 92.673C108.195 92.673 108.844 92.9343 109.329 93.457C109.824 93.9703 110.071 94.6703 110.071 95.557V99.855H108.559V95.711C108.559 95.1883 108.419 94.787 108.139 94.507C107.859 94.227 107.477 94.087 106.991 94.087C106.441 94.087 106.007 94.2596 105.689 94.605C105.372 94.941 105.213 95.4403 105.213 96.103V99.855H103.701V92.855H105.213V93.751C105.68 93.0323 106.403 92.673 107.383 92.673ZM111.422 90.055H113.102L112.122 93.695H110.862L111.422 90.055ZM114.944 94.787C114.944 95.0016 115.056 95.179 115.28 95.319C115.504 95.4496 115.831 95.5756 116.26 95.697C116.587 95.7716 116.871 95.851 117.114 95.935C117.357 96.019 117.613 96.145 117.884 96.313C118.155 96.4716 118.36 96.6863 118.5 96.957C118.649 97.2183 118.719 97.5263 118.71 97.881C118.71 98.553 118.449 99.0803 117.926 99.463C117.403 99.8456 116.755 100.037 115.98 100.037C115.289 100.037 114.697 99.8923 114.202 99.603C113.707 99.3136 113.348 98.9123 113.124 98.399L114.426 97.643C114.659 98.315 115.177 98.651 115.98 98.651C116.773 98.651 117.17 98.3896 117.17 97.867C117.17 97.4843 116.727 97.1856 115.84 96.971C115.504 96.887 115.219 96.803 114.986 96.719C114.762 96.635 114.51 96.5136 114.23 96.355C113.959 96.1963 113.749 95.9863 113.6 95.725C113.46 95.4636 113.395 95.1603 113.404 94.815C113.404 94.171 113.647 93.653 114.132 93.261C114.627 92.869 115.238 92.673 115.966 92.673C116.545 92.673 117.058 92.8036 117.506 93.065C117.963 93.317 118.313 93.6716 118.556 94.129L117.282 94.843C117.049 94.311 116.61 94.045 115.966 94.045C115.667 94.045 115.42 94.1103 115.224 94.241C115.037 94.3716 114.944 94.5536 114.944 94.787ZM125.247 90.055V98.315H129.237V99.855H123.637V90.055H125.247ZM135.659 93.849V92.855H137.171V99.855H135.659V98.847C135.09 99.6403 134.273 100.037 133.209 100.037C132.248 100.037 131.427 99.6823 130.745 98.973C130.064 98.2636 129.723 97.391 129.723 96.355C129.723 95.319 130.064 94.4463 130.745 93.737C131.427 93.0276 132.248 92.673 133.209 92.673C134.273 92.673 135.09 93.065 135.659 93.849ZM131.865 97.965C132.285 98.385 132.813 98.595 133.447 98.595C134.082 98.595 134.609 98.385 135.029 97.965C135.449 97.5356 135.659 96.999 135.659 96.355C135.659 95.711 135.449 95.179 135.029 94.759C134.609 94.3296 134.082 94.115 133.447 94.115C132.813 94.115 132.285 94.3296 131.865 94.759C131.445 95.179 131.235 95.711 131.235 96.355C131.235 96.9896 131.445 97.5263 131.865 97.965ZM143.652 96.607V92.855H145.164V99.855H143.652V98.959C143.185 99.6776 142.462 100.037 141.482 100.037C140.67 100.037 140.016 99.7803 139.522 99.267C139.036 98.7443 138.794 98.0396 138.794 97.153V92.855H140.306V96.999C140.306 97.5216 140.446 97.923 140.726 98.203C141.006 98.483 141.388 98.623 141.874 98.623C142.424 98.623 142.858 98.455 143.176 98.119C143.493 97.7736 143.652 97.2696 143.652 96.607ZM150.614 92.673C151.426 92.673 152.074 92.9343 152.56 93.457C153.054 93.9703 153.302 94.6703 153.302 95.557V99.855H151.79V95.711C151.79 95.1883 151.65 94.787 151.37 94.507C151.09 94.227 150.707 94.087 150.222 94.087C149.671 94.087 149.237 94.2596 148.92 94.605C148.602 94.941 148.444 95.4403 148.444 96.103V99.855H146.932V92.855H148.444V93.751C148.91 93.0323 149.634 92.673 150.614 92.673ZM160.474 93.849V90.055H161.986V99.855H160.474V98.847C159.905 99.6403 159.088 100.037 158.024 100.037C157.063 100.037 156.241 99.6823 155.56 98.973C154.879 98.2636 154.538 97.391 154.538 96.355C154.538 95.319 154.879 94.4463 155.56 93.737C156.241 93.0276 157.063 92.673 158.024 92.673C159.088 92.673 159.905 93.065 160.474 93.849ZM156.68 97.965C157.1 98.385 157.627 98.595 158.262 98.595C158.897 98.595 159.424 98.385 159.844 97.965C160.264 97.5356 160.474 96.999 160.474 96.355C160.474 95.711 160.264 95.179 159.844 94.759C159.424 94.3296 158.897 94.115 158.262 94.115C157.627 94.115 157.1 94.3296 156.68 94.759C156.26 95.179 156.05 95.711 156.05 96.355C156.05 96.9896 156.26 97.5263 156.68 97.965ZM165.26 92.855V94.031C165.643 93.163 166.362 92.729 167.416 92.729V94.367C166.847 94.3296 166.343 94.4696 165.904 94.787C165.475 95.095 165.26 95.6083 165.26 96.327V99.855H163.748V92.855H165.26ZM171.596 97.937L173.388 92.855H174.998L172.31 100.079C171.638 101.89 170.499 102.748 168.894 102.655V101.241C169.361 101.269 169.739 101.171 170.028 100.947C170.317 100.723 170.56 100.364 170.756 99.869L170.826 99.729L167.858 92.855H169.51L171.596 97.937Z" fill="#050308"/>
<g clip-path="url(#clip0_573_15398)">
<path d="M92.2737 114.09L89.6221 116.742L86.9704 114.09C85.506 112.625 85.506 110.251 86.9704 108.787C88.4349 107.322 90.8092 107.322 92.2737 108.787C93.7382 110.251 93.7382 112.625 92.2737 114.09ZM89.6221 112.272C90.0823 112.272 90.4554 111.898 90.4554 111.438C90.4554 110.978 90.0823 110.605 89.6221 110.605C89.1618 110.605 88.7887 110.978 88.7887 111.438C88.7887 111.898 89.1618 112.272 89.6221 112.272Z" fill="#9047FF" stroke="#050308" stroke-width="0.5"/>
</g>
<path d="M102.702 113.431V109.255H103.446V114.855H102.846L99.9661 110.671V114.855H99.2221V109.255H99.8221L102.702 113.431ZM108.412 113.175H105.06C105.129 113.527 105.292 113.804 105.548 114.007C105.804 114.204 106.124 114.303 106.508 114.303C107.036 114.303 107.42 114.108 107.66 113.719L108.252 114.055C107.857 114.658 107.271 114.959 106.492 114.959C105.863 114.959 105.345 114.762 104.94 114.367C104.545 113.962 104.348 113.458 104.348 112.855C104.348 112.247 104.543 111.746 104.932 111.351C105.321 110.951 105.825 110.751 106.444 110.751C107.031 110.751 107.508 110.959 107.876 111.375C108.249 111.78 108.436 112.276 108.436 112.863C108.436 112.964 108.428 113.068 108.412 113.175ZM106.444 111.407C106.076 111.407 105.767 111.511 105.516 111.719C105.271 111.927 105.119 112.21 105.06 112.567H107.732C107.673 112.199 107.527 111.914 107.292 111.711C107.057 111.508 106.775 111.407 106.444 111.407ZM112.912 113.903L113.792 110.855H114.52L113.28 114.855H112.568L111.632 111.895L110.696 114.855H109.984L108.744 110.855H109.472L110.352 113.895L111.296 110.855H111.968L112.912 113.903ZM117.012 112.055C117.012 111.244 117.292 110.559 117.852 109.999C118.412 109.434 119.097 109.151 119.908 109.151C120.719 109.151 121.404 109.434 121.964 109.999C122.529 110.559 122.812 111.244 122.812 112.055C122.812 112.86 122.529 113.546 121.964 114.111C121.404 114.676 120.719 114.959 119.908 114.959C119.097 114.959 118.412 114.676 117.852 114.111C117.292 113.54 117.012 112.855 117.012 112.055ZM122.068 112.055C122.068 111.436 121.86 110.919 121.444 110.503C121.039 110.082 120.527 109.871 119.908 109.871C119.295 109.871 118.78 110.082 118.364 110.503C117.953 110.924 117.748 111.442 117.748 112.055C117.748 112.663 117.953 113.18 118.364 113.607C118.78 114.023 119.295 114.231 119.908 114.231C120.527 114.231 121.039 114.023 121.444 113.607C121.86 113.18 122.068 112.663 122.068 112.055ZM125.042 112.791L127.018 114.855H126.154L124.33 112.959V114.855H123.634V109.255H124.33V112.623L126.058 110.855H126.954L125.042 112.791ZM130.675 114.351C130.269 114.756 129.771 114.959 129.179 114.959C128.587 114.959 128.088 114.756 127.683 114.351C127.277 113.946 127.075 113.447 127.075 112.855C127.075 112.263 127.277 111.764 127.683 111.359C128.088 110.954 128.587 110.751 129.179 110.751C129.771 110.751 130.269 110.954 130.675 111.359C131.085 111.77 131.291 112.268 131.291 112.855C131.291 113.442 131.085 113.94 130.675 114.351ZM129.179 114.279C129.579 114.279 129.915 114.143 130.187 113.871C130.459 113.599 130.595 113.26 130.595 112.855C130.595 112.45 130.459 112.111 130.187 111.839C129.915 111.567 129.579 111.431 129.179 111.431C128.784 111.431 128.451 111.567 128.179 111.839C127.907 112.111 127.771 112.45 127.771 112.855C127.771 113.26 127.907 113.599 128.179 113.871C128.451 114.143 128.784 114.279 129.179 114.279ZM135.103 112.735H132.183V112.063H135.103V112.735ZM136.004 112.055C136.004 111.244 136.284 110.559 136.844 109.999C137.404 109.434 138.09 109.151 138.9 109.151C139.711 109.151 140.396 109.434 140.956 109.999C141.522 110.559 141.804 111.244 141.804 112.055C141.804 112.86 141.522 113.546 140.956 114.111C140.396 114.676 139.711 114.959 138.9 114.959C138.09 114.959 137.404 114.676 136.844 114.111C136.284 113.54 136.004 112.855 136.004 112.055ZM141.06 112.055C141.06 111.436 140.852 110.919 140.436 110.503C140.031 110.082 139.519 109.871 138.9 109.871C138.287 109.871 137.772 110.082 137.356 110.503C136.946 110.924 136.74 111.442 136.74 112.055C136.74 112.663 136.946 113.18 137.356 113.607C137.772 114.023 138.287 114.231 138.9 114.231C139.519 114.231 140.031 114.023 140.436 113.607C140.852 113.18 141.06 112.663 141.06 112.055ZM144.835 110.751C145.395 110.751 145.872 110.956 146.267 111.367C146.661 111.778 146.859 112.274 146.859 112.855C146.859 113.442 146.661 113.94 146.267 114.351C145.877 114.756 145.4 114.959 144.835 114.959C144.173 114.959 143.669 114.695 143.323 114.167V114.855H142.627V109.255H143.323V111.543C143.669 111.015 144.173 110.751 144.835 110.751ZM144.747 114.287C145.147 114.287 145.483 114.151 145.755 113.879C146.027 113.596 146.163 113.255 146.163 112.855C146.163 112.45 146.027 112.111 145.755 111.839C145.483 111.562 145.147 111.423 144.747 111.423C144.341 111.423 144.003 111.562 143.731 111.839C143.459 112.111 143.323 112.45 143.323 112.855C143.323 113.255 143.459 113.596 143.731 113.879C144.003 114.151 144.341 114.287 144.747 114.287ZM151.001 111.543V110.855H151.697V114.855H151.001V114.167C150.66 114.695 150.156 114.959 149.489 114.959C148.924 114.959 148.446 114.756 148.057 114.351C147.662 113.94 147.465 113.442 147.465 112.855C147.465 112.274 147.662 111.778 148.057 111.367C148.452 110.956 148.929 110.751 149.489 110.751C150.156 110.751 150.66 111.015 151.001 111.543ZM149.577 114.287C149.982 114.287 150.321 114.151 150.593 113.879C150.865 113.596 151.001 113.255 151.001 112.855C151.001 112.45 150.865 112.111 150.593 111.839C150.321 111.562 149.982 111.423 149.577 111.423C149.177 111.423 148.841 111.562 148.569 111.839C148.297 112.111 148.161 112.45 148.161 112.855C148.161 113.255 148.297 113.596 148.569 113.879C148.841 114.151 149.177 114.287 149.577 114.287ZM152.992 114.031H153.792L153.272 115.975H152.672L152.992 114.031ZM161.327 114.855H160.535L160.079 113.599H157.559L157.103 114.855H156.311L158.399 109.255H159.239L161.327 114.855ZM158.815 110.143L157.815 112.903H159.823L158.815 110.143ZM165.142 111.543V110.855H165.83V114.687C165.83 115.279 165.63 115.738 165.23 116.063C164.825 116.394 164.345 116.559 163.79 116.559C163.342 116.559 162.955 116.474 162.63 116.303C162.305 116.138 162.059 115.898 161.894 115.583L162.502 115.239C162.721 115.687 163.155 115.911 163.806 115.911C164.222 115.911 164.547 115.802 164.782 115.583C165.022 115.364 165.142 115.066 165.142 114.687V114.119C164.79 114.652 164.289 114.919 163.638 114.919C163.062 114.919 162.579 114.716 162.19 114.311C161.795 113.9 161.598 113.407 161.598 112.831C161.598 112.255 161.795 111.764 162.19 111.359C162.579 110.954 163.062 110.751 163.638 110.751C164.294 110.751 164.795 111.015 165.142 111.543ZM165.142 112.831C165.142 112.431 165.006 112.095 164.734 111.823C164.462 111.551 164.123 111.415 163.718 111.415C163.313 111.415 162.974 111.551 162.702 111.823C162.43 112.095 162.294 112.431 162.294 112.831C162.294 113.236 162.43 113.575 162.702 113.847C162.974 114.119 163.313 114.255 163.718 114.255C164.123 114.255 164.462 114.119 164.734 113.847C165.006 113.575 165.142 113.236 165.142 112.831ZM170.724 113.175H167.372C167.442 113.527 167.604 113.804 167.86 114.007C168.116 114.204 168.436 114.303 168.82 114.303C169.348 114.303 169.732 114.108 169.972 113.719L170.564 114.055C170.17 114.658 169.583 114.959 168.804 114.959C168.175 114.959 167.658 114.762 167.252 114.367C166.858 113.962 166.66 113.458 166.66 112.855C166.66 112.247 166.855 111.746 167.244 111.351C167.634 110.951 168.138 110.751 168.756 110.751C169.343 110.751 169.82 110.959 170.188 111.375C170.562 111.78 170.748 112.276 170.748 112.863C170.748 112.964 170.74 113.068 170.724 113.175ZM168.756 111.407C168.388 111.407 168.079 111.511 167.828 111.719C167.583 111.927 167.431 112.21 167.372 112.567H170.044C169.986 112.199 169.839 111.914 169.604 111.711C169.37 111.508 169.087 111.407 168.756 111.407ZM174.861 111.543V110.855H175.549V114.687C175.549 115.279 175.349 115.738 174.949 116.063C174.543 116.394 174.063 116.559 173.509 116.559C173.061 116.559 172.674 116.474 172.349 116.303C172.023 116.138 171.778 115.898 171.613 115.583L172.221 115.239C172.439 115.687 172.874 115.911 173.525 115.911C173.941 115.911 174.266 115.802 174.501 115.583C174.741 115.364 174.861 115.066 174.861 114.687V114.119C174.509 114.652 174.007 114.919 173.357 114.919C172.781 114.919 172.298 114.716 171.909 114.311C171.514 113.9 171.317 113.407 171.317 112.831C171.317 112.255 171.514 111.764 171.909 111.359C172.298 110.954 172.781 110.751 173.357 110.751C174.013 110.751 174.514 111.015 174.861 111.543ZM174.861 112.831C174.861 112.431 174.725 112.095 174.453 111.823C174.181 111.551 173.842 111.415 173.437 111.415C173.031 111.415 172.693 111.551 172.421 111.823C172.149 112.095 172.013 112.431 172.013 112.831C172.013 113.236 172.149 113.575 172.421 113.847C172.693 114.119 173.031 114.255 173.437 114.255C173.842 114.255 174.181 114.119 174.453 113.847C174.725 113.575 174.861 113.236 174.861 112.831ZM180.443 113.175H177.091C177.161 113.527 177.323 113.804 177.579 114.007C177.835 114.204 178.155 114.303 178.539 114.303C179.067 114.303 179.451 114.108 179.691 113.719L180.283 114.055C179.889 114.658 179.302 114.959 178.523 114.959C177.894 114.959 177.377 114.762 176.971 114.367C176.577 113.962 176.379 113.458 176.379 112.855C176.379 112.247 176.574 111.746 176.963 111.351C177.353 110.951 177.857 110.751 178.475 110.751C179.062 110.751 179.539 110.959 179.907 111.375C180.281 111.78 180.467 112.276 180.467 112.863C180.467 112.964 180.459 113.068 180.443 113.175ZM178.475 111.407C178.107 111.407 177.798 111.511 177.547 111.719C177.302 111.927 177.15 112.21 177.091 112.567H179.763C179.705 112.199 179.558 111.914 179.323 111.711C179.089 111.508 178.806 111.407 178.475 111.407ZM181.187 114.031H181.987L181.467 115.975H180.867L181.187 114.031ZM185.786 109.255V114.151H188.202V114.855H185.042V109.255H185.786ZM192.032 111.543V110.855H192.728V114.855H192.032V114.167C191.691 114.695 191.187 114.959 190.52 114.959C189.955 114.959 189.478 114.756 189.088 114.351C188.694 113.94 188.496 113.442 188.496 112.855C188.496 112.274 188.694 111.778 189.088 111.367C189.483 110.956 189.96 110.751 190.52 110.751C191.187 110.751 191.691 111.015 192.032 111.543ZM190.608 114.287C191.014 114.287 191.352 114.151 191.624 113.879C191.896 113.596 192.032 113.255 192.032 112.855C192.032 112.45 191.896 112.111 191.624 111.839C191.352 111.562 191.014 111.423 190.608 111.423C190.208 111.423 189.872 111.562 189.6 111.839C189.328 112.111 189.192 112.45 189.192 112.855C189.192 113.255 189.328 113.596 189.6 113.879C189.872 114.151 190.208 114.287 190.608 114.287ZM197.103 111.543V110.855H197.791V114.687C197.791 115.279 197.591 115.738 197.191 116.063C196.786 116.394 196.306 116.559 195.751 116.559C195.303 116.559 194.916 116.474 194.591 116.303C194.266 116.138 194.02 115.898 193.855 115.583L194.463 115.239C194.682 115.687 195.116 115.911 195.767 115.911C196.183 115.911 196.508 115.802 196.743 115.583C196.983 115.364 197.103 115.066 197.103 114.687V114.119C196.751 114.652 196.25 114.919 195.599 114.919C195.023 114.919 194.54 114.716 194.151 114.311C193.756 113.9 193.559 113.407 193.559 112.831C193.559 112.255 193.756 111.764 194.151 111.359C194.54 110.954 195.023 110.751 195.599 110.751C196.255 110.751 196.756 111.015 197.103 111.543ZM197.103 112.831C197.103 112.431 196.967 112.095 196.695 111.823C196.423 111.551 196.084 111.415 195.679 111.415C195.274 111.415 194.935 111.551 194.663 111.823C194.391 112.095 194.255 112.431 194.255 112.831C194.255 113.236 194.391 113.575 194.663 113.847C194.935 114.119 195.274 114.255 195.679 114.255C196.084 114.255 196.423 114.119 196.695 113.847C196.967 113.575 197.103 113.236 197.103 112.831ZM202.221 114.351C201.816 114.756 201.317 114.959 200.725 114.959C200.133 114.959 199.635 114.756 199.229 114.351C198.824 113.946 198.621 113.447 198.621 112.855C198.621 112.263 198.824 111.764 199.229 111.359C199.635 110.954 200.133 110.751 200.725 110.751C201.317 110.751 201.816 110.954 202.221 111.359C202.632 111.77 202.837 112.268 202.837 112.855C202.837 113.442 202.632 113.94 202.221 114.351ZM200.725 114.279C201.125 114.279 201.461 114.143 201.733 113.871C202.005 113.599 202.141 113.26 202.141 112.855C202.141 112.45 202.005 112.111 201.733 111.839C201.461 111.567 201.125 111.431 200.725 111.431C200.331 111.431 199.997 111.567 199.725 111.839C199.453 112.111 199.317 112.45 199.317 112.855C199.317 113.26 199.453 113.599 199.725 113.871C199.997 114.143 200.331 114.279 200.725 114.279ZM204.172 111.935C204.172 112.191 204.436 112.391 204.964 112.535C205.161 112.578 205.327 112.623 205.46 112.671C205.599 112.714 205.748 112.78 205.908 112.871C206.073 112.962 206.199 113.082 206.284 113.231C206.369 113.38 206.412 113.556 206.412 113.759C206.412 114.122 206.271 114.412 205.988 114.631C205.705 114.85 205.348 114.959 204.916 114.959C204.532 114.959 204.199 114.876 203.916 114.711C203.639 114.54 203.441 114.311 203.324 114.023L203.924 113.679C203.988 113.871 204.108 114.023 204.284 114.135C204.46 114.247 204.671 114.303 204.916 114.303C205.156 114.303 205.348 114.258 205.492 114.167C205.636 114.076 205.708 113.94 205.708 113.759C205.708 113.487 205.444 113.29 204.916 113.167C204.74 113.119 204.607 113.082 204.516 113.055C204.425 113.028 204.3 112.98 204.14 112.911C203.985 112.842 203.868 112.77 203.788 112.695C203.708 112.615 203.633 112.511 203.564 112.383C203.5 112.25 203.468 112.103 203.468 111.943C203.468 111.596 203.601 111.311 203.868 111.087C204.14 110.863 204.479 110.751 204.884 110.751C205.209 110.751 205.497 110.826 205.748 110.975C206.004 111.119 206.196 111.322 206.324 111.583L205.74 111.911C205.596 111.57 205.311 111.399 204.884 111.399C204.681 111.399 204.511 111.447 204.372 111.543C204.239 111.639 204.172 111.77 204.172 111.935ZM211.116 114.959C210.593 114.959 210.145 114.839 209.772 114.599C209.404 114.354 209.145 114.015 208.996 113.583L209.636 113.215C209.849 113.892 210.348 114.231 211.132 114.231C211.511 114.231 211.801 114.154 212.004 113.999C212.212 113.844 212.316 113.634 212.316 113.367C212.316 113.106 212.215 112.906 212.012 112.767C211.831 112.644 211.492 112.503 210.996 112.343L210.46 112.167C210.343 112.119 210.188 112.05 209.996 111.959C209.809 111.863 209.673 111.767 209.588 111.671C209.353 111.415 209.236 111.103 209.236 110.735C209.236 110.244 209.407 109.86 209.748 109.583C210.089 109.295 210.505 109.151 210.996 109.151C211.433 109.151 211.817 109.26 212.148 109.479C212.479 109.698 212.727 109.996 212.892 110.375L212.268 110.735C212.028 110.159 211.604 109.871 210.996 109.871C210.692 109.871 210.447 109.946 210.26 110.095C210.073 110.244 209.98 110.447 209.98 110.703C209.98 110.948 210.068 111.135 210.244 111.263C210.425 111.396 210.729 111.53 211.156 111.663L211.484 111.767C211.665 111.836 211.764 111.874 211.78 111.879C211.951 111.943 212.137 112.031 212.34 112.143C212.484 112.223 212.628 112.346 212.772 112.511C212.959 112.698 213.052 112.978 213.052 113.351C213.052 113.842 212.873 114.234 212.516 114.527C212.153 114.815 211.687 114.959 211.116 114.959ZM215.92 110.855V111.527H214.856V113.695C214.856 113.892 214.893 114.034 214.968 114.119C215.048 114.199 215.168 114.242 215.328 114.247C215.488 114.247 215.685 114.242 215.92 114.231V114.855C215.306 114.935 214.858 114.884 214.576 114.703C214.298 114.522 214.16 114.186 214.16 113.695V111.527H213.368V110.855H214.16V109.943L214.856 109.735V110.855H215.92ZM219.853 111.543V110.855H220.549V114.855H219.853V114.167C219.511 114.695 219.007 114.959 218.341 114.959C217.775 114.959 217.298 114.756 216.909 114.351C216.514 113.94 216.317 113.442 216.317 112.855C216.317 112.274 216.514 111.778 216.909 111.367C217.303 110.956 217.781 110.751 218.341 110.751C219.007 110.751 219.511 111.015 219.853 111.543ZM218.429 114.287C218.834 114.287 219.173 114.151 219.445 113.879C219.717 113.596 219.853 113.255 219.853 112.855C219.853 112.45 219.717 112.111 219.445 111.839C219.173 111.562 218.834 111.423 218.429 111.423C218.029 111.423 217.693 111.562 217.421 111.839C217.149 112.111 217.013 112.45 217.013 112.855C217.013 113.255 217.149 113.596 217.421 113.879C217.693 114.151 218.029 114.287 218.429 114.287ZM223.779 110.855V111.527H222.715V113.695C222.715 113.892 222.753 114.034 222.827 114.119C222.907 114.199 223.027 114.242 223.187 114.247C223.347 114.247 223.545 114.242 223.779 114.231V114.855C223.166 114.935 222.718 114.884 222.435 114.703C222.158 114.522 222.019 114.186 222.019 113.695V111.527H221.227V110.855H222.019V109.943L222.715 109.735V110.855H223.779ZM228.24 113.175H224.888C224.957 113.527 225.12 113.804 225.376 114.007C225.632 114.204 225.952 114.303 226.336 114.303C226.864 114.303 227.248 114.108 227.488 113.719L228.08 114.055C227.685 114.658 227.099 114.959 226.32 114.959C225.691 114.959 225.173 114.762 224.768 114.367C224.373 113.962 224.176 113.458 224.176 112.855C224.176 112.247 224.371 111.746 224.76 111.351C225.149 110.951 225.653 110.751 226.272 110.751C226.859 110.751 227.336 110.959 227.704 111.375C228.077 111.78 228.264 112.276 228.264 112.863C228.264 112.964 228.256 113.068 228.24 113.175ZM226.272 111.407C225.904 111.407 225.595 111.511 225.344 111.719C225.099 111.927 224.947 112.21 224.888 112.567H227.56C227.501 112.199 227.355 111.914 227.12 111.711C226.885 111.508 226.603 111.407 226.272 111.407Z" fill="#667085"/>
<g clip-path="url(#clip1_573_15398)">
<path d="M93.7904 128.188H90.0404C89.8102 128.188 89.6237 128.375 89.6237 128.605V131.105C89.6237 131.335 89.8102 131.522 90.0404 131.522H93.7904V133.188C93.7904 133.418 93.6038 133.605 93.3737 133.605H85.8737C85.6436 133.605 85.457 133.418 85.457 133.188V126.522C85.457 126.292 85.6436 126.105 85.8737 126.105H93.3737C93.6038 126.105 93.7904 126.292 93.7904 126.522V128.188ZM90.8737 129.438H92.1237V130.272H90.8737V129.438Z" fill="#F8BB1C" stroke="black" stroke-width="0.5"/>
</g>
<path d="M102.462 126.255V127.135H100.102V128.703H102.382V129.583H100.102V131.855H99.1821V126.255H102.462ZM104.131 127.855V128.527C104.349 128.031 104.76 127.783 105.363 127.783V128.719C105.037 128.698 104.749 128.778 104.499 128.959C104.253 129.135 104.131 129.428 104.131 129.839V131.855H103.267V127.855H104.131ZM109.198 131.351C108.792 131.756 108.294 131.959 107.702 131.959C107.11 131.959 106.611 131.756 106.206 131.351C105.795 130.94 105.59 130.442 105.59 129.855C105.59 129.268 105.795 128.77 106.206 128.359C106.611 127.954 107.11 127.751 107.702 127.751C108.294 127.751 108.792 127.954 109.198 128.359C109.608 128.77 109.814 129.268 109.814 129.855C109.814 130.442 109.608 130.94 109.198 131.351ZM106.454 129.855C106.454 130.218 106.574 130.519 106.814 130.759C107.054 130.999 107.35 131.119 107.702 131.119C108.054 131.119 108.35 130.999 108.59 130.759C108.83 130.519 108.95 130.218 108.95 129.855C108.95 129.492 108.83 129.191 108.59 128.951C108.35 128.711 108.054 128.591 107.702 128.591C107.35 128.591 107.054 128.711 106.814 128.951C106.574 129.191 106.454 129.492 106.454 129.855ZM114.963 127.751C115.416 127.751 115.781 127.898 116.059 128.191C116.336 128.484 116.475 128.879 116.475 129.375V131.855H115.611V129.431C115.611 129.159 115.541 128.946 115.403 128.791C115.264 128.636 115.075 128.559 114.835 128.559C114.563 128.559 114.349 128.65 114.195 128.831C114.04 129.007 113.963 129.268 113.963 129.615V131.855H113.099V129.431C113.099 129.154 113.032 128.94 112.899 128.791C112.771 128.636 112.587 128.559 112.347 128.559C112.08 128.559 111.864 128.65 111.699 128.831C111.539 129.012 111.459 129.274 111.459 129.615V131.855H110.595V127.855H111.459V128.335C111.715 127.946 112.096 127.751 112.603 127.751C113.115 127.751 113.493 127.962 113.739 128.383C114 127.962 114.408 127.751 114.963 127.751ZM119.44 131.855V129.879H118.976V129.287H119.44V128.711H118.976V128.119H119.44V126.143H120.696L121.32 128.119H122.048V126.143H122.936V128.119H123.392V128.711H122.936V129.287H123.392V129.879H122.936V131.855H121.672L121.032 129.879H120.328V131.855H119.44ZM120.296 128.119H120.52L120.288 127.351H120.256L120.296 128.119ZM120.328 129.287H120.856L120.68 128.711H120.312L120.328 129.287ZM121.696 129.287H122.064L122.048 128.711H121.512L121.696 129.287ZM122.072 130.607H122.112L122.08 129.879H121.864L122.072 130.607ZM124.97 128.367H125.674C126.207 128.367 126.658 128.527 127.026 128.847C127.394 129.162 127.578 129.599 127.578 130.159C127.578 130.719 127.388 131.159 127.01 131.479C126.636 131.799 126.172 131.959 125.618 131.959C125.164 131.959 124.77 131.855 124.434 131.647C124.098 131.439 123.858 131.143 123.714 130.759L124.506 130.303C124.66 130.81 125.031 131.063 125.618 131.063C125.932 131.063 126.183 130.983 126.37 130.823C126.562 130.658 126.658 130.436 126.658 130.159C126.658 129.887 126.564 129.671 126.378 129.511C126.191 129.346 125.943 129.263 125.634 129.263H124.002L124.218 126.255H127.338V127.119H125.066L124.97 128.367ZM131.844 131.167C131.46 131.695 130.921 131.959 130.228 131.959C129.54 131.959 128.999 131.695 128.604 131.167C128.22 130.639 128.028 129.935 128.028 129.055C128.028 128.175 128.22 127.471 128.604 126.943C128.999 126.415 129.54 126.151 130.228 126.151C130.921 126.151 131.46 126.415 131.844 126.943C132.233 127.466 132.428 128.17 132.428 129.055C132.428 129.94 132.233 130.644 131.844 131.167ZM130.228 131.063C130.644 131.063 130.961 130.89 131.18 130.543C131.399 130.196 131.508 129.7 131.508 129.055C131.508 128.41 131.399 127.914 131.18 127.567C130.961 127.22 130.644 127.047 130.228 127.047C129.817 127.047 129.5 127.22 129.276 127.567C129.057 127.914 128.948 128.41 128.948 129.055C128.948 129.7 129.057 130.196 129.276 130.543C129.5 130.89 129.817 131.063 130.228 131.063ZM137.515 127.751C138.059 127.751 138.528 127.956 138.923 128.367C139.312 128.772 139.507 129.268 139.507 129.855C139.507 130.447 139.312 130.946 138.923 131.351C138.534 131.756 138.064 131.959 137.515 131.959C136.912 131.959 136.446 131.735 136.115 131.287V133.455H135.251V127.855H136.115V128.431C136.44 127.978 136.907 127.751 137.515 127.751ZM136.475 130.775C136.715 131.015 137.016 131.135 137.379 131.135C137.742 131.135 138.043 131.015 138.283 130.775C138.523 130.53 138.643 130.223 138.643 129.855C138.643 129.487 138.523 129.183 138.283 128.943C138.043 128.698 137.742 128.575 137.379 128.575C137.016 128.575 136.715 128.698 136.475 128.943C136.235 129.183 136.115 129.487 136.115 129.855C136.115 130.218 136.235 130.524 136.475 130.775ZM144.154 130.223H140.97C141.034 130.522 141.178 130.754 141.402 130.919C141.631 131.084 141.914 131.167 142.25 131.167C142.703 131.167 143.047 131.002 143.282 130.671L143.994 131.087C143.605 131.668 143.021 131.959 142.242 131.959C141.597 131.959 141.071 131.762 140.666 131.367C140.266 130.967 140.066 130.463 140.066 129.855C140.066 129.263 140.263 128.764 140.658 128.359C141.047 127.954 141.554 127.751 142.178 127.751C142.759 127.751 143.239 127.956 143.618 128.367C143.997 128.778 144.186 129.276 144.186 129.863C144.186 129.97 144.175 130.09 144.154 130.223ZM140.962 129.519H143.314C143.255 129.204 143.122 128.962 142.914 128.791C142.711 128.62 142.463 128.535 142.17 128.535C141.85 128.535 141.583 128.623 141.37 128.799C141.157 128.975 141.021 129.215 140.962 129.519ZM145.81 127.855V128.527C146.029 128.031 146.44 127.783 147.042 127.783V128.719C146.717 128.698 146.429 128.778 146.178 128.959C145.933 129.135 145.81 129.428 145.81 129.839V131.855H144.946V127.855H145.81ZM151.569 131.959C150.966 131.959 150.462 131.756 150.057 131.351C149.657 130.94 149.457 130.442 149.457 129.855C149.457 129.258 149.657 128.759 150.057 128.359C150.462 127.954 150.966 127.751 151.569 127.751C151.958 127.751 152.313 127.844 152.633 128.031C152.953 128.218 153.193 128.468 153.353 128.783L152.609 129.215C152.518 129.023 152.379 128.874 152.193 128.767C152.011 128.655 151.801 128.599 151.561 128.599C151.209 128.599 150.913 128.719 150.673 128.959C150.438 129.204 150.321 129.503 150.321 129.855C150.321 130.207 150.438 130.506 150.673 130.751C150.913 130.991 151.209 131.111 151.561 131.111C151.795 131.111 152.006 131.058 152.193 130.951C152.385 130.839 152.529 130.687 152.625 130.495L153.369 130.919C153.198 131.239 152.95 131.492 152.625 131.679C152.305 131.866 151.953 131.959 151.569 131.959ZM154.857 131.855H153.993V126.015H154.857V131.855ZM159.244 131.351C158.839 131.756 158.34 131.959 157.748 131.959C157.156 131.959 156.658 131.756 156.252 131.351C155.842 130.94 155.636 130.442 155.636 129.855C155.636 129.268 155.842 128.77 156.252 128.359C156.658 127.954 157.156 127.751 157.748 127.751C158.34 127.751 158.839 127.954 159.244 128.359C159.655 128.77 159.86 129.268 159.86 129.855C159.86 130.442 159.655 130.94 159.244 131.351ZM156.5 129.855C156.5 130.218 156.62 130.519 156.86 130.759C157.1 130.999 157.396 131.119 157.748 131.119C158.1 131.119 158.396 130.999 158.636 130.759C158.876 130.519 158.996 130.218 158.996 129.855C158.996 129.492 158.876 129.191 158.636 128.951C158.396 128.711 158.1 128.591 157.748 128.591C157.396 128.591 157.1 128.711 156.86 128.951C156.62 129.191 156.5 129.492 156.5 129.855ZM162.796 127.855V128.687H161.804V130.607C161.804 130.772 161.841 130.892 161.916 130.967C161.99 131.036 162.1 131.076 162.244 131.087C162.393 131.092 162.577 131.09 162.796 131.079V131.855C162.134 131.935 161.66 131.879 161.372 131.687C161.084 131.49 160.94 131.13 160.94 130.607V128.687H160.204V127.855H160.94V126.991L161.804 126.735V127.855H162.796ZM165.683 127.751C166.147 127.751 166.518 127.9 166.795 128.199C167.078 128.492 167.219 128.892 167.219 129.399V131.855H166.355V129.487C166.355 129.188 166.275 128.959 166.115 128.799C165.955 128.639 165.737 128.559 165.459 128.559C165.145 128.559 164.897 128.658 164.715 128.855C164.534 129.047 164.443 129.332 164.443 129.711V131.855H163.579V126.255H164.443V128.367C164.71 127.956 165.123 127.751 165.683 127.751Z" fill="#050308"/>
<g filter="url(#filter1_b_573_15398)">
<path fill-rule="evenodd" clip-rule="evenodd" d="M103.877 67.4531C79.8526 67.4531 60.377 86.9287 60.377 110.953C60.377 134.978 79.8526 154.453 103.877 154.453H369.877C393.901 154.453 413.377 134.978 413.377 110.953C413.377 86.9287 393.901 67.4531 369.877 67.4531H103.877ZM84.376 123.453C81.0623 123.453 78.376 126.139 78.376 129.453C78.376 132.767 81.0623 135.453 84.376 135.453H165.319C168.633 135.453 171.319 132.767 171.319 129.453C171.319 126.139 168.633 123.453 165.319 123.453H84.376Z" fill="white" fill-opacity="0.2"/>
</g>
</g>
<defs>
<filter id="filter0_d_573_15398" x="0" y="0" width="490" height="214" filterUnits="userSpaceOnUse" color-interpolation-filters="sRGB">
<feFlood flood-opacity="0" result="BackgroundImageFix"/>
<feColorMatrix in="SourceAlpha" type="matrix" values="0 0 0 0 0 0 0 0 0 0 0 0 0 0 0 0 0 0 127 0" result="hardAlpha"/>
<feOffset dx="16" dy="16"/>
<feComposite in2="hardAlpha" operator="out"/>
<feColorMatrix type="matrix" values="0 0 0 0 0 0 0 0 0 0 0 0 0 0 0 0 0 0 1 0"/>
<feBlend mode="normal" in2="BackgroundImageFix" result="effect1_dropShadow_573_15398"/>
<feBlend mode="normal" in="SourceGraphic" in2="effect1_dropShadow_573_15398" result="shape"/>
</filter>
<filter id="filter1_b_573_15398" x="58.377" y="65.4531" width="357" height="91" filterUnits="userSpaceOnUse" color-interpolation-filters="sRGB">
<feFlood flood-opacity="0" result="BackgroundImageFix"/>
<feGaussianBlur in="BackgroundImageFix" stdDeviation="1"/>
<feComposite in2="SourceAlpha" operator="in" result="effect1_backgroundBlur_573_15398"/>
<feBlend mode="normal" in="SourceGraphic" in2="effect1_backgroundBlur_573_15398" result="shape"/>
</filter>
<clipPath id="clip0_573_15398">
<rect width="10" height="10" fill="white" transform="translate(84.6221 106.855)"/>
</clipPath>
<clipPath id="clip1_573_15398">
<rect width="10" height="10" fill="white" transform="translate(84.6221 124.855)"/>
</clipPath>
</defs>
</svg>
