<svg width="490" height="214" viewBox="0 0 490 214" fill="none" xmlns="http://www.w3.org/2000/svg">
<g filter="url(#filter0_d_639_3402)">
<rect x="4" y="4" width="466" height="190" rx="95" fill="#FFFCF3"/>
<rect x="2" y="2" width="470" height="194" rx="97" stroke="#110F0A" stroke-width="4"/>
</g>
<mask id="mask0_639_3402" style="mask-type:alpha" maskUnits="userSpaceOnUse" x="4" y="4" width="466" height="190">
<rect x="4" y="4" width="466" height="190" rx="95" fill="#FFFCF3"/>
</mask>
<g mask="url(#mask0_639_3402)">
<path d="M349.268 109.959C353.868 82.1851 317.767 47.9036 317.767 47.9036L318.205 45.3449C316.535 37.4237 319.993 27.4988 322.4 21.923C323.2 21.9901 324.275 21.8704 325.697 21.3651L330.955 20.5735C330.955 20.5735 336.644 20.5005 334.124 25.904L324.035 43.0024L322.479 45.1843L324.456 47.6787C324.456 47.6787 391.383 98.5825 346.45 140.528C336.037 150.249 325.779 155.089 316.161 156.786C303.572 151.922 294.976 146.571 313.439 145.295C325.157 144.486 333.09 140.496 338.452 135.502" fill="#091931"/>
<path d="M349.713 111.183C349.561 113.292 349.377 115.704 348.606 118.739C347.992 121.16 347.224 123.108 346.619 124.464C345.241 127.358 342.764 131.579 338.453 135.501C334.542 139.065 330.724 140.923 328.951 141.699C325.54 143.195 322.418 143.887 319.289 144.582C317.309 145.02 317.087 144.985 313.164 145.716C303.234 147.567 302.883 148.131 302.804 148.441C302.527 149.533 304.563 151.747 316.161 156.785C284.266 162.423 259.413 133.533 259.413 133.533C259.413 133.533 254.982 84.5742 298.736 48.5285L300.701 45.2076L288.671 25.0394C288.671 25.0394 287.377 21.7242 291.626 20.4274L294.448 20.9707L304.025 44.3372L294.439 61.421C294.439 61.421 292.608 65.0808 295.748 62.1191L309.516 44.4248L305.465 18.3507L309.274 14.5945C309.274 14.5945 311.795 12.29 313.813 14.5945L320.294 20.9327C320.294 20.9327 320.805 21.7943 322.4 21.9229C319.993 27.4987 316.535 37.4236 318.206 45.3448L317.768 47.9035C324.556 54.5483 329.559 60.7346 333.041 65.4692C337.153 71.0567 343.45 79.7403 347.037 90.5999C349.362 97.639 349.718 103.086 349.8 104.754C349.935 107.57 349.794 110.047 349.713 111.183Z" fill="#13376B"/>
<path d="M309.516 44.4247L295.748 62.1189C292.608 65.0806 294.439 61.4209 294.439 61.4209L304.025 44.337L294.448 20.9705L299.478 21.9403C299.478 21.9403 302.071 22.8778 303.727 20.068L305.465 18.3506L309.516 44.4247Z" fill="#091931"/>
<path d="M323.82 42.7861H299.478C298.064 42.7861 296.919 43.9317 296.919 45.3448C296.919 46.7578 298.064 47.9034 299.478 47.9034H323.82C325.233 47.9034 326.378 46.7578 326.378 45.3448C326.378 43.9317 325.233 42.7861 323.82 42.7861Z" fill="#F8BB1C"/>
<path d="M300.933 100.709V98.2275H301.525L302.573 99.647V98.2275H303.208V100.709H302.633L301.567 99.3105V100.709H300.933Z" fill="#F8BB1C"/>
<path d="M293.513 85.1904H332.906" stroke="#F8BB1C" stroke-width="3.21289" stroke-miterlimit="10"/>
<path d="M293.513 94.7036H332.906" stroke="#F8BB1C" stroke-width="3.21289" stroke-miterlimit="10"/>
<path d="M262.249 62.6887H254.518V69.0035H262.249V62.6887Z" fill="#102C57"/>
<path d="M230.583 72.338L226.419 76.5017L230.885 80.9669L235.048 76.8032L230.583 72.338Z" fill="#102C57"/>
<path d="M224.543 67.8834L221.962 70.4651C221.075 71.3513 221.075 72.7883 221.962 73.6746L225.087 76.7994C225.973 77.6857 227.41 77.6857 228.296 76.7994L230.878 74.2178C231.764 73.3315 231.764 71.8945 230.878 71.0083L227.753 67.8834C226.867 66.9971 225.43 66.9971 224.543 67.8834Z" fill="#1F457D"/>
<path d="M291.745 76.3436L287.779 71.9905L283.111 76.2429L287.076 80.596L291.745 76.3436Z" fill="#0D2345"/>
<path d="M296.48 70.518L294.021 67.8189C293.177 66.8923 291.742 66.8253 290.815 67.6694L287.548 70.6453C286.621 71.4893 286.554 72.9247 287.398 73.8513L289.857 76.5504C290.701 77.477 292.136 77.5439 293.063 76.6999L296.33 73.724C297.257 72.88 297.324 71.4446 296.48 70.518Z" fill="#255396"/>
<path d="M262.944 55.8276H253.822C252.959 55.8276 252.259 56.5273 252.259 57.3903V61.4736C252.259 62.3366 252.959 63.0362 253.822 63.0362H262.944C263.807 63.0362 264.506 62.3366 264.506 61.4736V57.3903C264.506 56.5273 263.807 55.8276 262.944 55.8276Z" fill="#102C57"/>
<path d="M259.109 145.578C280.786 145.578 298.359 128.006 298.359 106.328C298.359 84.6514 280.786 67.0786 259.109 67.0786C237.432 67.0786 219.859 84.6514 219.859 106.328C219.859 128.006 237.432 145.578 259.109 145.578Z" fill="#091931"/>
<path d="M259.109 141.378C278.11 141.378 293.513 125.975 293.513 106.974C293.513 87.9729 278.11 72.5696 259.109 72.5696C240.108 72.5696 224.705 87.9729 224.705 106.974C224.705 125.975 240.108 141.378 259.109 141.378Z" fill="white"/>
<path d="M293.811 106.699H258.382V72.5783C258.589 72.5725 258.797 72.5696 259.004 72.5696C278.086 72.5696 293.583 87.8133 293.814 106.699H293.811Z" fill="#F8BB1C"/>
<path opacity="0.36" d="M226.662 108.364C226.662 119.513 231.963 129.423 240.185 135.706C230.859 129.558 224.705 118.984 224.705 106.974C224.705 87.9739 240.106 72.5696 259.109 72.5696C266.957 72.5696 274.189 75.1954 279.978 79.6233C274.551 76.0424 268.052 73.9599 261.066 73.9599C242.063 73.9599 226.662 89.3642 226.662 108.364Z" fill="black"/>
<path d="M260.05 75.6628H258.382V82.0068H260.05V75.6628Z" fill="#091931"/>
<path d="M286.52 91.7778L285.687 90.3335L280.192 93.5055L281.026 94.9498L286.52 91.7778Z" fill="#091931"/>
<path d="M238.211 119.667L237.377 118.223L231.883 121.395L232.717 122.839L238.211 119.667Z" fill="#091931"/>
<path d="M275.463 80.1459L274.019 79.312L270.847 84.8061L272.291 85.64L275.463 80.1459Z" fill="#091931"/>
<path d="M244.425 79.4308L242.98 80.2646L246.152 85.7587L247.597 84.9248L244.425 79.4308Z" fill="#091931"/>
<path d="M272.212 127.559L270.768 128.393L273.94 133.887L275.384 133.053L272.212 127.559Z" fill="#091931"/>
<path d="M232.72 90.2925L231.886 91.7368L237.38 94.9088L238.214 93.4645L232.72 90.2925Z" fill="#091931"/>
<path d="M228.128 105.867V107.535H234.472V105.867H228.128Z" fill="#091931"/>
<path d="M283.749 105.867V107.535H290.093V105.867H283.749Z" fill="#091931"/>
<path d="M280.865 118.089L280.031 119.533L285.525 122.705L286.359 121.261L280.865 118.089Z" fill="#091931"/>
<path d="M259.252 82.9502C259.001 82.9502 258.794 83.1517 258.788 83.4029L257.967 111.06C257.958 111.323 258.169 111.539 258.431 111.539H260.143C260.406 111.539 260.616 111.32 260.607 111.057L259.717 83.4C259.708 83.1488 259.503 82.9502 259.252 82.9502Z" fill="#091931"/>
<path d="M282.662 106.483C282.662 106.232 282.461 106.025 282.209 106.019L254.552 105.198C254.289 105.189 254.073 105.4 254.073 105.662V107.374C254.073 107.637 254.292 107.847 254.555 107.838L282.212 106.948C282.464 106.939 282.662 106.734 282.662 106.483Z" fill="#091931"/>
<path d="M259.153 109.407C260.748 109.407 262.042 108.114 262.042 106.518C262.042 104.923 260.748 103.63 259.153 103.63C257.557 103.63 256.264 104.923 256.264 106.518C256.264 108.114 257.557 109.407 259.153 109.407Z" fill="#091931"/>
<path d="M259.153 108.148C260.053 108.148 260.783 107.418 260.783 106.518C260.783 105.618 260.053 104.888 259.153 104.888C258.253 104.888 257.523 105.618 257.523 106.518C257.523 107.418 258.253 108.148 259.153 108.148Z" fill="#163C75"/>
<path d="M253.854 56.1431V62.7207" stroke="#091931" stroke-width="0.876243" stroke-miterlimit="10"/>
<path d="M256.147 56.1431V62.7207" stroke="#091931" stroke-width="0.876243" stroke-miterlimit="10"/>
<path d="M258.516 56.1431V62.7207" stroke="#091931" stroke-width="0.876243" stroke-miterlimit="10"/>
<path d="M260.639 56.1431V62.7207" stroke="#091931" stroke-width="0.876243" stroke-miterlimit="10"/>
<path d="M262.912 56.1431V62.7207" stroke="#091931" stroke-width="0.876243" stroke-miterlimit="10"/>
<path d="M191.01 133.693L200.631 130.738C200.631 130.738 203.526 129.823 205.658 127.671C206.736 126.584 207.96 125.652 209.347 125.004C213.004 123.289 220.315 120.783 230.9 121.408C230.9 121.408 248.728 122.653 265.622 131.669L273.024 133.69C273.024 133.69 275.95 134.987 285.13 134.654C289.357 134.833 293.154 135.034 296.446 135.227C300.59 135.472 302.395 135.618 304.746 136.27C307.834 137.125 310.211 138.399 311.774 139.374C312.381 139.807 313.1 140.405 313.807 141.212C314.905 142.468 315.533 143.723 315.895 144.626C316.363 144.597 316.874 144.591 317.426 144.623C318.594 144.69 319.602 144.912 320.405 145.158C320.405 145.158 328.791 139.751 345.337 139.973C345.337 139.973 346.876 138.746 348.413 138.428C348.413 138.428 350.18 137.067 351.859 134.663C351.859 134.663 361.384 132.694 366.162 134.663C366.162 134.663 369.27 135.989 369.875 136.813C369.875 136.813 376.765 137.949 374.703 145.155C374.703 145.155 375.626 147.068 360.662 150.917C345.699 154.767 329.068 162.303 329.068 162.303C329.068 162.303 289.991 173.367 284.993 177.844C284.993 177.844 279.303 180.862 269.863 180.05C269.863 180.05 259.813 179.492 250.472 179.693C250.472 179.693 233.818 176.749 223.037 175.335C223.037 175.335 207.086 172.882 196.823 175.224L193.245 173.305L189.997 144.892L191.013 133.688L191.01 133.693Z" fill="#9E653B"/>
<path d="M199.422 168.279L192.088 169.129L189.769 169.397L185.134 130.647L186.518 130.428L186.991 130.364L193.972 129.397C193.972 129.397 198.397 151.747 199.422 168.279Z" fill="#D0D5DD"/>
<path d="M192.326 180.456C192.282 181.282 192.22 182.094 192.133 182.886C191.996 184.153 189.921 185.184 187.236 185.327L-13.2783 195.93V180.248L186.806 169.397L191.753 169.129C192.27 173.069 192.5 176.907 192.326 180.456Z" fill="#091931"/>
<path d="M191.753 169.129L186.806 169.397L-13.2783 180.248V135.288L178.405 124.643C181.203 124.488 183.788 125.37 184.324 126.67C184.704 127.584 185.184 128.752 185.726 130.128C189.003 138.435 189.871 154.618 191.753 169.129Z" fill="#13376B"/>
<path d="M248.454 160.396C248.454 160.396 266.408 157.381 275.167 159.154C276.812 159.487 278.485 159.642 280.162 159.674C286.077 159.785 298.633 159.753 308.573 157.895C312.568 157.151 315.793 154.063 316.482 150.059C316.508 149.913 316.529 149.767 316.549 149.615C317.101 145.234 314.598 141.714 312.6 140.008C312.148 139.62 311.783 139.38 311.289 139.053C311.289 139.053 308.082 136.93 303.479 135.975C299.763 135.204 289.941 134.421 276.794 134.798" stroke="#52341E" stroke-width="1.16832" stroke-miterlimit="10"/>
<path d="M299.548 140.762C299.548 140.762 310.212 137.984 314.099 144.649C317.987 151.315 309.029 154.563 309.029 154.563C309.029 154.563 302.305 155.862 299.802 155.027C299.802 155.027 298.66 154.609 298.508 149.556C298.49 148.958 298.444 148.362 298.385 147.766C298.219 146.078 298.061 142.418 299.548 140.759V140.762Z" fill="#F5B49D" stroke="#291A0F" stroke-width="0.219061" stroke-miterlimit="10"/>
<path d="M361.323 150.216C361.323 150.216 360.85 148.739 362.325 147.845L367.915 144.734C367.915 144.734 371.131 144.048 371.289 145.526C371.289 145.526 370.392 147.897 361.323 150.219V150.216Z" fill="#F5B49D"/>
<path d="M364.404 149.924C364.404 149.924 372.208 147.868 374.793 145.864C374.793 145.864 374.478 144.757 372.208 145.23C372.208 145.23 370.345 147.266 368.049 147.865L364.404 149.095V149.924Z" fill="#F5B49D"/>
<path d="M199.419 179.316L192.357 180.455C192.438 176.907 192.33 173.069 192.088 169.129L199.422 168.279C199.685 172.49 199.729 176.325 199.419 179.316Z" fill="#95989E"/>
</g>
<defs>
<filter id="filter0_d_639_3402" x="0" y="0" width="490" height="214" filterUnits="userSpaceOnUse" color-interpolation-filters="sRGB">
<feFlood flood-opacity="0" result="BackgroundImageFix"/>
<feColorMatrix in="SourceAlpha" type="matrix" values="0 0 0 0 0 0 0 0 0 0 0 0 0 0 0 0 0 0 127 0" result="hardAlpha"/>
<feOffset dx="16" dy="16"/>
<feComposite in2="hardAlpha" operator="out"/>
<feColorMatrix type="matrix" values="0 0 0 0 0 0 0 0 0 0 0 0 0 0 0 0 0 0 1 0"/>
<feBlend mode="normal" in2="BackgroundImageFix" result="effect1_dropShadow_639_3402"/>
<feBlend mode="normal" in="SourceGraphic" in2="effect1_dropShadow_639_3402" result="shape"/>
</filter>
</defs>
</svg>
