<svg width="490" height="214" viewBox="0 0 490 214" fill="none" xmlns="http://www.w3.org/2000/svg">
<g filter="url(#filter0_d_482_11152)">
<rect x="4" y="4" width="466" height="190" rx="95" fill="#F4F8FE"/>
<rect x="2" y="2" width="470" height="194" rx="97" stroke="#110F0A" stroke-width="4"/>
</g>
<mask id="mask0_482_11152" style="mask-type:alpha" maskUnits="userSpaceOnUse" x="0" y="0" width="474" height="198">
<rect x="2" y="2" width="470" height="194" rx="97" fill="#F4F8FE" stroke="#110F0A" stroke-width="4"/>
</mask>
<g mask="url(#mask0_482_11152)">
<path d="M352.528 48.2832L352.528 48.2827C352.429 47.2019 352.363 46.1096 352.363 45.0127V45.0085C352.363 33.1065 362.008 23.462 373.91 23.462C374.157 23.462 374.419 23.4797 374.652 23.4955C374.756 23.5026 374.856 23.5093 374.945 23.5138C374.945 23.5138 374.946 23.5138 374.946 23.5139L374.914 24.1511C379.836 24.3851 384.302 26.3122 387.757 29.375C392.074 33.2036 394.814 38.7806 394.814 45.0085C394.814 60.6461 383.481 76.3604 377.504 83.5624L352.528 48.2832ZM352.528 48.2832C353.012 53.5207 354.584 58.6509 356.672 63.3877C359.055 68.8025 362.1 73.7199 364.937 77.7087L364.937 77.7087M352.528 48.2832L364.937 77.7087M364.937 77.7087C367.191 80.8766 369.317 83.4676 370.879 85.2675M364.937 77.7087L370.879 85.2675M373.906 87.6377L373.452 88.087L373.91 88.548L374.363 88.083L373.906 87.6377ZM373.906 87.6377C373.452 88.087 373.452 88.0869 373.452 88.0868M373.906 87.6377L373.452 88.0868M370.879 85.2675C371.661 86.1677 372.302 86.8705 372.749 87.3492M370.879 85.2675L372.749 87.3492M372.749 87.3492C372.972 87.5886 373.147 87.772 373.267 87.8961M372.749 87.3492L373.267 87.8961M373.267 87.8961C373.326 87.9581 373.372 88.0053 373.404 88.0373M373.267 87.8961L373.404 88.0373M373.404 88.0373L373.439 88.0737M373.404 88.0373L373.439 88.0737M373.439 88.0737L373.449 88.0833M373.439 88.0737L373.449 88.0833M373.449 88.0833L373.451 88.0858M373.449 88.0833L373.451 88.0858M373.451 88.0858L373.452 88.0866M373.451 88.0858L373.452 88.0866M373.452 88.0866L373.452 88.0868M373.452 88.0866L373.452 88.0868" fill="#9047FF" stroke="black" stroke-width="1.2762"/>
<path d="M358.694 42.3613C357.948 65.0145 374.265 81.0087 374.265 81.0087C374.265 81.0087 393.425 61.4609 393.425 43.8026C393.425 22.3457 360.702 20.8946 358.691 42.1811C358.689 42.2543 358.689 42.3074 358.694 42.3613Z" fill="#A66CFF"/>
<path d="M377.998 56.8571C371.729 57.2155 362.407 48.3659 362.449 41.3542C362.487 35.1344 365.544 29.2691 372.51 29.0068C386.583 28.4769 391.655 37.6504 390.666 45.1499C390.159 48.9883 384.723 56.4726 377.998 56.8571Z" fill="white"/>
<path d="M306.608 148.682C306.534 148.642 306.444 148.696 306.444 148.78V177.467C306.444 179.507 308.15 181.157 310.25 181.157H363.991C366.091 181.157 367.797 179.507 367.797 177.467V148.807C367.797 148.723 367.708 148.67 367.634 148.71L337.112 165.109L306.608 148.682Z" fill="#F8BB1C" stroke="#110F0A" stroke-width="1.33679"/>
<path d="M364.259 142.236H310.518C308.417 142.236 306.711 143.942 306.711 146.043V146.682L337.385 161.858L368.059 146.682V146.043C368.059 143.942 366.353 142.236 364.253 142.236H364.259Z" fill="#F8BB1C" stroke="#110F0A" stroke-width="1.33679"/>
<path d="M114.82 106.594C114.82 100.453 108.942 95.2684 100.901 93.6445C100.697 93.6035 100.522 93.7914 100.571 93.9932C100.842 95.1283 100.979 96.2836 100.979 97.4591C100.979 100.259 100.203 102.962 98.6723 105.495C97.2441 107.853 95.2198 109.959 92.6612 111.747C89.8136 113.74 86.4513 115.226 82.8002 116.151C82.5612 116.212 82.505 116.526 82.7144 116.656C86.1235 118.775 90.6159 120.065 95.5383 120.065C96.2833 120.065 97.0231 120.034 97.7476 119.978L109.848 125.586C110.115 125.71 110.37 125.391 110.189 125.157L104.94 118.359C110.839 116.053 114.831 111.644 114.831 106.589L114.82 106.594Z" fill="#2D7DF5" stroke="#091931" stroke-width="1.41042"/>
<path d="M98.4355 97.4642C98.4355 87.9337 87.3791 80.2065 73.7333 80.2065C60.0874 80.2065 49.0361 87.9337 49.0361 97.4642C49.0361 104.714 55.4326 110.915 64.4956 113.473L60.7304 123.56C60.6353 123.815 60.9201 124.043 61.1482 123.895L75.3414 114.686C88.232 114.105 98.4355 106.62 98.4355 97.4642Z" fill="#2D7DF5" stroke="#091931" stroke-width="1.41042"/>
<mask id="path-11-outside-1_482_11152" maskUnits="userSpaceOnUse" x="154.713" y="17.0654" width="150" height="145" fill="black">
<rect fill="white" x="154.713" y="17.0654" width="150" height="145"/>
<path fill-rule="evenodd" clip-rule="evenodd" d="M299.144 87.2775C299.144 123.293 268.753 152.49 231.265 152.49C219.115 152.49 207.711 149.423 197.846 144.051L161.713 154.898L171.439 118.112C166.301 108.931 163.386 98.4313 163.386 87.2775C163.386 51.2619 193.777 22.0654 231.265 22.0654C268.753 22.0654 299.144 51.2619 299.144 87.2775Z"/>
</mask>
<path fill-rule="evenodd" clip-rule="evenodd" d="M299.144 87.2775C299.144 123.293 268.753 152.49 231.265 152.49C219.115 152.49 207.711 149.423 197.846 144.051L161.713 154.898L171.439 118.112C166.301 108.931 163.386 98.4313 163.386 87.2775C163.386 51.2619 193.777 22.0654 231.265 22.0654C268.753 22.0654 299.144 51.2619 299.144 87.2775Z" fill="#0DA15A"/>
<path d="M197.846 144.051L200.031 140.037L198.357 139.125L196.531 139.673L197.846 144.051ZM161.713 154.898L157.293 153.73L155.206 161.625L163.027 159.277L161.713 154.898ZM171.439 118.112L175.858 119.281L176.331 117.493L175.428 115.88L171.439 118.112ZM231.265 157.061C271.104 157.061 303.715 125.989 303.715 87.2775H294.572C294.572 120.598 266.403 147.918 231.265 147.918V157.061ZM195.66 148.066C206.185 153.797 218.339 157.061 231.265 157.061V147.918C219.891 147.918 209.237 145.049 200.031 140.037L195.66 148.066ZM163.027 159.277L199.16 148.43L196.531 139.673L160.399 150.52L163.027 159.277ZM167.019 116.944L157.293 153.73L166.132 156.067L175.858 119.281L167.019 116.944ZM158.815 87.2775C158.815 99.2396 161.943 110.505 167.449 120.344L175.428 115.88C170.659 107.357 167.958 97.623 167.958 87.2775H158.815ZM231.265 17.4941C191.426 17.4941 158.815 48.5663 158.815 87.2775H167.958C167.958 53.9575 196.127 26.6368 231.265 26.6368V17.4941ZM303.715 87.2775C303.715 48.5663 271.104 17.4941 231.265 17.4941V26.6368C266.403 26.6368 294.572 53.9575 294.572 87.2775H303.715Z" fill="#03190E" mask="url(#path-11-outside-1_482_11152)"/>
<path d="M272.797 107.675V123.992C272.797 126.415 270.924 128.425 268.508 128.596C266.489 128.739 264.843 128.81 263.568 128.81C222.79 128.81 189.733 95.7531 189.733 54.9754C189.733 53.7004 189.805 52.0537 189.947 50.0354C190.118 47.6191 192.128 45.7461 194.55 45.7461H210.869C212.053 45.7461 213.045 46.6433 213.164 47.8218C213.271 48.8798 213.37 49.7292 213.462 50.3701C214.396 56.8892 216.302 63.0942 219.03 68.8333C219.468 69.7545 219.183 70.8571 218.353 71.4499L208.393 78.5645C214.456 92.7282 225.815 104.087 239.979 110.15L247.08 100.208C247.68 99.3678 248.796 99.0789 249.728 99.5214C255.467 102.247 261.671 104.152 268.19 105.083C268.826 105.174 269.671 105.273 270.721 105.379C271.9 105.498 272.797 106.49 272.797 107.675Z" fill="white" stroke="#03190E" stroke-width="2.93871"/>
</g>
<defs>
<filter id="filter0_d_482_11152" x="0" y="0" width="490" height="214" filterUnits="userSpaceOnUse" color-interpolation-filters="sRGB">
<feFlood flood-opacity="0" result="BackgroundImageFix"/>
<feColorMatrix in="SourceAlpha" type="matrix" values="0 0 0 0 0 0 0 0 0 0 0 0 0 0 0 0 0 0 127 0" result="hardAlpha"/>
<feOffset dx="16" dy="16"/>
<feComposite in2="hardAlpha" operator="out"/>
<feColorMatrix type="matrix" values="0 0 0 0 0 0 0 0 0 0 0 0 0 0 0 0 0 0 1 0"/>
<feBlend mode="normal" in2="BackgroundImageFix" result="effect1_dropShadow_482_11152"/>
<feBlend mode="normal" in="SourceGraphic" in2="effect1_dropShadow_482_11152" result="shape"/>
</filter>
</defs>
</svg>
