<svg width="490" height="214" viewBox="0 0 490 214" fill="none" xmlns="http://www.w3.org/2000/svg">
<g filter="url(#filter0_d_462_10823)">
<rect x="4" y="4" width="466" height="190" rx="95" fill="#F4F8FE"/>
<rect x="2" y="2" width="470" height="194" rx="97" stroke="#110F0A" stroke-width="4"/>
</g>
<mask id="mask0_462_10823" style="mask-type:alpha" maskUnits="userSpaceOnUse" x="0" y="-4" width="475" height="198">
<rect x="2.59082" y="-2" width="470" height="194" rx="97" fill="#F4F8FE" stroke="#110F0A" stroke-width="4"/>
</mask>
<g mask="url(#mask0_462_10823)">
<path d="M415.534 124.019C416.301 132.449 407.575 146.782 397.52 141.607C393.676 139.629 391.95 135.592 391.351 131.55C389.922 121.902 397.144 121.918 402.508 128.744C409.789 138.012 391.279 144.91 385.412 146.463" stroke="#DD5930" stroke-width="3.39051" stroke-linecap="round"/>
<path d="M234.478 236.649C234.85 222.273 226.347 205.379 221.039 198.873C217.854 193.91 204.448 176.326 200.832 141.38C200.229 135.551 253.798 44.1895 340.269 78.2963C423.547 123.175 379.564 197.496 362.088 204.909C353.116 208.715 351.289 227.344 351.592 237.841C351.618 238.738 350.906 239.486 350.008 239.486L326.45 239.499C324.944 239.5 323.651 238.428 323.372 236.948L322.121 230.3C321.747 228.311 320 226.878 317.977 226.899L271.566 227.382C269.981 227.399 268.658 228.598 268.487 230.174L267.758 236.887C267.585 238.48 266.237 239.684 264.635 239.678L237.195 239.574C235.638 239.568 234.438 238.206 234.478 236.649Z" fill="#DD5930"/>
<path d="M174.918 165.038V134.044C174.918 131.904 176.536 130.111 178.665 129.892L192.965 128.425C195.06 128.21 196.907 126.936 197.922 125.09C224.905 76.0288 272.688 57.1054 325.449 74.2497C343.054 79.9703 359.111 91.0522 368.683 106.897C374.265 116.137 376.457 124.615 377.658 135.347C378.42 142.159 377.939 149.084 376.143 155.699C372.623 168.66 368.448 176.476 361.929 186.094C359.861 189.145 357.516 192.023 354.893 194.611C326.709 222.413 299.543 227.489 244.69 216.46C233.032 214.116 221.547 209.47 213.653 200.577C208.746 195.049 204.815 188.742 200.55 179.809C198.887 176.325 195.676 173.801 191.868 173.166L180.148 171.212C177.13 170.709 174.918 168.098 174.918 165.038Z" fill="#FE6B3C"/>
<path d="M271.347 78.2873C270.092 78.4347 269.13 79.4715 269.072 80.7323L268.882 84.8463C268.807 86.4774 270.246 87.7605 271.853 87.533C289.948 84.9712 301.16 85.2036 319.523 89.7012C321.108 90.0894 322.678 88.9439 322.753 87.3017L322.943 83.1842C323 81.9399 322.16 80.8279 320.942 80.5513C302.018 76.2513 290.549 76.032 271.347 78.2873Z" fill="#773A26" stroke="#120804"/>
<circle cx="229.865" cy="130.757" r="5.68051" fill="#773A26" stroke="#2F150C"/>
<path d="M228.395 66.0721L229.691 87.7976C246.12 93.526 274.893 100.703 258.55 83.5819C242.208 66.461 231.637 64.775 228.395 66.0721Z" fill="#FE6B3C"/>
<path d="M228.395 66.068L244.59 88.351C254.547 89.4587 260.077 85.158 258.55 83.5778C241.765 66.2026 231.637 64.771 228.395 66.068Z" fill="#773A26"/>
<path d="M184.011 171.877C175.988 171.332 174.457 167.832 174.915 162.906L174.896 161.802L193.24 172.431C193.733 172.716 193.463 173.473 192.9 173.381L184.011 171.877Z" fill="#773A26"/>
<circle cx="294.27" cy="48.499" r="16.4602" fill="#FFB424" stroke="#F0A619" stroke-width="0.920398"/>
<circle cx="294.27" cy="48.4988" r="12.9404" fill="#E5AA39" stroke="#FCBA3A" stroke-width="0.920398"/>
<path d="M286.399 42.0358H291.075C292.253 42.0358 293.241 42.4347 294.038 43.2323C294.836 44.03 295.235 45.0118 295.235 46.1776C295.235 47.3434 294.836 48.3252 294.038 49.1229C293.241 49.9206 292.253 50.3194 291.075 50.3194H288.111V54.9214H286.399V42.0358ZM288.111 48.7179H291.075C291.799 48.7179 292.388 48.4786 292.842 48C293.308 47.4968 293.541 46.8894 293.541 46.1776C293.541 45.4413 293.308 44.8338 292.842 44.3552C292.376 43.8766 291.787 43.6373 291.075 43.6373H288.111V48.7179ZM302.152 45.7174V47.2637H299.704V52.2522C299.704 52.7063 299.79 53.0315 299.962 53.2279C300.146 53.4119 300.422 53.5101 300.79 53.5224C301.158 53.5224 301.612 53.5101 302.152 53.4856V54.9214C300.741 55.1055 299.71 54.9889 299.06 54.5716C298.422 54.1544 298.102 53.3813 298.102 52.2522V47.2637H296.28V45.7174H298.102V43.6189L299.704 43.1403V45.7174H302.152Z" fill="#FFB424"/>
<circle cx="272.925" cy="23.4185" r="10.2876" fill="#FFB424" stroke="#F0A619" stroke-width="0.575249"/>
<circle cx="272.925" cy="23.4188" r="8.08775" fill="#E5AA39" stroke="#FCBA3A" stroke-width="0.575249"/>
<path d="M268.006 19.2541H270.929C271.665 19.2541 272.282 19.5034 272.781 20.002C273.28 20.5005 273.529 21.1141 273.529 21.8428C273.529 22.5714 273.28 23.185 272.781 23.6836C272.282 24.1821 271.665 24.4314 270.929 24.4314H269.076V27.3076H268.006V19.2541ZM269.076 23.4304H270.929C271.381 23.4304 271.749 23.2809 272.033 22.9817C272.325 22.6673 272.47 22.2876 272.47 21.8428C272.47 21.3826 272.325 21.0029 272.033 20.7038C271.742 20.4046 271.374 20.2551 270.929 20.2551H269.076V23.4304ZM277.852 21.5551V22.5215H276.322V25.6394C276.322 25.9232 276.376 26.1264 276.483 26.2492C276.598 26.3642 276.771 26.4256 277.001 26.4332C277.231 26.4332 277.515 26.4256 277.852 26.4102V27.3076C276.97 27.4227 276.326 27.3498 275.919 27.089C275.52 26.8282 275.321 26.345 275.321 25.6394V22.5215H274.182V21.5551H275.321V20.2436L276.322 19.9444V21.5551H277.852Z" fill="#FFB424"/>
<circle cx="306.864" cy="15.3622" r="7.03148" fill="#FFB424" stroke="#F0A619" stroke-width="0.393198"/>
<circle cx="306.865" cy="15.3625" r="5.52789" fill="#E5AA39" stroke="#FCBA3A" stroke-width="0.393198"/>
<path d="M303.503 13.0485H305.5C306.004 13.0485 306.426 13.2188 306.766 13.5596C307.107 13.9004 307.278 14.3198 307.278 14.8178C307.278 15.3159 307.107 15.7353 306.766 16.0761C306.426 16.4168 306.004 16.5872 305.5 16.5872H304.234V18.5532H303.503V13.0485ZM304.234 15.9031H305.5C305.81 15.9031 306.061 15.8008 306.255 15.5964C306.454 15.3814 306.554 15.1219 306.554 14.8178C306.554 14.5033 306.454 14.2438 306.255 14.0393C306.056 13.8348 305.804 13.7326 305.5 13.7326H304.234V15.9031ZM310.233 14.6212V15.2818H309.187V17.4129C309.187 17.6069 309.223 17.7459 309.297 17.8297C309.375 17.9084 309.493 17.9503 309.651 17.9556C309.808 17.9556 310.002 17.9503 310.233 17.9398V18.5532C309.63 18.6319 309.189 18.5821 308.912 18.4038C308.639 18.2256 308.503 17.8953 308.503 17.4129V15.2818H307.724V14.6212H308.503V13.7248L309.187 13.5203V14.6212H310.233Z" fill="#FFB424"/>
<ellipse cx="89.9494" cy="185.827" rx="25.1584" ry="4.57734" fill="#FFB424"/>
<path d="M64.8008 192.358V185.324C69.2214 189.523 113.672 189.081 115.126 185.269V192.047C115.126 193.043 114.602 193.971 113.658 194.289C104.485 197.378 73.6125 196.793 65.9741 194.186C65.2075 193.924 64.8008 193.168 64.8008 192.358Z" fill="#C38816"/>
<ellipse cx="96.551" cy="177.243" rx="25.1584" ry="4.57734" fill="#FFB424"/>
<path d="M71.4023 183.774V176.74C75.823 180.939 120.274 180.497 121.727 176.685V183.463C121.727 184.459 121.203 185.387 120.259 185.705C111.086 188.794 80.214 188.209 72.5757 185.602C71.8091 185.34 71.4023 184.584 71.4023 183.774Z" fill="#C38816"/>
<ellipse cx="100.561" cy="169.001" rx="25.1584" ry="4.57734" fill="#FFB424"/>
<path d="M75.4121 175.531V168.497C79.8328 172.697 124.283 172.254 125.737 168.442V175.22C125.737 176.216 125.213 177.144 124.269 177.462C115.096 180.552 84.2238 179.966 76.5855 177.359C75.8188 177.097 75.4121 176.342 75.4121 175.531Z" fill="#C38816"/>
<ellipse cx="104.622" cy="160.196" rx="25.1584" ry="4.57734" fill="#FFB424"/>
<path d="M79.4736 166.727V159.692C83.8943 163.892 128.345 163.45 129.799 159.638V166.415C129.799 167.412 129.275 168.339 128.331 168.657C119.158 171.747 88.2853 171.161 80.647 168.554C79.8804 168.293 79.4736 167.537 79.4736 166.727Z" fill="#C38816"/>
</g>
<defs>
<filter id="filter0_d_462_10823" x="0" y="0" width="490" height="214" filterUnits="userSpaceOnUse" color-interpolation-filters="sRGB">
<feFlood flood-opacity="0" result="BackgroundImageFix"/>
<feColorMatrix in="SourceAlpha" type="matrix" values="0 0 0 0 0 0 0 0 0 0 0 0 0 0 0 0 0 0 127 0" result="hardAlpha"/>
<feOffset dx="16" dy="16"/>
<feComposite in2="hardAlpha" operator="out"/>
<feColorMatrix type="matrix" values="0 0 0 0 0 0 0 0 0 0 0 0 0 0 0 0 0 0 1 0"/>
<feBlend mode="normal" in2="BackgroundImageFix" result="effect1_dropShadow_462_10823"/>
<feBlend mode="normal" in="SourceGraphic" in2="effect1_dropShadow_462_10823" result="shape"/>
</filter>
</defs>
</svg>
