<svg width="490" height="214" viewBox="0 0 490 214" fill="none" xmlns="http://www.w3.org/2000/svg">
<g filter="url(#filter0_d_449_10778)">
<rect x="4.00391" y="4" width="466" height="190" rx="95" fill="#FEF5FA"/>
<rect x="2.00391" y="2" width="470" height="194" rx="97" stroke="#110F0A" stroke-width="4"/>
</g>
<mask id="mask0_449_10778" style="mask-type:alpha" maskUnits="userSpaceOnUse" x="3" y="0" width="474" height="198">
<rect x="5" y="2" width="470" height="194" rx="97" fill="#FEF5FA" stroke="#110F0A" stroke-width="4"/>
</mask>
<g mask="url(#mask0_449_10778)">
<circle cx="342.303" cy="49.7895" r="5.97212" fill="#050308"/>
<path d="M-26.2217 9.03857L343.63 45.1195C344.328 45.1877 345.022 45.3595 345.615 45.7363C349.717 48.3437 348.17 52.648 342.413 54.7602C341.831 54.9735 341.204 55.0335 340.586 54.9837L-24.2074 25.5497L-26.2217 9.03857Z" fill="#050308"/>
<path d="M226.615 94.9909C197.527 85.576 190.372 91.0681 190.431 94.9909L179.541 110.975L157.409 122.744L155.301 247.631H377.148L357.826 179.128L351.503 165.602L344.477 155.239C339.558 144.841 329.898 139.079 325.682 137.498L276.851 109.746L258.408 89.897C238.735 96.361 229.016 95.9863 226.615 94.9909Z" fill="#4C0B12"/>
<path d="M218.205 103.784C217.935 98.8209 221.74 94.5787 226.704 94.3089C231.667 94.0392 235.909 97.844 236.179 102.807L237.227 122.102C237.275 122.978 236.604 123.727 235.728 123.774L220.926 124.579C220.05 124.626 219.302 123.955 219.254 123.079L218.205 103.784Z" fill="#F8BB1C" stroke="#110F0A" stroke-width="0.529412"/>
<circle cx="226.991" cy="99.5951" r="3.17647" transform="rotate(-3.111 226.991 99.5951)" fill="#EF389B" stroke="#110F0A" stroke-width="0.529412"/>
<path d="M225.062 83.6085C225.269 85.3141 226.346 86.7132 226.442 88.4849C226.53 90.1015 227.056 91.72 227.037 93.3205C227.025 94.2337 226.803 95.1262 226.852 96.0324C226.864 96.2412 226.856 96.8254 227.016 96.3674C227.266 95.6553 227.352 94.9572 227.379 94.2097C227.423 93.0084 226.835 91.2794 227.156 90.1082C227.403 89.2094 227.364 88.3852 227.42 87.4429C227.507 86.0095 227.277 84.5759 227.199 83.1479" stroke="#110F0A" stroke-width="0.794118" stroke-linecap="square"/>
<path d="M226.317 94.2834C226.616 94.2457 226.916 94.2339 227.217 94.2176C227.357 94.21 227.496 94.2141 227.636 94.2117C227.663 94.2113 227.704 94.2151 227.712 94.2415" stroke="#110F0A" stroke-width="0.794118" stroke-linecap="round"/>
<path d="M220.291 32.2973C223.933 31.5362 230.594 32.7033 230.178 42.6604C230.11 44.2947 229.629 45.8829 228.992 47.3893L226.726 52.7442C226.305 53.7404 226.087 54.8109 226.087 55.8925V67.7787" stroke="#ADA9A6" stroke-width="2.45911" stroke-linecap="round"/>
<path d="M224.82 90.0161L193.768 108.002L186.742 113.975L181.297 109.232L192.714 97.2879C203.815 78.3176 212.614 72.5742 215.022 70.9401C229.776 60.9281 242.478 74.0981 246.99 79.0201C250.855 83.2356 264.848 98.5758 272.284 105.368L265.082 113.623L226.986 90.0477C226.325 89.6387 225.492 89.6266 224.82 90.0161Z" fill="#D0D5DD"/>
<path d="M157.408 122.744L182.174 109.746L222.047 141.89L225.56 143.295L222.574 147.862L228.897 161.036L232.41 250.267L153.895 243.065L157.408 122.744Z" fill="#6532B3"/>
<path d="M172.865 116.245L190.43 102.018C190.43 102.018 205.841 131.086 223.804 140.836C224.856 141.407 227.055 143.295 227.055 143.295L224.797 147.862L229.579 161.036L232.235 250.267L172.865 243.065V116.245Z" fill="#5B29A7"/>
<path d="M223.453 140.66C216.286 139.396 208.991 154.361 206.941 161.563C206.559 162.827 206.782 164.197 206.941 164.724L204.658 161.563C185.688 133.74 179.891 116.245 179.364 110.975L190.499 94.2939C208.064 124.927 220.467 137.557 223.453 140.66Z" fill="#9047FF"/>
<path d="M222.33 152.604C217.131 148.81 223.091 145.754 226.721 144.7L230.058 147.51L257.284 119.582L269.404 102.368L277.66 110.624C294.288 119.465 328.774 138.236 333.692 142.592C340.191 147.51 345.11 155.59 350.379 163.319C354.595 169.502 360.098 185.451 362.323 192.653L377.254 246.753H227.072L224.613 226.202L225.316 211.447L223.032 183.167V166.481C224.964 163.436 227.529 156.398 222.33 152.604Z" fill="#7B161F"/>
<path d="M255.796 167.49L228.846 148.799C227.376 147.779 226.907 145.817 227.758 144.243L257.098 89.9404C257.336 89.5009 257.948 89.4476 258.265 89.8333C266.665 100.032 272.159 105.692 275.002 108.281C276.028 109.215 276.402 110.742 275.816 112C266.141 132.74 261.003 154.743 259.152 166.042C258.897 167.602 257.095 168.391 255.796 167.49Z" fill="#480E13"/>
<g style="mix-blend-mode:darken" opacity="0.38">
<path d="M232.124 153.032L224.855 151.229C220.214 150.919 215.98 154.694 216.772 157.742C218.62 158.779 222.238 165.186 219.586 207.014C216.733 252.008 222.278 255.601 223.23 251.719L230.616 252.5L230.715 249.921L231.109 247.655C230.419 218.555 229.021 160.199 228.942 159.573C228.863 158.948 232.353 155.247 232.124 153.032Z" fill="#422075"/>
</g>
<path d="M221.475 160.164C216.413 156.675 222.216 153.864 225.75 152.894L229 155.479L255.506 129.793L267.306 113.961L275.343 121.554C291.532 129.685 325.107 146.949 329.896 150.956C336.223 155.479 341.011 162.91 346.142 170.018C350.246 175.705 355.604 190.373 357.77 196.997L372.306 246.753H226.092L223.698 227.852L224.382 214.282L222.159 188.273V172.926C224.04 170.126 226.537 163.653 221.475 160.164Z" fill="#9E1E2A"/>
<path d="M255.782 163.932L228.832 146.159C227.287 145.141 226.797 143.099 227.711 141.491L257.036 89.8857C257.276 89.4633 257.866 89.4109 258.184 89.7781C266.514 99.3965 271.999 104.788 274.884 107.302C275.965 108.244 276.355 109.834 275.725 111.122C266.084 130.836 260.954 151.71 259.097 162.47C258.833 164.001 257.078 164.787 255.782 163.932Z" fill="#D03342"/>
<circle cx="232.06" cy="183.695" r="3.33736" fill="#F4ECFF"/>
<ellipse cx="228.547" cy="146.808" rx="2.28346" ry="1.58086" fill="#F4ECFF"/>
<path d="M147.479 87.3142C118.391 77.8993 111.237 83.3913 111.295 87.3142L100.405 103.298L78.2728 115.067L76.165 239.955H298.012L278.69 171.451L272.367 157.926L265.341 147.562C260.423 137.164 250.762 131.402 246.546 129.822L197.715 102.069L179.272 82.2203C159.599 88.6842 149.88 88.3095 147.479 87.3142Z" fill="#4C3B11"/>
<path d="M138.604 95.9863C138.334 91.023 142.139 86.7808 147.102 86.5111C152.065 86.2413 156.307 90.0461 156.577 95.0094L157.626 114.304C157.673 115.18 157.002 115.929 156.126 115.977L141.324 116.781C140.449 116.829 139.7 116.157 139.652 115.281L138.604 95.9863Z" fill="#F8BB1C" stroke="#110F0A" stroke-width="0.529412"/>
<circle cx="147.389" cy="91.7972" r="3.17647" transform="rotate(-3.111 147.389 91.7972)" fill="#EF389B" stroke="#110F0A" stroke-width="0.529412"/>
<path d="M145.46 75.8106C145.667 77.5163 146.744 78.9153 146.841 80.6871C146.928 82.3037 147.455 83.9221 147.435 85.5226C147.424 86.4359 147.202 87.3283 147.251 88.2346C147.262 88.4434 147.254 89.0275 147.415 88.5696C147.664 87.8574 147.75 87.1593 147.778 86.4119C147.821 85.2106 147.234 83.4816 147.555 82.3104C147.801 81.4116 147.762 80.5873 147.819 79.6451C147.905 78.2116 147.675 76.778 147.598 75.3501" stroke="#110F0A" stroke-width="0.794118" stroke-linecap="square"/>
<path d="M146.716 86.4855C147.014 86.4478 147.315 86.4361 147.615 86.4197C147.755 86.4121 147.895 86.4163 148.035 86.4139C148.061 86.4134 148.102 86.4173 148.111 86.4436" stroke="#110F0A" stroke-width="0.794118" stroke-linecap="round"/>
<path d="M141.156 24.6205C144.799 23.8594 151.46 25.0266 151.044 34.9837C150.975 36.618 150.494 38.2061 149.857 39.7125L147.591 45.0675C147.17 46.0636 146.953 47.1342 146.953 48.2158V60.102" stroke="#ADA9A6" stroke-width="2.45911" stroke-linecap="round"/>
<path d="M145.685 82.3393L114.633 100.326L107.607 106.298L102.162 101.555L113.579 89.6111C124.681 70.6409 133.479 64.8975 135.887 63.2634C150.642 53.2513 163.344 66.4213 167.855 71.3433C171.72 75.5589 185.713 90.8991 193.149 97.6909L185.948 105.946L147.851 82.3709C147.19 81.9619 146.358 81.9498 145.685 82.3393Z" fill="#D0D5DD"/>
<path d="M78.2738 115.067L103.041 102.068L142.913 134.212L146.426 135.618L143.44 140.185L149.764 153.358L153.277 242.589L74.7607 235.387L78.2738 115.067Z" fill="#6532B3"/>
<path d="M93.7314 108.568L111.297 94.3398C111.297 94.3398 126.707 123.408 144.67 133.159C145.722 133.73 147.921 135.618 147.921 135.618L145.664 140.185L150.445 153.358L153.101 242.589L93.7314 235.387V108.568Z" fill="#5B29A7"/>
<path d="M144.319 132.983C137.152 131.719 129.857 146.684 127.808 153.886C127.425 155.151 127.648 156.521 127.808 157.048L125.524 153.886C106.554 126.063 100.757 108.568 100.23 103.299L111.365 86.6172C128.93 117.251 141.333 129.88 144.319 132.983Z" fill="#9047FF"/>
<path d="M143.196 144.927C137.997 141.133 143.957 138.077 147.587 137.023L150.925 139.834L178.15 111.905L190.27 94.6914L198.526 102.947C215.154 111.788 249.64 130.559 254.558 134.915C261.058 139.834 265.976 147.914 271.245 155.642C275.461 161.825 280.965 177.774 283.189 184.976L298.12 239.076H147.938L145.479 218.525L146.182 203.77L143.899 175.491V158.804C145.831 155.759 148.395 148.722 143.196 144.927Z" fill="#B18515"/>
<path d="M176.661 159.813L149.711 141.122C148.24 140.102 147.771 138.14 148.622 136.565L177.963 82.2632C178.2 81.8236 178.812 81.7704 179.129 82.156C187.529 92.355 193.023 98.0149 195.866 100.604C196.892 101.538 197.267 103.065 196.68 104.323C187.006 125.063 181.867 147.066 180.017 158.364C179.761 159.924 177.96 160.714 176.661 159.813Z" fill="#5A4614"/>
<g style="mix-blend-mode:darken" opacity="0.38">
<path d="M152.99 145.355L145.721 143.552C141.08 143.242 136.847 147.017 137.638 150.065C139.486 151.102 143.104 157.509 140.452 199.337C137.599 244.331 143.144 247.923 144.096 244.042L151.482 244.823L151.581 242.244L151.975 239.978C151.285 210.878 149.887 152.521 149.808 151.896C149.729 151.271 153.22 147.569 152.99 145.355Z" fill="#422075"/>
</g>
<path d="M143.142 152.487C138.08 148.997 143.883 146.186 147.417 145.217L150.667 147.802L177.173 122.116L188.973 106.284L197.01 113.877C213.199 122.008 246.774 139.272 251.563 143.279C257.89 147.802 262.678 155.233 267.809 162.341C271.913 168.028 277.271 182.696 279.437 189.32L293.973 239.076H147.759L145.365 220.175L146.049 206.605L143.826 180.596V165.249C145.707 162.449 148.204 155.976 143.142 152.487Z" fill="#DCAB2D"/>
<path d="M176.648 156.254L149.698 138.482C148.153 137.463 147.663 135.422 148.577 133.813L177.902 82.2084C178.142 81.786 178.732 81.7336 179.05 82.1008C187.381 91.7193 192.865 97.1105 195.75 99.6248C196.831 100.567 197.221 102.157 196.591 103.445C186.951 123.158 181.82 144.033 179.963 154.793C179.699 156.324 177.945 157.109 176.648 156.254Z" fill="#F8BB1C"/>
<circle cx="152.925" cy="176.018" r="3.33736" fill="#F4ECFF"/>
<ellipse cx="149.412" cy="139.131" rx="2.28346" ry="1.58086" fill="#F4ECFF"/>
<path d="M73.4509 80.0144C44.3632 70.5995 37.2083 76.0915 37.2669 80.0144L26.3765 95.9986L4.24453 107.767L2.13672 232.655H223.984L204.662 164.151L198.339 150.626L191.312 140.263C186.394 129.864 176.734 124.103 172.518 122.522L123.687 94.769L105.244 74.9205C85.5708 81.3844 75.8515 81.0097 73.4509 80.0144Z" fill="#3D2563"/>
<path d="M65.4015 88.9843C65.1318 84.0211 68.9366 79.7789 73.8998 79.5091C78.8631 79.2394 83.1052 83.0442 83.375 88.0074L84.4237 107.302C84.4713 108.178 83.7999 108.927 82.924 108.975L68.1223 109.779C67.2464 109.827 66.4978 109.155 66.4502 108.279L65.4015 88.9843Z" fill="#F8BB1C" stroke="#110F0A" stroke-width="0.529412"/>
<circle cx="74.187" cy="84.7953" r="3.17647" transform="rotate(-3.111 74.187 84.7953)" fill="#EF389B" stroke="#110F0A" stroke-width="0.529412"/>
<path d="M72.2579 68.8087C72.4651 70.5143 73.5421 71.9134 73.6384 73.6851C73.7263 75.3017 74.2524 76.9201 74.2328 78.5207C74.2216 79.4339 73.9994 80.3264 74.0486 81.2326C74.06 81.4414 74.0518 82.0256 74.2125 81.5676C74.4623 80.8555 74.5483 80.1574 74.5755 79.4099C74.6192 78.2086 74.0316 76.4796 74.3526 75.3084C74.5989 74.4096 74.56 73.5854 74.6167 72.6431C74.703 71.2097 74.4733 69.7761 74.3957 68.3481" stroke="#110F0A" stroke-width="0.794118" stroke-linecap="square"/>
<path d="M73.5136 79.4836C73.8123 79.4459 74.1127 79.4341 74.4132 79.4178C74.5533 79.4102 74.6925 79.4143 74.8325 79.4119C74.8593 79.4114 74.9003 79.4153 74.9085 79.4417" stroke="#110F0A" stroke-width="0.794118" stroke-linecap="round"/>
<path d="M67.127 17.3207C70.7694 16.5596 77.4304 17.7268 77.0143 27.6839C76.946 29.3182 76.4649 30.9063 75.8276 32.4127L73.562 37.7677C73.1406 38.7638 72.9234 39.8344 72.9234 40.916V52.8022" stroke="#ADA9A6" stroke-width="2.45911" stroke-linecap="round"/>
<path d="M71.6558 75.0395L40.604 93.0259L33.578 98.9981L28.1328 94.2556L39.5501 82.3113C50.6512 63.3411 59.4496 57.5977 61.8577 55.9636C76.6124 45.9515 89.3143 59.1215 93.8262 64.0435C97.6905 68.2591 111.684 83.5993 119.12 90.3911L111.918 98.6467L73.8215 75.0711C73.1606 74.6621 72.3283 74.65 71.6558 75.0395Z" fill="#D0D5DD"/>
<path d="M4.24348 107.767L29.0102 94.7686L68.8829 126.913L72.396 128.318L69.4099 132.885L75.7333 146.059L79.2463 235.289L0.730469 228.087L4.24348 107.767Z" fill="#6532B3"/>
<path d="M19.7012 101.268L37.2662 87.04C37.2662 87.04 52.6772 116.108 70.6399 125.859C71.692 126.43 73.8912 128.318 73.8912 128.318L71.6333 132.885L76.4147 146.059L79.0711 235.289L19.7012 228.088V101.268Z" fill="#5B29A7"/>
<path d="M70.2885 125.683C63.122 124.419 55.8266 139.384 53.7774 146.586C53.395 147.85 53.618 149.22 53.7774 149.747L51.4939 146.586C32.5236 118.763 26.7271 101.268 26.2002 95.9982L37.3348 79.3169C54.8999 109.95 67.3025 122.58 70.2885 125.683Z" fill="#9047FF"/>
<path d="M69.1657 137.627C63.9665 133.833 69.9269 130.777 73.557 129.723L76.8943 132.533L104.12 104.605L116.24 87.3911L124.496 95.6467C141.124 104.488 175.61 123.259 180.528 127.615C187.027 132.533 191.945 140.613 197.215 148.342C201.431 154.525 206.934 170.474 209.159 177.676L224.09 231.776H73.9082L71.4491 211.225L72.1517 196.47L69.8682 168.19V151.504C71.8004 148.459 74.365 141.421 69.1657 137.627Z" fill="#57299D"/>
<path d="M102.631 152.513L75.6815 133.822C74.2109 132.802 73.7421 130.84 74.5928 129.265L103.933 74.9634C104.171 74.5238 104.783 74.4706 105.1 74.8562C113.5 85.0552 118.994 90.7151 121.837 93.3041C122.863 94.2383 123.237 95.7653 122.651 97.0227C112.976 117.763 107.837 139.766 105.987 151.065C105.732 152.625 103.93 153.414 102.631 152.513Z" fill="#542996"/>
<g style="mix-blend-mode:darken" opacity="0.38">
<path d="M78.9606 138.055L71.6916 136.252C67.0511 135.942 62.8173 139.717 63.6085 142.765C65.4566 143.802 69.0748 150.209 66.4228 192.037C63.5701 237.031 69.1147 240.624 70.0667 236.742L77.453 237.523L77.5515 234.944L77.9454 232.678C77.256 203.578 75.8576 145.222 75.7788 144.596C75.7 143.971 79.1903 140.269 78.9606 138.055Z" fill="#422075"/>
</g>
<path d="M69.1119 145.187C64.0499 141.697 69.8529 138.887 73.3871 137.917L76.6362 140.502L103.143 114.816L114.943 98.9844L122.98 106.577C139.169 114.708 172.744 131.972 177.532 135.979C183.86 140.502 188.648 147.933 193.778 155.041C197.883 160.728 203.241 175.396 205.407 182.02L219.943 231.776H73.7291L71.3349 212.875L72.019 199.305L69.7958 173.296V157.949C71.677 155.149 74.1738 148.676 69.1119 145.187Z" fill="#6532B3"/>
<g filter="url(#filter1_i_449_10778)">
<circle cx="78.894" cy="168.718" r="3.33736" fill="#F4ECFF"/>
</g>
<circle cx="78.894" cy="168.718" r="3.58736" stroke="#050308" stroke-width="0.5"/>
<path d="M75.3811 133.662C76.0561 133.662 76.678 133.473 77.1381 133.155C77.5971 132.837 77.9146 132.373 77.9146 131.831C77.9146 131.29 77.5971 130.826 77.1381 130.508C76.678 130.189 76.0561 130 75.3811 130C74.7061 130 74.0842 130.189 73.6242 130.508C73.1651 130.826 72.8477 131.29 72.8477 131.831C72.8477 132.373 73.1651 132.837 73.6242 133.155C74.0842 133.473 74.7061 133.662 75.3811 133.662Z" fill="#F4ECFF" stroke="#050308" stroke-width="0.5"/>
<path d="M102.618 148.954L75.6675 131.182C74.1231 130.163 73.6332 128.122 74.5471 126.514L103.872 74.9086C104.112 74.4862 104.702 74.4338 105.02 74.801C113.35 84.4195 118.835 89.8107 121.72 92.325C122.801 93.2671 123.191 94.8572 122.561 96.1454C112.92 115.859 107.789 136.733 105.933 147.493C105.669 149.024 103.914 149.81 102.618 148.954Z" fill="#9047FF"/>
</g>
<defs>
<filter id="filter0_d_449_10778" x="0.00390625" y="0" width="490" height="214" filterUnits="userSpaceOnUse" color-interpolation-filters="sRGB">
<feFlood flood-opacity="0" result="BackgroundImageFix"/>
<feColorMatrix in="SourceAlpha" type="matrix" values="0 0 0 0 0 0 0 0 0 0 0 0 0 0 0 0 0 0 127 0" result="hardAlpha"/>
<feOffset dx="16" dy="16"/>
<feComposite in2="hardAlpha" operator="out"/>
<feColorMatrix type="matrix" values="0 0 0 0 0 0 0 0 0 0 0 0 0 0 0 0 0 0 1 0"/>
<feBlend mode="normal" in2="BackgroundImageFix" result="effect1_dropShadow_449_10778"/>
<feBlend mode="normal" in="SourceGraphic" in2="effect1_dropShadow_449_10778" result="shape"/>
</filter>
<filter id="filter1_i_449_10778" x="75.0566" y="164.88" width="7.6748" height="8.6748" filterUnits="userSpaceOnUse" color-interpolation-filters="sRGB">
<feFlood flood-opacity="0" result="BackgroundImageFix"/>
<feBlend mode="normal" in="SourceGraphic" in2="BackgroundImageFix" result="shape"/>
<feColorMatrix in="SourceAlpha" type="matrix" values="0 0 0 0 0 0 0 0 0 0 0 0 0 0 0 0 0 0 127 0" result="hardAlpha"/>
<feOffset dy="1"/>
<feGaussianBlur stdDeviation="1"/>
<feComposite in2="hardAlpha" operator="arithmetic" k2="-1" k3="1"/>
<feColorMatrix type="matrix" values="0 0 0 0 0 0 0 0 0 0 0 0 0 0 0 0 0 0 0.61 0"/>
<feBlend mode="normal" in2="shape" result="effect1_innerShadow_449_10778"/>
</filter>
</defs>
</svg>
