<svg width="490" height="214" viewBox="0 0 490 214" fill="none" xmlns="http://www.w3.org/2000/svg">
<g filter="url(#filter0_d_499_12904)">
<rect x="4" y="4" width="466" height="190" rx="95" fill="#FFFCF3"/>
<rect x="2" y="2" width="470" height="194" rx="97" stroke="#110F0A" stroke-width="4"/>
</g>
<mask id="mask0_499_12904" style="mask-type:alpha" maskUnits="userSpaceOnUse" x="4" y="4" width="466" height="190">
<rect x="4" y="4" width="466" height="190" rx="95" fill="#FFFCF3"/>
</mask>
<g mask="url(#mask0_499_12904)">
<path d="M65.67 71.8853C65.67 74.6793 60.6124 82.5908 60.6124 82.5908C60.6124 82.5908 55.5547 74.6793 55.5547 71.8853C55.5547 69.0913 57.8184 66.8276 60.6124 66.8276C63.4064 66.8276 65.67 69.0913 65.67 71.8853Z" fill="#00C3B3" stroke="#02070E" stroke-width="0.412703" stroke-miterlimit="10"/>
<path d="M64.231 71.8853C64.231 73.8848 62.6111 75.5047 60.6116 75.5047C58.612 75.5047 56.9922 73.8848 56.9922 71.8853C56.9922 69.8857 58.612 68.2659 60.6116 68.2659C62.6111 68.2659 64.231 69.8857 64.231 71.8853Z" fill="white" stroke="#37170F" stroke-width="0.412703" stroke-miterlimit="10"/>
<rect x="68.5852" y="69.7673" width="28.5049" height="9.884" rx="4.942" fill="#9047FF"/>
<rect x="68.5852" y="69.7673" width="28.5049" height="9.884" rx="4.942" stroke="black" stroke-width="0.452615"/>
<circle cx="72.4326" cy="74.7094" r="1.13154" fill="#F8BB1C" stroke="black" stroke-width="0.452615"/>
<path d="M75.2028 73.1746H77.0494V73.5729H76.3361V75.7092H75.9197V73.5729H75.2028V73.1746ZM78.5383 75.4811C78.3549 75.6646 78.1292 75.7563 77.8612 75.7563C77.5933 75.7563 77.3676 75.6646 77.1841 75.4811C76.9982 75.2952 76.9053 75.0695 76.9053 74.804C76.9053 74.5385 76.9982 74.3128 77.1841 74.1269C77.3676 73.9434 77.5933 73.8517 77.8612 73.8517C78.1292 73.8517 78.3549 73.9434 78.5383 74.1269C78.7242 74.3128 78.8171 74.5385 78.8171 74.804C78.8171 75.0695 78.7242 75.2952 78.5383 75.4811ZM77.2964 74.804C77.2964 74.9681 77.3507 75.1045 77.4593 75.2132C77.5679 75.3218 77.7019 75.3761 77.8612 75.3761C78.0205 75.3761 78.1545 75.3218 78.2631 75.2132C78.3718 75.1045 78.4261 74.9681 78.4261 74.804C78.4261 74.6398 78.3718 74.5035 78.2631 74.3948C78.1545 74.2862 78.0205 74.2319 77.8612 74.2319C77.7019 74.2319 77.5679 74.2862 77.4593 74.3948C77.3507 74.5035 77.2964 74.6398 77.2964 74.804ZM80.1955 73.8517C80.4417 73.8517 80.6541 73.9446 80.8327 74.1305C81.009 74.314 81.0971 74.5385 81.0971 74.804C81.0971 75.0719 81.009 75.2977 80.8327 75.4811C80.6565 75.6646 80.4441 75.7563 80.1955 75.7563C79.9227 75.7563 79.7115 75.6549 79.5618 75.4521V76.4334H79.1707V73.8988H79.5618V74.1595C79.7091 73.9543 79.9203 73.8517 80.1955 73.8517ZM79.7247 75.2204C79.8334 75.329 79.9698 75.3833 80.1339 75.3833C80.2981 75.3833 80.4344 75.329 80.5431 75.2204C80.6517 75.1094 80.706 74.9706 80.706 74.804C80.706 74.6374 80.6517 74.4998 80.5431 74.3912C80.4344 74.2802 80.2981 74.2247 80.1339 74.2247C79.9698 74.2247 79.8334 74.2802 79.7247 74.3912C79.6161 74.4998 79.5618 74.6374 79.5618 74.804C79.5618 74.9681 79.6161 75.1069 79.7247 75.2204ZM83.2258 75.7563C82.9819 75.7563 82.7743 75.702 82.603 75.5934C82.434 75.4823 82.3157 75.329 82.2481 75.1335L82.6066 74.9235C82.708 75.2083 82.918 75.3508 83.2366 75.3508C83.3911 75.3508 83.5082 75.3206 83.5878 75.2602C83.6675 75.1999 83.7073 75.119 83.7073 75.0176C83.7073 74.9162 83.6651 74.8378 83.5806 74.7823C83.4961 74.7268 83.3465 74.6664 83.1316 74.6012C82.9119 74.536 82.7345 74.4588 82.5993 74.3695C82.4352 74.2536 82.3531 74.0834 82.3531 73.8589C82.3531 73.6344 82.4328 73.457 82.5921 73.3267C82.749 73.1939 82.9409 73.1275 83.1678 73.1275C83.3682 73.1275 83.5444 73.177 83.6965 73.276C83.851 73.3725 83.9692 73.5089 84.0513 73.6851L83.7001 73.8879C83.5939 73.6513 83.4165 73.5331 83.1678 73.5331C83.0471 73.5331 82.9506 73.562 82.8781 73.62C82.8057 73.6755 82.7695 73.7515 82.7695 73.8481C82.7695 73.9422 82.8057 74.0171 82.8781 74.0726C82.9506 74.1257 83.0845 74.1824 83.2801 74.2428C83.4008 74.2838 83.4708 74.3079 83.4901 74.3152C83.5215 74.3248 83.5842 74.349 83.6784 74.3876C83.7556 74.419 83.8172 74.4528 83.863 74.489C84.0513 74.6362 84.1382 74.81 84.1237 75.0104C84.1237 75.2397 84.0405 75.422 83.8739 75.5571C83.7122 75.6899 83.4961 75.7563 83.2258 75.7563ZM85.4854 73.8517C85.7316 73.8517 85.9441 73.9446 86.1227 74.1305C86.2989 74.314 86.387 74.5385 86.387 74.804C86.387 75.0719 86.2989 75.2977 86.1227 75.4811C85.9465 75.6646 85.734 75.7563 85.4854 75.7563C85.2126 75.7563 85.0014 75.6549 84.8517 75.4521V76.4334H84.4607V73.8988H84.8517V74.1595C84.999 73.9543 85.2102 73.8517 85.4854 73.8517ZM85.0147 75.2204C85.1233 75.329 85.2597 75.3833 85.4239 75.3833C85.588 75.3833 85.7244 75.329 85.833 75.2204C85.9416 75.1094 85.996 74.9706 85.996 74.804C85.996 74.6374 85.9416 74.4998 85.833 74.3912C85.7244 74.2802 85.588 74.2247 85.4239 74.2247C85.2597 74.2247 85.1233 74.2802 85.0147 74.3912C84.9061 74.4998 84.8517 74.6374 84.8517 74.804C84.8517 74.9681 84.9061 75.1069 85.0147 75.2204ZM88.1753 74.1559V73.8988H88.5664V75.7092H88.1753V75.4485C88.0281 75.6537 87.8169 75.7563 87.5417 75.7563C87.293 75.7563 87.0806 75.6646 86.9044 75.4811C86.7282 75.2977 86.6401 75.0719 86.6401 74.804C86.6401 74.536 86.7282 74.3103 86.9044 74.1269C87.0806 73.9434 87.293 73.8517 87.5417 73.8517C87.8169 73.8517 88.0281 73.9531 88.1753 74.1559ZM87.1941 75.2204C87.3027 75.329 87.4391 75.3833 87.6032 75.3833C87.7674 75.3833 87.9038 75.329 88.0124 75.2204C88.121 75.1094 88.1753 74.9706 88.1753 74.804C88.1753 74.6374 88.121 74.4998 88.0124 74.3912C87.9038 74.2802 87.7674 74.2247 87.6032 74.2247C87.4391 74.2247 87.3027 74.2802 87.1941 74.3912C87.0854 74.4998 87.0311 74.6374 87.0311 74.804C87.0311 74.9681 87.0854 75.1069 87.1941 75.2204ZM89.4133 73.8988V74.2029C89.5122 73.9784 89.6981 73.8662 89.9709 73.8662V74.2898C89.8236 74.2802 89.6933 74.3164 89.5798 74.3985C89.4688 74.4781 89.4133 74.6109 89.4133 74.7968V75.7092H89.0222V73.8988H89.4133ZM91.0347 74.7859L91.8603 75.7092H91.3932L90.6509 74.8728V75.7092H90.2598V73.1746H90.6509V74.699L91.3533 73.8988H91.8313L91.0347 74.7859ZM92.3473 74.3985C92.3473 74.454 92.3762 74.4998 92.4342 74.536C92.4921 74.5698 92.5766 74.6024 92.6876 74.6338C92.7721 74.6531 92.8457 74.6736 92.9085 74.6954C92.9713 74.7171 93.0376 74.7497 93.1076 74.7931C93.1776 74.8342 93.2308 74.8897 93.267 74.9597C93.3056 75.0273 93.3237 75.1069 93.3213 75.1987C93.3213 75.3725 93.2537 75.5089 93.1185 75.6078C92.9833 75.7068 92.8156 75.7563 92.6152 75.7563C92.4366 75.7563 92.2833 75.7189 92.1553 75.6441C92.0274 75.5692 91.9345 75.4654 91.8765 75.3327L92.2133 75.1371C92.2736 75.3109 92.4076 75.3978 92.6152 75.3978C92.8204 75.3978 92.923 75.3302 92.923 75.1951C92.923 75.0961 92.8083 75.0188 92.579 74.9633C92.4921 74.9416 92.4185 74.9199 92.3581 74.8981C92.3002 74.8764 92.235 74.845 92.1626 74.804C92.0926 74.763 92.0383 74.7086 91.9996 74.6411C91.9634 74.5735 91.9465 74.495 91.949 74.4057C91.949 74.2391 92.0117 74.1052 92.1372 74.0038C92.2652 73.9024 92.4233 73.8517 92.6116 73.8517C92.7612 73.8517 92.894 73.8855 93.0099 73.9531C93.1282 74.0183 93.2187 74.11 93.2814 74.2283L92.9519 74.4129C92.8916 74.2753 92.7781 74.2065 92.6116 74.2065C92.5343 74.2065 92.4704 74.2234 92.4197 74.2572C92.3714 74.291 92.3473 74.3381 92.3473 74.3985Z" fill="#050308"/>
<path d="M297.283 98.7485C297.283 100.362 294.362 104.931 294.362 104.931C294.362 104.931 291.441 100.362 291.441 98.7485C291.441 97.1349 292.749 95.8276 294.362 95.8276C295.976 95.8276 297.283 97.1349 297.283 98.7485Z" fill="#EF389B" stroke="#02070E" stroke-width="0.238342" stroke-miterlimit="10"/>
<path d="M296.452 98.7487C296.452 99.9035 295.517 100.839 294.362 100.839C293.207 100.839 292.271 99.9035 292.271 98.7487C292.271 97.5939 293.207 96.6584 294.362 96.6584C295.517 96.6584 296.452 97.5939 296.452 98.7487Z" fill="white" stroke="#37170F" stroke-width="0.238342" stroke-miterlimit="10"/>
<rect x="298.967" y="97.1803" width="16.4892" height="6.3981" rx="3.19905" fill="#2D7DF5"/>
<rect x="298.967" y="97.1803" width="16.4892" height="6.3981" rx="3.19905" stroke="black" stroke-width="0.261392"/>
<circle cx="301.189" cy="100.379" r="0.653481" fill="#00C3B3" stroke="black" stroke-width="0.261392"/>
<path d="M302.788 99.4156H303.855V99.6456H303.443V100.879H303.202V99.6456H302.788V99.4156ZM304.715 100.748C304.609 100.854 304.478 100.907 304.324 100.907C304.169 100.907 304.038 100.854 303.932 100.748C303.825 100.64 303.771 100.51 303.771 100.357C303.771 100.203 303.825 100.073 303.932 99.9656C304.038 99.8596 304.169 99.8066 304.324 99.8066C304.478 99.8066 304.609 99.8596 304.715 99.9656C304.822 100.073 304.876 100.203 304.876 100.357C304.876 100.51 304.822 100.64 304.715 100.748ZM303.997 100.357C303.997 100.451 304.029 100.53 304.091 100.593C304.154 100.656 304.231 100.687 304.324 100.687C304.416 100.687 304.493 100.656 304.556 100.593C304.618 100.53 304.65 100.451 304.65 100.357C304.65 100.262 304.618 100.183 304.556 100.12C304.493 100.058 304.416 100.026 304.324 100.026C304.231 100.026 304.154 100.058 304.091 100.12C304.029 100.183 303.997 100.262 303.997 100.357ZM305.672 99.8066C305.814 99.8066 305.936 99.8603 306.04 99.9677C306.141 100.074 306.192 100.203 306.192 100.357C306.192 100.511 306.141 100.642 306.04 100.748C305.938 100.854 305.815 100.907 305.672 100.907C305.514 100.907 305.392 100.848 305.306 100.731V101.298H305.08V99.8338H305.306V99.9844C305.391 99.8659 305.513 99.8066 305.672 99.8066ZM305.4 100.597C305.462 100.66 305.541 100.691 305.636 100.691C305.731 100.691 305.81 100.66 305.872 100.597C305.935 100.533 305.966 100.453 305.966 100.357C305.966 100.26 305.935 100.181 305.872 100.118C305.81 100.054 305.731 100.022 305.636 100.022C305.541 100.022 305.462 100.054 305.4 100.118C305.337 100.181 305.306 100.26 305.306 100.357C305.306 100.451 305.337 100.532 305.4 100.597ZM307.422 100.907C307.281 100.907 307.161 100.875 307.062 100.812C306.964 100.748 306.896 100.66 306.857 100.547L307.064 100.426C307.123 100.59 307.244 100.672 307.428 100.672C307.517 100.672 307.585 100.655 307.631 100.62C307.677 100.585 307.7 100.539 307.7 100.48C307.7 100.421 307.675 100.376 307.627 100.344C307.578 100.312 307.491 100.277 307.367 100.24C307.24 100.202 307.138 100.157 307.06 100.106C306.965 100.039 306.918 99.9405 306.918 99.8108C306.918 99.6812 306.964 99.5787 307.056 99.5034C307.146 99.4267 307.257 99.3884 307.388 99.3884C307.504 99.3884 307.606 99.417 307.693 99.4741C307.783 99.5299 307.851 99.6087 307.898 99.7104L307.696 99.8276C307.634 99.6909 307.532 99.6226 307.388 99.6226C307.318 99.6226 307.263 99.6393 307.221 99.6728C307.179 99.7049 307.158 99.7488 307.158 99.8045C307.158 99.8589 307.179 99.9021 307.221 99.9342C307.263 99.9649 307.34 99.9976 307.453 100.032C307.523 100.056 307.563 100.07 307.574 100.074C307.592 100.08 307.629 100.094 307.683 100.116C307.728 100.134 307.763 100.154 307.79 100.175C307.898 100.26 307.949 100.36 307.94 100.476C307.94 100.608 307.892 100.713 307.796 100.792C307.703 100.868 307.578 100.907 307.422 100.907ZM308.727 99.8066C308.869 99.8066 308.991 99.8603 309.095 99.9677C309.196 100.074 309.247 100.203 309.247 100.357C309.247 100.511 309.196 100.642 309.095 100.748C308.993 100.854 308.87 100.907 308.727 100.907C308.569 100.907 308.447 100.848 308.361 100.731V101.298H308.135V99.8338H308.361V99.9844C308.446 99.8659 308.568 99.8066 308.727 99.8066ZM308.455 100.597C308.517 100.66 308.596 100.691 308.691 100.691C308.786 100.691 308.865 100.66 308.927 100.597C308.99 100.533 309.021 100.453 309.021 100.357C309.021 100.26 308.99 100.181 308.927 100.118C308.865 100.054 308.786 100.022 308.691 100.022C308.596 100.022 308.517 100.054 308.455 100.118C308.392 100.181 308.361 100.26 308.361 100.357C308.361 100.451 308.392 100.532 308.455 100.597ZM310.28 99.9823V99.8338H310.506V100.879H310.28V100.729C310.195 100.847 310.073 100.907 309.914 100.907C309.771 100.907 309.648 100.854 309.546 100.748C309.444 100.642 309.393 100.511 309.393 100.357C309.393 100.202 309.444 100.072 309.546 99.9656C309.648 99.8596 309.771 99.8066 309.914 99.8066C310.073 99.8066 310.195 99.8652 310.28 99.9823ZM309.713 100.597C309.776 100.66 309.855 100.691 309.95 100.691C310.044 100.691 310.123 100.66 310.186 100.597C310.249 100.533 310.28 100.453 310.28 100.357C310.28 100.26 310.249 100.181 310.186 100.118C310.123 100.054 310.044 100.022 309.95 100.022C309.855 100.022 309.776 100.054 309.713 100.118C309.651 100.181 309.619 100.26 309.619 100.357C309.619 100.451 309.651 100.532 309.713 100.597ZM310.995 99.8338V100.009C311.052 99.8798 311.159 99.815 311.317 99.815V100.06C311.232 100.054 311.157 100.075 311.091 100.122C311.027 100.168 310.995 100.245 310.995 100.352V100.879H310.769V99.8338H310.995ZM311.931 100.346L312.408 100.879H312.138L311.71 100.396V100.879H311.484V99.4156H311.71V100.296L312.115 99.8338H312.391L311.931 100.346ZM312.689 100.122C312.689 100.154 312.706 100.181 312.74 100.202C312.773 100.221 312.822 100.24 312.886 100.258C312.935 100.269 312.977 100.281 313.014 100.294C313.05 100.306 313.088 100.325 313.129 100.35C313.169 100.374 313.2 100.406 313.221 100.447C313.243 100.486 313.253 100.532 313.252 100.585C313.252 100.685 313.213 100.764 313.135 100.821C313.057 100.878 312.96 100.907 312.844 100.907C312.741 100.907 312.652 100.885 312.579 100.842C312.505 100.799 312.451 100.739 312.418 100.662L312.612 100.549C312.647 100.649 312.724 100.7 312.844 100.7C312.963 100.7 313.022 100.661 313.022 100.582C313.022 100.525 312.956 100.481 312.823 100.449C312.773 100.436 312.731 100.424 312.696 100.411C312.662 100.398 312.625 100.38 312.583 100.357C312.542 100.333 312.511 100.302 312.489 100.263C312.468 100.223 312.458 100.178 312.459 100.127C312.459 100.03 312.496 99.953 312.568 99.8945C312.642 99.8359 312.733 99.8066 312.842 99.8066C312.929 99.8066 313.005 99.8262 313.072 99.8652C313.14 99.9028 313.193 99.9558 313.229 100.024L313.039 100.131C313.004 100.051 312.938 100.012 312.842 100.012C312.797 100.012 312.761 100.021 312.731 100.041C312.703 100.06 312.689 100.088 312.689 100.122Z" fill="#050308"/>
<path d="M370.36 91.9443C370.36 94.771 365.244 102.775 365.244 102.775C365.244 102.775 360.127 94.771 360.127 91.9443C360.127 89.1177 362.417 86.8276 365.244 86.8276C368.07 86.8276 370.36 89.1177 370.36 91.9443Z" fill="#F8BB1C" stroke="#02070E" stroke-width="0.41752" stroke-miterlimit="10"/>
<path d="M368.905 91.9444C368.905 93.9672 367.267 95.606 365.244 95.606C363.221 95.606 361.582 93.9672 361.582 91.9444C361.582 89.9215 363.221 88.2827 365.244 88.2827C367.267 88.2827 368.905 89.9215 368.905 91.9444Z" fill="white" stroke="#37170F" stroke-width="0.41752" stroke-miterlimit="10"/>
<rect x="373.309" y="89.9932" width="33.4266" height="9.61587" rx="4.80794" fill="#EF389B"/>
<rect x="373.309" y="89.9932" width="33.4266" height="9.61587" rx="4.80794" stroke="black" stroke-width="0.457899"/>
<circle cx="377.201" cy="94.801" r="1.14475" fill="#9047FF" stroke="black" stroke-width="0.457899"/>
<path d="M381.726 94.4566V93.4052H382.147V95.9695H381.726V94.8595H380.627V95.9695H380.206V93.4052H380.627V94.4566H381.726ZM384.085 94.398V94.1379H384.48V95.9695H384.085V95.7057C383.936 95.9133 383.722 96.0171 383.444 96.0171C383.192 96.0171 382.977 95.9243 382.799 95.7387C382.621 95.5531 382.531 95.3248 382.531 95.0537C382.531 94.7826 382.621 94.5543 382.799 94.3687C382.977 94.1831 383.192 94.0903 383.444 94.0903C383.722 94.0903 383.936 94.1928 384.085 94.398ZM383.092 95.475C383.202 95.5848 383.34 95.6398 383.506 95.6398C383.672 95.6398 383.81 95.5848 383.92 95.475C384.03 95.3626 384.085 95.2222 384.085 95.0537C384.085 94.8852 384.03 94.746 383.92 94.6361C383.81 94.5237 383.672 94.4676 383.506 94.4676C383.34 94.4676 383.202 94.5237 383.092 94.6361C382.982 94.746 382.927 94.8852 382.927 95.0537C382.927 95.2197 382.982 95.3602 383.092 95.475ZM385.905 94.0903C386.117 94.0903 386.287 94.1586 386.414 94.2954C386.543 94.4297 386.608 94.6129 386.608 94.8449V95.9695H386.213V94.8852C386.213 94.7484 386.176 94.6434 386.103 94.5701C386.029 94.4969 385.929 94.4602 385.802 94.4602C385.658 94.4602 385.545 94.5054 385.462 94.5958C385.379 94.6837 385.337 94.8144 385.337 94.9877V95.9695H384.941V94.1379H385.337V94.3723C385.459 94.1843 385.648 94.0903 385.905 94.0903ZM386.962 93.4052H387.401L387.145 94.3577H386.815L386.962 93.4052ZM387.883 94.6434C387.883 94.6996 387.912 94.746 387.971 94.7826C388.03 94.8168 388.115 94.8498 388.228 94.8815C388.313 94.9011 388.387 94.9218 388.451 94.9438C388.514 94.9658 388.582 94.9987 388.652 95.0427C388.723 95.0842 388.777 95.1404 388.814 95.2112C388.853 95.2796 388.871 95.3602 388.869 95.453C388.869 95.6288 388.8 95.7668 388.663 95.8669C388.527 95.967 388.357 96.0171 388.154 96.0171C387.974 96.0171 387.818 95.9793 387.689 95.9035C387.56 95.8278 387.466 95.7228 387.407 95.5885L387.748 95.3907C387.809 95.5665 387.944 95.6544 388.154 95.6544C388.362 95.6544 388.466 95.5861 388.466 95.4493C388.466 95.3492 388.35 95.271 388.118 95.2149C388.03 95.1929 387.955 95.1709 387.894 95.1489C387.836 95.1269 387.77 95.0952 387.696 95.0537C387.626 95.0122 387.571 94.9572 387.532 94.8888C387.495 94.8205 387.478 94.7411 387.48 94.6507C387.48 94.4822 387.544 94.3467 387.671 94.2441C387.8 94.1416 387.96 94.0903 388.151 94.0903C388.302 94.0903 388.436 94.1245 388.554 94.1928C388.673 94.2588 388.765 94.3516 388.828 94.4712L388.495 94.6581C388.434 94.5189 388.319 94.4493 388.151 94.4493C388.072 94.4493 388.008 94.4664 387.956 94.5005C387.908 94.5347 387.883 94.5824 387.883 94.6434ZM390.579 93.4052V95.5665H391.623V95.9695H390.158V93.4052H390.579ZM393.303 94.398V94.1379H393.699V95.9695H393.303V95.7057C393.154 95.9133 392.941 96.0171 392.662 96.0171C392.411 96.0171 392.196 95.9243 392.018 95.7387C391.839 95.5531 391.75 95.3248 391.75 95.0537C391.75 94.7826 391.839 94.5543 392.018 94.3687C392.196 94.1831 392.411 94.0903 392.662 94.0903C392.941 94.0903 393.154 94.1928 393.303 94.398ZM392.311 95.475C392.421 95.5848 392.559 95.6398 392.725 95.6398C392.891 95.6398 393.029 95.5848 393.139 95.475C393.249 95.3626 393.303 95.2222 393.303 95.0537C393.303 94.8852 393.249 94.746 393.139 94.6361C393.029 94.5237 392.891 94.4676 392.725 94.4676C392.559 94.4676 392.421 94.5237 392.311 94.6361C392.201 94.746 392.146 94.8852 392.146 95.0537C392.146 95.2197 392.201 95.3602 392.311 95.475ZM395.395 95.1196V94.1379H395.79V95.9695H395.395V95.735C395.273 95.9231 395.083 96.0171 394.827 96.0171C394.614 96.0171 394.444 95.9499 394.314 95.8156C394.187 95.6789 394.124 95.4945 394.124 95.2625V94.1379H394.519V95.2222C394.519 95.359 394.556 95.464 394.629 95.5372C394.702 95.6105 394.802 95.6471 394.929 95.6471C395.074 95.6471 395.187 95.6032 395.27 95.5152C395.353 95.4249 395.395 95.293 395.395 95.1196ZM397.216 94.0903C397.429 94.0903 397.599 94.1586 397.726 94.2954C397.855 94.4297 397.92 94.6129 397.92 94.8449V95.9695H397.524V94.8852C397.524 94.7484 397.487 94.6434 397.414 94.5701C397.341 94.4969 397.241 94.4602 397.114 94.4602C396.97 94.4602 396.856 94.5054 396.773 94.5958C396.69 94.6837 396.649 94.8144 396.649 94.9877V95.9695H396.253V94.1379H396.649V94.3723C396.771 94.1843 396.96 94.0903 397.216 94.0903ZM399.796 94.398V93.4052H400.192V95.9695H399.796V95.7057C399.647 95.9133 399.434 96.0171 399.155 96.0171C398.904 96.0171 398.689 95.9243 398.511 95.7387C398.332 95.5531 398.243 95.3248 398.243 95.0537C398.243 94.7826 398.332 94.5543 398.511 94.3687C398.689 94.1831 398.904 94.0903 399.155 94.0903C399.434 94.0903 399.647 94.1928 399.796 94.398ZM398.804 95.475C398.913 95.5848 399.051 95.6398 399.218 95.6398C399.384 95.6398 399.522 95.5848 399.631 95.475C399.741 95.3626 399.796 95.2222 399.796 95.0537C399.796 94.8852 399.741 94.746 399.631 94.6361C399.522 94.5237 399.384 94.4676 399.218 94.4676C399.051 94.4676 398.913 94.5237 398.804 94.6361C398.694 94.746 398.639 94.8852 398.639 95.0537C398.639 95.2197 398.694 95.3602 398.804 95.475ZM401.049 94.1379V94.4456C401.149 94.2185 401.337 94.1049 401.613 94.1049V94.5335C401.464 94.5237 401.332 94.5604 401.217 94.6434C401.105 94.724 401.049 94.8583 401.049 95.0464V95.9695H400.653V94.1379H401.049ZM402.707 95.4676L403.175 94.1379H403.597L402.893 96.0281C402.718 96.5019 402.42 96.7265 402 96.7021V96.3321C402.122 96.3395 402.221 96.3138 402.296 96.2552C402.372 96.1966 402.435 96.1026 402.487 95.9731L402.505 95.9365L401.728 94.1379H402.161L402.707 95.4676Z" fill="#050308"/>
<path d="M180.878 37.709C180.878 44.825 167.997 64.9748 167.997 64.9748C167.997 64.9748 155.115 44.825 155.115 37.709C155.115 30.593 160.881 24.8276 167.997 24.8276C175.113 24.8276 180.878 30.593 180.878 37.709Z" fill="#2D7DF5" stroke="#02070E" stroke-width="1.05111" stroke-miterlimit="10"/>
<path d="M177.215 37.7089C177.215 42.8016 173.089 46.9272 167.997 46.9272C162.904 46.9272 158.778 42.8016 158.778 37.7089C158.778 32.6163 162.904 28.4907 167.997 28.4907C173.089 28.4907 177.215 32.6163 177.215 37.7089Z" fill="white" stroke="#37170F" stroke-width="1.05111" stroke-miterlimit="10"/>
<rect x="188.302" y="32.7972" width="84.1516" height="24.208" rx="12.104" fill="#F8BB1C"/>
<rect x="188.302" y="32.7972" width="84.1516" height="24.208" rx="12.104" stroke="black" stroke-width="1.15276"/>
<circle cx="198.1" cy="44.9012" r="2.88191" fill="#EF389B" stroke="black" stroke-width="1.15276"/>
<path d="M209.489 44.4813V41.8346H210.55V48.29H209.489V45.4957H206.723V48.29H205.662V41.8346H206.723V44.4813H209.489ZM215.428 44.3338V43.679H216.424V48.29H215.428V47.626C215.053 48.1486 214.515 48.4099 213.814 48.4099C213.181 48.4099 212.639 48.1763 212.191 47.709C211.742 47.2418 211.517 46.6669 211.517 45.9845C211.517 45.3021 211.742 44.7272 212.191 44.26C212.639 43.7927 213.181 43.5591 213.814 43.5591C214.515 43.5591 215.053 43.8173 215.428 44.3338ZM212.928 47.0451C213.205 47.3217 213.552 47.4601 213.971 47.4601C214.389 47.4601 214.736 47.3217 215.013 47.0451C215.289 46.7622 215.428 46.4087 215.428 45.9845C215.428 45.5603 215.289 45.2099 215.013 44.9332C214.736 44.6504 214.389 44.509 213.971 44.509C213.552 44.509 213.205 44.6504 212.928 44.9332C212.652 45.2099 212.513 45.5603 212.513 45.9845C212.513 46.4026 212.652 46.7561 212.928 47.0451ZM220.01 43.5591C220.545 43.5591 220.972 43.7312 221.292 44.0755C221.618 44.4137 221.781 44.8748 221.781 45.4589V48.29H220.785V45.5603C220.785 45.216 220.692 44.9516 220.508 44.7672C220.323 44.5828 220.071 44.4905 219.752 44.4905C219.389 44.4905 219.103 44.6043 218.894 44.8318C218.685 45.0531 218.581 45.382 218.581 45.8185V48.29H217.585V43.679H218.581V44.2692C218.888 43.7958 219.364 43.5591 220.01 43.5591ZM222.67 41.8346H223.777L223.131 44.2323H222.301L222.67 41.8346ZM224.99 44.9516C224.99 45.093 225.064 45.2099 225.212 45.3021C225.359 45.3882 225.574 45.4712 225.857 45.5511C226.072 45.6003 226.26 45.6525 226.42 45.7079C226.58 45.7632 226.749 45.8462 226.927 45.9568C227.105 46.0614 227.241 46.2028 227.333 46.3811C227.431 46.5532 227.477 46.7561 227.471 46.9897C227.471 47.4324 227.299 47.7797 226.955 48.0318C226.61 48.2839 226.183 48.4099 225.673 48.4099C225.218 48.4099 224.827 48.3146 224.502 48.124C224.176 47.9335 223.939 47.6691 223.791 47.3309L224.649 46.8329C224.803 47.2756 225.144 47.4969 225.673 47.4969C226.195 47.4969 226.457 47.3248 226.457 46.9805C226.457 46.7284 226.165 46.5317 225.581 46.3903C225.359 46.335 225.172 46.2796 225.018 46.2243C224.87 46.169 224.704 46.089 224.52 45.9845C224.342 45.88 224.203 45.7417 224.105 45.5695C224.013 45.3974 223.97 45.1976 223.976 44.9701C223.976 44.5459 224.136 44.2046 224.455 43.9464C224.781 43.6882 225.184 43.5591 225.664 43.5591C226.045 43.5591 226.383 43.6452 226.678 43.8173C226.979 43.9833 227.21 44.2169 227.37 44.5182L226.53 44.9885C226.377 44.6381 226.088 44.4629 225.664 44.4629C225.467 44.4629 225.304 44.5059 225.175 44.592C225.052 44.6781 224.99 44.7979 224.99 44.9516ZM231.777 41.8346V47.2756H234.406V48.29H230.717V41.8346H231.777ZM238.636 44.3338V43.679H239.632V48.29H238.636V47.626C238.261 48.1486 237.723 48.4099 237.022 48.4099C236.389 48.4099 235.848 48.1763 235.399 47.709C234.95 47.2418 234.726 46.6669 234.726 45.9845C234.726 45.3021 234.95 44.7272 235.399 44.26C235.848 43.7927 236.389 43.5591 237.022 43.5591C237.723 43.5591 238.261 43.8173 238.636 44.3338ZM236.137 47.0451C236.413 47.3217 236.761 47.4601 237.179 47.4601C237.597 47.4601 237.944 47.3217 238.221 47.0451C238.498 46.7622 238.636 46.4087 238.636 45.9845C238.636 45.5603 238.498 45.2099 238.221 44.9332C237.944 44.6504 237.597 44.509 237.179 44.509C236.761 44.509 236.413 44.6504 236.137 44.9332C235.86 45.2099 235.722 45.5603 235.722 45.9845C235.722 46.4026 235.86 46.7561 236.137 47.0451ZM243.901 46.1505V43.679H244.897V48.29H243.901V47.6998C243.593 48.1732 243.117 48.4099 242.471 48.4099C241.936 48.4099 241.506 48.2409 241.18 47.9027C240.86 47.5584 240.701 47.0942 240.701 46.5102V43.679H241.697V46.4087C241.697 46.753 241.789 47.0174 241.973 47.2018C242.158 47.3863 242.41 47.4785 242.73 47.4785C243.092 47.4785 243.378 47.3678 243.587 47.1465C243.796 46.919 243.901 46.587 243.901 46.1505ZM248.487 43.5591C249.022 43.5591 249.449 43.7312 249.769 44.0755C250.094 44.4137 250.257 44.8748 250.257 45.4589V48.29H249.261V45.5603C249.261 45.216 249.169 44.9516 248.985 44.7672C248.8 44.5828 248.548 44.4905 248.229 44.4905C247.866 44.4905 247.58 44.6043 247.371 44.8318C247.162 45.0531 247.057 45.382 247.057 45.8185V48.29H246.061V43.679H247.057V44.2692C247.365 43.7958 247.841 43.5591 248.487 43.5591ZM254.982 44.3338V41.8346H255.978V48.29H254.982V47.626C254.607 48.1486 254.069 48.4099 253.368 48.4099C252.735 48.4099 252.194 48.1763 251.745 47.709C251.296 47.2418 251.072 46.6669 251.072 45.9845C251.072 45.3021 251.296 44.7272 251.745 44.26C252.194 43.7927 252.735 43.5591 253.368 43.5591C254.069 43.5591 254.607 43.8173 254.982 44.3338ZM252.483 47.0451C252.759 47.3217 253.107 47.4601 253.525 47.4601C253.943 47.4601 254.29 47.3217 254.567 47.0451C254.843 46.7622 254.982 46.4087 254.982 45.9845C254.982 45.5603 254.843 45.2099 254.567 44.9332C254.29 44.6504 253.943 44.509 253.525 44.509C253.107 44.509 252.759 44.6504 252.483 44.9332C252.206 45.2099 252.068 45.5603 252.068 45.9845C252.068 46.4026 252.206 46.7561 252.483 47.0451ZM258.135 43.679V44.4536C258.387 43.8819 258.86 43.596 259.555 43.596V44.675C259.18 44.6504 258.848 44.7426 258.559 44.9516C258.276 45.1545 258.135 45.4927 258.135 45.9661V48.29H257.139V43.679H258.135ZM262.308 47.0266L263.489 43.679H264.549L262.779 48.4376C262.336 49.6303 261.586 50.1959 260.528 50.1345V49.203C260.836 49.2215 261.085 49.1569 261.275 49.0094C261.466 48.8618 261.626 48.6251 261.755 48.2993L261.801 48.207L259.846 43.679H260.934L262.308 47.0266Z" fill="#050308"/>
<ellipse cx="383.317" cy="179.208" rx="52.5439" ry="2.05487" fill="#110F0A"/>
<path d="M343.32 125.745L340.84 124.505V113.343H425.174V124.505L423.314 125.745H343.32Z" fill="#110F0A"/>
<rect x="343.32" y="120.785" width="79.9934" height="53.949" fill="#4B1331"/>
<rect x="349.18" y="124.279" width="23.9778" height="50.8391" fill="#E7F7FE" stroke="#110F0A" stroke-width="0.620104"/>
<path d="M349.079 139.354L366.868 120.463L368.151 121.68L349.079 141.854L349.079 139.354Z" fill="#CBE1EB"/>
<path d="M349.166 144.281L369.14 123.191L369.796 123.813L349.166 145.56L349.166 144.281Z" fill="#CBE1EB"/>
<path d="M345.717 174.79L373.325 145.685L373.325 147.032L346.408 175.446L345.717 174.79Z" fill="#CBE1EB"/>
<path d="M349.486 175.879L373.199 150.678L373.199 153.409L350.888 177.209L349.486 175.879Z" fill="#CBE1EB"/>
<rect x="349.18" y="124.279" width="23.9778" height="50.8391" stroke="#110F0A" stroke-width="0.620104"/>
<rect x="338.979" y="170.393" width="88.6748" height="8.68145" fill="#EF389B"/>
<rect x="340.84" y="109.623" width="84.3341" height="14.8825" fill="#EF389B"/>
<mask id="path-35-outside-1_499_12904" maskUnits="userSpaceOnUse" x="340.22" y="105.902" width="86" height="5" fill="black">
<rect fill="white" x="340.22" y="105.902" width="86" height="5"/>
<path d="M340.22 105.902H425.794V109.623H340.22V105.902Z"/>
</mask>
<path d="M340.22 105.902H425.794V109.623H340.22V105.902Z" fill="#EF389B"/>
<path d="M425.794 109.003H340.22V110.243H425.794V109.003Z" fill="#F9FAFB" mask="url(#path-35-outside-1_499_12904)"/>
<rect x="389.198" y="133.931" width="26.8613" height="15.1825" fill="#E7F7FE"/>
<path d="M399.371 149.455L414.183 133.697L415.131 133.696L400.295 149.455L399.371 149.455Z" fill="#CBE1EB"/>
<path d="M395.589 149.245L410.22 133.596L412.098 133.596L397.375 149.336L395.589 149.245Z" fill="#CBE1EB"/>
<path d="M389.075 143.859L398.542 133.602L400.356 133.649L389.048 145.762L389.075 143.859Z" fill="#CBE1EB"/>
<rect x="388.889" y="133.622" width="27.4803" height="15.8015" stroke="#110F0A" stroke-width="0.618979"/>
<ellipse cx="303.383" cy="164.362" rx="39.0068" ry="2.05487" fill="#110F0A"/>
<path d="M273.525 124.027L271.674 123.102V114.769H334.629V123.102L333.24 124.027H273.525Z" fill="#110F0A"/>
<rect x="273.525" y="120.324" width="59.7147" height="40.2727" fill="#122B52"/>
<rect x="277.9" y="122.932" width="17.8993" height="37.9512" fill="#E7F7FE" stroke="#110F0A" stroke-width="0.462904"/>
<path d="M277.824 134.186L291.104 120.084L292.061 120.992L277.824 136.052L277.824 134.186Z" fill="#CBE1EB"/>
<path d="M277.889 137.864L292.799 122.12L293.289 122.585L277.889 138.819L277.889 137.864Z" fill="#CBE1EB"/>
<path d="M275.314 160.639L295.924 138.912L295.924 139.918L275.83 161.128L275.314 160.639Z" fill="#CBE1EB"/>
<path d="M278.129 161.452L295.83 142.64L295.83 144.678L279.175 162.444L278.129 161.452Z" fill="#CBE1EB"/>
<rect x="277.9" y="122.932" width="17.8993" height="37.9512" stroke="#110F0A" stroke-width="0.462904"/>
<rect x="270.285" y="157.357" width="66.1953" height="6.48066" fill="#2D7DF5"/>
<rect x="271.674" y="111.992" width="62.955" height="11.1097" fill="#2D7DF5"/>
<mask id="path-53-outside-2_499_12904" maskUnits="userSpaceOnUse" x="271.211" y="109.214" width="64" height="4" fill="black">
<rect fill="white" x="271.211" y="109.214" width="64" height="4"/>
<path d="M271.211 109.214H335.092V111.992H271.211V109.214Z"/>
</mask>
<path d="M271.211 109.214H335.092V111.992H271.211V109.214Z" fill="#2D7DF5"/>
<path d="M335.092 111.529H271.211V112.455H335.092V111.529Z" fill="#F9FAFB" mask="url(#path-53-outside-2_499_12904)"/>
<rect x="307.773" y="130.138" width="20.0519" height="11.3337" fill="#E7F7FE"/>
<path d="M315.366 141.726L326.424 129.963L327.131 129.962L316.057 141.726L315.366 141.726Z" fill="#CBE1EB"/>
<path d="M312.544 141.569L323.466 129.888L324.868 129.888L313.877 141.637L312.544 141.569Z" fill="#CBE1EB"/>
<path d="M307.682 137.549L314.748 129.892L316.103 129.927L307.662 138.969L307.682 137.549Z" fill="#CBE1EB"/>
<rect x="307.542" y="129.907" width="20.5139" height="11.7957" stroke="#110F0A" stroke-width="0.462064"/>
<ellipse cx="76.209" cy="179.203" rx="62.3564" ry="2.05487" fill="#110F0A"/>
<path d="M25.3678 111.459L22.2148 109.882V95.6943H129.414V109.882L127.049 111.459H25.3678Z" fill="#110F0A"/>
<rect x="25.3691" y="105.153" width="101.682" height="68.576" fill="#2F1654"/>
<rect x="32.8168" y="109.594" width="30.4788" height="64.6229" fill="#E7F7FE" stroke="#110F0A" stroke-width="0.788229"/>
<path d="M32.6884 128.758L55.3005 104.744L56.9309 106.291L32.6884 131.935L32.6884 128.758Z" fill="#CBE1EB"/>
<path d="M32.799 135.02L58.1879 108.211L59.0221 109.003L32.799 136.646L32.799 135.02Z" fill="#CBE1EB"/>
<path d="M28.415 173.801L63.5091 136.805L63.5086 138.518L29.2937 174.634L28.415 173.801Z" fill="#CBE1EB"/>
<path d="M33.2054 175.186L63.3471 143.152L63.3471 146.623L34.9866 176.875L33.2054 175.186Z" fill="#CBE1EB"/>
<rect x="32.8168" y="109.594" width="30.4788" height="64.6229" stroke="#110F0A" stroke-width="0.788229"/>
<rect x="19.8506" y="168.212" width="112.717" height="11.0352" fill="#6532B3"/>
<rect x="22.2148" y="90.9658" width="107.199" height="18.9175" fill="#6532B3"/>
<mask id="path-71-outside-3_499_12904" maskUnits="userSpaceOnUse" x="21.4268" y="86.2358" width="109" height="6" fill="black">
<rect fill="white" x="21.4268" y="86.2358" width="109" height="6"/>
<path d="M21.4268 86.2358H130.202V90.9652H21.4268V86.2358Z"/>
</mask>
<path d="M21.4268 86.2358H130.202V90.9652H21.4268V86.2358Z" fill="#6532B3"/>
<path d="M130.202 90.177H21.4268V91.7534H130.202V90.177Z" fill="#F9FAFB" mask="url(#path-71-outside-3_499_12904)"/>
<rect x="83.6846" y="121.865" width="34.1441" height="19.2989" fill="#E7F7FE"/>
<path d="M96.6156 141.596L115.444 121.567L116.649 121.565L97.7909 141.596L96.6156 141.596Z" fill="#CBE1EB"/>
<path d="M91.8077 141.329L110.406 121.438L112.793 121.438L94.0776 141.445L91.8077 141.329Z" fill="#CBE1EB"/>
<path d="M83.5283 134.483L95.5611 121.445L97.8677 121.505L83.4939 136.902L83.5283 134.483Z" fill="#CBE1EB"/>
<rect x="83.2912" y="121.471" width="34.9309" height="20.0857" stroke="#110F0A" stroke-width="0.786799"/>
<ellipse cx="213.496" cy="187.263" rx="77.0176" ry="2.05487" fill="#110F0A"/>
<path d="M149.993 101.613L146.055 99.6442V81.9226H279.951V99.6442L276.997 101.613H149.993Z" fill="#110F0A"/>
<rect x="149.994" y="93.7371" width="127.005" height="85.6543" fill="#594410"/>
<rect x="159.298" y="99.2841" width="38.0693" height="80.7168" fill="#E7F7FE" stroke="#110F0A" stroke-width="0.984532"/>
<path d="M159.137 123.22L187.38 93.2263L189.417 95.1581L159.137 127.188L159.137 123.22Z" fill="#CBE1EB"/>
<path d="M159.274 131.043L190.986 97.5572L192.028 98.5456L159.274 133.073L159.274 131.043Z" fill="#CBE1EB"/>
<path d="M153.799 179.481L197.633 133.272L197.632 135.41L154.896 180.522L153.799 179.481Z" fill="#CBE1EB"/>
<path d="M159.782 181.21L197.431 141.199L197.431 145.534L162.007 183.321L159.782 181.21Z" fill="#CBE1EB"/>
<rect x="159.298" y="99.2841" width="38.0693" height="80.7168" stroke="#110F0A" stroke-width="0.984532"/>
<rect x="143.102" y="172.5" width="140.788" height="13.7834" fill="#F8BB1C"/>
<rect x="146.055" y="76.0161" width="133.896" height="23.6288" fill="#F8BB1C"/>
<mask id="path-89-outside-4_499_12904" maskUnits="userSpaceOnUse" x="145.069" y="70.1084" width="136" height="7" fill="black">
<rect fill="white" x="145.069" y="70.1084" width="136" height="7"/>
<path d="M145.069 70.1084H280.935V76.0156H145.069V70.1084Z"/>
</mask>
<path d="M145.069 70.1084H280.935V76.0156H145.069V70.1084Z" fill="#F8BB1C"/>
<path d="M280.935 75.0311H145.069V77.0001H280.935V75.0311Z" fill="#F9FAFB" mask="url(#path-89-outside-4_499_12904)"/>
<rect x="222.834" y="114.61" width="42.6475" height="24.1051" fill="#E7F7FE"/>
<path d="M238.985 139.256L262.502 114.238L264.007 114.236L240.453 139.256L238.985 139.256Z" fill="#CBE1EB"/>
<path d="M232.98 138.923L256.21 114.077L259.191 114.077L235.815 139.067L232.98 138.923Z" fill="#CBE1EB"/>
<path d="M222.638 130.371L237.667 114.087L240.548 114.162L222.595 133.393L222.638 130.371Z" fill="#CBE1EB"/>
<rect x="222.343" y="114.119" width="43.6302" height="25.0878" stroke="#110F0A" stroke-width="0.982746"/>
</g>
<defs>
<filter id="filter0_d_499_12904" x="0" y="0" width="490" height="214" filterUnits="userSpaceOnUse" color-interpolation-filters="sRGB">
<feFlood flood-opacity="0" result="BackgroundImageFix"/>
<feColorMatrix in="SourceAlpha" type="matrix" values="0 0 0 0 0 0 0 0 0 0 0 0 0 0 0 0 0 0 127 0" result="hardAlpha"/>
<feOffset dx="16" dy="16"/>
<feComposite in2="hardAlpha" operator="out"/>
<feColorMatrix type="matrix" values="0 0 0 0 0 0 0 0 0 0 0 0 0 0 0 0 0 0 1 0"/>
<feBlend mode="normal" in2="BackgroundImageFix" result="effect1_dropShadow_499_12904"/>
<feBlend mode="normal" in="SourceGraphic" in2="effect1_dropShadow_499_12904" result="shape"/>
</filter>
</defs>
</svg>
