<svg width="490" height="214" viewBox="0 0 490 214" fill="none" xmlns="http://www.w3.org/2000/svg">
<g filter="url(#filter0_d_685_4858)">
<rect x="4" y="4" width="466" height="190" rx="95" fill="#F4F8FE"/>
<rect x="2" y="2" width="470" height="194" rx="97" stroke="#110F0A" stroke-width="4"/>
</g>
<mask id="mask0_685_4858" style="mask-type:alpha" maskUnits="userSpaceOnUse" x="4" y="4" width="466" height="190">
<rect x="4" y="4" width="466" height="190" rx="95" fill="#F4F8FE"/>
</mask>
<g mask="url(#mask0_685_4858)">
<path d="M132.899 135.317C140.854 135.317 147.303 128.868 147.303 120.913C147.303 112.958 140.854 106.509 132.899 106.509C124.944 106.509 118.495 112.958 118.495 120.913C118.495 128.868 124.944 135.317 132.899 135.317Z" fill="#FFB424" stroke="#F0A619" stroke-width="0.49962" stroke-miterlimit="10"/>
<path d="M132.9 130.83C138.377 130.83 142.817 126.39 142.817 120.913C142.817 115.435 138.377 110.995 132.9 110.995C127.423 110.995 122.982 115.435 122.982 120.913C122.982 126.39 127.423 130.83 132.9 130.83Z" fill="#E5AA39" stroke="#FCBA3A" stroke-width="0.49962" stroke-miterlimit="10"/>
<path d="M127.599 124.565V113.583H131.31C132.172 113.583 132.876 113.739 133.423 114.05C133.973 114.357 134.381 114.774 134.645 115.299C134.91 115.825 135.042 116.411 135.042 117.058C135.042 117.705 134.91 118.293 134.645 118.822C134.384 119.352 133.98 119.773 133.434 120.088C132.887 120.399 132.186 120.554 131.332 120.554H128.672V119.375H131.289C131.878 119.375 132.352 119.273 132.71 119.069C133.067 118.865 133.326 118.59 133.487 118.243C133.652 117.893 133.734 117.498 133.734 117.058C133.734 116.619 133.652 116.225 133.487 115.879C133.326 115.532 133.065 115.26 132.704 115.063C132.343 114.863 131.864 114.763 131.267 114.763H128.929V124.565H127.599ZM140.595 116.329V117.401H136.326V116.329H140.595ZM137.571 114.356H138.836V122.206C138.836 122.564 138.888 122.832 138.992 123.01C139.099 123.186 139.235 123.304 139.399 123.364C139.567 123.421 139.744 123.45 139.93 123.45C140.069 123.45 140.184 123.443 140.273 123.429C140.362 123.411 140.434 123.396 140.488 123.386L140.745 124.523C140.659 124.555 140.539 124.587 140.386 124.619C140.232 124.655 140.037 124.673 139.801 124.673C139.444 124.673 139.093 124.596 138.75 124.442C138.411 124.288 138.128 124.054 137.903 123.74C137.681 123.425 137.571 123.028 137.571 122.549V114.356Z" fill="#FFB424"/>
<path d="M113.755 106.509C118.831 106.509 122.946 102.394 122.946 97.3178C122.946 92.2416 118.831 88.1265 113.755 88.1265C108.679 88.1265 104.563 92.2416 104.563 97.3178C104.563 102.394 108.679 106.509 113.755 106.509Z" fill="#FFB424" stroke="#F0A619" stroke-width="0.49962" stroke-miterlimit="10"/>
<path d="M113.756 103.645C117.25 103.645 120.082 100.812 120.082 97.3181C120.082 93.8238 117.25 90.9912 113.756 90.9912C110.261 90.9912 107.429 93.8238 107.429 97.3181C107.429 100.812 110.261 103.645 113.756 103.645Z" fill="#E5AA39" stroke="#FCBA3A" stroke-width="0.49962" stroke-miterlimit="10"/>
<path d="M110.373 100.716V93.7095H112.74C113.29 93.7095 113.739 93.8087 114.088 94.0072C114.44 94.2033 114.7 94.469 114.868 94.8043C115.037 95.1396 115.122 95.5137 115.122 95.9265C115.122 96.3393 115.037 96.7145 114.868 97.0521C114.702 97.3897 114.444 97.6588 114.095 97.8595C113.746 98.058 113.299 98.1572 112.754 98.1572H111.057V97.4045H112.727C113.103 97.4045 113.405 97.3395 113.633 97.2095C113.861 97.0795 114.027 96.9039 114.129 96.6826C114.234 96.4591 114.287 96.2071 114.287 95.9265C114.287 95.646 114.234 95.3951 114.129 95.1738C114.027 94.9526 113.86 94.7792 113.63 94.6538C113.4 94.5261 113.094 94.4622 112.713 94.4622H111.221V100.716H110.373ZM118.664 95.4612V96.1455H115.941V95.4612H118.664ZM116.735 94.2022H117.542V99.2109C117.542 99.439 117.575 99.6101 117.641 99.7241C117.71 99.8359 117.797 99.9112 117.901 99.9499C118.009 99.9864 118.122 100.005 118.24 100.005C118.329 100.005 118.402 100 118.459 99.991C118.516 99.9796 118.562 99.9705 118.596 99.9636L118.76 100.689C118.705 100.709 118.629 100.73 118.531 100.751C118.433 100.773 118.309 100.785 118.158 100.785C117.93 100.785 117.706 100.736 117.487 100.638C117.271 100.54 117.091 100.39 116.947 100.189C116.805 99.9887 116.735 99.7355 116.735 99.4299V94.2022Z" fill="#FFB424"/>
<path d="M143.94 95.5126C147.434 95.5126 150.267 92.68 150.267 89.1857C150.267 85.6915 147.434 82.8589 143.94 82.8589C140.446 82.8589 137.613 85.6915 137.613 89.1857C137.613 92.68 140.446 95.5126 143.94 95.5126Z" fill="#FFB424" stroke="#F0A619" stroke-width="0.49962" stroke-miterlimit="10"/>
<path d="M143.941 93.5425C146.347 93.5425 148.297 91.5919 148.297 89.1858C148.297 86.7797 146.347 84.8291 143.941 84.8291C141.535 84.8291 139.584 86.7797 139.584 89.1858C139.584 91.5919 141.535 93.5425 143.941 93.5425Z" fill="#E5AA39" stroke="#FCBA3A" stroke-width="0.49962" stroke-miterlimit="10"/>
<path d="M141.613 90.6406V85.8164H143.243C143.621 85.8164 143.93 85.8847 144.171 86.0214C144.412 86.1564 144.592 86.3394 144.708 86.5702C144.824 86.801 144.882 87.0586 144.882 87.3428C144.882 87.6271 144.824 87.8854 144.708 88.1178C144.593 88.3502 144.416 88.5355 144.175 88.6737C143.935 88.8103 143.627 88.8787 143.252 88.8787H142.084V88.3604H143.233C143.492 88.3604 143.7 88.3157 143.857 88.2262C144.014 88.1367 144.128 88.0157 144.199 87.8634C144.271 87.7095 144.307 87.536 144.307 87.3428C144.307 87.1497 144.271 86.9769 144.199 86.8246C144.128 86.6723 144.014 86.5529 143.855 86.4666C143.696 86.3786 143.486 86.3346 143.224 86.3346H142.197V90.6406H141.613ZM147.321 87.0225V87.4936H145.446V87.0225H147.321ZM145.993 86.1556H146.549V89.6042C146.549 89.7612 146.571 89.879 146.617 89.9575C146.664 90.0345 146.724 90.0863 146.796 90.113C146.87 90.1381 146.947 90.1507 147.029 90.1507C147.09 90.1507 147.141 90.1475 147.18 90.1412C147.219 90.1334 147.251 90.1271 147.274 90.1224L147.387 90.6218C147.349 90.6359 147.297 90.65 147.229 90.6642C147.162 90.6799 147.076 90.6877 146.973 90.6877C146.816 90.6877 146.662 90.654 146.511 90.5864C146.362 90.5189 146.238 90.4161 146.139 90.2779C146.041 90.1397 145.993 89.9654 145.993 89.7549V86.1556Z" fill="#FFB424"/>
<path d="M63.6083 146.304L69.2757 144.564C69.2757 144.564 71.0527 144.002 72.315 142.677C72.9379 142.022 73.699 141.513 74.52 141.134C76.71 140.127 80.9751 138.705 87.1055 139.068C87.1055 139.068 97.6075 139.8 107.56 145.113L111.92 146.304C111.92 146.304 113.644 147.068 119.051 146.872C121.541 146.977 123.778 147.095 125.716 147.21C128.158 147.355 129.22 147.44 130.606 147.824C132.424 148.329 133.825 149.078 134.746 149.653C135.104 149.908 135.527 150.261 135.943 150.735C136.591 151.475 136.961 152.216 137.174 152.747C137.449 152.731 137.75 152.726 138.077 152.746C138.764 152.786 139.359 152.915 139.832 153.06C139.832 153.06 144.772 149.876 154.519 150.006C154.519 150.006 155.427 149.283 156.329 149.097C156.329 149.097 156.404 149.038 156.533 148.927C158.396 147.308 160.771 146.379 163.241 146.364C164.525 146.355 165.819 146.48 166.783 146.878C166.783 146.878 168.613 147.659 168.97 148.146C168.97 148.146 173.028 148.814 171.814 153.06C171.814 153.06 172.357 154.188 163.542 156.454C154.727 158.723 144.931 163.161 144.931 163.161C144.931 163.161 121.912 169.678 118.968 172.317C118.968 172.317 115.617 174.094 110.055 173.616C110.055 173.616 104.134 173.288 98.6333 173.407C98.6333 173.407 88.8241 171.673 82.4723 170.84C82.4723 170.84 73.0761 169.395 67.0291 170.775L64.9223 169.644L63.0088 152.907L63.6067 146.307L63.6083 146.304Z" fill="#9E653B"/>
<path d="M68.5644 166.676L64.2443 167.178L62.8787 167.336L60.1475 144.51L60.9635 144.382L61.2416 144.343L65.3535 143.774C65.3535 143.774 67.9598 156.939 68.5644 166.678V166.676Z" fill="#D0D5DD"/>
<path d="M64.4009 173.85C64.3893 174.336 64.371 174.816 64.3476 175.282C64.3093 176.028 63.7364 176.636 62.9953 176.721L7.61914 182.966V173.728L62.8771 167.336L64.2427 167.178C64.3859 169.5 64.4492 171.76 64.4009 173.85Z" fill="#312609"/>
<path d="M64.2427 167.176L62.8771 167.335L7.61914 173.726V147.242L59.2182 141.11C59.991 141.018 60.7054 141.538 60.852 142.304C60.9569 142.842 61.0901 143.531 61.2383 144.34C62.1427 149.233 63.7214 158.628 64.2411 167.176H64.2427Z" fill="#6B5213"/>
<path d="M97.4463 162.034C97.4463 162.034 108.023 160.258 113.183 161.302C114.152 161.499 115.138 161.589 116.125 161.609C119.609 161.674 127.007 161.655 132.861 160.561C135.214 160.122 137.114 158.305 137.521 155.945C137.536 155.86 137.549 155.772 137.559 155.683C137.884 153.104 136.41 151.03 135.233 150.024C134.966 149.796 134.75 149.653 134.46 149.461C134.46 149.461 132.57 148.211 129.858 147.648C127.67 147.193 121.884 146.732 114.14 146.955" stroke="#52341E" stroke-width="0.33308" stroke-miterlimit="10"/>
<path d="M127.544 150.467C127.544 150.467 133.826 148.832 136.118 152.757C138.408 156.684 133.132 158.598 133.132 158.598C133.132 158.598 129.172 159.364 127.696 158.871C127.696 158.871 127.023 158.624 126.933 155.648C126.923 155.295 126.897 154.944 126.862 154.594C126.763 153.6 126.672 151.445 127.546 150.467H127.544Z" fill="#F5B49D" stroke="#291A0F" stroke-width="0.124905" stroke-miterlimit="10"/>
<path d="M163.934 156.036C163.934 156.036 163.654 155.167 164.523 154.639L167.816 152.807C167.816 152.807 169.711 152.404 169.804 153.273C169.804 153.273 169.276 154.671 163.934 156.038V156.036Z" fill="#F5B49D"/>
<path d="M165.749 155.865C165.749 155.865 170.346 154.654 171.868 153.473C171.868 153.473 171.681 152.82 170.346 153.1C170.346 153.1 169.248 154.299 167.896 154.652L165.749 155.377V155.865Z" fill="#F5B49D"/>
<path d="M68.5625 173.178L64.4024 173.85C64.4507 171.76 64.3874 169.498 64.2441 167.178L68.5642 166.677C68.7191 169.158 68.744 171.416 68.5625 173.178Z" fill="#95989E"/>
<path d="M261.435 108.817C261.435 108.817 261.032 94.5883 279.798 91.7967C298.564 89.0052 303.749 93.3927 306.94 98.1778C310.13 102.964 316.114 122.508 315.515 130.285C314.917 138.062 293.512 147.68 293.861 152.218C294.21 156.756 261.435 108.819 261.435 108.819V108.817Z" fill="black"/>
<path d="M267.614 186.497C269.835 188.547 274.59 183.598 286.256 180.719C296.913 178.09 303.525 179.659 304.307 176.838C305.077 174.061 299.665 172.121 296.125 165.597C292.911 159.671 293.023 153.251 293.785 148.367L292.478 148.624L270.501 152.977C270.985 155.9 271.532 160.645 271.016 166.408C269.95 178.289 265.272 184.336 267.612 186.497H267.614Z" fill="#9E653B"/>
<path d="M270.503 152.977C270.503 152.977 271.003 159.893 271.018 166.408C283.316 166.061 289.816 154.843 292.48 148.624L270.503 152.977Z" fill="#7F4D2A"/>
<path d="M266.396 159.144C266.396 159.144 295.492 159.625 295.511 141.5C295.531 123.377 299.299 111.231 280.724 110.159C262.148 109.087 258.531 115.999 257.052 122.046C255.574 128.094 258.827 158.552 266.395 159.144H266.396Z" fill="#9E653B"/>
<path d="M267.472 109.717C267.472 109.717 275.439 130.98 287.664 134.124C299.89 137.268 305.193 133.992 305.193 133.992C305.193 133.992 295.815 126.543 293.868 113.537C293.868 113.537 273.48 99.5952 267.471 109.715L267.472 109.717Z" fill="black"/>
<path d="M269.447 111.443C269.447 111.443 263.498 116.191 262.047 120.806C260.597 125.421 259.945 134.922 257.175 134.6C257.175 134.6 251.173 120.147 257.918 111.971C265.071 103.302 269.447 111.445 269.447 111.445V111.443Z" fill="black"/>
<path d="M297.877 98.9512C297.877 98.9512 296.683 91.3587 307.212 89.4C317.741 87.4412 317.938 109.805 319.067 115.198C320.196 120.591 317.383 123.82 313.368 124.149C309.352 124.477 297.878 98.9527 297.878 98.9527L297.877 98.9512Z" fill="black"/>
<path d="M247.604 197.813C249.935 192.578 255.144 182.677 263.842 178.395C265.698 177.483 267.607 175.609 269.408 176.633C272.785 178.553 272.546 187.596 272.521 188.291C282.126 180.71 287.67 177.906 291.035 176.849C291.628 176.664 294.132 175.788 297.944 174.681C302.79 173.273 303.469 172.708 304.438 172.585C307.449 172.201 312.196 176.209 319.559 197.111" fill="#002724"/>
<path d="M331.592 187.621C340.165 186.913 349.155 184.628 356.925 182.107C366.637 178.956 374.465 174.349 369.42 165.473C364.771 157.291 357.245 139.016 357.755 123.875L339.682 138.44L327.406 148.332C327.406 148.332 327.457 154.163 328.797 164.383C329.043 166.246 329.33 168.257 329.668 170.407C329.941 172.143 329.143 173.878 327.65 174.803C327.557 174.86 327.464 174.918 327.373 174.976C321.272 178.809 324.41 188.214 331.59 187.621H331.592Z" fill="#9E653B"/>
<path d="M327.408 145.925C327.408 145.925 326.78 148.041 327.86 155.86C338.804 154.074 349.035 145.346 349.035 145.346C343.464 143.816 341.436 137.795 337.286 138.357L327.41 145.923L327.408 145.925Z" fill="#7F4D2A"/>
<path d="M317.285 147.708C317.285 147.708 359.383 154.701 363.335 128.418C367.287 102.134 375.382 85.3354 348.671 79.7596C321.96 74.1823 315.217 83.426 311.764 91.8775C308.311 100.329 306.436 145.211 317.286 147.708H317.285Z" fill="#9E653B"/>
<path d="M305.572 80.2437C303.764 86.5725 308.603 94.2826 316.724 96.8202C328.779 100.588 326.115 115.376 331.54 115.174C336.965 114.974 339.153 106.675 343.999 113.305C348.133 118.961 340.559 125.666 341.08 128.768C341.974 134.092 350.315 144.987 357.832 144.44C365.348 143.893 379.413 108.173 376.599 97.122C373.786 86.0705 362.534 74.4169 351.885 72.8093C341.235 71.2017 326.448 75.7996 323.031 75.7996C319.614 75.7996 306.547 76.8239 305.571 80.2437H305.572Z" fill="black"/>
<path d="M370.999 158.434L366.611 148.552C366.611 148.552 327.714 152.512 321.115 174.861C321.115 174.861 351.182 158.915 370.999 158.434Z" fill="#DCEAFF"/>
<path d="M312.567 202.5C318.01 186.813 321.839 175.874 326.644 172.132C327.178 171.717 328.414 170.887 330.888 169.229C338.626 164.04 346.022 163.368 355.141 160.369C361.428 157.042 367.108 155.89 369.21 156.841C373.097 158.6 370.856 164.851 371.774 167.707C374.387 175.839 378.934 187.013 387.527 201.535" fill="#300B1F"/>
<path d="M378.724 186.019C389.357 185.142 400.507 182.308 410.143 179.18C422.188 175.271 431.898 169.559 425.641 158.548C419.875 148.4 410.542 125.733 411.173 106.956L388.758 125.019L373.532 137.288C373.532 137.288 373.595 144.521 375.259 157.197C375.563 159.509 375.919 162.003 376.34 164.669C376.678 166.823 375.688 168.973 373.837 170.123C373.722 170.194 373.608 170.266 373.493 170.338C365.927 175.093 369.818 186.756 378.725 186.021L378.724 186.019Z" fill="#9E653B"/>
<path d="M373.533 134.303C373.533 134.303 372.754 136.929 374.092 146.627C387.665 144.413 400.356 133.587 400.356 133.587C393.445 131.689 390.931 124.221 385.783 124.919L373.533 134.305V134.303Z" fill="#7F4D2A"/>
<path d="M360.977 136.515C360.977 136.515 413.192 145.19 418.093 112.589C422.994 79.9893 433.035 59.1543 399.905 52.2365C366.775 45.32 358.412 56.7836 354.129 67.2663C349.846 77.7491 347.522 133.417 360.977 136.513V136.515Z" fill="#9E653B"/>
<path d="M354.513 68.6854C355.308 69.7184 357.669 69.7489 362.391 69.8113C366.307 69.8621 368.502 69.8911 371.395 69.0612C373.215 68.5389 374.055 68.0368 374.585 68.4982C374.86 68.7376 375.326 69.4776 373.084 76.9396C372.447 79.0579 372.281 79.4278 372.521 79.9415C373.586 82.2136 379.098 79.7151 382.276 81.8175C388.079 85.6565 383.492 103.127 383.965 103.201C384.297 103.253 384.377 94.2183 389.838 90.6752C391.888 89.3462 394.991 88.5975 397.04 89.8554C398.997 91.0568 399.288 93.6553 399.634 95.4951C400.978 102.618 404.238 103.997 407.389 111.004C412.827 123.096 408.792 131.608 411.271 132.465C416.215 134.176 442.507 105.041 434.549 73.7766C431.059 60.07 417.105 45.6161 403.896 43.6226C401.219 43.2192 382.981 37.3083 368.109 47.3325C358.507 53.8035 352.109 65.5587 354.517 68.6883L354.513 68.6854Z" fill="black"/>
<path d="M427.6 149.818L422.159 137.561C422.159 137.561 373.915 142.472 365.73 170.193C365.73 170.193 403.023 150.415 427.601 149.82L427.6 149.818Z" fill="#DCEAFF"/>
<path d="M355.125 204.475C361.875 185.1 366.694 171.264 372.654 166.643C373.317 166.13 374.851 165.105 377.918 163.057C387.514 156.65 394.838 155.246 407.134 151.217C415.711 147.144 421.591 147.6 424.197 148.775C429.018 150.948 433.597 158.075 434.736 161.604C437.977 171.648 437.439 185.347 448.096 203.284" fill="#2E444E"/>
</g>
<defs>
<filter id="filter0_d_685_4858" x="0" y="0" width="490" height="214" filterUnits="userSpaceOnUse" color-interpolation-filters="sRGB">
<feFlood flood-opacity="0" result="BackgroundImageFix"/>
<feColorMatrix in="SourceAlpha" type="matrix" values="0 0 0 0 0 0 0 0 0 0 0 0 0 0 0 0 0 0 127 0" result="hardAlpha"/>
<feOffset dx="16" dy="16"/>
<feComposite in2="hardAlpha" operator="out"/>
<feColorMatrix type="matrix" values="0 0 0 0 0 0 0 0 0 0 0 0 0 0 0 0 0 0 1 0"/>
<feBlend mode="normal" in2="BackgroundImageFix" result="effect1_dropShadow_685_4858"/>
<feBlend mode="normal" in="SourceGraphic" in2="effect1_dropShadow_685_4858" result="shape"/>
</filter>
</defs>
</svg>
