<svg width="490" height="214" viewBox="0 0 490 214" fill="none" xmlns="http://www.w3.org/2000/svg">
<g filter="url(#filter0_d_639_3283)">
<rect x="4" y="4" width="466" height="190" rx="95" fill="#FEF5FA"/>
<rect x="2" y="2" width="470" height="194" rx="97" stroke="#110F0A" stroke-width="4"/>
</g>
<mask id="mask0_639_3283" style="mask-type:alpha" maskUnits="userSpaceOnUse" x="4" y="4" width="466" height="190">
<rect x="4" y="4" width="466" height="190" rx="95" fill="#FEF5FA"/>
</mask>
<g mask="url(#mask0_639_3283)">
<rect x="243.599" y="94.883" width="52.5788" height="101.909" fill="#FCFCFD" stroke="#050308" stroke-width="0.192741"/>
<path d="M295.774 196.063L277.526 202.492L277.43 101.705L277.43 101.205H276.93H226.883L243.43 95.2866H295.774V196.063Z" fill="#DDC7FF" stroke="#050308"/>
<rect x="224.5" y="102.209" width="52" height="100.291" fill="#2B154D" stroke="#050308"/>
<path d="M242.334 89.3145H241.443L240.93 87.9015H238.095L237.582 89.3145H236.691L239.04 83.0145H239.985L242.334 89.3145ZM239.508 84.0135L238.383 87.1185H240.642L239.508 84.0135ZM246.626 85.5885V84.8145H247.4V89.1255C247.4 89.7915 247.175 90.3075 246.725 90.6735C246.269 91.0455 245.729 91.2315 245.105 91.2315C244.601 91.2315 244.166 91.1355 243.8 90.9435C243.434 90.7575 243.158 90.4875 242.972 90.1335L243.656 89.7465C243.902 90.2505 244.391 90.5025 245.123 90.5025C245.591 90.5025 245.957 90.3795 246.221 90.1335C246.491 89.8875 246.626 89.5515 246.626 89.1255V88.4865C246.23 89.0865 245.666 89.3865 244.934 89.3865C244.286 89.3865 243.743 89.1585 243.305 88.7025C242.861 88.2405 242.639 87.6855 242.639 87.0375C242.639 86.3895 242.861 85.8375 243.305 85.3815C243.743 84.9255 244.286 84.6975 244.934 84.6975C245.672 84.6975 246.236 84.9945 246.626 85.5885ZM246.626 87.0375C246.626 86.5875 246.473 86.2095 246.167 85.9035C245.861 85.5975 245.48 85.4445 245.024 85.4445C244.568 85.4445 244.187 85.5975 243.881 85.9035C243.575 86.2095 243.422 86.5875 243.422 87.0375C243.422 87.4935 243.575 87.8745 243.881 88.1805C244.187 88.4865 244.568 88.6395 245.024 88.6395C245.48 88.6395 245.861 88.4865 246.167 88.1805C246.473 87.8745 246.626 87.4935 246.626 87.0375ZM252.906 87.4245H249.135C249.213 87.8205 249.396 88.1325 249.684 88.3605C249.972 88.5825 250.332 88.6935 250.764 88.6935C251.358 88.6935 251.79 88.4745 252.06 88.0365L252.726 88.4145C252.282 89.0925 251.622 89.4315 250.746 89.4315C250.038 89.4315 249.456 89.2095 249 88.7655C248.556 88.3095 248.334 87.7425 248.334 87.0645C248.334 86.3805 248.553 85.8165 248.991 85.3725C249.429 84.9225 249.996 84.6975 250.692 84.6975C251.352 84.6975 251.889 84.9315 252.303 85.3995C252.723 85.8555 252.933 86.4135 252.933 87.0735C252.933 87.1875 252.924 87.3045 252.906 87.4245ZM250.692 85.4355C250.278 85.4355 249.93 85.5525 249.648 85.7865C249.372 86.0205 249.201 86.3385 249.135 86.7405H252.141C252.075 86.3265 251.91 86.0055 251.646 85.7775C251.382 85.5495 251.064 85.4355 250.692 85.4355ZM255.615 83.5905L257.271 83.0145H257.991V89.3145H257.163V83.9145L255.822 84.3105L255.615 83.5905ZM261.118 85.1925C261.748 85.1925 262.267 85.3905 262.675 85.7865C263.083 86.1765 263.287 86.6835 263.287 87.3075C263.287 87.9315 263.083 88.4415 262.675 88.8375C262.267 89.2335 261.748 89.4315 261.118 89.4315C260.476 89.4315 259.954 89.2335 259.552 88.8375C259.15 88.4415 258.949 87.9315 258.949 87.3075C258.949 86.8155 259.075 86.3955 259.327 86.0475L261.352 83.0145H262.306L260.821 85.2105C261.001 85.1985 261.1 85.1925 261.118 85.1925ZM261.118 85.9935C260.716 85.9935 260.392 86.1135 260.146 86.3535C259.9 86.5935 259.777 86.9115 259.777 87.3075C259.777 87.7035 259.9 88.0245 260.146 88.2705C260.398 88.5105 260.722 88.6305 261.118 88.6305C261.514 88.6305 261.835 88.5105 262.081 88.2705C262.333 88.0245 262.459 87.7035 262.459 87.3075C262.459 86.9115 262.333 86.5935 262.081 86.3535C261.835 86.1135 261.514 85.9935 261.118 85.9935ZM269.75 86.9295H266.465V86.1735H269.75V86.9295ZM277.064 89.3145H272.996V88.6305L275.219 86.3625C275.813 85.7685 276.11 85.2585 276.11 84.8325C276.11 84.4845 276.002 84.2115 275.786 84.0135C275.576 83.8095 275.312 83.7075 274.994 83.7075C274.4 83.7075 273.968 83.9895 273.698 84.5535L272.996 84.1395C273.188 83.7375 273.458 83.4315 273.806 83.2215C274.154 83.0055 274.547 82.8975 274.985 82.8975C275.519 82.8975 275.978 83.0715 276.362 83.4195C276.752 83.7735 276.947 84.2415 276.947 84.8235C276.947 85.4595 276.572 86.1525 275.822 86.9025L274.211 88.5045H277.064V89.3145ZM281.956 88.5405C281.536 89.1345 280.939 89.4315 280.165 89.4315C279.391 89.4315 278.794 89.1345 278.374 88.5405C277.948 87.9405 277.735 87.1485 277.735 86.1645C277.735 85.1805 277.948 84.3885 278.374 83.7885C278.794 83.1945 279.391 82.8975 280.165 82.8975C280.939 82.8975 281.536 83.1945 281.956 83.7885C282.382 84.3885 282.595 85.1805 282.595 86.1645C282.595 87.1485 282.382 87.9405 281.956 88.5405ZM278.572 86.1645C278.572 86.9445 278.71 87.5475 278.986 87.9735C279.262 88.3995 279.655 88.6125 280.165 88.6125C280.675 88.6125 281.068 88.3995 281.344 87.9735C281.626 87.5475 281.767 86.9445 281.767 86.1645C281.767 85.3845 281.626 84.7815 281.344 84.3555C281.068 83.9235 280.675 83.7075 280.165 83.7075C279.655 83.7075 279.262 83.9205 278.986 84.3465C278.71 84.7725 278.572 85.3785 278.572 86.1645Z" fill="#050308"/>
<rect x="320.599" y="49.883" width="52.5788" height="148.359" fill="#FCFCFD" stroke="#050308" stroke-width="0.192741"/>
<path d="M372.774 197.346L354.526 206.7L354.43 59.8527L354.43 59.353H353.93H303.044L320.466 50.2866H372.774V197.346Z" fill="#DDC7FF" stroke="#050308"/>
<rect x="301.5" y="60.3589" width="52" height="146.371" fill="#2B154D" stroke="#050308"/>
<path d="M319.196 44H318.305L317.792 42.587H314.957L314.444 44H313.553L315.902 37.7H316.847L319.196 44ZM316.37 38.699L315.245 41.804H317.504L316.37 38.699ZM323.488 40.274V39.5H324.262V43.811C324.262 44.477 324.037 44.993 323.587 45.359C323.131 45.731 322.591 45.917 321.967 45.917C321.463 45.917 321.028 45.821 320.662 45.629C320.296 45.443 320.02 45.173 319.834 44.819L320.518 44.432C320.764 44.936 321.253 45.188 321.985 45.188C322.453 45.188 322.819 45.065 323.083 44.819C323.353 44.573 323.488 44.237 323.488 43.811V43.172C323.092 43.772 322.528 44.072 321.796 44.072C321.148 44.072 320.605 43.844 320.167 43.388C319.723 42.926 319.501 42.371 319.501 41.723C319.501 41.075 319.723 40.523 320.167 40.067C320.605 39.611 321.148 39.383 321.796 39.383C322.534 39.383 323.098 39.68 323.488 40.274ZM323.488 41.723C323.488 41.273 323.335 40.895 323.029 40.589C322.723 40.283 322.342 40.13 321.886 40.13C321.43 40.13 321.049 40.283 320.743 40.589C320.437 40.895 320.284 41.273 320.284 41.723C320.284 42.179 320.437 42.56 320.743 42.866C321.049 43.172 321.43 43.325 321.886 43.325C322.342 43.325 322.723 43.172 323.029 42.866C323.335 42.56 323.488 42.179 323.488 41.723ZM329.768 42.11H325.997C326.075 42.506 326.258 42.818 326.546 43.046C326.834 43.268 327.194 43.379 327.626 43.379C328.22 43.379 328.652 43.16 328.922 42.722L329.588 43.1C329.144 43.778 328.484 44.117 327.608 44.117C326.9 44.117 326.318 43.895 325.862 43.451C325.418 42.995 325.196 42.428 325.196 41.75C325.196 41.066 325.415 40.502 325.853 40.058C326.291 39.608 326.858 39.383 327.554 39.383C328.214 39.383 328.751 39.617 329.165 40.085C329.585 40.541 329.795 41.099 329.795 41.759C329.795 41.873 329.786 41.99 329.768 42.11ZM327.554 40.121C327.14 40.121 326.792 40.238 326.51 40.472C326.234 40.706 326.063 41.024 325.997 41.426H329.003C328.937 41.012 328.772 40.691 328.508 40.463C328.244 40.235 327.926 40.121 327.554 40.121ZM336.744 44H332.676V43.316L334.899 41.048C335.493 40.454 335.79 39.944 335.79 39.518C335.79 39.17 335.682 38.897 335.466 38.699C335.256 38.495 334.992 38.393 334.674 38.393C334.08 38.393 333.648 38.675 333.378 39.239L332.676 38.825C332.868 38.423 333.138 38.117 333.486 37.907C333.834 37.691 334.227 37.583 334.665 37.583C335.199 37.583 335.658 37.757 336.042 38.105C336.432 38.459 336.627 38.927 336.627 39.509C336.627 40.145 336.252 40.838 335.502 41.588L333.891 43.19H336.744V44ZM337.18 38.276L338.836 37.7H339.556V44H338.728V38.6L337.387 38.996L337.18 38.276ZM346.472 41.615H343.187V40.859H346.472V41.615ZM353.606 38.438L352.238 40.283C352.73 40.373 353.126 40.583 353.426 40.913C353.726 41.243 353.876 41.651 353.876 42.137C353.876 42.755 353.666 43.238 353.246 43.586C352.82 43.94 352.31 44.117 351.716 44.117C351.224 44.117 350.795 44.006 350.429 43.784C350.063 43.562 349.802 43.247 349.646 42.839L350.348 42.425C350.534 43.007 350.99 43.298 351.716 43.298C352.112 43.298 352.43 43.196 352.67 42.992C352.916 42.782 353.039 42.497 353.039 42.137C353.039 41.777 352.916 41.492 352.67 41.282C352.43 41.072 352.112 40.967 351.716 40.967H351.5L351.167 40.454L352.625 38.483H349.826V37.7H353.606V38.438ZM358.652 42.02H359.417V42.803H358.652V44H357.815V42.803H354.602V42.02L356.861 37.7H357.761L355.502 42.02H357.815V40.238H358.652V42.02Z" fill="#050308"/>
<rect x="397.599" y="113.883" width="52.5788" height="101.909" fill="#FCFCFD" stroke="#050308" stroke-width="0.192741"/>
<path d="M449.774 215.063L431.526 221.492L431.43 120.705L431.43 120.205H430.93H380.883L397.43 114.287H449.774V215.063Z" fill="#DDC7FF" stroke="#050308"/>
<rect x="378.5" y="121.209" width="52" height="100.291" fill="#2B154D" stroke="#050308"/>
<path d="M395.486 108.244H394.595L394.082 106.831H391.247L390.734 108.244H389.843L392.192 101.944H393.137L395.486 108.244ZM392.66 102.943L391.535 106.048H393.794L392.66 102.943ZM399.778 104.518V103.744H400.552V108.055C400.552 108.721 400.327 109.237 399.877 109.603C399.421 109.975 398.881 110.161 398.257 110.161C397.753 110.161 397.318 110.065 396.952 109.873C396.586 109.687 396.31 109.417 396.124 109.063L396.808 108.676C397.054 109.18 397.543 109.432 398.275 109.432C398.743 109.432 399.109 109.309 399.373 109.063C399.643 108.817 399.778 108.481 399.778 108.055V107.416C399.382 108.016 398.818 108.316 398.086 108.316C397.438 108.316 396.895 108.088 396.457 107.632C396.013 107.17 395.791 106.615 395.791 105.967C395.791 105.319 396.013 104.767 396.457 104.311C396.895 103.855 397.438 103.627 398.086 103.627C398.824 103.627 399.388 103.924 399.778 104.518ZM399.778 105.967C399.778 105.517 399.625 105.139 399.319 104.833C399.013 104.527 398.632 104.374 398.176 104.374C397.72 104.374 397.339 104.527 397.033 104.833C396.727 105.139 396.574 105.517 396.574 105.967C396.574 106.423 396.727 106.804 397.033 107.11C397.339 107.416 397.72 107.569 398.176 107.569C398.632 107.569 399.013 107.416 399.319 107.11C399.625 106.804 399.778 106.423 399.778 105.967ZM406.059 106.354H402.288C402.366 106.75 402.549 107.062 402.837 107.29C403.125 107.512 403.485 107.623 403.917 107.623C404.511 107.623 404.943 107.404 405.213 106.966L405.879 107.344C405.435 108.022 404.775 108.361 403.899 108.361C403.191 108.361 402.609 108.139 402.153 107.695C401.709 107.239 401.487 106.672 401.487 105.994C401.487 105.31 401.706 104.746 402.144 104.302C402.582 103.852 403.149 103.627 403.845 103.627C404.505 103.627 405.042 103.861 405.456 104.329C405.876 104.785 406.086 105.343 406.086 106.003C406.086 106.117 406.077 106.234 406.059 106.354ZM403.845 104.365C403.431 104.365 403.083 104.482 402.801 104.716C402.525 104.95 402.354 105.268 402.288 105.67H405.294C405.228 105.256 405.063 104.935 404.799 104.707C404.535 104.479 404.217 104.365 403.845 104.365ZM412.854 102.682L411.486 104.527C411.978 104.617 412.374 104.827 412.674 105.157C412.974 105.487 413.124 105.895 413.124 106.381C413.124 106.999 412.914 107.482 412.494 107.83C412.068 108.184 411.558 108.361 410.964 108.361C410.472 108.361 410.043 108.25 409.677 108.028C409.311 107.806 409.05 107.491 408.894 107.083L409.596 106.669C409.782 107.251 410.238 107.542 410.964 107.542C411.36 107.542 411.678 107.44 411.918 107.236C412.164 107.026 412.287 106.741 412.287 106.381C412.287 106.021 412.164 105.736 411.918 105.526C411.678 105.316 411.36 105.211 410.964 105.211H410.748L410.415 104.698L411.873 102.727H409.074V101.944H412.854V102.682ZM414.882 104.401H415.8C416.394 104.401 416.895 104.578 417.303 104.932C417.717 105.286 417.924 105.769 417.924 106.381C417.924 106.999 417.714 107.482 417.294 107.83C416.868 108.184 416.358 108.361 415.764 108.361C415.272 108.361 414.837 108.244 414.459 108.01C414.087 107.77 413.829 107.437 413.685 107.011L414.396 106.606C414.48 106.906 414.642 107.137 414.882 107.299C415.122 107.461 415.416 107.542 415.764 107.542C416.166 107.542 416.487 107.44 416.727 107.236C416.973 107.026 417.096 106.741 417.096 106.381C417.096 106.021 416.973 105.736 416.727 105.526C416.487 105.316 416.172 105.211 415.782 105.211H414L414.234 101.944H417.681V102.727H414.99L414.882 104.401ZM424.467 105.859H421.182V105.103H424.467V105.859ZM428.901 104.401H429.819C430.413 104.401 430.914 104.578 431.322 104.932C431.736 105.286 431.943 105.769 431.943 106.381C431.943 106.999 431.733 107.482 431.313 107.83C430.887 108.184 430.377 108.361 429.783 108.361C429.291 108.361 428.856 108.244 428.478 108.01C428.106 107.77 427.848 107.437 427.704 107.011L428.415 106.606C428.499 106.906 428.661 107.137 428.901 107.299C429.141 107.461 429.435 107.542 429.783 107.542C430.185 107.542 430.506 107.44 430.746 107.236C430.992 107.026 431.115 106.741 431.115 106.381C431.115 106.021 430.992 105.736 430.746 105.526C430.506 105.316 430.191 105.211 429.801 105.211H428.019L428.253 101.944H431.7V102.727H429.009L428.901 104.401ZM436.541 106.264H437.306V107.047H436.541V108.244H435.704V107.047H432.491V106.264L434.75 101.944H435.65L433.391 106.264H435.704V104.482H436.541V106.264Z" fill="#050308"/>
<circle cx="112" cy="77" r="54" fill="#6532B3" stroke="#050308" stroke-width="2"/>
<path d="M112 23C124.758 23 137.104 27.517 146.849 35.7503C156.595 43.9836 163.11 55.4015 165.241 67.98C167.372 80.5586 164.981 93.4855 158.491 104.469C152.001 115.453 141.832 123.785 129.786 127.987C117.741 132.189 104.596 131.99 92.6824 127.426C80.7688 122.863 70.8559 114.228 64.7006 103.053C58.5454 91.8785 56.5454 78.8853 59.0552 66.3768C61.565 53.8683 68.4225 42.6524 78.4121 34.717L112 77V23Z" fill="#F8BB1C" stroke="#110F0A" stroke-width="2"/>
<circle cx="75.6113" cy="152.554" r="5.55372" fill="#F8BB1C" stroke="#110F0A"/>
<path d="M88.8824 155.554H88.0244L86.7165 153.321H85.3419V155.554H84.5672V149.722H86.8997C87.3996 149.722 87.8272 149.9 88.1826 150.255C88.5381 150.605 88.7158 151.03 88.7158 151.53C88.7158 151.908 88.602 152.252 88.3743 152.563C88.141 152.88 87.8522 153.099 87.5079 153.221L88.8824 155.554ZM86.8997 150.447H85.3419V152.621H86.8997C87.1885 152.621 87.4329 152.516 87.6328 152.305C87.8383 152.094 87.9411 151.835 87.9411 151.53C87.9411 151.225 87.8383 150.969 87.6328 150.764C87.4329 150.553 87.1885 150.447 86.8997 150.447ZM93.3721 153.804H89.8816C89.9538 154.171 90.1232 154.46 90.3897 154.671C90.6563 154.876 90.9895 154.979 91.3894 154.979C91.9392 154.979 92.3391 154.776 92.589 154.371L93.2055 154.721C92.7945 155.348 92.1836 155.662 91.3727 155.662C90.7174 155.662 90.1787 155.457 89.7566 155.046C89.3456 154.623 89.1401 154.099 89.1401 153.471C89.1401 152.838 89.3429 152.316 89.7483 151.905C90.1537 151.488 90.6785 151.28 91.3228 151.28C91.9337 151.28 92.4307 151.497 92.8139 151.93C93.2027 152.352 93.3971 152.868 93.3971 153.479C93.3971 153.585 93.3887 153.693 93.3721 153.804ZM91.3228 151.963C90.9395 151.963 90.6174 152.072 90.3564 152.288C90.1009 152.505 89.9427 152.799 89.8816 153.171H92.664C92.6029 152.788 92.4502 152.491 92.2058 152.28C91.9614 152.069 91.6671 151.963 91.3228 151.963ZM96.3045 151.28C96.7932 151.28 97.1848 151.436 97.4791 151.747C97.7735 152.052 97.9206 152.469 97.9206 152.996V155.554H97.1959V153.038C97.1959 152.705 97.1042 152.444 96.921 152.255C96.7377 152.066 96.485 151.972 96.1629 151.972C95.7908 151.972 95.4964 152.088 95.2798 152.321C95.0633 152.549 94.955 152.891 94.955 153.346V155.554H94.2302V151.388H94.955V151.988C95.2437 151.516 95.6936 151.28 96.3045 151.28ZM102.381 152.105V149.722H103.106V155.554H102.381V154.837C102.026 155.387 101.501 155.662 100.807 155.662C100.218 155.662 99.721 155.451 99.3156 155.029C98.9046 154.601 98.6992 154.082 98.6992 153.471C98.6992 152.866 98.9046 152.349 99.3156 151.922C99.7266 151.494 100.224 151.28 100.807 151.28C101.501 151.28 102.026 151.555 102.381 152.105ZM100.898 154.962C101.321 154.962 101.673 154.821 101.956 154.537C102.24 154.243 102.381 153.888 102.381 153.471C102.381 153.049 102.24 152.696 101.956 152.413C101.673 152.124 101.321 151.98 100.898 151.98C100.482 151.98 100.132 152.124 99.8488 152.413C99.5655 152.696 99.4239 153.049 99.4239 153.471C99.4239 153.888 99.5655 154.243 99.8488 154.537C100.132 154.821 100.482 154.962 100.898 154.962ZM108.203 153.804H104.712C104.784 154.171 104.954 154.46 105.22 154.671C105.487 154.876 105.82 154.979 106.22 154.979C106.77 154.979 107.17 154.776 107.42 154.371L108.036 154.721C107.625 155.348 107.014 155.662 106.203 155.662C105.548 155.662 105.009 155.457 104.587 155.046C104.176 154.623 103.971 154.099 103.971 153.471C103.971 152.838 104.174 152.316 104.579 151.905C104.984 151.488 105.509 151.28 106.153 151.28C106.764 151.28 107.261 151.497 107.645 151.93C108.033 152.352 108.228 152.868 108.228 153.479C108.228 153.585 108.219 153.693 108.203 153.804ZM106.153 151.963C105.77 151.963 105.448 152.072 105.187 152.288C104.932 152.505 104.773 152.799 104.712 153.171H107.495C107.434 152.788 107.281 152.491 107.037 152.28C106.792 152.069 106.498 151.963 106.153 151.963ZM109.786 151.388V152.088C110.024 151.572 110.458 151.313 111.085 151.313V152.072C110.73 152.055 110.424 152.149 110.169 152.355C109.913 152.56 109.786 152.891 109.786 153.346V155.554H109.061V151.388H109.786ZM115.565 153.804H112.075C112.147 154.171 112.316 154.46 112.583 154.671C112.849 154.876 113.183 154.979 113.583 154.979C114.132 154.979 114.532 154.776 114.782 154.371L115.399 154.721C114.988 155.348 114.377 155.662 113.566 155.662C112.911 155.662 112.372 155.457 111.95 155.046C111.539 154.623 111.333 154.099 111.333 153.471C111.333 152.838 111.536 152.316 111.941 151.905C112.347 151.488 112.872 151.28 113.516 151.28C114.127 151.28 114.624 151.497 115.007 151.93C115.396 152.352 115.59 152.868 115.59 153.479C115.59 153.585 115.582 153.693 115.565 153.804ZM113.516 151.963C113.133 151.963 112.811 152.072 112.55 152.288C112.294 152.505 112.136 152.799 112.075 153.171H114.857C114.796 152.788 114.643 152.491 114.399 152.28C114.155 152.069 113.86 151.963 113.516 151.963ZM119.864 152.105V149.722H120.589V155.554H119.864V154.837C119.509 155.387 118.984 155.662 118.29 155.662C117.701 155.662 117.204 155.451 116.798 155.029C116.387 154.601 116.182 154.082 116.182 153.471C116.182 152.866 116.387 152.349 116.798 151.922C117.209 151.494 117.706 151.28 118.29 151.28C118.984 151.28 119.509 151.555 119.864 152.105ZM118.381 154.962C118.803 154.962 119.156 154.821 119.439 154.537C119.722 154.243 119.864 153.888 119.864 153.471C119.864 153.049 119.722 152.696 119.439 152.413C119.156 152.124 118.803 151.98 118.381 151.98C117.965 151.98 117.615 152.124 117.332 152.413C117.048 152.696 116.907 153.049 116.907 153.471C116.907 153.888 117.048 154.243 117.332 154.537C117.615 154.821 117.965 154.962 118.381 154.962ZM124.394 152.513C124.394 152.78 124.669 152.988 125.219 153.138C125.425 153.182 125.597 153.229 125.736 153.279C125.88 153.324 126.035 153.393 126.202 153.488C126.374 153.582 126.505 153.707 126.594 153.863C126.683 154.018 126.727 154.201 126.727 154.412C126.727 154.79 126.58 155.093 126.285 155.32C125.991 155.548 125.619 155.662 125.169 155.662C124.769 155.662 124.422 155.576 124.128 155.404C123.839 155.226 123.634 154.987 123.511 154.687L124.136 154.329C124.203 154.529 124.328 154.687 124.511 154.804C124.694 154.921 124.914 154.979 125.169 154.979C125.419 154.979 125.619 154.932 125.769 154.837C125.919 154.743 125.994 154.601 125.994 154.412C125.994 154.129 125.719 153.924 125.169 153.796C124.986 153.746 124.847 153.707 124.753 153.679C124.658 153.652 124.528 153.602 124.361 153.529C124.2 153.457 124.078 153.382 123.995 153.304C123.911 153.221 123.833 153.113 123.761 152.98C123.695 152.841 123.661 152.688 123.661 152.521C123.661 152.16 123.8 151.863 124.078 151.63C124.361 151.397 124.714 151.28 125.136 151.28C125.475 151.28 125.774 151.358 126.035 151.513C126.302 151.663 126.502 151.874 126.635 152.147L126.027 152.488C125.877 152.133 125.58 151.955 125.136 151.955C124.925 151.955 124.747 152.005 124.603 152.105C124.464 152.205 124.394 152.341 124.394 152.513ZM131.47 153.804H127.979C128.052 154.171 128.221 154.46 128.487 154.671C128.754 154.876 129.087 154.979 129.487 154.979C130.037 154.979 130.437 154.776 130.687 154.371L131.303 154.721C130.892 155.348 130.281 155.662 129.47 155.662C128.815 155.662 128.276 155.457 127.854 155.046C127.443 154.623 127.238 154.099 127.238 153.471C127.238 152.838 127.441 152.316 127.846 151.905C128.251 151.488 128.776 151.28 129.421 151.28C130.031 151.28 130.528 151.497 130.912 151.93C131.3 152.352 131.495 152.868 131.495 153.479C131.495 153.585 131.486 153.693 131.47 153.804ZM129.421 151.963C129.037 151.963 128.715 152.072 128.454 152.288C128.199 152.505 128.04 152.799 127.979 153.171H130.762C130.701 152.788 130.548 152.491 130.304 152.28C130.059 152.069 129.765 151.963 129.421 151.963ZM133.053 151.388V152.088C133.292 151.572 133.725 151.313 134.352 151.313V152.072C133.997 152.055 133.691 152.149 133.436 152.355C133.18 152.56 133.053 152.891 133.053 153.346V155.554H132.328V151.388H133.053ZM136.669 154.779L137.977 151.388H138.76L137.094 155.554H136.244L134.578 151.388H135.361L136.669 154.779ZM139.74 150.63C139.601 150.63 139.484 150.583 139.39 150.489C139.295 150.394 139.248 150.28 139.248 150.147C139.248 150.014 139.295 149.9 139.39 149.806C139.484 149.706 139.601 149.656 139.74 149.656C139.873 149.656 139.987 149.706 140.081 149.806C140.176 149.9 140.223 150.014 140.223 150.147C140.223 150.28 140.176 150.394 140.081 150.489C139.987 150.583 139.873 150.63 139.74 150.63ZM140.098 155.554H139.373V151.388H140.098V155.554ZM143.161 155.662C142.534 155.662 142.012 155.454 141.595 155.037C141.179 154.615 140.97 154.093 140.97 153.471C140.97 152.849 141.179 152.33 141.595 151.913C142.012 151.491 142.534 151.28 143.161 151.28C143.572 151.28 143.942 151.38 144.269 151.58C144.597 151.774 144.841 152.038 145.002 152.371L144.394 152.721C144.289 152.499 144.125 152.321 143.903 152.188C143.686 152.055 143.439 151.988 143.161 151.988C142.745 151.988 142.395 152.13 142.112 152.413C141.834 152.702 141.695 153.055 141.695 153.471C141.695 153.882 141.834 154.232 142.112 154.521C142.395 154.804 142.745 154.946 143.161 154.946C143.439 154.946 143.689 154.882 143.911 154.754C144.133 154.621 144.303 154.443 144.419 154.221L145.036 154.579C144.852 154.912 144.594 155.176 144.261 155.37C143.928 155.565 143.561 155.662 143.161 155.662ZM149.693 153.804H146.202C146.275 154.171 146.444 154.46 146.711 154.671C146.977 154.876 147.31 154.979 147.71 154.979C148.26 154.979 148.66 154.776 148.91 154.371L149.526 154.721C149.115 155.348 148.504 155.662 147.694 155.662C147.038 155.662 146.5 155.457 146.078 155.046C145.667 154.623 145.461 154.099 145.461 153.471C145.461 152.838 145.664 152.316 146.069 151.905C146.475 151.488 146.999 151.28 147.644 151.28C148.255 151.28 148.752 151.497 149.135 151.93C149.524 152.352 149.718 152.868 149.718 153.479C149.718 153.585 149.71 153.693 149.693 153.804ZM147.644 151.963C147.26 151.963 146.938 152.072 146.677 152.288C146.422 152.505 146.264 152.799 146.202 153.171H148.985C148.924 152.788 148.771 152.491 148.527 152.28C148.282 152.069 147.988 151.963 147.644 151.963ZM151.013 152.513C151.013 152.78 151.288 152.988 151.838 153.138C152.043 153.182 152.216 153.229 152.354 153.279C152.499 153.324 152.654 153.393 152.821 153.488C152.993 153.582 153.124 153.707 153.212 153.863C153.301 154.018 153.346 154.201 153.346 154.412C153.346 154.79 153.199 155.093 152.904 155.32C152.61 155.548 152.238 155.662 151.788 155.662C151.388 155.662 151.041 155.576 150.747 155.404C150.458 155.226 150.252 154.987 150.13 154.687L150.755 154.329C150.822 154.529 150.947 154.687 151.13 154.804C151.313 154.921 151.532 154.979 151.788 154.979C152.038 154.979 152.238 154.932 152.388 154.837C152.538 154.743 152.613 154.601 152.613 154.412C152.613 154.129 152.338 153.924 151.788 153.796C151.605 153.746 151.466 153.707 151.371 153.679C151.277 153.652 151.146 153.602 150.98 153.529C150.819 153.457 150.697 153.382 150.613 153.304C150.53 153.221 150.452 153.113 150.38 152.98C150.313 152.841 150.28 152.688 150.28 152.521C150.28 152.16 150.419 151.863 150.697 151.63C150.98 151.397 151.333 151.28 151.755 151.28C152.093 151.28 152.393 151.358 152.654 151.513C152.921 151.663 153.121 151.874 153.254 152.147L152.646 152.488C152.496 152.133 152.199 151.955 151.755 151.955C151.544 151.955 151.366 152.005 151.221 152.105C151.083 152.205 151.013 152.341 151.013 152.513Z" fill="#050308"/>
<circle cx="75.6113" cy="169.215" r="5.55372" fill="#6532B3" stroke="#050308"/>
<path d="M84.5672 166.383H86.6831C87.2163 166.383 87.6634 166.564 88.0244 166.925C88.3854 167.286 88.5659 167.73 88.5659 168.258C88.5659 168.785 88.3854 169.23 88.0244 169.591C87.6634 169.952 87.2163 170.132 86.6831 170.132H85.3419V172.215H84.5672V166.383ZM85.3419 169.407H86.6831C87.0108 169.407 87.2774 169.299 87.4829 169.083C87.6939 168.855 87.7994 168.58 87.7994 168.258C87.7994 167.925 87.6939 167.65 87.4829 167.433C87.2718 167.216 87.0053 167.108 86.6831 167.108H85.3419V169.407ZM93.0873 170.465H89.5968C89.669 170.832 89.8384 171.121 90.105 171.332C90.3716 171.537 90.7048 171.64 91.1047 171.64C91.6545 171.64 92.0543 171.437 92.3043 171.032L92.9207 171.382C92.5098 172.009 91.8988 172.323 91.088 172.323C90.4327 172.323 89.894 172.118 89.4719 171.707C89.0609 171.285 88.8554 170.76 88.8554 170.132C88.8554 169.499 89.0581 168.977 89.4635 168.566C89.869 168.15 90.3938 167.941 91.038 167.941C91.6489 167.941 92.146 168.158 92.5292 168.591C92.918 169.013 93.1123 169.53 93.1123 170.141C93.1123 170.246 93.104 170.354 93.0873 170.465ZM91.038 168.624C90.6548 168.624 90.3327 168.733 90.0717 168.949C89.8162 169.166 89.6579 169.46 89.5968 169.832H92.3792C92.3182 169.449 92.1654 169.152 91.9211 168.941C91.6767 168.73 91.3823 168.624 91.038 168.624ZM96.0198 167.941C96.5085 167.941 96.9 168.097 97.1944 168.408C97.4887 168.713 97.6359 169.13 97.6359 169.657V172.215H96.9111V169.699C96.9111 169.366 96.8195 169.105 96.6362 168.916C96.453 168.727 96.2003 168.633 95.8782 168.633C95.5061 168.633 95.2117 168.749 94.9951 168.983C94.7785 169.21 94.6702 169.552 94.6702 170.007V172.215H93.9455V168.05H94.6702V168.649C94.959 168.177 95.4089 167.941 96.0198 167.941ZM102.097 168.766V166.383H102.821V172.215H102.097V171.498C101.741 172.048 101.216 172.323 100.522 172.323C99.9334 172.323 99.4363 172.112 99.0309 171.69C98.6199 171.262 98.4144 170.743 98.4144 170.132C98.4144 169.527 98.6199 169.01 99.0309 168.583C99.4419 168.155 99.9389 167.941 100.522 167.941C101.216 167.941 101.741 168.216 102.097 168.766ZM100.614 171.623C101.036 171.623 101.388 171.482 101.672 171.199C101.955 170.904 102.097 170.549 102.097 170.132C102.097 169.71 101.955 169.357 101.672 169.074C101.388 168.785 101.036 168.641 100.614 168.641C100.197 168.641 99.8473 168.785 99.564 169.074C99.2808 169.357 99.1392 169.71 99.1392 170.132C99.1392 170.549 99.2808 170.904 99.564 171.199C99.8473 171.482 100.197 171.623 100.614 171.623ZM104.286 167.291C104.147 167.291 104.03 167.244 103.936 167.15C103.842 167.055 103.794 166.942 103.794 166.808C103.794 166.675 103.842 166.561 103.936 166.467C104.03 166.367 104.147 166.317 104.286 166.317C104.419 166.317 104.533 166.367 104.627 166.467C104.722 166.561 104.769 166.675 104.769 166.808C104.769 166.942 104.722 167.055 104.627 167.15C104.533 167.244 104.419 167.291 104.286 167.291ZM104.644 172.215H103.919V168.05H104.644V172.215ZM107.824 167.941C108.313 167.941 108.704 168.097 108.999 168.408C109.293 168.713 109.44 169.13 109.44 169.657V172.215H108.716V169.699C108.716 169.366 108.624 169.105 108.441 168.916C108.257 168.727 108.005 168.633 107.683 168.633C107.31 168.633 107.016 168.749 106.799 168.983C106.583 169.21 106.475 169.552 106.475 170.007V172.215H105.75V168.05H106.475V168.649C106.763 168.177 107.213 167.941 107.824 167.941ZM113.909 168.766V168.05H114.626V172.04C114.626 172.656 114.417 173.134 114.001 173.473C113.579 173.817 113.079 173.989 112.501 173.989C112.035 173.989 111.632 173.9 111.293 173.723C110.955 173.551 110.699 173.301 110.527 172.973L111.16 172.615C111.388 173.081 111.84 173.314 112.518 173.314C112.951 173.314 113.29 173.201 113.534 172.973C113.784 172.745 113.909 172.434 113.909 172.04V171.448C113.543 172.004 113.021 172.281 112.343 172.281C111.743 172.281 111.241 172.07 110.835 171.648C110.424 171.221 110.219 170.707 110.219 170.107C110.219 169.507 110.424 168.996 110.835 168.574C111.241 168.152 111.743 167.941 112.343 167.941C113.026 167.941 113.548 168.216 113.909 168.766ZM113.909 170.107C113.909 169.691 113.768 169.341 113.484 169.058C113.201 168.774 112.848 168.633 112.426 168.633C112.004 168.633 111.652 168.774 111.368 169.058C111.085 169.341 110.944 169.691 110.944 170.107C110.944 170.529 111.085 170.882 111.368 171.165C111.652 171.448 112.004 171.59 112.426 171.59C112.848 171.59 113.201 171.448 113.484 171.165C113.768 170.882 113.909 170.529 113.909 170.107ZM118.431 169.174C118.431 169.441 118.706 169.649 119.256 169.799C119.461 169.843 119.634 169.891 119.772 169.941C119.917 169.985 120.072 170.054 120.239 170.149C120.411 170.243 120.542 170.368 120.63 170.524C120.719 170.679 120.764 170.863 120.764 171.074C120.764 171.451 120.617 171.754 120.322 171.982C120.028 172.209 119.656 172.323 119.206 172.323C118.806 172.323 118.459 172.237 118.165 172.065C117.876 171.887 117.67 171.648 117.548 171.348L118.173 170.99C118.24 171.19 118.365 171.348 118.548 171.465C118.731 171.582 118.95 171.64 119.206 171.64C119.456 171.64 119.656 171.593 119.806 171.498C119.956 171.404 120.031 171.262 120.031 171.074C120.031 170.79 119.756 170.585 119.206 170.457C119.023 170.407 118.884 170.368 118.789 170.34C118.695 170.313 118.564 170.263 118.398 170.191C118.237 170.118 118.115 170.043 118.031 169.966C117.948 169.882 117.87 169.774 117.798 169.641C117.731 169.502 117.698 169.349 117.698 169.183C117.698 168.822 117.837 168.524 118.115 168.291C118.398 168.058 118.751 167.941 119.173 167.941C119.511 167.941 119.811 168.019 120.072 168.175C120.339 168.324 120.539 168.536 120.672 168.808L120.064 169.149C119.914 168.794 119.617 168.616 119.173 168.616C118.962 168.616 118.784 168.666 118.639 168.766C118.501 168.866 118.431 169.002 118.431 169.174ZM125.507 170.465H122.016C122.088 170.832 122.258 171.121 122.524 171.332C122.791 171.537 123.124 171.64 123.524 171.64C124.074 171.64 124.474 171.437 124.724 171.032L125.34 171.382C124.929 172.009 124.318 172.323 123.507 172.323C122.852 172.323 122.313 172.118 121.891 171.707C121.48 171.285 121.275 170.76 121.275 170.132C121.275 169.499 121.477 168.977 121.883 168.566C122.288 168.15 122.813 167.941 123.457 167.941C124.068 167.941 124.565 168.158 124.948 168.591C125.337 169.013 125.532 169.53 125.532 170.141C125.532 170.246 125.523 170.354 125.507 170.465ZM123.457 168.624C123.074 168.624 122.752 168.733 122.491 168.949C122.235 169.166 122.077 169.46 122.016 169.832H124.799C124.737 169.449 124.585 169.152 124.34 168.941C124.096 168.73 123.802 168.624 123.457 168.624ZM127.09 168.05V168.749C127.328 168.233 127.762 167.975 128.389 167.975V168.733C128.034 168.716 127.728 168.81 127.473 169.016C127.217 169.221 127.09 169.552 127.09 170.007V172.215H126.365V168.05H127.09ZM130.706 171.44L132.014 168.05H132.797L131.131 172.215H130.281L128.615 168.05H129.398L130.706 171.44ZM133.776 167.291C133.638 167.291 133.521 167.244 133.427 167.15C133.332 167.055 133.285 166.942 133.285 166.808C133.285 166.675 133.332 166.561 133.427 166.467C133.521 166.367 133.638 166.317 133.776 166.317C133.91 166.317 134.024 166.367 134.118 166.467C134.212 166.561 134.26 166.675 134.26 166.808C134.26 166.942 134.212 167.055 134.118 167.15C134.024 167.244 133.91 167.291 133.776 167.291ZM134.135 172.215H133.41V168.05H134.135V172.215ZM137.198 172.323C136.571 172.323 136.048 172.115 135.632 171.698C135.215 171.276 135.007 170.754 135.007 170.132C135.007 169.51 135.215 168.991 135.632 168.574C136.048 168.152 136.571 167.941 137.198 167.941C137.609 167.941 137.978 168.041 138.306 168.241C138.634 168.436 138.878 168.699 139.039 169.033L138.431 169.382C138.325 169.16 138.162 168.983 137.94 168.849C137.723 168.716 137.476 168.649 137.198 168.649C136.782 168.649 136.432 168.791 136.148 169.074C135.871 169.363 135.732 169.716 135.732 170.132C135.732 170.543 135.871 170.893 136.148 171.182C136.432 171.465 136.782 171.607 137.198 171.607C137.476 171.607 137.726 171.543 137.948 171.415C138.17 171.282 138.339 171.104 138.456 170.882L139.072 171.24C138.889 171.573 138.631 171.837 138.298 172.032C137.964 172.226 137.598 172.323 137.198 172.323ZM143.73 170.465H140.239C140.311 170.832 140.481 171.121 140.747 171.332C141.014 171.537 141.347 171.64 141.747 171.64C142.297 171.64 142.697 171.437 142.947 171.032L143.563 171.382C143.152 172.009 142.541 172.323 141.73 172.323C141.075 172.323 140.536 172.118 140.114 171.707C139.703 171.285 139.498 170.76 139.498 170.132C139.498 169.499 139.701 168.977 140.106 168.566C140.511 168.15 141.036 167.941 141.68 167.941C142.291 167.941 142.788 168.158 143.172 168.591C143.56 169.013 143.755 169.53 143.755 170.141C143.755 170.246 143.746 170.354 143.73 170.465ZM141.68 168.624C141.297 168.624 140.975 168.733 140.714 168.949C140.459 169.166 140.3 169.46 140.239 169.832H143.022C142.961 169.449 142.808 169.152 142.563 168.941C142.319 168.73 142.025 168.624 141.68 168.624ZM145.05 169.174C145.05 169.441 145.325 169.649 145.875 169.799C146.08 169.843 146.252 169.891 146.391 169.941C146.536 169.985 146.691 170.054 146.858 170.149C147.03 170.243 147.16 170.368 147.249 170.524C147.338 170.679 147.383 170.863 147.383 171.074C147.383 171.451 147.235 171.754 146.941 171.982C146.647 172.209 146.275 172.323 145.825 172.323C145.425 172.323 145.078 172.237 144.783 172.065C144.495 171.887 144.289 171.648 144.167 171.348L144.792 170.99C144.858 171.19 144.983 171.348 145.167 171.465C145.35 171.582 145.569 171.64 145.825 171.64C146.075 171.64 146.275 171.593 146.425 171.498C146.574 171.404 146.649 171.262 146.649 171.074C146.649 170.79 146.375 170.585 145.825 170.457C145.641 170.407 145.503 170.368 145.408 170.34C145.314 170.313 145.183 170.263 145.017 170.191C144.856 170.118 144.733 170.043 144.65 169.966C144.567 169.882 144.489 169.774 144.417 169.641C144.35 169.502 144.317 169.349 144.317 169.183C144.317 168.822 144.456 168.524 144.733 168.291C145.017 168.058 145.369 167.941 145.791 167.941C146.13 167.941 146.43 168.019 146.691 168.175C146.958 168.324 147.158 168.536 147.291 168.808L146.683 169.149C146.533 168.794 146.236 168.616 145.791 168.616C145.58 168.616 145.403 168.666 145.258 168.766C145.119 168.866 145.05 169.002 145.05 169.174Z" fill="#050308"/>
</g>
<defs>
<filter id="filter0_d_639_3283" x="0" y="0" width="490" height="214" filterUnits="userSpaceOnUse" color-interpolation-filters="sRGB">
<feFlood flood-opacity="0" result="BackgroundImageFix"/>
<feColorMatrix in="SourceAlpha" type="matrix" values="0 0 0 0 0 0 0 0 0 0 0 0 0 0 0 0 0 0 127 0" result="hardAlpha"/>
<feOffset dx="16" dy="16"/>
<feComposite in2="hardAlpha" operator="out"/>
<feColorMatrix type="matrix" values="0 0 0 0 0 0 0 0 0 0 0 0 0 0 0 0 0 0 1 0"/>
<feBlend mode="normal" in2="BackgroundImageFix" result="effect1_dropShadow_639_3283"/>
<feBlend mode="normal" in="SourceGraphic" in2="effect1_dropShadow_639_3283" result="shape"/>
</filter>
</defs>
</svg>
