<svg width="490" height="214" viewBox="0 0 490 214" fill="none" xmlns="http://www.w3.org/2000/svg">
<g filter="url(#filter0_d_685_4242)">
<rect x="4" y="4" width="466" height="190" rx="95" fill="#FFFCF3"/>
<rect x="2" y="2" width="470" height="194" rx="97" stroke="#110F0A" stroke-width="4"/>
</g>
<mask id="mask0_685_4242" style="mask-type:alpha" maskUnits="userSpaceOnUse" x="4" y="4" width="466" height="190">
<rect x="4" y="4" width="466" height="190" rx="95" fill="#FFFCF3"/>
</mask>
<g mask="url(#mask0_685_4242)">
<g opacity="0.3">
<mask id="path-4-inside-1_685_4242" fill="white">
<path d="M72.481 110.563V79.3115H65.1426V69.9487H72.481V60.8389H65.1426V51.4761H72.481V20.2246H92.3453L102.214 51.4761H113.728V20.2246H127.772V51.4761H134.984V60.8389H127.772V69.9487H134.984V79.3115H127.772V110.563H107.781L97.6593 79.3115H86.5252V110.563H72.481ZM86.0191 51.4761H89.5618L85.8926 39.3298H85.3865L86.0191 51.4761ZM86.5252 69.9487H94.8758L92.0923 60.8389H86.2721L86.5252 69.9487ZM108.161 69.9487H113.981L113.728 60.8389H105.251L108.161 69.9487ZM114.108 90.8252H114.74L114.234 79.3115H110.818L114.108 90.8252Z"/>
<path d="M198.912 110.563H139.699V97.531L169.938 66.406C176.686 59.2363 180.06 53.3318 180.06 48.6926C180.06 45.2343 178.964 42.4507 176.771 40.342C174.662 38.2332 171.921 37.1789 168.547 37.1789C161.799 37.1789 156.864 40.6372 153.743 47.5539L139.066 38.9502C141.766 32.9614 145.688 28.3643 150.833 25.1591C156.063 21.8694 161.883 20.2246 168.294 20.2246C176.307 20.2246 183.181 22.7551 188.917 27.8161C194.653 32.7927 197.521 39.5407 197.521 48.06C197.521 57.2541 192.671 66.7012 182.97 76.4014L165.637 93.7353H198.912V110.563Z"/>
<path d="M242.119 112.334C231.069 112.334 222.381 108.159 216.055 99.8084C209.813 91.2891 206.692 80.1128 206.692 66.2795C206.692 52.4462 209.813 41.312 216.055 32.877C222.381 24.4421 231.069 20.2246 242.119 20.2246C253.337 20.2246 262.025 24.4421 268.183 32.877C274.424 41.312 277.545 52.4462 277.545 66.2795C277.545 80.1128 274.424 91.2891 268.183 99.8084C262.025 108.159 253.337 112.334 242.119 112.334ZM260.212 66.2795C260.212 56.8323 258.651 49.6204 255.53 44.6438C252.494 39.6672 248.023 37.1789 242.119 37.1789C236.214 37.1789 231.744 39.6672 228.707 44.6438C225.67 49.6204 224.152 56.8323 224.152 66.2795C224.152 75.7266 225.67 82.9385 228.707 87.9152C231.744 92.8074 236.214 95.2536 242.119 95.2536C248.023 95.2536 252.494 92.7653 255.53 87.7886C258.651 82.812 260.212 75.6423 260.212 66.2795Z"/>
<path d="M321.814 112.334C310.764 112.334 302.076 108.159 295.75 99.8084C289.508 91.2891 286.387 80.1128 286.387 66.2795C286.387 52.4462 289.508 41.312 295.75 32.877C302.076 24.4421 310.764 20.2246 321.814 20.2246C333.033 20.2246 341.721 24.4421 347.878 32.877C354.12 41.312 357.241 52.4462 357.241 66.2795C357.241 80.1128 354.12 91.2891 347.878 99.8084C341.721 108.159 333.033 112.334 321.814 112.334ZM339.907 66.2795C339.907 56.8323 338.347 49.6204 335.226 44.6438C332.189 39.6672 327.719 37.1789 321.814 37.1789C315.91 37.1789 311.439 39.6672 308.402 44.6438C305.366 49.6204 303.848 56.8323 303.848 66.2795C303.848 75.7266 305.366 82.9385 308.402 87.9152C311.439 92.8074 315.91 95.2536 321.814 95.2536C327.719 95.2536 332.189 92.7653 335.226 87.7886C338.347 82.812 339.907 75.6423 339.907 66.2795Z"/>
<path d="M78.3011 153.927C81.2533 153.927 83.7698 155.01 85.8504 157.175C87.931 159.34 88.9713 161.955 88.9713 165.019C88.9713 168.112 87.931 170.741 85.8504 172.906C83.7979 175.043 81.2815 176.111 78.3011 176.111C74.8147 176.111 72.1577 174.72 70.3301 171.936V183.998H66.6609V154.476H70.3301V158.103C72.1577 155.319 74.8147 153.927 78.3011 153.927ZM77.8372 172.569C79.9459 172.569 81.7173 171.852 83.1512 170.418C84.5852 168.928 85.3021 167.128 85.3021 165.019C85.3021 162.882 84.5852 161.097 83.1512 159.663C81.7173 158.201 79.9459 157.47 77.8372 157.47C75.7003 157.47 73.9149 158.201 72.481 159.663C71.047 161.097 70.3301 162.882 70.3301 165.019C70.3301 167.128 71.047 168.928 72.481 170.418C73.9149 171.852 75.7003 172.569 77.8372 172.569Z"/>
<path d="M113.594 166.706H95.9223C96.2878 168.562 97.1453 170.024 98.4949 171.092C99.8445 172.133 101.532 172.653 103.556 172.653C106.339 172.653 108.364 171.627 109.629 169.574L112.75 171.346C110.669 174.523 107.577 176.111 103.472 176.111C100.154 176.111 97.4265 175.071 95.2896 172.99C93.209 170.854 92.1687 168.196 92.1687 165.019C92.1687 161.814 93.195 159.171 95.2475 157.09C97.3 154.982 99.957 153.927 103.219 153.927C106.311 153.927 108.828 155.024 110.768 157.217C112.736 159.354 113.72 161.969 113.72 165.061C113.72 165.596 113.678 166.144 113.594 166.706ZM103.219 157.386C101.278 157.386 99.6477 157.934 98.3262 159.031C97.0329 160.127 96.2315 161.617 95.9223 163.501H110.009C109.699 161.561 108.926 160.057 107.689 158.988C106.452 157.92 104.962 157.386 103.219 157.386Z"/>
<path d="M121.607 154.476V158.018C122.816 155.403 125.009 154.096 128.186 154.096V157.934C126.387 157.85 124.84 158.328 123.547 159.368C122.254 160.408 121.607 162.081 121.607 164.387V175.563H117.938V154.476H121.607Z"/>
<path d="M156.575 176.111C152.077 176.111 148.379 174.635 145.483 171.683C142.587 168.759 141.139 165.132 141.139 160.802C141.139 156.472 142.587 152.845 145.483 149.921C148.379 146.969 152.077 145.492 156.575 145.492C159.246 145.492 161.721 146.139 163.998 147.432C166.275 148.726 168.047 150.469 169.312 152.662L165.896 154.644C165.052 153.014 163.787 151.72 162.1 150.764C160.441 149.78 158.6 149.288 156.575 149.288C153.145 149.288 150.361 150.385 148.225 152.578C146.088 154.743 145.019 157.484 145.019 160.802C145.019 164.091 146.088 166.819 148.225 168.984C150.361 171.177 153.145 172.273 156.575 172.273C158.6 172.273 160.441 171.795 162.1 170.839C163.787 169.855 165.052 168.562 165.896 166.959L169.312 168.899C168.075 171.092 166.318 172.85 164.04 174.171C161.791 175.465 159.303 176.111 156.575 176.111Z"/>
<path d="M177.167 175.563H173.498V144.775H177.167V175.563Z"/>
<path d="M200.563 172.906C198.426 175.043 195.797 176.111 192.676 176.111C189.555 176.111 186.926 175.043 184.789 172.906C182.653 170.769 181.584 168.14 181.584 165.019C181.584 161.898 182.653 159.269 184.789 157.133C186.926 154.996 189.555 153.927 192.676 153.927C195.797 153.927 198.426 154.996 200.563 157.133C202.728 159.298 203.81 161.926 203.81 165.019C203.81 168.112 202.728 170.741 200.563 172.906ZM192.676 172.526C194.785 172.526 196.556 171.809 197.99 170.376C199.424 168.942 200.141 167.156 200.141 165.019C200.141 162.882 199.424 161.097 197.99 159.663C196.556 158.229 194.785 157.512 192.676 157.512C190.596 157.512 188.838 158.229 187.404 159.663C185.97 161.097 185.253 162.882 185.253 165.019C185.253 167.156 185.97 168.942 187.404 170.376C188.838 171.809 190.596 172.526 192.676 172.526Z"/>
<path d="M219.154 154.476V158.018H213.545V169.448C213.545 170.488 213.742 171.233 214.136 171.683C214.557 172.105 215.19 172.33 216.033 172.358C216.877 172.358 217.917 172.33 219.154 172.273V175.563C215.921 175.985 213.559 175.718 212.069 174.762C210.607 173.806 209.876 172.034 209.876 169.448V158.018H205.701V154.476H209.876V149.668L213.545 148.571V154.476H219.154Z"/>
<path d="M234 153.927C236.474 153.927 238.456 154.715 239.947 156.289C241.437 157.836 242.182 159.944 242.182 162.615V175.563H238.513V162.826C238.513 161.139 238.049 159.818 237.121 158.862C236.193 157.906 234.914 157.428 233.283 157.428C231.399 157.428 229.909 158.018 228.812 159.199C227.716 160.352 227.168 162.081 227.168 164.387V175.563H223.498V146.041H227.168V157.512C228.63 155.122 230.907 153.927 234 153.927Z"/>
</mask>
<path d="M72.481 110.563V79.3115H65.1426V69.9487H72.481V60.8389H65.1426V51.4761H72.481V20.2246H92.3453L102.214 51.4761H113.728V20.2246H127.772V51.4761H134.984V60.8389H127.772V69.9487H134.984V79.3115H127.772V110.563H107.781L97.6593 79.3115H86.5252V110.563H72.481ZM86.0191 51.4761H89.5618L85.8926 39.3298H85.3865L86.0191 51.4761ZM86.5252 69.9487H94.8758L92.0923 60.8389H86.2721L86.5252 69.9487ZM108.161 69.9487H113.981L113.728 60.8389H105.251L108.161 69.9487ZM114.108 90.8252H114.74L114.234 79.3115H110.818L114.108 90.8252Z" fill="#FCD7EB"/>
<path d="M198.912 110.563H139.699V97.531L169.938 66.406C176.686 59.2363 180.06 53.3318 180.06 48.6926C180.06 45.2343 178.964 42.4507 176.771 40.342C174.662 38.2332 171.921 37.1789 168.547 37.1789C161.799 37.1789 156.864 40.6372 153.743 47.5539L139.066 38.9502C141.766 32.9614 145.688 28.3643 150.833 25.1591C156.063 21.8694 161.883 20.2246 168.294 20.2246C176.307 20.2246 183.181 22.7551 188.917 27.8161C194.653 32.7927 197.521 39.5407 197.521 48.06C197.521 57.2541 192.671 66.7012 182.97 76.4014L165.637 93.7353H198.912V110.563Z" fill="#FCD7EB"/>
<path d="M242.119 112.334C231.069 112.334 222.381 108.159 216.055 99.8084C209.813 91.2891 206.692 80.1128 206.692 66.2795C206.692 52.4462 209.813 41.312 216.055 32.877C222.381 24.4421 231.069 20.2246 242.119 20.2246C253.337 20.2246 262.025 24.4421 268.183 32.877C274.424 41.312 277.545 52.4462 277.545 66.2795C277.545 80.1128 274.424 91.2891 268.183 99.8084C262.025 108.159 253.337 112.334 242.119 112.334ZM260.212 66.2795C260.212 56.8323 258.651 49.6204 255.53 44.6438C252.494 39.6672 248.023 37.1789 242.119 37.1789C236.214 37.1789 231.744 39.6672 228.707 44.6438C225.67 49.6204 224.152 56.8323 224.152 66.2795C224.152 75.7266 225.67 82.9385 228.707 87.9152C231.744 92.8074 236.214 95.2536 242.119 95.2536C248.023 95.2536 252.494 92.7653 255.53 87.7886C258.651 82.812 260.212 75.6423 260.212 66.2795Z" fill="#FCD7EB"/>
<path d="M321.814 112.334C310.764 112.334 302.076 108.159 295.75 99.8084C289.508 91.2891 286.387 80.1128 286.387 66.2795C286.387 52.4462 289.508 41.312 295.75 32.877C302.076 24.4421 310.764 20.2246 321.814 20.2246C333.033 20.2246 341.721 24.4421 347.878 32.877C354.12 41.312 357.241 52.4462 357.241 66.2795C357.241 80.1128 354.12 91.2891 347.878 99.8084C341.721 108.159 333.033 112.334 321.814 112.334ZM339.907 66.2795C339.907 56.8323 338.347 49.6204 335.226 44.6438C332.189 39.6672 327.719 37.1789 321.814 37.1789C315.91 37.1789 311.439 39.6672 308.402 44.6438C305.366 49.6204 303.848 56.8323 303.848 66.2795C303.848 75.7266 305.366 82.9385 308.402 87.9152C311.439 92.8074 315.91 95.2536 321.814 95.2536C327.719 95.2536 332.189 92.7653 335.226 87.7886C338.347 82.812 339.907 75.6423 339.907 66.2795Z" fill="#FCD7EB"/>
<path d="M78.3011 153.927C81.2533 153.927 83.7698 155.01 85.8504 157.175C87.931 159.34 88.9713 161.955 88.9713 165.019C88.9713 168.112 87.931 170.741 85.8504 172.906C83.7979 175.043 81.2815 176.111 78.3011 176.111C74.8147 176.111 72.1577 174.72 70.3301 171.936V183.998H66.6609V154.476H70.3301V158.103C72.1577 155.319 74.8147 153.927 78.3011 153.927ZM77.8372 172.569C79.9459 172.569 81.7173 171.852 83.1512 170.418C84.5852 168.928 85.3021 167.128 85.3021 165.019C85.3021 162.882 84.5852 161.097 83.1512 159.663C81.7173 158.201 79.9459 157.47 77.8372 157.47C75.7003 157.47 73.9149 158.201 72.481 159.663C71.047 161.097 70.3301 162.882 70.3301 165.019C70.3301 167.128 71.047 168.928 72.481 170.418C73.9149 171.852 75.7003 172.569 77.8372 172.569Z" fill="#FCD7EB"/>
<path d="M113.594 166.706H95.9223C96.2878 168.562 97.1453 170.024 98.4949 171.092C99.8445 172.133 101.532 172.653 103.556 172.653C106.339 172.653 108.364 171.627 109.629 169.574L112.75 171.346C110.669 174.523 107.577 176.111 103.472 176.111C100.154 176.111 97.4265 175.071 95.2896 172.99C93.209 170.854 92.1687 168.196 92.1687 165.019C92.1687 161.814 93.195 159.171 95.2475 157.09C97.3 154.982 99.957 153.927 103.219 153.927C106.311 153.927 108.828 155.024 110.768 157.217C112.736 159.354 113.72 161.969 113.72 165.061C113.72 165.596 113.678 166.144 113.594 166.706ZM103.219 157.386C101.278 157.386 99.6477 157.934 98.3262 159.031C97.0329 160.127 96.2315 161.617 95.9223 163.501H110.009C109.699 161.561 108.926 160.057 107.689 158.988C106.452 157.92 104.962 157.386 103.219 157.386Z" fill="#FCD7EB"/>
<path d="M121.607 154.476V158.018C122.816 155.403 125.009 154.096 128.186 154.096V157.934C126.387 157.85 124.84 158.328 123.547 159.368C122.254 160.408 121.607 162.081 121.607 164.387V175.563H117.938V154.476H121.607Z" fill="#FCD7EB"/>
<path d="M156.575 176.111C152.077 176.111 148.379 174.635 145.483 171.683C142.587 168.759 141.139 165.132 141.139 160.802C141.139 156.472 142.587 152.845 145.483 149.921C148.379 146.969 152.077 145.492 156.575 145.492C159.246 145.492 161.721 146.139 163.998 147.432C166.275 148.726 168.047 150.469 169.312 152.662L165.896 154.644C165.052 153.014 163.787 151.72 162.1 150.764C160.441 149.78 158.6 149.288 156.575 149.288C153.145 149.288 150.361 150.385 148.225 152.578C146.088 154.743 145.019 157.484 145.019 160.802C145.019 164.091 146.088 166.819 148.225 168.984C150.361 171.177 153.145 172.273 156.575 172.273C158.6 172.273 160.441 171.795 162.1 170.839C163.787 169.855 165.052 168.562 165.896 166.959L169.312 168.899C168.075 171.092 166.318 172.85 164.04 174.171C161.791 175.465 159.303 176.111 156.575 176.111Z" fill="#FCD7EB"/>
<path d="M177.167 175.563H173.498V144.775H177.167V175.563Z" fill="#FCD7EB"/>
<path d="M200.563 172.906C198.426 175.043 195.797 176.111 192.676 176.111C189.555 176.111 186.926 175.043 184.789 172.906C182.653 170.769 181.584 168.14 181.584 165.019C181.584 161.898 182.653 159.269 184.789 157.133C186.926 154.996 189.555 153.927 192.676 153.927C195.797 153.927 198.426 154.996 200.563 157.133C202.728 159.298 203.81 161.926 203.81 165.019C203.81 168.112 202.728 170.741 200.563 172.906ZM192.676 172.526C194.785 172.526 196.556 171.809 197.99 170.376C199.424 168.942 200.141 167.156 200.141 165.019C200.141 162.882 199.424 161.097 197.99 159.663C196.556 158.229 194.785 157.512 192.676 157.512C190.596 157.512 188.838 158.229 187.404 159.663C185.97 161.097 185.253 162.882 185.253 165.019C185.253 167.156 185.97 168.942 187.404 170.376C188.838 171.809 190.596 172.526 192.676 172.526Z" fill="#FCD7EB"/>
<path d="M219.154 154.476V158.018H213.545V169.448C213.545 170.488 213.742 171.233 214.136 171.683C214.557 172.105 215.19 172.33 216.033 172.358C216.877 172.358 217.917 172.33 219.154 172.273V175.563C215.921 175.985 213.559 175.718 212.069 174.762C210.607 173.806 209.876 172.034 209.876 169.448V158.018H205.701V154.476H209.876V149.668L213.545 148.571V154.476H219.154Z" fill="#FCD7EB"/>
<path d="M234 153.927C236.474 153.927 238.456 154.715 239.947 156.289C241.437 157.836 242.182 159.944 242.182 162.615V175.563H238.513V162.826C238.513 161.139 238.049 159.818 237.121 158.862C236.193 157.906 234.914 157.428 233.283 157.428C231.399 157.428 229.909 158.018 228.812 159.199C227.716 160.352 227.168 162.081 227.168 164.387V175.563H223.498V146.041H227.168V157.512C228.63 155.122 230.907 153.927 234 153.927Z" fill="#FCD7EB"/>
<path d="M72.481 110.563V79.3115H65.1426V69.9487H72.481V60.8389H65.1426V51.4761H72.481V20.2246H92.3453L102.214 51.4761H113.728V20.2246H127.772V51.4761H134.984V60.8389H127.772V69.9487H134.984V79.3115H127.772V110.563H107.781L97.6593 79.3115H86.5252V110.563H72.481ZM86.0191 51.4761H89.5618L85.8926 39.3298H85.3865L86.0191 51.4761ZM86.5252 69.9487H94.8758L92.0923 60.8389H86.2721L86.5252 69.9487ZM108.161 69.9487H113.981L113.728 60.8389H105.251L108.161 69.9487ZM114.108 90.8252H114.74L114.234 79.3115H110.818L114.108 90.8252Z" stroke="#C2828D" stroke-opacity="0.3" stroke-width="2" mask="url(#path-4-inside-1_685_4242)"/>
<path d="M198.912 110.563H139.699V97.531L169.938 66.406C176.686 59.2363 180.06 53.3318 180.06 48.6926C180.06 45.2343 178.964 42.4507 176.771 40.342C174.662 38.2332 171.921 37.1789 168.547 37.1789C161.799 37.1789 156.864 40.6372 153.743 47.5539L139.066 38.9502C141.766 32.9614 145.688 28.3643 150.833 25.1591C156.063 21.8694 161.883 20.2246 168.294 20.2246C176.307 20.2246 183.181 22.7551 188.917 27.8161C194.653 32.7927 197.521 39.5407 197.521 48.06C197.521 57.2541 192.671 66.7012 182.97 76.4014L165.637 93.7353H198.912V110.563Z" stroke="#C2828D" stroke-opacity="0.3" stroke-width="2" mask="url(#path-4-inside-1_685_4242)"/>
<path d="M242.119 112.334C231.069 112.334 222.381 108.159 216.055 99.8084C209.813 91.2891 206.692 80.1128 206.692 66.2795C206.692 52.4462 209.813 41.312 216.055 32.877C222.381 24.4421 231.069 20.2246 242.119 20.2246C253.337 20.2246 262.025 24.4421 268.183 32.877C274.424 41.312 277.545 52.4462 277.545 66.2795C277.545 80.1128 274.424 91.2891 268.183 99.8084C262.025 108.159 253.337 112.334 242.119 112.334ZM260.212 66.2795C260.212 56.8323 258.651 49.6204 255.53 44.6438C252.494 39.6672 248.023 37.1789 242.119 37.1789C236.214 37.1789 231.744 39.6672 228.707 44.6438C225.67 49.6204 224.152 56.8323 224.152 66.2795C224.152 75.7266 225.67 82.9385 228.707 87.9152C231.744 92.8074 236.214 95.2536 242.119 95.2536C248.023 95.2536 252.494 92.7653 255.53 87.7886C258.651 82.812 260.212 75.6423 260.212 66.2795Z" stroke="#C2828D" stroke-opacity="0.3" stroke-width="2" mask="url(#path-4-inside-1_685_4242)"/>
<path d="M321.814 112.334C310.764 112.334 302.076 108.159 295.75 99.8084C289.508 91.2891 286.387 80.1128 286.387 66.2795C286.387 52.4462 289.508 41.312 295.75 32.877C302.076 24.4421 310.764 20.2246 321.814 20.2246C333.033 20.2246 341.721 24.4421 347.878 32.877C354.12 41.312 357.241 52.4462 357.241 66.2795C357.241 80.1128 354.12 91.2891 347.878 99.8084C341.721 108.159 333.033 112.334 321.814 112.334ZM339.907 66.2795C339.907 56.8323 338.347 49.6204 335.226 44.6438C332.189 39.6672 327.719 37.1789 321.814 37.1789C315.91 37.1789 311.439 39.6672 308.402 44.6438C305.366 49.6204 303.848 56.8323 303.848 66.2795C303.848 75.7266 305.366 82.9385 308.402 87.9152C311.439 92.8074 315.91 95.2536 321.814 95.2536C327.719 95.2536 332.189 92.7653 335.226 87.7886C338.347 82.812 339.907 75.6423 339.907 66.2795Z" stroke="#C2828D" stroke-opacity="0.3" stroke-width="2" mask="url(#path-4-inside-1_685_4242)"/>
<path d="M78.3011 153.927C81.2533 153.927 83.7698 155.01 85.8504 157.175C87.931 159.34 88.9713 161.955 88.9713 165.019C88.9713 168.112 87.931 170.741 85.8504 172.906C83.7979 175.043 81.2815 176.111 78.3011 176.111C74.8147 176.111 72.1577 174.72 70.3301 171.936V183.998H66.6609V154.476H70.3301V158.103C72.1577 155.319 74.8147 153.927 78.3011 153.927ZM77.8372 172.569C79.9459 172.569 81.7173 171.852 83.1512 170.418C84.5852 168.928 85.3021 167.128 85.3021 165.019C85.3021 162.882 84.5852 161.097 83.1512 159.663C81.7173 158.201 79.9459 157.47 77.8372 157.47C75.7003 157.47 73.9149 158.201 72.481 159.663C71.047 161.097 70.3301 162.882 70.3301 165.019C70.3301 167.128 71.047 168.928 72.481 170.418C73.9149 171.852 75.7003 172.569 77.8372 172.569Z" stroke="#C2828D" stroke-opacity="0.3" stroke-width="2" mask="url(#path-4-inside-1_685_4242)"/>
<path d="M113.594 166.706H95.9223C96.2878 168.562 97.1453 170.024 98.4949 171.092C99.8445 172.133 101.532 172.653 103.556 172.653C106.339 172.653 108.364 171.627 109.629 169.574L112.75 171.346C110.669 174.523 107.577 176.111 103.472 176.111C100.154 176.111 97.4265 175.071 95.2896 172.99C93.209 170.854 92.1687 168.196 92.1687 165.019C92.1687 161.814 93.195 159.171 95.2475 157.09C97.3 154.982 99.957 153.927 103.219 153.927C106.311 153.927 108.828 155.024 110.768 157.217C112.736 159.354 113.72 161.969 113.72 165.061C113.72 165.596 113.678 166.144 113.594 166.706ZM103.219 157.386C101.278 157.386 99.6477 157.934 98.3262 159.031C97.0329 160.127 96.2315 161.617 95.9223 163.501H110.009C109.699 161.561 108.926 160.057 107.689 158.988C106.452 157.92 104.962 157.386 103.219 157.386Z" stroke="#C2828D" stroke-opacity="0.3" stroke-width="2" mask="url(#path-4-inside-1_685_4242)"/>
<path d="M121.607 154.476V158.018C122.816 155.403 125.009 154.096 128.186 154.096V157.934C126.387 157.85 124.84 158.328 123.547 159.368C122.254 160.408 121.607 162.081 121.607 164.387V175.563H117.938V154.476H121.607Z" stroke="#C2828D" stroke-opacity="0.3" stroke-width="2" mask="url(#path-4-inside-1_685_4242)"/>
<path d="M156.575 176.111C152.077 176.111 148.379 174.635 145.483 171.683C142.587 168.759 141.139 165.132 141.139 160.802C141.139 156.472 142.587 152.845 145.483 149.921C148.379 146.969 152.077 145.492 156.575 145.492C159.246 145.492 161.721 146.139 163.998 147.432C166.275 148.726 168.047 150.469 169.312 152.662L165.896 154.644C165.052 153.014 163.787 151.72 162.1 150.764C160.441 149.78 158.6 149.288 156.575 149.288C153.145 149.288 150.361 150.385 148.225 152.578C146.088 154.743 145.019 157.484 145.019 160.802C145.019 164.091 146.088 166.819 148.225 168.984C150.361 171.177 153.145 172.273 156.575 172.273C158.6 172.273 160.441 171.795 162.1 170.839C163.787 169.855 165.052 168.562 165.896 166.959L169.312 168.899C168.075 171.092 166.318 172.85 164.04 174.171C161.791 175.465 159.303 176.111 156.575 176.111Z" stroke="#C2828D" stroke-opacity="0.3" stroke-width="2" mask="url(#path-4-inside-1_685_4242)"/>
<path d="M177.167 175.563H173.498V144.775H177.167V175.563Z" stroke="#C2828D" stroke-opacity="0.3" stroke-width="2" mask="url(#path-4-inside-1_685_4242)"/>
<path d="M200.563 172.906C198.426 175.043 195.797 176.111 192.676 176.111C189.555 176.111 186.926 175.043 184.789 172.906C182.653 170.769 181.584 168.14 181.584 165.019C181.584 161.898 182.653 159.269 184.789 157.133C186.926 154.996 189.555 153.927 192.676 153.927C195.797 153.927 198.426 154.996 200.563 157.133C202.728 159.298 203.81 161.926 203.81 165.019C203.81 168.112 202.728 170.741 200.563 172.906ZM192.676 172.526C194.785 172.526 196.556 171.809 197.99 170.376C199.424 168.942 200.141 167.156 200.141 165.019C200.141 162.882 199.424 161.097 197.99 159.663C196.556 158.229 194.785 157.512 192.676 157.512C190.596 157.512 188.838 158.229 187.404 159.663C185.97 161.097 185.253 162.882 185.253 165.019C185.253 167.156 185.97 168.942 187.404 170.376C188.838 171.809 190.596 172.526 192.676 172.526Z" stroke="#C2828D" stroke-opacity="0.3" stroke-width="2" mask="url(#path-4-inside-1_685_4242)"/>
<path d="M219.154 154.476V158.018H213.545V169.448C213.545 170.488 213.742 171.233 214.136 171.683C214.557 172.105 215.19 172.33 216.033 172.358C216.877 172.358 217.917 172.33 219.154 172.273V175.563C215.921 175.985 213.559 175.718 212.069 174.762C210.607 173.806 209.876 172.034 209.876 169.448V158.018H205.701V154.476H209.876V149.668L213.545 148.571V154.476H219.154Z" stroke="#C2828D" stroke-opacity="0.3" stroke-width="2" mask="url(#path-4-inside-1_685_4242)"/>
<path d="M234 153.927C236.474 153.927 238.456 154.715 239.947 156.289C241.437 157.836 242.182 159.944 242.182 162.615V175.563H238.513V162.826C238.513 161.139 238.049 159.818 237.121 158.862C236.193 157.906 234.914 157.428 233.283 157.428C231.399 157.428 229.909 158.018 228.812 159.199C227.716 160.352 227.168 162.081 227.168 164.387V175.563H223.498V146.041H227.168V157.512C228.63 155.122 230.907 153.927 234 153.927Z" stroke="#C2828D" stroke-opacity="0.3" stroke-width="2" mask="url(#path-4-inside-1_685_4242)"/>
</g>
<ellipse cx="322.862" cy="98.2322" rx="74.5" ry="77" fill="#305E5B"/>
<path d="M317.362 169.787C355.112 169.787 385.362 135.824 385.362 94.386C385.362 52.9482 355.112 18.9846 317.362 18.9846C279.612 18.9846 249.362 52.9482 249.362 94.386C249.362 135.824 279.612 169.787 317.362 169.787Z" fill="#00C3B3" stroke="#110F0A" stroke-width="4"/>
<path d="M317.362 150.232C345.175 150.232 367.362 125.174 367.362 94.7322C367.362 64.29 345.175 39.2322 317.362 39.2322C289.55 39.2322 267.362 64.29 267.362 94.7322C267.362 125.174 289.55 150.232 317.362 150.232Z" fill="#00C3B3" stroke="#110F0A" stroke-width="4"/>
<path d="M317.362 124.232C332.481 124.232 344.362 110.582 344.362 94.2322C344.362 77.8828 332.481 64.2322 317.362 64.2322C302.244 64.2322 290.362 77.8828 290.362 94.2322C290.362 110.582 302.244 124.232 317.362 124.232Z" fill="#00C3B3" stroke="#110F0A" stroke-width="4"/>
<path d="M191.876 142.662L206.257 140.429L218.404 123.816L200.604 110.8L187.41 113.901L204.024 126.049L191.876 142.662Z" fill="#F8BB1C" stroke="#110F0A"/>
<path d="M175.253 145.386L189.634 143.153L201.781 126.539L183.981 113.524L170.787 116.624L187.401 128.772L175.253 145.386Z" fill="#F8BB1C" stroke="#110F0A"/>
<path d="M189.517 126.297C189.74 124.933 190.745 123.828 192.081 123.477L315.762 91.0292C318.785 90.2359 321.625 92.8174 321.122 95.9028C320.847 97.5878 319.606 98.9531 317.954 99.3863L194.315 131.824C191.515 132.558 188.886 130.168 189.352 127.311L189.517 126.297Z" fill="#020B0A"/>
</g>
<defs>
<filter id="filter0_d_685_4242" x="0" y="0" width="490" height="214" filterUnits="userSpaceOnUse" color-interpolation-filters="sRGB">
<feFlood flood-opacity="0" result="BackgroundImageFix"/>
<feColorMatrix in="SourceAlpha" type="matrix" values="0 0 0 0 0 0 0 0 0 0 0 0 0 0 0 0 0 0 127 0" result="hardAlpha"/>
<feOffset dx="16" dy="16"/>
<feComposite in2="hardAlpha" operator="out"/>
<feColorMatrix type="matrix" values="0 0 0 0 0 0 0 0 0 0 0 0 0 0 0 0 0 0 1 0"/>
<feBlend mode="normal" in2="BackgroundImageFix" result="effect1_dropShadow_685_4242"/>
<feBlend mode="normal" in="SourceGraphic" in2="effect1_dropShadow_685_4242" result="shape"/>
</filter>
</defs>
</svg>
