<svg width="490" height="214" viewBox="0 0 490 214" fill="none" xmlns="http://www.w3.org/2000/svg">
<g filter="url(#filter0_d_685_4349)">
<rect x="4" y="4" width="466" height="190" rx="95" fill="#FEF5FA"/>
<rect x="2" y="2" width="470" height="194" rx="97" stroke="#110F0A" stroke-width="4"/>
</g>
<mask id="mask0_685_4349" style="mask-type:alpha" maskUnits="userSpaceOnUse" x="4" y="4" width="466" height="190">
<rect x="4" y="4" width="466" height="190" rx="95" fill="#FEF5FA"/>
</mask>
<g mask="url(#mask0_685_4349)">
<rect x="74.7686" y="79.6367" width="348.496" height="89.1886" rx="19.8197" fill="#2D7DF5"/>
<rect x="74.7686" y="79.6367" width="348.496" height="89.1886" rx="19.8197" stroke="black" stroke-width="3.30328"/>
<path d="M112.947 109.85H110.906L107.794 104.538H104.524V109.85H102.681V95.9761H108.23C109.42 95.9761 110.437 96.3989 111.283 97.2445C112.128 98.077 112.551 99.0878 112.551 100.277C112.551 101.175 112.28 101.995 111.738 102.735C111.183 103.488 110.496 104.01 109.677 104.3L112.947 109.85ZM108.23 97.7004H104.524V102.873H108.23C108.917 102.873 109.499 102.622 109.974 102.12C110.463 101.618 110.708 101.004 110.708 100.277C110.708 99.5502 110.463 98.9424 109.974 98.4535C109.499 97.9514 108.917 97.7004 108.23 97.7004ZM123.629 105.688H115.325C115.496 106.56 115.899 107.247 116.534 107.749C117.168 108.238 117.961 108.482 118.912 108.482C120.22 108.482 121.171 108 121.766 107.035L123.233 107.868C122.255 109.361 120.801 110.108 118.872 110.108C117.313 110.108 116.031 109.619 115.027 108.641C114.049 107.637 113.561 106.388 113.561 104.895C113.561 103.389 114.043 102.147 115.007 101.169C115.972 100.178 117.221 99.6824 118.753 99.6824C120.207 99.6824 121.389 100.198 122.301 101.228C123.226 102.232 123.688 103.461 123.688 104.915C123.688 105.166 123.669 105.423 123.629 105.688ZM118.753 101.308C117.842 101.308 117.075 101.565 116.454 102.081C115.846 102.596 115.47 103.296 115.325 104.181H121.944C121.799 103.27 121.436 102.563 120.854 102.061C120.273 101.559 119.573 101.308 118.753 101.308ZM136.373 99.6824C137.496 99.6824 138.395 100.046 139.069 100.772C139.756 101.499 140.099 102.47 140.099 103.686V109.85H138.375V103.745C138.375 102.992 138.177 102.404 137.78 101.981C137.397 101.545 136.869 101.327 136.195 101.327C135.428 101.327 134.827 101.585 134.391 102.1C133.968 102.602 133.757 103.349 133.757 104.34V109.85H132.033V103.745C132.033 102.992 131.841 102.404 131.458 101.981C131.088 101.545 130.579 101.327 129.932 101.327C129.179 101.327 128.564 101.592 128.089 102.12C127.626 102.635 127.395 103.375 127.395 104.34V109.85H125.671V99.94H127.395V101.268C128.069 100.211 129.053 99.6824 130.348 99.6824C131.683 99.6824 132.654 100.244 133.261 101.367C133.949 100.244 134.986 99.6824 136.373 99.6824ZM143.362 98.1364C143.032 98.1364 142.754 98.0241 142.53 97.7995C142.305 97.5749 142.193 97.304 142.193 96.9869C142.193 96.6698 142.305 96.3989 142.53 96.1743C142.754 95.9364 143.032 95.8175 143.362 95.8175C143.679 95.8175 143.95 95.9364 144.175 96.1743C144.399 96.3989 144.512 96.6698 144.512 96.9869C144.512 97.304 144.399 97.5749 144.175 97.7995C143.95 98.0241 143.679 98.1364 143.362 98.1364ZM144.215 109.85H142.49V99.94H144.215V109.85ZM151.78 99.6824C152.943 99.6824 153.874 100.052 154.575 100.792C155.275 101.519 155.625 102.51 155.625 103.765V109.85H153.901V103.864C153.901 103.072 153.683 102.451 153.247 102.001C152.811 101.552 152.21 101.327 151.443 101.327C150.558 101.327 149.858 101.605 149.342 102.16C148.827 102.702 148.569 103.514 148.569 104.598V109.85H146.845V99.94H148.569V101.367C149.257 100.244 150.327 99.6824 151.78 99.6824ZM166.238 101.645V95.9761H167.962V109.85H166.238V108.145C165.392 109.453 164.143 110.108 162.492 110.108C161.091 110.108 159.909 109.605 158.944 108.601C157.966 107.584 157.477 106.348 157.477 104.895C157.477 103.455 157.966 102.226 158.944 101.208C159.922 100.191 161.104 99.6824 162.492 99.6824C164.143 99.6824 165.392 100.336 166.238 101.645ZM162.71 108.443C163.714 108.443 164.553 108.106 165.227 107.432C165.901 106.732 166.238 105.886 166.238 104.895C166.238 103.891 165.901 103.052 165.227 102.378C164.553 101.691 163.714 101.347 162.71 101.347C161.719 101.347 160.886 101.691 160.213 102.378C159.539 103.052 159.202 103.891 159.202 104.895C159.202 105.886 159.539 106.732 160.213 107.432C160.886 108.106 161.719 108.443 162.71 108.443ZM180.088 105.688H171.784C171.955 106.56 172.358 107.247 172.993 107.749C173.627 108.238 174.42 108.482 175.371 108.482C176.679 108.482 177.63 108 178.225 107.035L179.692 107.868C178.714 109.361 177.26 110.108 175.331 110.108C173.772 110.108 172.49 109.619 171.486 108.641C170.508 107.637 170.02 106.388 170.02 104.895C170.02 103.389 170.502 102.147 171.466 101.169C172.431 100.178 173.68 99.6824 175.212 99.6824C176.666 99.6824 177.848 100.198 178.76 101.228C179.685 102.232 180.147 103.461 180.147 104.915C180.147 105.166 180.128 105.423 180.088 105.688ZM175.212 101.308C174.301 101.308 173.534 101.565 172.913 102.081C172.305 102.596 171.929 103.296 171.784 104.181H178.403C178.258 103.27 177.895 102.563 177.313 102.061C176.732 101.559 176.032 101.308 175.212 101.308ZM183.854 99.94V101.605C184.422 100.376 185.453 99.7616 186.946 99.7616V101.565C186.1 101.526 185.373 101.75 184.766 102.239C184.158 102.728 183.854 103.514 183.854 104.598V109.85H182.13V99.94H183.854ZM193.033 102.913C193.033 100.905 193.727 99.2067 195.114 97.8193C196.501 96.4187 198.199 95.7184 200.208 95.7184C202.216 95.7184 203.914 96.4187 205.301 97.8193C206.702 99.2067 207.402 100.905 207.402 102.913C207.402 104.908 206.702 106.606 205.301 108.007C203.914 109.407 202.216 110.108 200.208 110.108C198.199 110.108 196.501 109.407 195.114 108.007C193.727 106.593 193.033 104.895 193.033 102.913ZM205.559 102.913C205.559 101.38 205.044 100.099 204.013 99.0679C203.009 98.0241 201.74 97.5022 200.208 97.5022C198.688 97.5022 197.413 98.0241 196.382 99.0679C195.365 100.112 194.856 101.393 194.856 102.913C194.856 104.419 195.365 105.701 196.382 106.758C197.413 107.789 198.688 108.304 200.208 108.304C201.74 108.304 203.009 107.789 204.013 106.758C205.044 105.701 205.559 104.419 205.559 102.913ZM211.164 109.85H209.44V95.3815H211.164V109.85ZM222 101.645V99.94H223.724V109.85H222V108.145C221.154 109.453 219.906 110.108 218.254 110.108C216.853 110.108 215.671 109.605 214.706 108.601C213.729 107.584 213.24 106.348 213.24 104.895C213.24 103.455 213.729 102.226 214.706 101.208C215.684 100.191 216.867 99.6824 218.254 99.6824C219.906 99.6824 221.154 100.336 222 101.645ZM218.472 108.443C219.476 108.443 220.315 108.106 220.989 107.432C221.663 106.732 222 105.886 222 104.895C222 103.891 221.663 103.052 220.989 102.378C220.315 101.691 219.476 101.347 218.472 101.347C217.481 101.347 216.649 101.691 215.975 102.378C215.301 103.052 214.964 103.891 214.964 104.895C214.964 105.886 215.301 106.732 215.975 107.432C216.649 108.106 217.481 108.443 218.472 108.443ZM229.825 104.736L234.72 109.85H232.58L228.061 105.153V109.85H226.337V95.9761H228.061V104.32L232.342 99.94H234.562L229.825 104.736ZM242.775 105.192V99.94H244.499V109.85H242.775V108.423C242.088 109.546 241.017 110.108 239.564 110.108C238.401 110.108 237.47 109.744 236.769 109.017C236.069 108.277 235.719 107.28 235.719 106.025V99.94H237.443V105.926C237.443 106.718 237.661 107.339 238.097 107.789C238.533 108.238 239.134 108.462 239.901 108.462C240.786 108.462 241.486 108.192 242.002 107.65C242.517 107.095 242.775 106.276 242.775 105.192ZM252.059 99.6824C253.222 99.6824 254.154 100.052 254.854 100.792C255.554 101.519 255.904 102.51 255.904 103.765V109.85H254.18V103.864C254.18 103.072 253.962 102.451 253.526 102.001C253.09 101.552 252.489 101.327 251.722 101.327C250.837 101.327 250.137 101.605 249.621 102.16C249.106 102.702 248.848 103.514 248.848 104.598V109.85H247.124V99.94H248.848V101.367C249.536 100.244 250.606 99.6824 252.059 99.6824ZM260.036 109.85H258.311V95.3815H260.036V109.85ZM272.18 105.688H263.875C264.047 106.56 264.45 107.247 265.084 107.749C265.719 108.238 266.511 108.482 267.463 108.482C268.771 108.482 269.722 108 270.317 107.035L271.783 107.868C270.806 109.361 269.352 110.108 267.423 110.108C265.864 110.108 264.582 109.619 263.578 108.641C262.6 107.637 262.111 106.388 262.111 104.895C262.111 103.389 262.594 102.147 263.558 101.169C264.523 100.178 265.771 99.6824 267.304 99.6824C268.758 99.6824 269.94 100.198 270.852 101.228C271.777 102.232 272.239 103.461 272.239 104.915C272.239 105.166 272.219 105.423 272.18 105.688ZM267.304 101.308C266.392 101.308 265.626 101.565 265.005 102.081C264.397 102.596 264.021 103.296 263.875 104.181H270.495C270.35 103.27 269.986 102.563 269.405 102.061C268.824 101.559 268.123 101.308 267.304 101.308Z" fill="white"/>
<path d="M275.886 91.0077L279.827 91.422C280.039 91.4442 280.187 91.6413 280.149 91.8503L277.642 105.732C277.608 105.92 277.435 106.05 277.244 106.03L275.375 105.834C275.185 105.814 275.043 105.651 275.048 105.459L275.483 91.3599C275.489 91.1476 275.675 90.9855 275.886 91.0077Z" fill="#F8BB1C" stroke="black" stroke-width="0.660656" stroke-linecap="round"/>
<circle cx="1.82695" cy="1.82695" r="1.82695" transform="matrix(-0.994522 -0.104528 -0.104528 0.994522 277.974 107.577)" fill="#F8BB1C" stroke="black" stroke-width="0.660656"/>
<path d="M109.03 135.456H107.669L105.594 131.915H103.414V135.456H102.185V126.207H105.885C106.678 126.207 107.356 126.489 107.92 127.053C108.484 127.608 108.765 128.282 108.765 129.074C108.765 129.673 108.585 130.219 108.224 130.713C107.854 131.215 107.396 131.563 106.85 131.757L109.03 135.456ZM105.885 127.357H103.414V130.805H105.885C106.343 130.805 106.731 130.638 107.048 130.303C107.374 129.968 107.537 129.559 107.537 129.074C107.537 128.59 107.374 128.185 107.048 127.859C106.731 127.524 106.343 127.357 105.885 127.357ZM116.151 132.682H110.614C110.729 133.263 110.998 133.721 111.42 134.056C111.843 134.382 112.372 134.545 113.006 134.545C113.878 134.545 114.512 134.223 114.909 133.58L115.887 134.135C115.235 135.13 114.266 135.628 112.98 135.628C111.94 135.628 111.086 135.302 110.416 134.65C109.764 133.981 109.438 133.148 109.438 132.153C109.438 131.149 109.76 130.321 110.403 129.669C111.046 129.008 111.879 128.678 112.9 128.678C113.869 128.678 114.658 129.022 115.265 129.709C115.882 130.378 116.19 131.197 116.19 132.166C116.19 132.334 116.177 132.505 116.151 132.682ZM112.9 129.761C112.293 129.761 111.782 129.933 111.368 130.277C110.962 130.62 110.711 131.087 110.614 131.677H115.028C114.931 131.07 114.689 130.598 114.301 130.264C113.913 129.929 113.446 129.761 112.9 129.761ZM124.647 128.678C125.396 128.678 125.995 128.92 126.444 129.405C126.902 129.889 127.131 130.537 127.131 131.347V135.456H125.981V131.387C125.981 130.885 125.849 130.493 125.585 130.211C125.33 129.92 124.977 129.775 124.528 129.775C124.017 129.775 123.616 129.946 123.326 130.29C123.044 130.625 122.903 131.122 122.903 131.783V135.456H121.753V131.387C121.753 130.885 121.626 130.493 121.37 130.211C121.123 129.92 120.784 129.775 120.353 129.775C119.851 129.775 119.441 129.951 119.124 130.303C118.816 130.647 118.661 131.14 118.661 131.783V135.456H117.512V128.85H118.661V129.735C119.111 129.03 119.767 128.678 120.63 128.678C121.52 128.678 122.167 129.052 122.572 129.801C123.031 129.052 123.722 128.678 124.647 128.678ZM135.067 132.682H129.531C129.645 133.263 129.914 133.721 130.337 134.056C130.76 134.382 131.288 134.545 131.922 134.545C132.795 134.545 133.429 134.223 133.825 133.58L134.803 134.135C134.151 135.13 133.182 135.628 131.896 135.628C130.857 135.628 130.002 135.302 129.333 134.65C128.681 133.981 128.355 133.148 128.355 132.153C128.355 131.149 128.676 130.321 129.319 129.669C129.963 129.008 130.795 128.678 131.817 128.678C132.786 128.678 133.574 129.022 134.182 129.709C134.799 130.378 135.107 131.197 135.107 132.166C135.107 132.334 135.094 132.505 135.067 132.682ZM131.817 129.761C131.209 129.761 130.698 129.933 130.284 130.277C129.879 130.62 129.628 131.087 129.531 131.677H133.944C133.847 131.07 133.605 130.598 133.217 130.264C132.83 129.929 132.363 129.761 131.817 129.761ZM143.563 128.678C144.312 128.678 144.911 128.92 145.36 129.405C145.818 129.889 146.047 130.537 146.047 131.347V135.456H144.898V131.387C144.898 130.885 144.766 130.493 144.501 130.211C144.246 129.92 143.894 129.775 143.444 129.775C142.934 129.775 142.533 129.946 142.242 130.29C141.96 130.625 141.819 131.122 141.819 131.783V135.456H140.67V131.387C140.67 130.885 140.542 130.493 140.286 130.211C140.04 129.92 139.701 129.775 139.269 129.775C138.767 129.775 138.357 129.951 138.04 130.303C137.732 130.647 137.578 131.14 137.578 131.783V135.456H136.428V128.85H137.578V129.735C138.027 129.03 138.683 128.678 139.547 128.678C140.436 128.678 141.084 129.052 141.489 129.801C141.947 129.052 142.638 128.678 143.563 128.678ZM151.288 128.678C152.213 128.678 153.001 129.017 153.653 129.695C154.305 130.374 154.631 131.193 154.631 132.153C154.631 133.122 154.305 133.946 153.653 134.624C153.01 135.293 152.222 135.628 151.288 135.628C150.196 135.628 149.363 135.192 148.791 134.32V135.456H147.641V126.207H148.791V129.986C149.363 129.114 150.196 128.678 151.288 128.678ZM151.143 134.518C151.803 134.518 152.358 134.294 152.808 133.844C153.257 133.377 153.482 132.814 153.482 132.153C153.482 131.484 153.257 130.924 152.808 130.475C152.358 130.017 151.803 129.788 151.143 129.788C150.473 129.788 149.914 130.017 149.465 130.475C149.016 130.924 148.791 131.484 148.791 132.153C148.791 132.814 149.016 133.377 149.465 133.844C149.914 134.294 150.473 134.518 151.143 134.518ZM162.345 132.682H156.809C156.923 133.263 157.192 133.721 157.615 134.056C158.038 134.382 158.566 134.545 159.2 134.545C160.072 134.545 160.707 134.223 161.103 133.58L162.081 134.135C161.429 135.13 160.46 135.628 159.174 135.628C158.134 135.628 157.28 135.302 156.611 134.65C155.959 133.981 155.633 133.148 155.633 132.153C155.633 131.149 155.954 130.321 156.597 129.669C157.24 129.008 158.073 128.678 159.095 128.678C160.064 128.678 160.852 129.022 161.46 129.709C162.076 130.378 162.385 131.197 162.385 132.166C162.385 132.334 162.372 132.505 162.345 132.682ZM159.095 129.761C158.487 129.761 157.976 129.933 157.562 130.277C157.157 130.62 156.906 131.087 156.809 131.677H161.222C161.125 131.07 160.883 130.598 160.495 130.264C160.108 129.929 159.641 129.761 159.095 129.761ZM164.856 128.85V129.96C165.234 129.14 165.922 128.731 166.917 128.731V129.933C166.353 129.907 165.869 130.057 165.463 130.382C165.058 130.708 164.856 131.233 164.856 131.955V135.456H163.706V128.85H164.856ZM174.939 128.85V129.96H173.182V133.54C173.182 133.866 173.243 134.1 173.367 134.241C173.499 134.373 173.697 134.443 173.961 134.452C174.225 134.452 174.551 134.443 174.939 134.426V135.456C173.926 135.588 173.186 135.505 172.719 135.205C172.261 134.906 172.032 134.351 172.032 133.54V129.96H170.724V128.85H172.032V127.343L173.182 127V128.85H174.939ZM181.54 134.624C180.871 135.293 180.047 135.628 179.069 135.628C178.092 135.628 177.268 135.293 176.599 134.624C175.929 133.954 175.594 133.131 175.594 132.153C175.594 131.175 175.929 130.352 176.599 129.682C177.268 129.013 178.092 128.678 179.069 128.678C180.047 128.678 180.871 129.013 181.54 129.682C182.219 130.36 182.558 131.184 182.558 132.153C182.558 133.122 182.219 133.946 181.54 134.624ZM179.069 134.505C179.73 134.505 180.285 134.28 180.734 133.831C181.184 133.382 181.408 132.822 181.408 132.153C181.408 131.484 181.184 130.924 180.734 130.475C180.285 130.026 179.73 129.801 179.069 129.801C178.418 129.801 177.867 130.026 177.418 130.475C176.969 130.924 176.744 131.484 176.744 132.153C176.744 132.822 176.969 133.382 177.418 133.831C177.867 134.28 178.418 134.505 179.069 134.505ZM192.7 129.986V128.85H193.836V135.179C193.836 136.157 193.506 136.914 192.845 137.451C192.176 137.998 191.383 138.271 190.467 138.271C189.727 138.271 189.088 138.13 188.551 137.848C188.013 137.575 187.608 137.178 187.335 136.659L188.339 136.091C188.7 136.83 189.418 137.2 190.493 137.2C191.18 137.2 191.717 137.02 192.105 136.659C192.501 136.298 192.7 135.804 192.7 135.179V134.241C192.118 135.122 191.29 135.562 190.216 135.562C189.264 135.562 188.467 135.227 187.824 134.558C187.172 133.88 186.846 133.065 186.846 132.113C186.846 131.162 187.172 130.352 187.824 129.682C188.467 129.013 189.264 128.678 190.216 128.678C191.299 128.678 192.127 129.114 192.7 129.986ZM192.7 132.113C192.7 131.453 192.475 130.898 192.026 130.449C191.577 129.999 191.017 129.775 190.348 129.775C189.678 129.775 189.119 129.999 188.67 130.449C188.22 130.898 187.996 131.453 187.996 132.113C187.996 132.783 188.22 133.342 188.67 133.791C189.119 134.241 189.678 134.465 190.348 134.465C191.017 134.465 191.577 134.241 192.026 133.791C192.475 133.342 192.7 132.783 192.7 132.113ZM201.92 132.682H196.384C196.498 133.263 196.767 133.721 197.19 134.056C197.612 134.382 198.141 134.545 198.775 134.545C199.647 134.545 200.282 134.223 200.678 133.58L201.656 134.135C201.004 135.13 200.035 135.628 198.749 135.628C197.709 135.628 196.855 135.302 196.185 134.65C195.534 133.981 195.208 133.148 195.208 132.153C195.208 131.149 195.529 130.321 196.172 129.669C196.815 129.008 197.648 128.678 198.67 128.678C199.638 128.678 200.427 129.022 201.035 129.709C201.651 130.378 201.96 131.197 201.96 132.166C201.96 132.334 201.946 132.505 201.92 132.682ZM198.67 129.761C198.062 129.761 197.551 129.933 197.137 130.277C196.732 130.62 196.481 131.087 196.384 131.677H200.797C200.7 131.07 200.458 130.598 200.07 130.264C199.683 129.929 199.216 129.761 198.67 129.761ZM206.681 128.85V129.96H204.924V133.54C204.924 133.866 204.986 134.1 205.109 134.241C205.241 134.373 205.439 134.443 205.704 134.452C205.968 134.452 206.294 134.443 206.681 134.426V135.456C205.668 135.588 204.928 135.505 204.462 135.205C204.004 134.906 203.775 134.351 203.775 133.54V129.96H202.466V128.85H203.775V127.343L204.924 127V128.85H206.681ZM216.855 129.986V126.207H218.004V135.456H216.855V134.32C216.291 135.192 215.458 135.628 214.357 135.628C213.424 135.628 212.635 135.293 211.992 134.624C211.34 133.946 211.014 133.122 211.014 132.153C211.014 131.193 211.34 130.374 211.992 129.695C212.644 129.017 213.432 128.678 214.357 128.678C215.458 128.678 216.291 129.114 216.855 129.986ZM214.503 134.518C215.172 134.518 215.731 134.294 216.181 133.844C216.63 133.377 216.855 132.814 216.855 132.153C216.855 131.484 216.63 130.924 216.181 130.475C215.731 130.017 215.172 129.788 214.503 129.788C213.842 129.788 213.287 130.017 212.838 130.475C212.389 130.924 212.164 131.484 212.164 132.153C212.164 132.814 212.389 133.377 212.838 133.844C213.287 134.294 213.842 134.518 214.503 134.518ZM226.088 132.682H220.552C220.666 133.263 220.935 133.721 221.358 134.056C221.781 134.382 222.309 134.545 222.943 134.545C223.815 134.545 224.45 134.223 224.846 133.58L225.824 134.135C225.172 135.13 224.203 135.628 222.917 135.628C221.877 135.628 221.023 135.302 220.354 134.65C219.702 133.981 219.376 133.148 219.376 132.153C219.376 131.149 219.697 130.321 220.34 129.669C220.983 129.008 221.816 128.678 222.838 128.678C223.807 128.678 224.595 129.022 225.203 129.709C225.819 130.378 226.128 131.197 226.128 132.166C226.128 132.334 226.114 132.505 226.088 132.682ZM222.838 129.761C222.23 129.761 221.719 129.933 221.305 130.277C220.9 130.62 220.649 131.087 220.552 131.677H224.965C224.868 131.07 224.626 130.598 224.238 130.264C223.851 129.929 223.384 129.761 222.838 129.761ZM230.85 128.85V129.96H229.092V133.54C229.092 133.866 229.154 134.1 229.277 134.241C229.409 134.373 229.608 134.443 229.872 134.452C230.136 134.452 230.462 134.443 230.85 134.426V135.456C229.837 135.588 229.097 135.505 228.63 135.205C228.172 134.906 227.943 134.351 227.943 133.54V129.96H226.635V128.85H227.943V127.343L229.092 127V128.85H230.85ZM238.217 132.682H232.681C232.796 133.263 233.064 133.721 233.487 134.056C233.91 134.382 234.438 134.545 235.073 134.545C235.945 134.545 236.579 134.223 236.975 133.58L237.953 134.135C237.301 135.13 236.332 135.628 235.046 135.628C234.007 135.628 233.152 135.302 232.483 134.65C231.831 133.981 231.505 133.148 231.505 132.153C231.505 131.149 231.827 130.321 232.47 129.669C233.113 129.008 233.945 128.678 234.967 128.678C235.936 128.678 236.724 129.022 237.332 129.709C237.949 130.378 238.257 131.197 238.257 132.166C238.257 132.334 238.244 132.505 238.217 132.682ZM234.967 129.761C234.359 129.761 233.848 129.933 233.434 130.277C233.029 130.62 232.778 131.087 232.681 131.677H237.094C236.997 131.07 236.755 130.598 236.367 130.264C235.98 129.929 235.513 129.761 234.967 129.761ZM240.728 128.85V129.96C241.107 129.14 241.794 128.731 242.789 128.731V129.933C242.225 129.907 241.741 130.057 241.336 130.382C240.931 130.708 240.728 131.233 240.728 131.955V135.456H239.578V128.85H240.728ZM249.036 129.986V128.85H250.172V135.179C250.172 136.157 249.842 136.914 249.181 137.451C248.512 137.998 247.719 138.271 246.803 138.271C246.063 138.271 245.424 138.13 244.887 137.848C244.35 137.575 243.945 137.178 243.672 136.659L244.676 136.091C245.037 136.83 245.755 137.2 246.829 137.2C247.517 137.2 248.054 137.02 248.441 136.659C248.838 136.298 249.036 135.804 249.036 135.179V134.241C248.455 135.122 247.627 135.562 246.552 135.562C245.601 135.562 244.803 135.227 244.16 134.558C243.509 133.88 243.183 133.065 243.183 132.113C243.183 131.162 243.509 130.352 244.16 129.682C244.803 129.013 245.601 128.678 246.552 128.678C247.635 128.678 248.464 129.114 249.036 129.986ZM249.036 132.113C249.036 131.453 248.811 130.898 248.362 130.449C247.913 129.999 247.354 129.775 246.684 129.775C246.015 129.775 245.455 129.999 245.006 130.449C244.557 130.898 244.332 131.453 244.332 132.113C244.332 132.783 244.557 133.342 245.006 133.791C245.455 134.241 246.015 134.465 246.684 134.465C247.354 134.465 247.913 134.241 248.362 133.791C248.811 133.342 249.036 132.783 249.036 132.113ZM258.256 132.682H252.72C252.835 133.263 253.103 133.721 253.526 134.056C253.949 134.382 254.477 134.545 255.112 134.545C255.984 134.545 256.618 134.223 257.014 133.58L257.992 134.135C257.34 135.13 256.371 135.628 255.085 135.628C254.046 135.628 253.191 135.302 252.522 134.65C251.87 133.981 251.544 133.148 251.544 132.153C251.544 131.149 251.866 130.321 252.509 129.669C253.152 129.008 253.984 128.678 255.006 128.678C255.975 128.678 256.763 129.022 257.371 129.709C257.988 130.378 258.296 131.197 258.296 132.166C258.296 132.334 258.283 132.505 258.256 132.682ZM255.006 129.761C254.398 129.761 253.887 129.933 253.473 130.277C253.068 130.62 252.817 131.087 252.72 131.677H257.133C257.036 131.07 256.794 130.598 256.407 130.264C256.019 129.929 255.552 129.761 255.006 129.761ZM262.907 128.678C263.683 128.678 264.304 128.925 264.771 129.418C265.237 129.902 265.471 130.563 265.471 131.4V135.456H264.321V131.466C264.321 130.937 264.176 130.523 263.885 130.224C263.595 129.924 263.194 129.775 262.683 129.775C262.093 129.775 261.626 129.96 261.282 130.33C260.939 130.691 260.767 131.233 260.767 131.955V135.456H259.617V128.85H260.767V129.801C261.225 129.052 261.939 128.678 262.907 128.678ZM270.67 128.85V129.96H268.912V133.54C268.912 133.866 268.974 134.1 269.097 134.241C269.229 134.373 269.428 134.443 269.692 134.452C269.956 134.452 270.282 134.443 270.67 134.426V135.456C269.657 135.588 268.917 135.505 268.45 135.205C267.992 134.906 267.763 134.351 267.763 133.54V129.96H266.455V128.85H267.763V127.343L268.912 127V128.85H270.67ZM278.966 128.85V129.96H277.209V133.54C277.209 133.866 277.271 134.1 277.394 134.241C277.526 134.373 277.724 134.443 277.989 134.452C278.253 134.452 278.579 134.443 278.966 134.426V135.456C277.953 135.588 277.214 135.505 276.747 135.205C276.289 134.906 276.06 134.351 276.06 133.54V129.96H274.751V128.85H276.06V127.343L277.209 127V128.85H278.966ZM285.568 134.624C284.898 135.293 284.075 135.628 283.097 135.628C282.119 135.628 281.296 135.293 280.626 134.624C279.957 133.954 279.622 133.131 279.622 132.153C279.622 131.175 279.957 130.352 280.626 129.682C281.296 129.013 282.119 128.678 283.097 128.678C284.075 128.678 284.898 129.013 285.568 129.682C286.246 130.36 286.585 131.184 286.585 132.153C286.585 133.122 286.246 133.946 285.568 134.624ZM283.097 134.505C283.758 134.505 284.313 134.28 284.762 133.831C285.211 133.382 285.436 132.822 285.436 132.153C285.436 131.484 285.211 130.924 284.762 130.475C284.313 130.026 283.758 129.801 283.097 129.801C282.445 129.801 281.895 130.026 281.445 130.475C280.996 130.924 280.772 131.484 280.772 132.153C280.772 132.822 280.996 133.382 281.445 133.831C281.895 134.28 282.445 134.505 283.097 134.505ZM293.569 132.047L296.833 135.456H295.406L292.393 132.325V135.456H291.244V126.207H292.393V131.77L295.247 128.85H296.727L293.569 132.047ZM303.638 132.682H298.101C298.216 133.263 298.485 133.721 298.907 134.056C299.33 134.382 299.859 134.545 300.493 134.545C301.365 134.545 301.999 134.223 302.396 133.58L303.373 134.135C302.722 135.13 301.753 135.628 300.467 135.628C299.427 135.628 298.573 135.302 297.903 134.65C297.251 133.981 296.925 133.148 296.925 132.153C296.925 131.149 297.247 130.321 297.89 129.669C298.533 129.008 299.366 128.678 300.387 128.678C301.356 128.678 302.145 129.022 302.752 129.709C303.369 130.378 303.677 131.197 303.677 132.166C303.677 132.334 303.664 132.505 303.638 132.682ZM300.387 129.761C299.78 129.761 299.269 129.933 298.855 130.277C298.449 130.62 298.198 131.087 298.101 131.677H302.515C302.418 131.07 302.175 130.598 301.788 130.264C301.4 129.929 300.933 129.761 300.387 129.761ZM311.328 132.682H305.792C305.906 133.263 306.175 133.721 306.598 134.056C307.021 134.382 307.549 134.545 308.183 134.545C309.056 134.545 309.69 134.223 310.086 133.58L311.064 134.135C310.412 135.13 309.443 135.628 308.157 135.628C307.118 135.628 306.263 135.302 305.594 134.65C304.942 133.981 304.616 133.148 304.616 132.153C304.616 131.149 304.937 130.321 305.58 129.669C306.224 129.008 307.056 128.678 308.078 128.678C309.047 128.678 309.835 129.022 310.443 129.709C311.06 130.378 311.368 131.197 311.368 132.166C311.368 132.334 311.355 132.505 311.328 132.682ZM308.078 129.761C307.47 129.761 306.959 129.933 306.545 130.277C306.14 130.62 305.889 131.087 305.792 131.677H310.205C310.108 131.07 309.866 130.598 309.478 130.264C309.091 129.929 308.624 129.761 308.078 129.761ZM316.336 128.678C317.261 128.678 318.049 129.017 318.701 129.695C319.353 130.374 319.679 131.193 319.679 132.153C319.679 133.122 319.353 133.946 318.701 134.624C318.058 135.293 317.27 135.628 316.336 135.628C315.244 135.628 314.411 135.192 313.839 134.32V138.099H312.689V128.85H313.839V129.986C314.411 129.114 315.244 128.678 316.336 128.678ZM316.191 134.518C316.851 134.518 317.406 134.294 317.856 133.844C318.305 133.377 318.529 132.814 318.529 132.153C318.529 131.484 318.305 130.924 317.856 130.475C317.406 130.017 316.851 129.788 316.191 129.788C315.521 129.788 314.962 130.017 314.513 130.475C314.063 130.924 313.839 131.484 313.839 132.153C313.839 132.814 314.063 133.377 314.513 133.844C314.962 134.294 315.521 134.518 316.191 134.518ZM327.948 128.85V129.96H326.191V133.54C326.191 133.866 326.252 134.1 326.376 134.241C326.508 134.373 326.706 134.443 326.97 134.452C327.234 134.452 327.56 134.443 327.948 134.426V135.456C326.935 135.588 326.195 135.505 325.728 135.205C325.27 134.906 325.041 134.351 325.041 133.54V129.96H323.733V128.85H325.041V127.343L326.191 127V128.85H327.948ZM332.599 128.678C333.374 128.678 333.995 128.925 334.462 129.418C334.929 129.902 335.162 130.563 335.162 131.4V135.456H334.013V131.466C334.013 130.937 333.867 130.523 333.577 130.224C333.286 129.924 332.885 129.775 332.374 129.775C331.784 129.775 331.317 129.96 330.974 130.33C330.63 130.691 330.458 131.233 330.458 131.955V135.456H329.309V126.207H330.458V129.801C330.916 129.052 331.63 128.678 332.599 128.678ZM343.109 132.682H337.573C337.688 133.263 337.956 133.721 338.379 134.056C338.802 134.382 339.33 134.545 339.965 134.545C340.837 134.545 341.471 134.223 341.867 133.58L342.845 134.135C342.193 135.13 341.224 135.628 339.938 135.628C338.899 135.628 338.044 135.302 337.375 134.65C336.723 133.981 336.397 133.148 336.397 132.153C336.397 131.149 336.719 130.321 337.362 129.669C338.005 129.008 338.837 128.678 339.859 128.678C340.828 128.678 341.616 129.022 342.224 129.709C342.841 130.378 343.149 131.197 343.149 132.166C343.149 132.334 343.136 132.505 343.109 132.682ZM339.859 129.761C339.251 129.761 338.74 129.933 338.326 130.277C337.921 130.62 337.67 131.087 337.573 131.677H341.986C341.889 131.07 341.647 130.598 341.26 130.264C340.872 129.929 340.405 129.761 339.859 129.761ZM348.765 130.634C348.765 131.056 349.201 131.387 350.073 131.624C350.399 131.695 350.672 131.77 350.892 131.849C351.121 131.92 351.368 132.03 351.632 132.179C351.905 132.329 352.112 132.527 352.253 132.774C352.394 133.021 352.464 133.311 352.464 133.646C352.464 134.245 352.231 134.725 351.764 135.086C351.297 135.447 350.707 135.628 349.994 135.628C349.359 135.628 348.809 135.492 348.342 135.218C347.884 134.937 347.558 134.558 347.364 134.082L348.355 133.514C348.461 133.831 348.659 134.082 348.95 134.267C349.24 134.452 349.588 134.545 349.994 134.545C350.39 134.545 350.707 134.47 350.945 134.32C351.183 134.17 351.302 133.946 351.302 133.646C351.302 133.197 350.866 132.871 349.994 132.668C349.703 132.589 349.483 132.527 349.333 132.483C349.183 132.439 348.976 132.36 348.712 132.246C348.456 132.131 348.263 132.012 348.13 131.889C347.998 131.757 347.875 131.585 347.76 131.373C347.655 131.153 347.602 130.911 347.602 130.647C347.602 130.074 347.822 129.603 348.263 129.233C348.712 128.863 349.271 128.678 349.941 128.678C350.478 128.678 350.954 128.801 351.368 129.048C351.79 129.286 352.108 129.621 352.319 130.052L351.354 130.594C351.117 130.03 350.645 129.748 349.941 129.748C349.606 129.748 349.324 129.828 349.095 129.986C348.875 130.145 348.765 130.36 348.765 130.634ZM357.472 128.678C358.397 128.678 359.186 129.017 359.837 129.695C360.489 130.374 360.815 131.193 360.815 132.153C360.815 133.122 360.489 133.946 359.837 134.624C359.194 135.293 358.406 135.628 357.472 135.628C356.38 135.628 355.548 135.192 354.975 134.32V138.099H353.825V128.85H354.975V129.986C355.548 129.114 356.38 128.678 357.472 128.678ZM357.327 134.518C357.988 134.518 358.543 134.294 358.992 133.844C359.441 133.377 359.666 132.814 359.666 132.153C359.666 131.484 359.441 130.924 358.992 130.475C358.543 130.017 357.988 129.788 357.327 129.788C356.657 129.788 356.098 130.017 355.649 130.475C355.2 130.924 354.975 131.484 354.975 132.153C354.975 132.814 355.2 133.377 355.649 133.844C356.098 134.294 356.657 134.518 357.327 134.518ZM367.657 129.986V128.85H368.807V135.456H367.657V134.32C367.093 135.192 366.261 135.628 365.16 135.628C364.226 135.628 363.438 135.293 362.795 134.624C362.143 133.946 361.817 133.122 361.817 132.153C361.817 131.193 362.143 130.374 362.795 129.695C363.447 129.017 364.235 128.678 365.16 128.678C366.261 128.678 367.093 129.114 367.657 129.986ZM365.305 134.518C365.975 134.518 366.534 134.294 366.983 133.844C367.432 133.377 367.657 132.814 367.657 132.153C367.657 131.484 367.432 130.924 366.983 130.475C366.534 130.017 365.975 129.788 365.305 129.788C364.644 129.788 364.09 130.017 363.64 130.475C363.191 130.924 362.966 131.484 362.966 132.153C362.966 132.814 363.191 133.377 363.64 133.844C364.09 134.294 364.644 134.518 365.305 134.518ZM371.698 128.85V129.96C372.077 129.14 372.764 128.731 373.759 128.731V129.933C373.195 129.907 372.711 130.057 372.306 130.382C371.9 130.708 371.698 131.233 371.698 131.955V135.456H370.548V128.85H371.698ZM377.209 132.047L380.473 135.456H379.046L376.033 132.325V135.456H374.884V126.207H376.033V131.77L378.887 128.85H380.367L377.209 132.047ZM382.692 135.456H381.542V125.811H382.692V135.456ZM385.027 127.647C384.806 127.647 384.621 127.572 384.472 127.423C384.322 127.273 384.247 127.092 384.247 126.881C384.247 126.67 384.322 126.489 384.472 126.339C384.621 126.181 384.806 126.101 385.027 126.101C385.238 126.101 385.419 126.181 385.568 126.339C385.718 126.489 385.793 126.67 385.793 126.881C385.793 127.092 385.718 127.273 385.568 127.423C385.419 127.572 385.238 127.647 385.027 127.647ZM385.595 135.456H384.445V128.85H385.595V135.456ZM390.639 128.678C391.414 128.678 392.035 128.925 392.502 129.418C392.969 129.902 393.202 130.563 393.202 131.4V135.456H392.052V131.466C392.052 130.937 391.907 130.523 391.616 130.224C391.326 129.924 390.925 129.775 390.414 129.775C389.824 129.775 389.357 129.96 389.013 130.33C388.67 130.691 388.498 131.233 388.498 131.955V135.456H387.349V128.85H388.498V129.801C388.956 129.052 389.67 128.678 390.639 128.678ZM105.171 151.628C104.176 151.628 103.348 151.298 102.687 150.637C102.027 149.968 101.696 149.14 101.696 148.153C101.696 147.166 102.027 146.343 102.687 145.682C103.348 145.013 104.176 144.678 105.171 144.678C105.823 144.678 106.409 144.837 106.929 145.154C107.449 145.462 107.836 145.88 108.092 146.409L107.127 146.964C106.96 146.611 106.7 146.33 106.347 146.118C106.004 145.907 105.612 145.801 105.171 145.801C104.511 145.801 103.956 146.026 103.507 146.475C103.066 146.933 102.846 147.492 102.846 148.153C102.846 148.805 103.066 149.36 103.507 149.818C103.956 150.267 104.511 150.492 105.171 150.492C105.612 150.492 106.008 150.39 106.361 150.188C106.713 149.976 106.982 149.695 107.167 149.342L108.144 149.91C107.854 150.439 107.444 150.857 106.916 151.166C106.387 151.474 105.806 151.628 105.171 151.628ZM109.861 143.647C109.641 143.647 109.456 143.572 109.306 143.423C109.156 143.273 109.081 143.092 109.081 142.881C109.081 142.67 109.156 142.489 109.306 142.339C109.456 142.181 109.641 142.101 109.861 142.101C110.072 142.101 110.253 142.181 110.403 142.339C110.552 142.489 110.627 142.67 110.627 142.881C110.627 143.092 110.552 143.273 110.403 143.423C110.253 143.572 110.072 143.647 109.861 143.647ZM110.429 151.456H109.279V144.85H110.429V151.456ZM113.332 144.85V145.96C113.711 145.14 114.398 144.731 115.393 144.731V145.933C114.83 145.907 114.345 146.057 113.94 146.382C113.535 146.708 113.332 147.233 113.332 147.955V151.456H112.183V144.85H113.332ZM119.262 151.628C118.267 151.628 117.439 151.298 116.778 150.637C116.117 149.968 115.787 149.14 115.787 148.153C115.787 147.166 116.117 146.343 116.778 145.682C117.439 145.013 118.267 144.678 119.262 144.678C119.914 144.678 120.5 144.837 121.019 145.154C121.539 145.462 121.927 145.88 122.182 146.409L121.218 146.964C121.05 146.611 120.79 146.33 120.438 146.118C120.094 145.907 119.702 145.801 119.262 145.801C118.601 145.801 118.046 146.026 117.597 146.475C117.157 146.933 116.937 147.492 116.937 148.153C116.937 148.805 117.157 149.36 117.597 149.818C118.046 150.267 118.601 150.492 119.262 150.492C119.702 150.492 120.099 150.39 120.451 150.188C120.804 149.976 121.072 149.695 121.257 149.342L122.235 149.91C121.944 150.439 121.535 150.857 121.006 151.166C120.478 151.474 119.896 151.628 119.262 151.628ZM124.52 151.456H123.37V141.811H124.52V151.456ZM132.616 148.682H127.079C127.194 149.263 127.462 149.721 127.885 150.056C128.308 150.382 128.837 150.545 129.471 150.545C130.343 150.545 130.977 150.223 131.374 149.58L132.351 150.135C131.699 151.13 130.73 151.628 129.444 151.628C128.405 151.628 127.551 151.302 126.881 150.65C126.229 149.981 125.903 149.148 125.903 148.153C125.903 147.149 126.225 146.321 126.868 145.669C127.511 145.008 128.343 144.678 129.365 144.678C130.334 144.678 131.122 145.022 131.73 145.709C132.347 146.378 132.655 147.197 132.655 148.166C132.655 148.334 132.642 148.505 132.616 148.682ZM129.365 145.761C128.757 145.761 128.246 145.933 127.832 146.277C127.427 146.62 127.176 147.087 127.079 147.677H131.492C131.396 147.07 131.153 146.598 130.766 146.264C130.378 145.929 129.911 145.761 129.365 145.761ZM142.763 145.986V144.85H143.9V151.179C143.9 152.157 143.569 152.914 142.909 153.451C142.239 153.998 141.446 154.271 140.53 154.271C139.79 154.271 139.152 154.13 138.614 153.848C138.077 153.575 137.672 153.178 137.399 152.659L138.403 152.091C138.764 152.83 139.482 153.2 140.557 153.2C141.244 153.2 141.781 153.02 142.169 152.659C142.565 152.298 142.763 151.804 142.763 151.179V150.241C142.182 151.122 141.354 151.562 140.279 151.562C139.328 151.562 138.531 151.227 137.888 150.558C137.236 149.88 136.91 149.065 136.91 148.113C136.91 147.162 137.236 146.352 137.888 145.682C138.531 145.013 139.328 144.678 140.279 144.678C141.363 144.678 142.191 145.114 142.763 145.986ZM142.763 148.113C142.763 147.453 142.539 146.898 142.089 146.449C141.64 145.999 141.081 145.775 140.411 145.775C139.742 145.775 139.183 145.999 138.733 146.449C138.284 146.898 138.059 147.453 138.059 148.113C138.059 148.783 138.284 149.342 138.733 149.791C139.183 150.241 139.742 150.465 140.411 150.465C141.081 150.465 141.64 150.241 142.089 149.791C142.539 149.342 142.763 148.783 142.763 148.113ZM151.217 150.624C150.548 151.293 149.724 151.628 148.746 151.628C147.769 151.628 146.945 151.293 146.276 150.624C145.606 149.954 145.271 149.131 145.271 148.153C145.271 147.175 145.606 146.352 146.276 145.682C146.945 145.013 147.769 144.678 148.746 144.678C149.724 144.678 150.548 145.013 151.217 145.682C151.896 146.36 152.235 147.184 152.235 148.153C152.235 149.122 151.896 149.946 151.217 150.624ZM148.746 150.505C149.407 150.505 149.962 150.28 150.411 149.831C150.861 149.382 151.085 148.822 151.085 148.153C151.085 147.484 150.861 146.924 150.411 146.475C149.962 146.026 149.407 145.801 148.746 145.801C148.095 145.801 147.544 146.026 147.095 146.475C146.646 146.924 146.421 147.484 146.421 148.153C146.421 148.822 146.646 149.382 147.095 149.831C147.544 150.28 148.095 150.505 148.746 150.505ZM154.171 143.647C153.951 143.647 153.766 143.572 153.616 143.423C153.467 143.273 153.392 143.092 153.392 142.881C153.392 142.67 153.467 142.489 153.616 142.339C153.766 142.181 153.951 142.101 154.171 142.101C154.383 142.101 154.563 142.181 154.713 142.339C154.863 142.489 154.938 142.67 154.938 142.881C154.938 143.092 154.863 143.273 154.713 143.423C154.563 143.572 154.383 143.647 154.171 143.647ZM154.739 151.456H153.59V144.85H154.739V151.456ZM159.783 144.678C160.558 144.678 161.179 144.925 161.646 145.418C162.113 145.902 162.347 146.563 162.347 147.4V151.456H161.197V147.466C161.197 146.937 161.052 146.523 160.761 146.224C160.47 145.924 160.069 145.775 159.559 145.775C158.968 145.775 158.502 145.96 158.158 146.33C157.814 146.691 157.643 147.233 157.643 147.955V151.456H156.493V144.85H157.643V145.801C158.101 145.052 158.814 144.678 159.783 144.678ZM169.435 145.986V144.85H170.571V151.179C170.571 152.157 170.241 152.914 169.58 153.451C168.911 153.998 168.118 154.271 167.202 154.271C166.462 154.271 165.823 154.13 165.286 153.848C164.748 153.575 164.343 153.178 164.07 152.659L165.074 152.091C165.436 152.83 166.153 153.2 167.228 153.2C167.915 153.2 168.453 153.02 168.84 152.659C169.237 152.298 169.435 151.804 169.435 151.179V150.241C168.853 151.122 168.025 151.562 166.951 151.562C165.999 151.562 165.202 151.227 164.559 150.558C163.907 149.88 163.581 149.065 163.581 148.113C163.581 147.162 163.907 146.352 164.559 145.682C165.202 145.013 165.999 144.678 166.951 144.678C168.034 144.678 168.862 145.114 169.435 145.986ZM169.435 148.113C169.435 147.453 169.21 146.898 168.761 146.449C168.312 145.999 167.752 145.775 167.083 145.775C166.413 145.775 165.854 145.999 165.405 146.449C164.955 146.898 164.731 147.453 164.731 148.113C164.731 148.783 164.955 149.342 165.405 149.791C165.854 150.241 166.413 150.465 167.083 150.465C167.752 150.465 168.312 150.241 168.761 149.791C169.21 149.342 169.435 148.783 169.435 148.113ZM174.744 152.381H187.957V139.168H174.744V152.381Z" fill="#FCFCFD"/>
<g clip-path="url(#clip0_685_4349)">
<path d="M70.3935 85.4532L30.9345 65.3478L32.945 61.4019L34.9179 62.4072L41.9233 48.6585C46.9375 38.8176 58.9521 34.8907 68.7588 39.8874C78.5656 44.8842 82.4506 56.9124 77.4364 66.7533L70.4311 80.5021L72.404 81.5073L70.3935 85.4532ZM44.7263 74.8603L54.5911 79.8867C53.2031 82.6107 49.8696 83.6938 47.1455 82.3059C44.4215 80.9179 43.3383 77.5844 44.7263 74.8603Z" fill="#F8BB1C" stroke="#110F0A" stroke-width="2"/>
</g>
</g>
<defs>
<filter id="filter0_d_685_4349" x="0" y="0" width="490" height="214" filterUnits="userSpaceOnUse" color-interpolation-filters="sRGB">
<feFlood flood-opacity="0" result="BackgroundImageFix"/>
<feColorMatrix in="SourceAlpha" type="matrix" values="0 0 0 0 0 0 0 0 0 0 0 0 0 0 0 0 0 0 127 0" result="hardAlpha"/>
<feOffset dx="16" dy="16"/>
<feComposite in2="hardAlpha" operator="out"/>
<feColorMatrix type="matrix" values="0 0 0 0 0 0 0 0 0 0 0 0 0 0 0 0 0 0 1 0"/>
<feBlend mode="normal" in2="BackgroundImageFix" result="effect1_dropShadow_685_4349"/>
<feBlend mode="normal" in="SourceGraphic" in2="effect1_dropShadow_685_4349" result="shape"/>
</filter>
<clipPath id="clip0_685_4349">
<rect width="53.1431" height="53.1431" fill="white" transform="translate(47.0947 23.8787) rotate(27)"/>
</clipPath>
</defs>
</svg>
