<svg width="490" height="214" viewBox="0 0 490 214" fill="none" xmlns="http://www.w3.org/2000/svg">
<g filter="url(#filter0_d_715_531)">
<rect x="4" y="4" width="466" height="190" rx="95" fill="#F2FCFB"/>
<rect x="2" y="2" width="470" height="194" rx="97" stroke="#110F0A" stroke-width="4"/>
</g>
<mask id="mask0_715_531" style="mask-type:alpha" maskUnits="userSpaceOnUse" x="4" y="4" width="466" height="190">
<rect x="4" y="4" width="466" height="190" rx="95" fill="#F2FCFB"/>
</mask>
<g mask="url(#mask0_715_531)">
<path d="M106.031 103.787V86.0001H101.854V80.6713H106.031V75.4865H101.854V70.1577H106.031V52.3711H117.337L122.954 70.1577H129.507V52.3711H137.5V70.1577H141.604V75.4865H137.5V80.6713H141.604V86.0001H137.5V103.787H126.122L120.361 86.0001H114.024V103.787H106.031ZM113.736 70.1577H115.753L113.664 63.2447H113.376L113.736 70.1577ZM114.024 80.6713H118.777L117.193 75.4865H113.88L114.024 80.6713ZM126.338 80.6713H129.651L129.507 75.4865H124.682L126.338 80.6713ZM129.723 92.5531H130.083L129.795 86.0001H127.85L129.723 92.5531Z" fill="#F8BB1C" stroke="black" stroke-width="2"/>
<path d="M312.428 167.261V155.928H309.767V152.532H312.428V149.229H309.767V145.833H312.428V134.5H319.631L323.21 145.833H327.386V134.5H332.479V145.833H335.094V149.229H332.479V152.532H335.094V155.928H332.479V167.261H325.229L321.559 155.928H317.521V167.261H312.428ZM317.337 145.833H318.622L317.291 141.429H317.108L317.337 145.833ZM317.521 152.532H320.549L319.54 149.229H317.429L317.521 152.532ZM325.367 152.532H327.477L327.386 149.229H324.311L325.367 152.532ZM327.523 160.103H327.753L327.569 155.928H326.33L327.523 160.103Z" fill="#F8BB1C" stroke="black" stroke-width="2"/>
<path d="M329.224 103.123V72.5981H322.057V63.4529H329.224V54.555H322.057V45.4099H329.224V14.885H348.627L358.266 45.4099H369.512V14.885H383.23V45.4099H390.274V54.555H383.23V63.4529H390.274V72.5981H383.23V103.123H363.704L353.817 72.5981H342.942V103.123H329.224ZM342.448 45.4099H345.908L342.324 33.546H341.83L342.448 45.4099ZM342.942 63.4529H351.099L348.38 54.555H342.695L342.942 63.4529ZM364.075 63.4529H369.759L369.512 54.555H361.232L364.075 63.4529ZM369.883 83.8441H370.501L370.007 72.5981H366.67L369.883 83.8441Z" fill="#F8BB1C" stroke="black" stroke-width="2"/>
<circle opacity="0.3" cx="233.41" cy="87.6412" r="75.2433" fill="#6532B3"/>
<circle opacity="0.5" cx="233.41" cy="87.6412" r="55.0157" fill="#6532B3"/>
<circle cx="233.41" cy="87.6412" r="37.0172" fill="#6532B3"/>
<path d="M258.076 233.187C258.076 233.187 249.756 215.617 246.23 212.095C242.704 208.574 237.587 202.936 235.191 200.519C231.941 197.223 221.501 180.177 221.04 178.622C217.929 168.227 211.361 156.032 209.586 153.803C206.429 149.776 199.054 147.248 200.114 144.756C201.174 142.34 212.029 139.699 219.081 145.412C226.133 151.144 233.439 165.23 233.439 165.23C233.439 165.23 233.992 157.737 233.439 152.904C232.909 148.053 229.706 125.913 229.176 121.286C228.645 116.659 226.663 98.0966 226.94 95.2308C227.217 92.3649 226.594 87.0265 232.632 86.4271C238.21 85.8838 239.846 90.6041 240.653 95.4555C241.459 100.307 243.257 114.992 244.409 120.968C245.515 126.718 247.244 138.257 248.88 140.448C250.516 142.658 254.066 143.576 254.066 143.576C254.066 143.576 255.541 137.395 256.209 134.492C256.509 133.18 257.638 127.804 264.344 128.029C270.613 128.235 271.927 134.641 271.927 134.641C271.927 134.641 274.024 133.405 276.812 133.78C279.785 134.192 281.468 135.728 282.297 138.594C282.597 139.68 283.035 142.565 283.035 142.565C283.035 142.565 284.994 141.347 287.713 142.021C290.433 142.677 291.447 145.88 291.977 147.641C292.53 149.402 296.033 162.176 296.31 166.784C296.586 171.392 292.507 194.3 293.06 197.822C293.613 201.343 311.198 233.187 311.198 233.187H258.122H258.076Z" fill="#DE965C"/>
<path d="M232.632 86.4265C235.328 86.1455 236.965 87.2506 237.841 88.4682C238.716 89.6857 239.039 96.0543 238.301 96.9909C237.564 97.9275 231.134 98.7891 229.913 98.0399C228.276 97.0471 227.884 91.3715 228.092 89.7794C228.299 88.1872 229.521 86.7449 232.632 86.4265Z" fill="#FFC8A7"/>
<path d="M222.147 148.389C222.147 148.389 227.425 154.646 231.735 162.157C232.357 163.225 233.44 165.229 233.44 165.229C233.44 165.229 231.205 170.755 230.813 173.396C230.421 176.037 231.758 181.394 231.758 181.394C231.758 181.394 227.932 177.011 228.577 171.054C229.084 166.465 229.384 164.049 229.292 162.438C229.015 157.961 222.171 148.389 222.171 148.389H222.147Z" fill="#C6804F"/>
<path d="M271.902 134.641C271.902 134.641 271.049 145.58 271.579 147.828C272.178 150.319 273.492 152.024 274.621 152.024C276.188 152.024 276.35 150.038 275.543 147.153C274.736 144.269 271.902 134.66 271.902 134.66V134.641Z" fill="#C6804F"/>
<path d="M283.013 142.564C283.013 142.564 283.013 149.869 283.773 152.173C284.534 154.477 285.087 155.732 286.308 155.938C287.53 156.144 287.875 155.039 287.415 153.297C286.539 149.982 283.013 142.564 283.013 142.564Z" fill="#C6804F"/>
<path d="M248.442 139.643C248.442 139.643 248.903 142.321 250.701 143.932C252.499 145.543 253.812 145.693 253.812 145.693L254.066 143.576C254.066 143.576 252.337 142.958 251.093 142.321C249.111 141.291 248.442 139.643 248.442 139.643Z" fill="#C6804F"/>
<path d="M229.914 98.0397C231.089 98.7515 237.174 97.9835 238.211 97.0656C237.427 96.7659 235.791 96.2977 233.694 96.5224C231.435 96.7659 230.306 97.6463 229.914 98.0209V98.0397Z" fill="#FFD3B9"/>
<path d="M258.214 214.605C253.121 209.323 245.216 204.958 238.717 199.226C232.218 193.495 224.751 181.02 223.737 178.041C220.418 168.114 214.564 157.924 212.444 155.545C208.134 150.731 213.988 149.457 206.89 151.256C207.904 152.024 208.849 152.867 209.563 153.784C211.338 156.013 217.883 168.207 221.017 178.603C221.478 180.158 231.918 197.203 235.168 200.5C237.564 202.916 242.681 208.555 246.207 212.076C249.733 215.598 258.053 233.167 258.053 233.167H268.216C266.096 227.342 261.786 218.332 258.191 214.586L258.214 214.605Z" fill="#C6804F"/>
<path d="M208.665 152.585C209.172 152.548 210.946 150.768 210.854 150.394C210.762 150.019 205.576 145.355 203.295 144.981C201.013 144.606 199.192 145.055 199.077 145.524C198.962 145.992 208.158 152.623 208.665 152.585Z" fill="#FFC8A7"/>
<g style="mix-blend-mode:soft-light">
<path d="M296.265 166.784C295.988 162.157 292.462 149.401 291.932 147.64C291.402 145.879 290.365 142.695 287.668 142.021C284.949 141.365 282.99 142.564 282.99 142.564C282.99 142.564 282.552 139.698 282.253 138.593C281.446 135.727 279.764 134.191 276.768 133.779C273.979 133.386 271.882 134.641 271.882 134.641C271.882 134.641 271.674 133.629 271.029 132.412C261.28 144.437 255.588 158.841 255.588 174.332C255.588 198.027 268.886 219.212 289.743 233.205H311.176C311.176 233.205 293.568 201.361 293.038 197.84C292.485 194.318 296.564 171.429 296.288 166.802L296.265 166.784Z" fill="#BB9B8D"/>
</g>
</g>
<defs>
<filter id="filter0_d_715_531" x="0" y="0" width="490" height="214" filterUnits="userSpaceOnUse" color-interpolation-filters="sRGB">
<feFlood flood-opacity="0" result="BackgroundImageFix"/>
<feColorMatrix in="SourceAlpha" type="matrix" values="0 0 0 0 0 0 0 0 0 0 0 0 0 0 0 0 0 0 127 0" result="hardAlpha"/>
<feOffset dx="16" dy="16"/>
<feComposite in2="hardAlpha" operator="out"/>
<feColorMatrix type="matrix" values="0 0 0 0 0 0 0 0 0 0 0 0 0 0 0 0 0 0 1 0"/>
<feBlend mode="normal" in2="BackgroundImageFix" result="effect1_dropShadow_715_531"/>
<feBlend mode="normal" in="SourceGraphic" in2="effect1_dropShadow_715_531" result="shape"/>
</filter>
</defs>
</svg>
