<svg width="32" height="32" viewBox="0 0 32 32" fill="none" xmlns="http://www.w3.org/2000/svg">
<circle cx="16" cy="16" r="16" fill="#F9F6FF"/>
<path d="M7.12305 10.8436C7.12343 9.85721 7.51552 8.91138 8.21311 8.21406C8.91071 7.51673 9.85669 7.125 10.843 7.125H20.763C21.7492 7.12538 22.6948 7.51728 23.3921 8.21456C24.0893 8.91185 24.4812 9.85746 24.4816 10.8436V20.7636C24.4816 21.7499 24.0899 22.6959 23.3926 23.3935C22.6952 24.0911 21.7494 24.4832 20.763 24.4836H10.843C9.85644 24.4836 8.91024 24.0916 8.21261 23.394C7.51497 22.6964 7.12305 21.7502 7.12305 20.7636V10.8436Z" fill="#9047FF"/>
<path d="M21.6675 10.7913C21.6675 11.0309 21.5723 11.2607 21.4028 11.4302C21.2334 11.5996 21.0036 11.6948 20.7639 11.6948C20.5243 11.6948 20.2945 11.5996 20.125 11.4302C19.9555 11.2607 19.8604 11.0309 19.8604 10.7913C19.8604 10.5516 19.9555 10.3218 20.125 10.1523C20.2945 9.98289 20.5243 9.8877 20.7639 9.8877C21.0036 9.8877 21.2334 9.98289 21.4028 10.1523C21.5723 10.3218 21.6675 10.5516 21.6675 10.7913Z" fill="white"/>
<path fill-rule="evenodd" clip-rule="evenodd" d="M20.7619 11.9212C21.0461 11.9212 21.3186 11.8083 21.5195 11.6074C21.7204 11.4064 21.8333 11.1339 21.8333 10.8497C21.8333 10.5656 21.7204 10.2931 21.5195 10.0921C21.3186 9.8912 21.0461 9.77832 20.7619 9.77832C20.4777 9.77832 20.2052 9.8912 20.0043 10.0921C19.8033 10.2931 19.6905 10.5656 19.6905 10.8497C19.6905 11.1339 19.8033 11.4064 20.0043 11.6074C20.2052 11.8083 20.4777 11.9212 20.7619 11.9212ZM11.4033 15.804C11.4033 14.6371 11.8669 13.5179 12.6921 12.6928C13.5172 11.8676 14.6364 11.404 15.8033 11.404C16.9703 11.404 18.0894 11.8676 18.9146 12.6928C19.7397 13.5179 20.2033 14.6371 20.2033 15.804C20.2033 16.971 19.7397 18.0901 18.9146 18.9153C18.0894 19.7405 16.9703 20.204 15.8033 20.204C14.6364 20.204 13.5172 19.7405 12.6921 18.9153C11.8669 18.0901 11.4033 16.971 11.4033 15.804Z" fill="white"/>
</svg>
