<svg width="73" height="73" viewBox="0 0 73 73" fill="none" xmlns="http://www.w3.org/2000/svg">
<rect x="-0.880563" y="-0.687971" width="64.7893" height="64.7646" rx="7.11107" transform="matrix(0.992552 -0.121821 0.121918 0.99254 1.42497 9.04702)" fill="#F8BB1C" stroke="#110F0A" stroke-width="1.58024"/>
<path d="M39.7463 62.5353C49.7078 61.3127 56.7921 52.2494 55.5689 42.2912C54.3457 32.333 45.2783 25.2521 35.3169 26.4747C25.3554 27.6973 18.2711 36.7607 19.4943 46.7188C20.7175 56.677 29.7849 63.7579 39.7463 62.5353Z" fill="#FEF1D2" stroke="#110F0A" stroke-width="1.58024"/>
<rect x="-0.440282" y="-0.343986" width="9.48137" height="4.73914" rx="2.36957" transform="matrix(0.992552 -0.121821 0.121918 0.99254 48.3297 8.91182)" fill="#FFFCF3" stroke="#110F0A" stroke-width="0.790119"/>
<rect x="-0.440282" y="-0.343986" width="5.53083" height="4.74071" rx="2.37036" transform="matrix(0.992552 -0.121821 0.121918 0.99254 9.90194 13.6286)" fill="#FFFCF3" stroke="#110F0A" stroke-width="0.790119"/>
<rect x="-0.440282" y="-0.343986" width="5.53083" height="4.74071" rx="2.37036" transform="matrix(0.992552 -0.121821 0.121918 0.99254 18.5279 12.57)" fill="#FFFCF3" stroke="#110F0A" stroke-width="0.790119"/>
<path d="M3.27344 24.8374L66.7964 17.0409" stroke="#110F0A" stroke-width="1.58024" stroke-linecap="round" stroke-linejoin="round"/>
</svg>
