<svg width="45" height="44" viewBox="0 0 45 44" fill="none" xmlns="http://www.w3.org/2000/svg">
<path d="M15.9641 31.4287C24.6429 31.4287 31.6784 24.3932 31.6784 15.7144C31.6784 14.7308 31.5881 13.7683 31.4152 12.8348C30.4816 12.6619 29.5192 12.5715 28.5356 12.5715C19.8568 12.5715 12.8213 19.6071 12.8213 28.2858C12.8213 29.2694 12.9117 30.2319 13.0845 31.1654C14.0181 31.3383 14.9806 31.4287 15.9641 31.4287Z" fill="#175CD3"/>
<path fill-rule="evenodd" clip-rule="evenodd" d="M13.0847 31.1653C5.78118 29.8127 0.25 23.4095 0.25 15.7143C0.25 7.03553 7.28553 0 15.9643 0C23.6595 0 30.0628 5.53118 31.4153 12.8347C30.4818 12.6618 29.5193 12.5714 28.5357 12.5714C19.857 12.5714 12.8214 19.607 12.8214 28.2857C12.8214 29.2693 12.9118 30.2318 13.0847 31.1653Z" fill="#1570EF"/>
<path fill-rule="evenodd" clip-rule="evenodd" d="M15.9646 31.4286C24.6433 31.4286 31.6789 24.3931 31.6789 15.7143C31.6789 14.7307 31.5885 13.7682 31.4156 12.8347C38.7191 14.1873 44.2503 20.5906 44.2503 28.2858C44.2503 36.9645 37.2148 44 28.536 44C20.8408 44 14.4375 38.4689 13.085 31.1654C14.0185 31.3382 14.981 31.4286 15.9646 31.4286Z" fill="#2E90FA"/>
</svg>
