<svg width="432" height="566" viewBox="0 0 432 566" fill="none" xmlns="http://www.w3.org/2000/svg">
<g opacity="0.05">
<path d="M50.3816 370.552C28.7264 381.815 14.3632 402.352 14.3632 425.981V427.306C14.3632 440.998 19.0036 453.585 27.4005 463.743C30.0522 467.497 33.3668 470.81 36.9023 473.902C50.1606 485.164 68.2803 492.01 88.3888 492.01H187.384C208.156 492.01 225.391 506.585 225.391 524.693C225.391 542.801 208.156 557.376 187.384 557.376H101.426C80.6548 557.376 63.6399 542.801 63.6399 524.693H14.5842C14.5842 566.209 53.4752 599.997 101.426 599.997H187.384C235.335 599.997 274.226 566.209 274.226 524.693C274.226 506.585 266.713 490.022 254.56 476.993C253.455 475.889 252.571 475.006 251.466 473.902C235.777 458.885 213.017 449.389 187.384 449.389H88.3888C74.6885 449.389 63.198 439.452 63.198 427.527V426.202C63.198 414.277 74.6885 404.34 88.3888 404.34H130.152C134.793 404.781 139.433 405.002 144.295 405.002C223.845 405.002 288.589 340.519 288.589 260.799C288.589 181.299 224.066 116.596 144.295 116.596C64.7448 116.596 0 181.079 0 260.799C0 304.744 19.6665 343.832 50.6026 370.331L50.3816 370.552ZM133.688 361.498C82.8645 356.198 43.0895 313.357 43.0895 261.02C43.0895 205.149 88.3888 160.1 144.074 160.1C199.98 160.1 245.058 205.37 245.058 261.02C245.058 323.736 194.234 364.59 133.467 361.498H133.688Z" fill="#2B154D"/>
<path d="M401.505 56.3057C396.864 80.5972 392.887 84.793 371.011 90.0929C392.887 95.3929 396.643 99.5887 401.505 123.88C406.145 99.5887 410.123 95.3929 431.999 90.0929C410.123 84.793 406.366 80.5972 401.505 56.3057Z" fill="#2B154D"/>
<path d="M310.466 47.6982C300.964 95.8396 293.451 104.231 249.92 114.831C293.451 125.21 301.185 133.823 310.466 181.964C319.968 133.823 327.481 125.431 371.013 114.831C327.481 104.452 319.747 95.8396 310.466 47.6982Z" fill="#2B154D"/>
<path d="M346.265 59.6246C350.464 38.2039 353.778 34.4498 373.224 29.8123C353.999 25.1748 350.464 21.4207 346.265 0C342.067 21.4207 338.752 25.1748 319.307 29.8123C338.531 34.4498 342.067 38.2039 346.265 59.6246Z" fill="#2B154D"/>
</g>
</svg>
