<svg width="33" height="36" viewBox="0 0 33 36" fill="none" xmlns="http://www.w3.org/2000/svg">
<g clip-path="url(#clip0_237_108)">
<path d="M16.1138 17.9583L4.78809 29.8244C4.91524 30.2751 5.14377 30.6909 5.45622 31.0398C5.76866 31.3887 6.15674 31.6615 6.5908 31.8374C7.02485 32.0134 7.49338 32.0877 7.96058 32.0548C8.42777 32.0219 8.88126 31.8826 9.28637 31.6476L22.0303 24.3895L16.1138 17.9583Z" fill="#EA4335"/>
<path d="M27.567 15.9413L22.0558 12.7849L15.8525 18.2287L22.081 24.3725L27.5501 21.2499C28.0346 20.9962 28.4405 20.6148 28.7237 20.1469C29.0068 19.679 29.1565 19.1425 29.1565 18.5956C29.1565 18.0487 29.0068 17.5122 28.7237 17.0443C28.4405 16.5764 28.0346 16.1949 27.5501 15.9413H27.567Z" fill="#FBBC04"/>
<path d="M4.78795 7.30737C4.71944 7.56053 4.68534 7.82176 4.68655 8.08402V29.0481C4.68736 29.3103 4.72133 29.5711 4.78795 29.8245L16.5021 18.2625L4.78795 7.30737Z" fill="#4285F4"/>
<path d="M16.1983 18.5659L22.0554 12.7848L9.32811 5.49323C8.84927 5.21268 8.30463 5.06406 7.74967 5.0625C7.07966 5.06135 6.42765 5.27926 5.89298 5.68304C5.35831 6.08682 4.9703 6.65432 4.78809 7.29907L16.1983 18.5659Z" fill="#34A853"/>
</g>
<defs>
<clipPath id="clip0_237_108">
<rect width="24.4697" height="27" fill="white" transform="translate(4.68652 5.0625)"/>
</clipPath>
</defs>
</svg>
