<svg width="24" height="24" viewBox="0 0 24 24" fill="none" xmlns="http://www.w3.org/2000/svg">
<path d="M11.6187 8.79224C11.8289 9.00253 12.1699 9.00253 12.3802 8.79225L20.4848 0.687641C21.2658 -0.093402 22.5322 -0.0933985 23.3132 0.687648C24.0942 1.46869 24.0942 2.73502 23.3132 3.51606L15.2086 11.6206C14.9983 11.8309 14.9983 12.1719 15.2086 12.3821L23.3132 20.4866C24.0942 21.2676 24.0942 22.534 23.3132 23.315C22.5322 24.096 21.2658 24.0961 20.4848 23.315L12.3802 15.2105C12.1699 15.0003 11.8289 15.0003 11.6187 15.2105L3.51412 23.315C2.73308 24.096 1.46677 24.096 0.685722 23.315C-0.0953369 22.534 -0.0953374 21.2676 0.685721 20.4866L8.79026 12.3821C9.00054 12.1719 9.00054 11.8309 8.79026 11.6207L0.685699 3.51607C-0.0953507 2.73502 -0.0953465 1.46869 0.685706 0.687646C1.46676 -0.0934002 2.73309 -0.0933948 3.51413 0.687657L11.6187 8.79224Z" fill="#FE4567"/>
</svg>
