<svg width="45" height="44" viewBox="0 0 45 44" fill="none" xmlns="http://www.w3.org/2000/svg">
<path d="M22.75 0C10.5997 0 0.75 9.84974 0.75 22C0.75 34.1503 10.5997 44 22.75 44C33.651 44 42.7002 36.0716 44.4458 25.6667H44.2879C42.6598 31.9925 36.9174 36.6667 30.0833 36.6667C21.9832 36.6667 15.4167 30.1002 15.4167 22C15.4167 13.8998 21.9832 7.33333 30.0833 7.33333C36.9174 7.33333 42.6598 12.0075 44.2879 18.3333H44.4458C42.7002 7.92838 33.651 0 22.75 0Z" fill="#A4BCFD"/>
<path d="M0.75 22C0.75 9.84974 10.5997 0 22.75 0C33.651 0 42.7002 7.92838 44.4458 18.3333H29.6213C27.9931 12.0075 22.2507 7.33333 15.4167 7.33333C7.31649 7.33333 0.75 13.8998 0.75 22Z" fill="#3538CD"/>
<path d="M0.75 22C0.75 34.1503 10.5997 44 22.75 44C33.651 44 42.7002 36.0716 44.4458 25.6667H29.6213C27.9931 31.9925 22.2507 36.6667 15.4167 36.6667C7.31649 36.6667 0.75 30.1002 0.75 22Z" fill="#3538CD"/>
</svg>
