<svg width="49" height="60" viewBox="0 0 49 60" fill="none" xmlns="http://www.w3.org/2000/svg">
<g clip-path="url(#clip0_139_5619)">
<path d="M12.6719 56.0299C12.7107 56.0251 12.7495 56.0008 12.7883 55.9911C12.8271 55.9815 12.8659 55.9911 12.9046 56.0105C13.9178 55.6809 14.8825 55.2155 15.8133 54.6968C16.5792 54.2702 17.3936 53.8339 17.9608 53.1504C18.2177 52.8401 18.3971 52.4766 18.4795 52.0791C18.5668 51.6379 18.5668 51.1677 18.5813 50.7168C18.6152 49.7279 18.5861 48.7438 18.5522 47.7597C18.528 47.1053 18.5086 46.446 18.4746 45.7916C18.4601 45.777 18.4456 45.7576 18.4456 45.7383C18.3583 45.079 17.9656 44.0706 18.6831 43.6295C19.0273 43.4211 19.4393 43.3532 19.832 43.2708C20.3701 43.1593 20.9082 43.0623 21.456 43.0139C22.6534 42.9169 23.8653 42.9848 25.0578 43.1011C26.2358 43.2175 27.4041 43.4065 28.5385 43.7555C28.7954 43.8331 29.062 43.9107 29.3044 44.027C29.4935 44.1143 29.7068 44.2355 29.8183 44.4197C29.9152 44.5797 29.891 44.793 29.8619 44.9675C29.8474 45.0693 29.8231 45.1711 29.8037 45.2729C29.7601 46.1018 29.731 46.9308 29.7019 47.7597C29.668 48.7438 29.6389 49.7328 29.6728 50.7168C29.6874 51.1677 29.6874 51.6379 29.7746 52.0791C29.8522 52.4766 30.0316 52.8401 30.2933 53.1504C30.8605 53.8339 31.6798 54.2751 32.4409 54.6968C33.3959 55.2301 34.3848 55.71 35.4319 56.0396C35.4804 56.0542 35.5095 56.1317 35.4755 56.1463C35.4804 56.156 35.4852 56.1657 35.4804 56.1754C35.4513 56.4905 35.2622 56.7474 35.0538 56.9752C34.8162 57.2322 34.5496 57.4648 34.2733 57.6781C33.6528 58.1484 32.9402 58.5168 32.2227 58.8125C30.7248 59.433 29.1154 59.6996 27.5108 59.8693C24.1319 60.2183 20.6755 59.8693 17.4518 58.8028C16.555 58.5071 15.6824 58.1532 14.834 57.746C14.4171 57.5473 14.0002 57.3388 13.6172 57.0722C13.4427 56.951 13.2828 56.8104 13.1179 56.6795C12.9434 56.5438 12.7641 56.408 12.6235 56.2335C12.5508 56.156 12.5459 56.0445 12.6719 56.0299Z" fill="#653C31"/>
<path d="M13.2246 56.471C13.3798 56.5922 13.5252 56.7182 13.6803 56.8346C14.01 57.0769 14.3735 57.2612 14.7371 57.4454C15.4691 57.8089 16.2254 58.1289 16.9913 58.4052C18.5426 58.9627 20.1568 59.3457 21.7905 59.559C23.4436 59.7771 25.116 59.8207 26.7788 59.6899C28.3543 59.5687 29.954 59.3457 31.452 58.8221C32.2955 58.5313 33.1051 58.1386 33.8468 57.6393C34.1619 57.426 34.4624 57.1884 34.729 56.9218C34.9617 56.6891 35.1944 56.4225 35.3495 56.1316C34.4236 55.899 33.551 55.4966 32.7075 55.0603C31.8931 54.6386 31.0302 54.2023 30.3661 53.5575C30.0704 53.2715 29.8183 52.9322 29.6583 52.5492C29.4935 52.1468 29.4547 51.7251 29.4305 51.2936C29.3675 50.2659 29.382 49.2334 29.4305 48.2057C29.4838 47.0761 29.6293 45.9515 29.7359 44.8268C29.7311 44.7056 29.7117 44.5796 29.6486 44.4826C29.5468 44.3275 29.3481 44.2451 29.1784 44.1724C28.9554 44.0803 28.7227 44.0124 28.49 43.9445C27.4381 43.6343 26.3522 43.4501 25.2663 43.3386C24.1707 43.2222 23.0558 43.1543 21.9505 43.2077C21.3882 43.2368 20.8258 43.2998 20.278 43.4113C19.8999 43.4888 19.5121 43.5519 19.1485 43.6827C18.9643 43.7506 18.7559 43.8427 18.6347 44.0075C18.5183 44.1627 18.5038 44.376 18.5038 44.565C18.5086 44.9722 18.6007 45.3697 18.6153 45.7721C18.6153 45.7915 18.6104 45.806 18.6007 45.8157C18.6831 46.6108 18.7704 47.4009 18.8092 48.2008C18.8577 49.2285 18.8722 50.2611 18.8092 51.2888C18.7849 51.7154 18.751 52.142 18.5813 52.5443C18.4214 52.9273 18.1693 53.2618 17.8736 53.5527C17.2094 54.1974 16.3466 54.6337 15.5321 55.0555C14.7177 55.4772 13.8791 55.865 12.9919 56.1026C13.0259 56.1607 13.0259 56.2237 12.958 56.248C13.0453 56.3256 13.1325 56.3983 13.2246 56.471Z" fill="#B87B4F"/>
<g style="mix-blend-mode:multiply">
<path d="M33.0566 55.2253C32.4409 55.7973 31.7622 56.2966 31.0254 56.7087C28.4803 58.1436 25.4263 58.5799 22.5565 58.1387C20.0647 57.7558 17.6603 56.6553 15.8763 54.8762C15.76 54.9344 15.6485 54.9974 15.5321 55.0556C14.7177 55.4773 13.8791 55.8652 12.9919 56.1027C13.0259 56.1609 13.0259 56.2239 12.958 56.2481C13.0404 56.3257 13.1325 56.3984 13.2246 56.4711C13.3798 56.5923 13.5252 56.7183 13.6803 56.8347C14.01 57.0771 14.3735 57.2613 14.7371 57.4455C15.4691 57.8091 16.2254 58.129 16.9913 58.4054C18.5426 58.9628 20.1568 59.3458 21.7905 59.5591C23.4436 59.7772 25.116 59.8209 26.7788 59.69C28.3543 59.5688 29.954 59.3458 31.452 58.8222C32.2955 58.5314 33.1051 58.1387 33.8468 57.6394C34.1619 57.4261 34.4624 57.1886 34.729 56.922C34.9617 56.6893 35.1944 56.4226 35.3495 56.1318C34.5545 55.9233 33.7934 55.5937 33.0566 55.2253Z" fill="#F3D1BB"/>
</g>
<g style="mix-blend-mode:multiply">
<path d="M18.6106 45.8159C18.693 46.6109 18.7803 47.4011 18.8191 48.201C18.8288 48.4094 18.8385 48.613 18.8433 48.8215C19.4299 49.3014 20.0843 49.6941 20.7824 49.9946C22.8718 50.8963 25.2811 51.032 27.5013 50.6151C28.1412 50.4939 28.7763 50.3243 29.4016 50.1061C29.3968 49.4711 29.4113 48.8312 29.4404 48.1961C29.4937 47.0666 29.6391 45.9419 29.7458 44.8173C29.7409 44.6961 29.7216 44.57 29.6585 44.4731C29.5567 44.318 29.358 44.2356 29.1883 44.1628C28.9653 44.0707 28.7326 44.0029 28.4999 43.935C27.448 43.6247 26.3621 43.4405 25.2762 43.329C24.1806 43.2127 23.0657 43.1448 21.9604 43.1981C21.3981 43.2272 20.8357 43.2903 20.2879 43.4018C19.9098 43.4793 19.522 43.5423 19.1584 43.6732C18.9742 43.7411 18.7658 43.8332 18.6446 43.998C18.5282 44.1531 18.5137 44.3664 18.5137 44.5555C18.5185 44.9627 18.6106 45.3602 18.6252 45.7626C18.6252 45.7965 18.6155 45.8062 18.6106 45.8159Z" fill="#F3D1BB"/>
</g>
<path d="M29.4307 48.3075C29.0768 48.5159 28.7035 48.6953 28.3205 48.8455C27.414 49.1994 26.4542 49.4079 25.4895 49.5097C24.4569 49.6212 23.4244 49.5872 22.4015 49.3933C21.3398 49.1897 20.3121 48.8262 19.3571 48.322C19.1681 48.2202 18.9839 48.1135 18.7997 48.002C18.756 47.27 18.6833 46.5429 18.6057 45.8157C18.6154 45.806 18.6203 45.7915 18.6203 45.7721C18.6057 45.3697 18.5136 44.9674 18.5088 44.565C18.5088 44.376 18.5233 44.1627 18.6397 44.0075C18.7609 43.8427 18.9645 43.7506 19.1535 43.6827C19.5171 43.5519 19.9049 43.4888 20.283 43.4113C20.8357 43.2949 21.3932 43.2368 21.9555 43.2077C23.0608 43.1543 24.1709 43.2222 25.2713 43.3386C26.3572 43.4501 27.4431 43.6343 28.4951 43.9445C28.7277 44.0124 28.9604 44.0803 29.1834 44.1724C29.3531 44.2402 29.5519 44.3226 29.6537 44.4826C29.7167 44.5796 29.7361 44.7008 29.7409 44.8268C29.6343 45.9515 29.4888 47.0761 29.4355 48.2057C29.4307 48.2347 29.4307 48.2735 29.4307 48.3075Z" fill="#F3D1BB"/>
<g style="mix-blend-mode:multiply">
<path d="M19.3421 48.6661C19.696 48.8697 20.0693 49.0442 20.4523 49.1848C21.3539 49.5242 22.3138 49.7229 23.2736 49.8102C24.3013 49.9071 25.329 49.8586 26.3374 49.655C27.3893 49.4417 28.4025 49.0636 29.3429 48.5498C29.5271 48.448 29.7114 48.3365 29.8907 48.225C29.9247 47.4978 29.9877 46.7755 30.0555 46.0532C30.0459 46.0435 30.041 46.029 30.041 46.0096C30.0507 45.6072 30.138 45.2097 30.138 44.8073C30.138 44.6183 30.1186 44.4098 30.0022 44.2547C29.881 44.0947 29.6726 44.0026 29.4884 43.9396C29.1248 43.8136 28.737 43.7554 28.3637 43.6827C27.8159 43.576 27.2584 43.5227 26.6961 43.5033C25.6005 43.4645 24.4952 43.5469 23.4045 43.673C22.3235 43.799 21.2521 43.9978 20.2099 44.3177C19.982 44.3904 19.7493 44.4583 19.5312 44.5553C19.3664 44.628 19.1676 44.7104 19.0658 44.8704C19.0028 44.9673 18.9834 45.0885 18.9834 45.2145C19.1046 46.3295 19.2646 47.4445 19.3324 48.5643C19.3421 48.5934 19.3421 48.6322 19.3421 48.6661Z" fill="#F3D1BB"/>
</g>
<path d="M42.5865 29.8329C42.3781 29.1349 41.9418 28.5143 41.2631 28.2089C40.5359 27.8841 39.6876 27.9181 38.9847 28.2865C37.9133 28.8488 37.1813 29.9929 36.8371 31.1806C36.808 31.1951 36.779 31.2194 36.7741 31.2484C36.7111 31.5829 36.585 31.898 36.4736 32.218C36.3717 32.5185 36.2942 32.8191 36.2312 33.1294C36.0954 33.7547 36.013 34.3898 36.0809 35.0297C36.1633 35.8004 36.4057 36.6682 36.9971 37.2111C37.7485 37.9043 38.7859 37.5989 39.5712 37.1239C40.5408 36.5324 41.2873 35.6017 41.8351 34.6176C42.6156 33.2021 43.0616 31.4181 42.5865 29.8329Z" fill="#653C31"/>
<path d="M42.0245 33.7498C41.6076 34.7435 40.9968 35.6888 40.1969 36.416C39.5182 37.0317 38.3742 37.7637 37.4531 37.2401C36.7163 36.8232 36.4302 35.8634 36.3187 35.078C36.2266 34.4284 36.309 33.7789 36.4302 33.139C36.4836 32.8626 36.5417 32.5912 36.6241 32.3245C36.6096 32.5039 36.6048 32.6784 36.6096 32.8578C36.6096 32.9014 36.6823 32.8772 36.6823 32.8432C36.6969 32.1015 36.9199 31.3598 37.2107 30.6812C37.5161 29.9637 37.967 29.2705 38.5826 28.7809C39.1789 28.3058 39.9254 28.1022 40.672 28.2816C41.3603 28.4464 41.9033 28.9166 42.1942 29.5565C42.7856 30.846 42.5577 32.4845 42.0245 33.7498Z" fill="#B87B4F"/>
<g style="mix-blend-mode:multiply">
<path d="M41.4379 34.2832C41.1471 34.4916 40.832 34.6855 40.4926 34.8067C40.2115 34.9085 39.8867 34.9618 39.6104 34.8116C39.5667 34.7873 39.5522 34.7292 39.5764 34.6855C40.0515 33.8614 40.6526 33.1197 41.0889 32.2762C41.4573 31.5685 41.7773 30.6862 41.4186 29.9105C41.3071 29.6682 41.1471 29.3967 40.8805 29.2997C40.672 29.2222 40.449 29.2803 40.26 29.3821C39.7316 29.6585 39.3292 30.1917 38.9996 30.6765C38.8299 30.9334 38.6699 31.1952 38.5293 31.4715C38.4324 31.6654 38.3354 31.8642 38.2772 32.0726C38.2482 32.1696 38.0979 32.155 38.0979 32.0484C38.1027 31.6509 38.1415 31.2582 38.2045 30.8655C38.3257 30.1141 38.5584 29.227 38.9947 28.5144C38.8541 28.592 38.7135 28.6792 38.5875 28.781C37.967 29.2706 37.521 29.9639 37.2156 30.6813C36.9247 31.36 36.7066 32.1017 36.6872 32.8434C36.6872 32.8773 36.6145 32.9064 36.6145 32.8579C36.6096 32.6786 36.6145 32.5041 36.629 32.3247C36.5515 32.5913 36.4884 32.8628 36.4351 33.1391C36.3139 33.779 36.2315 34.4286 36.3236 35.0782C36.4351 35.8635 36.7211 36.8234 37.458 37.2403C38.379 37.7638 39.5231 37.0318 40.2018 36.4162C40.9774 35.7132 41.5737 34.8019 41.9857 33.842C41.8064 34.002 41.6222 34.1474 41.4379 34.2832Z" fill="#F3D1BB"/>
</g>
<path d="M41.0113 29.3531C40.5556 29.2853 40.1194 29.6828 39.8285 29.9785C38.9268 30.8898 38.5729 32.1502 38.3451 33.3767C38.1997 34.162 38.0688 35.0637 38.2821 35.849C38.3063 35.9314 38.442 35.8636 38.442 35.7957C38.4275 35.3837 38.3984 34.9716 38.4178 34.5596C38.4178 34.5256 38.4227 34.4965 38.4227 34.4626C38.5002 34.4626 38.5826 34.4481 38.6408 34.4384C38.7717 34.419 38.8977 34.3802 39.0189 34.3366C39.2758 34.2396 39.5182 34.0893 39.7364 33.9197C40.1581 33.59 40.512 33.1828 40.8514 32.7707C40.8998 32.7126 40.8223 32.6738 40.7786 32.7223C40.449 33.0907 40.0951 33.4397 39.6928 33.7306C39.4891 33.876 39.2807 34.0118 39.048 34.1087C38.9365 34.1523 38.825 34.1863 38.7038 34.2057C38.6214 34.2202 38.5293 34.2154 38.4469 34.2251C38.4711 33.9487 38.5148 33.6773 38.5632 33.4058C38.6941 32.6689 38.8735 31.9272 39.1886 31.2486C39.4649 30.6668 39.8673 30.0803 40.4102 29.7215C40.6768 29.547 40.9871 29.4598 41.2198 29.7361C41.4476 30.0124 41.4864 30.4196 41.5543 30.759C41.5688 30.8268 41.6803 30.7638 41.6755 30.7056C41.6124 30.2499 41.6173 29.4452 41.0113 29.3531Z" fill="#653C31"/>
<path d="M6.75274 35.0636C7.32477 36.0331 8.09555 36.9445 9.07963 37.5117C9.87466 37.9674 10.9169 38.2485 11.6538 37.5359C12.2306 36.9784 12.4488 36.1058 12.5118 35.3351C12.5651 34.6952 12.4633 34.0601 12.3131 33.4396C12.2403 33.1342 12.1579 32.8336 12.0464 32.5379C11.9301 32.2228 11.7943 31.9077 11.7216 31.5781C11.7168 31.549 11.6877 31.5248 11.6538 31.5102C11.2805 30.3322 10.5194 29.2027 9.43352 28.6695C8.7209 28.3204 7.87256 28.3059 7.1551 28.6501C6.48127 28.97 6.06436 29.6002 5.8753 30.308C5.44386 31.9029 5.93832 33.6723 6.75274 35.0636Z" fill="#653C31"/>
<path d="M6.25833 30.0171C6.53465 29.3675 7.0582 28.8827 7.74658 28.7034C8.49312 28.5046 9.23967 28.6888 9.85048 29.1493C10.4807 29.6244 10.9461 30.3031 11.2709 31.0157C11.5811 31.6895 11.8186 32.4215 11.8526 33.1632C11.8526 33.1972 11.9253 33.2263 11.9253 33.1778C11.9253 32.9984 11.9156 32.8239 11.9011 32.6445C11.9883 32.9112 12.0562 33.1778 12.1144 33.4541C12.2501 34.0892 12.3519 34.7387 12.2743 35.3883C12.1822 36.1737 11.9253 37.1432 11.1981 37.5795C10.2916 38.1273 9.12817 37.4244 8.43495 36.8233C7.61569 36.1155 6.98064 35.1847 6.5395 34.2007C5.97716 32.9499 5.70569 31.3211 6.25833 30.0171Z" fill="#B87B4F"/>
<g style="mix-blend-mode:multiply">
<path d="M7.14527 34.7195C7.44098 34.9231 7.76093 35.1073 8.10512 35.2188C8.39113 35.3157 8.71593 35.3594 8.9874 35.1994C9.03103 35.1752 9.04557 35.117 9.01648 35.0734C8.52202 34.2638 7.90151 33.5366 7.44098 32.7028C7.05801 32.0048 6.70898 31.1273 7.04832 30.3469C7.15497 30.0996 7.30524 29.8281 7.56702 29.7215C7.77062 29.6391 7.99847 29.6924 8.18753 29.7845C8.72562 30.0511 9.13768 30.5698 9.47701 31.0449C9.65638 31.297 9.8212 31.5588 9.96663 31.8254C10.0684 32.0145 10.1702 32.2132 10.2333 32.4217C10.2623 32.5186 10.4175 32.4992 10.4126 32.3974C10.3981 31.9999 10.3496 31.6073 10.2769 31.2194C10.1363 30.468 9.87937 29.5906 9.42369 28.8877C9.56912 28.9604 9.7097 29.0428 9.84059 29.1446C10.4708 29.6197 10.9362 30.2984 11.261 31.011C11.5712 31.6848 11.8088 32.4168 11.8427 33.1585C11.8427 33.1925 11.9154 33.2215 11.9154 33.1731C11.9154 32.9937 11.9057 32.8192 11.8912 32.6398C11.9784 32.9064 12.0463 33.1731 12.1045 33.4494C12.2402 34.0844 12.342 34.734 12.2644 35.3836C12.1723 36.1689 11.9154 37.1385 11.1883 37.5748C10.2817 38.1226 9.11828 37.4196 8.42506 36.8185C7.63489 36.135 7.01438 35.2382 6.57324 34.2929C6.7623 34.448 6.95136 34.5886 7.14527 34.7195Z" fill="#F3D1BB"/>
</g>
<g style="mix-blend-mode:multiply">
<path d="M7.44087 29.7843C7.8917 29.7068 8.33769 30.0897 8.63825 30.3757C9.56416 31.2677 9.95198 32.5136 10.2041 33.7352C10.3689 34.5205 10.524 35.4174 10.3301 36.2075C10.3107 36.2899 10.1701 36.2269 10.1701 36.1591C10.1701 35.747 10.1944 35.3349 10.1604 34.9229C10.1556 34.889 10.1556 34.8599 10.1507 34.8259C10.0732 34.8308 9.99076 34.8162 9.93259 34.8065C9.8017 34.792 9.67566 34.7581 9.55446 34.7144C9.29269 34.6223 9.04546 34.4818 8.82731 34.3169C8.39586 33.997 8.03229 33.6043 7.68325 33.1971C7.63477 33.1389 7.70749 33.1002 7.75597 33.1486C8.09531 33.5074 8.45888 33.8516 8.86609 34.1279C9.07454 34.2685 9.28784 34.3993 9.52053 34.4866C9.63203 34.5302 9.74837 34.5593 9.86472 34.5787C9.94713 34.5933 10.0392 34.5836 10.1265 34.5932C10.0926 34.3169 10.0489 34.0455 9.99076 33.774C9.84048 33.042 9.64657 32.3051 9.30723 31.6362C9.01637 31.0593 8.59947 30.4872 8.04683 30.1431C7.77536 29.9734 7.46026 29.8958 7.23726 30.1818C7.01427 30.463 6.99003 30.8751 6.92701 31.2144C6.91247 31.2823 6.80097 31.2241 6.80582 31.1611C6.86399 30.6957 6.8349 29.891 7.44087 29.7843Z" fill="#653C31"/>
</g>
<path d="M38.5339 22.6389C38.3158 21.0392 37.7777 19.4928 37.0311 18.0724C36.9197 17.7088 36.7306 17.3549 36.5706 17.0253C36.3379 16.5405 36.0325 16.08 35.7174 15.6486C35.1599 14.8875 34.4473 14.2379 33.6717 13.6998C32.1398 12.6381 30.3365 12.0322 28.5137 11.688C26.4971 11.3099 24.398 11.1838 22.3475 11.3196C20.103 11.4698 17.8973 11.9837 15.8855 13.0114C14.819 13.5592 13.8155 14.2136 13.0253 15.125C12.6133 15.6001 12.2594 16.1139 11.9394 16.6472C10.7033 18.5329 9.80161 20.7241 9.54953 23.0074C9.1811 26.3377 10.33 29.6051 10.6645 32.887C10.8439 34.6612 10.8875 36.4452 10.9796 38.2243C11.0232 39.0581 11.0766 39.8968 11.1541 40.7306C11.222 41.482 11.3286 42.2382 11.6195 42.9363C12.1673 44.2451 13.2289 45.2292 14.31 46.0243C15.3959 46.8241 16.5545 47.5222 17.7567 48.0991C19.5794 48.9765 21.567 49.6067 23.5739 49.723C23.5836 49.723 23.5982 49.723 23.6079 49.723C23.7145 49.7279 23.8163 49.7327 23.923 49.7327C23.9957 49.7327 24.0635 49.7376 24.1363 49.7376C24.2187 49.7376 24.3059 49.7376 24.3883 49.7327C24.4708 49.7327 24.558 49.7327 24.6404 49.7279C24.7131 49.723 24.781 49.7182 24.8537 49.7182C24.9604 49.7134 25.0622 49.7085 25.1688 49.6988C25.1785 49.6988 25.1931 49.6988 25.2028 49.694C27.2049 49.5243 29.173 48.8456 30.9764 47.9197C32.1641 47.3089 33.3033 46.5866 34.3698 45.7576C35.4266 44.9384 36.464 43.9252 36.9778 42.6018C37.2493 41.8989 37.3366 41.1378 37.3899 40.3864C37.448 39.5526 37.4771 38.7139 37.4965 37.8801C37.5402 36.101 37.5353 34.3122 37.6759 32.5379C37.9231 29.2561 38.9848 25.9596 38.5339 22.6389Z" fill="#653C31"/>
<path d="M37.89 28.8051C37.6379 30.4436 37.4246 32.0725 37.3519 33.7352C37.2743 35.4416 37.284 37.148 37.2161 38.8544C37.187 39.6591 37.1628 40.4784 37.0416 41.2734C36.9253 42.0151 36.6829 42.6938 36.2951 43.3191C35.5631 44.4923 34.4917 45.3552 33.4155 46.1259C32.3151 46.9161 31.1565 47.5997 29.9349 48.1474C28.6842 48.7098 27.3753 49.1412 26.0325 49.3594C25.5526 49.4369 25.0775 49.4806 24.6024 49.5C24.5297 49.5 24.457 49.5048 24.3843 49.5048C24.3115 49.5048 24.2388 49.5048 24.1661 49.5048C23.691 49.5 23.2111 49.466 22.7312 49.403C21.3835 49.2188 20.065 48.8213 18.7997 48.2929C17.5684 47.7742 16.3904 47.1197 15.2706 46.3635C14.175 45.6218 13.0794 44.7831 12.3183 43.6294C11.916 43.0137 11.6493 42.3447 11.5185 41.6079C11.373 40.8177 11.3342 39.9985 11.2809 39.1937C11.1743 37.4922 11.1355 35.781 11.0143 34.0794C10.898 32.4215 10.6459 30.7975 10.3502 29.1687C10.0545 27.5496 9.75389 25.9207 9.7442 24.2628C9.7345 21.2718 10.927 18.4844 12.4783 16.075C12.6237 15.8811 12.774 15.6872 12.9291 15.503C13.6369 14.6692 14.4901 14.0245 15.4451 13.5009C17.3987 12.4296 19.5366 11.8285 21.752 11.6249C23.7444 11.4406 25.7852 11.5328 27.7583 11.8382C29.5568 12.1193 31.3456 12.6283 32.9162 13.5688C33.7936 14.0972 34.5741 14.7565 35.248 15.5273C35.2528 15.5321 35.2528 15.5321 35.2577 15.537C35.3013 15.5951 35.3449 15.6581 35.3837 15.7163C35.9509 16.5453 36.4744 17.4276 36.9253 18.3486C36.935 18.4019 36.9495 18.4553 36.9543 18.5086C36.9592 18.5425 36.9883 18.5522 37.0174 18.5425C37.8027 20.2053 38.3214 22.0038 38.365 23.8944C38.4087 25.5426 38.1469 27.1763 37.89 28.8051Z" fill="#B87B4F"/>
<path d="M19.8076 48.5402C18.3485 47.9294 16.9281 47.1974 15.6386 46.2715C15.0181 45.8255 14.4315 45.3359 13.8983 44.7881C13.3796 44.2597 12.8996 43.6683 12.5361 43.0187C12.0707 42.18 11.8041 41.2444 11.6344 40.304C11.4502 39.2811 11.329 38.2437 11.1884 37.2111C11.1836 37.1869 11.1836 37.1627 11.1787 37.1384C11.2078 37.822 11.2417 38.5006 11.2854 39.1842C11.3387 39.9889 11.3775 40.8081 11.5229 41.5983C11.6586 42.3352 11.9204 43.009 12.3228 43.6198C13.0839 44.7736 14.1794 45.6074 15.275 46.3539C16.3948 47.115 17.5728 47.7694 18.8041 48.2833C19.604 48.6178 20.433 48.899 21.2716 49.1074C20.7772 48.9329 20.2875 48.7438 19.8076 48.5402Z" fill="#B87B4F"/>
<g style="mix-blend-mode:multiply">
<path d="M10.9707 33.4494C11.0725 33.3863 11.1695 33.3039 11.2519 33.207C11.7657 32.6107 11.9063 31.7042 11.9499 30.9431C11.9742 30.5359 11.9645 30.1287 11.9112 29.7215C11.8724 29.4161 11.8142 29.0913 11.6785 28.8101C11.6494 28.7471 11.6833 28.6744 11.756 28.6695C12.1972 28.6501 12.5995 28.4368 12.9243 28.1557C13.6127 27.5594 14.0635 26.6868 14.3156 25.8239C14.5338 25.0725 14.6743 24.1321 14.2914 23.4049C14.2477 23.3225 14.3302 23.2401 14.4126 23.2789C15.1494 23.6182 15.9347 22.9444 16.3032 22.3578C16.3323 22.3093 16.4001 22.2948 16.4486 22.3384C16.7395 22.6196 17.0885 22.8426 17.4569 23.0122C18.092 23.3031 18.8531 23.4582 19.5366 23.274C19.8614 23.1868 20.1571 23.0171 20.3801 22.7602C20.6467 22.4548 20.7776 22.0621 20.8358 21.6646C20.8503 21.5773 20.9618 21.587 21.0006 21.6403C21.403 22.1591 21.9314 22.5663 22.5373 22.8183C23.5796 23.2546 24.7915 23.2255 25.8386 22.8183C26.9148 22.4014 27.8068 21.5579 28.2188 20.4721C28.2479 20.3896 28.3643 20.3799 28.3933 20.4721C28.6357 21.1895 29.455 21.7761 30.2112 21.4804C30.2791 21.4561 30.3421 21.5289 30.3227 21.5919C30.2209 21.9942 30.2306 22.4111 30.3664 22.8038C30.599 23.4776 31.1614 23.9866 31.7722 24.326C32.383 24.6605 33.0859 24.8592 33.784 24.835C33.847 24.835 33.8858 24.8932 33.8712 24.9513C33.7355 25.5331 33.7888 26.1342 34.007 26.6868C34.579 28.1411 36.2272 29.2512 37.8221 29.2561C37.8464 29.1058 37.8658 28.9555 37.89 28.8101C38.1421 27.1813 38.4038 25.5476 38.3699 23.8897C38.3263 21.9991 37.8076 20.2054 37.0223 18.5378C36.9932 18.5475 36.9641 18.5378 36.9592 18.5039C36.9495 18.4506 36.9398 18.3972 36.9301 18.3439C36.4842 17.4228 35.9606 16.5454 35.3886 15.7116C35.3449 15.6486 35.3013 15.5904 35.2625 15.5322C35.2577 15.5274 35.2577 15.5274 35.2528 15.5226C34.5839 14.7518 33.7985 14.0925 32.9211 13.5641C31.3553 12.6188 29.5616 12.1098 27.7631 11.8334C25.7853 11.5232 23.7492 11.4359 21.7568 11.6202C19.5414 11.8238 17.4036 12.4249 15.45 13.4962C14.495 14.0198 13.6369 14.6645 12.934 15.4983C12.7789 15.6825 12.6286 15.8764 12.4832 16.0703C10.9319 18.4796 9.73939 21.2671 9.74908 24.2581C9.75393 25.916 10.0593 27.5449 10.355 29.164C10.612 30.5844 10.835 32.0047 10.9707 33.4494Z" fill="#F3D1BB"/>
</g>
<path d="M30.0651 40.2555C29.338 40.1004 28.5963 40.0034 27.8594 39.9113C26.4875 39.7465 25.1156 39.7077 23.7389 39.8192C22.43 39.921 21.1308 40.1634 19.914 40.6675C19.6474 40.779 19.4099 40.9293 19.1675 41.0844C18.8572 41.2832 18.5518 41.4771 18.2319 41.6516C17.9507 41.8068 17.6453 41.9716 17.3254 42.0346C17.2381 42.054 17.146 42.0588 17.0636 42.0491C17.0587 42.1267 17.0684 42.1994 17.1314 42.2576C17.209 42.3303 17.3205 42.3594 17.4175 42.3933C17.529 42.4321 17.6405 42.4757 17.7374 42.5485C18.0331 42.7618 18.1882 43.0526 18.2997 43.392C18.3579 43.5665 18.4015 43.741 18.4549 43.9155C18.513 44.0997 18.5954 44.2742 18.6876 44.4439C18.8669 44.7784 19.0802 45.0983 19.3323 45.3844C20.3164 46.5187 21.7658 47.2119 23.2395 47.4155C24.689 47.6143 26.216 47.3719 27.5298 46.7369C28.9065 46.0727 30.0603 44.9432 30.5353 43.4647C30.7583 42.7666 30.7971 42.0394 30.9425 41.322C31.0056 41.0069 31.1025 40.6724 31.2673 40.3815C30.865 40.4252 30.4481 40.3379 30.0651 40.2555Z" fill="#D09278"/>
<g style="mix-blend-mode:multiply">
<path d="M22.1634 37.2161C21.8871 37.0706 21.6156 36.8622 21.4702 36.5762C21.4653 36.8089 21.4993 37.0416 21.5574 37.2645C21.8241 38.2535 22.7306 39.2666 23.8456 39.0485C24.4515 38.9322 24.9945 38.5443 25.4065 38.1032C25.7604 37.7251 26.0803 37.2306 26.1337 36.7022C25.6877 36.9446 25.232 37.1627 24.7472 37.3179C23.9231 37.57 22.9487 37.6281 22.1634 37.2161Z" fill="#F3D1BB"/>
</g>
<path opacity="0.5" d="M28.8539 40.5658C27.6129 40.3719 26.3525 40.3089 25.0969 40.3962C23.7105 40.4931 22.3483 40.8082 21.0249 41.2203C20.3607 41.4287 19.7014 41.6566 19.047 41.8941C18.6883 42.025 18.3295 42.1704 17.9611 42.2722C17.7187 42.3401 17.4376 42.4031 17.1758 42.3692C17.297 42.4467 17.4327 42.5001 17.5684 42.5437C17.8351 42.6261 18.1065 42.6649 18.378 42.7376C18.6543 42.8103 18.8773 42.9364 19.0858 43.1351C19.333 43.3775 19.5269 43.6684 19.716 43.9592C19.9099 44.2646 20.0989 44.5797 20.3219 44.8609C20.5304 45.1275 20.7873 45.3408 21.0685 45.525C21.6551 45.9031 22.324 46.1407 23.0076 46.2667C24.4182 46.5285 25.9307 46.3346 27.2493 45.7723C27.8601 45.5105 28.4855 45.1566 28.9508 44.6718C29.3968 44.2113 29.6586 43.6053 29.8719 43.0091C30.1482 42.2334 30.3712 41.3415 30.8511 40.6531C30.1967 40.7743 29.4647 40.6579 28.8539 40.5658Z" fill="#D09278"/>
<path d="M20.6661 29.7409C20.351 28.815 19.7596 27.9473 18.8434 27.5401C17.0303 26.7305 15.4354 28.4563 14.7325 30.0124C14.6986 30.1094 14.6646 30.2112 14.6356 30.3081C14.3738 31.1662 14.2671 32.0775 14.3301 32.9695C14.3883 33.7742 14.5725 34.6856 15.1543 35.2867C15.7796 35.9315 16.7152 36.0527 17.5636 35.9509C18.0047 35.8975 18.4362 35.786 18.8482 35.6406C19.3087 35.4758 19.7499 35.2673 20.1038 34.928C20.7437 34.3123 20.9424 33.4204 20.9812 32.5623C21.0006 32.0921 20.9763 31.617 20.9473 31.1468C20.9085 30.6717 20.8212 30.1966 20.6661 29.7409Z" fill="#F3D1BB"/>
<path d="M33.6479 33.721C33.9339 32.7757 33.8709 31.7334 33.6188 30.7881C33.3619 29.8331 32.8819 28.883 32.1208 28.2334C31.7718 27.9377 31.3646 27.7098 30.9186 27.6032C30.429 27.4869 29.92 27.5208 29.4401 27.6662C28.4802 27.9522 27.8258 28.7473 27.438 29.6441C27.3943 29.7507 27.3507 29.8574 27.3119 29.9689C27.0938 30.7154 26.958 31.4911 26.9532 32.2667C26.9483 33.2702 27.1907 34.3415 27.9809 35.0202C28.8293 35.7522 30.1139 35.854 31.1804 35.6649C31.7524 35.5631 32.3099 35.3595 32.7753 35.0105C33.2116 34.676 33.4927 34.23 33.6479 33.721Z" fill="#F3D1BB"/>
<path d="M20.5787 30.5893C20.3654 29.6295 19.9 28.6308 19.0614 28.0637C18.4457 27.6419 17.5101 27.5062 16.8654 27.9328C16.6084 28.0491 16.3612 28.2091 16.1431 28.3982C15.4644 28.9896 15.0378 29.7798 14.7905 30.6378C14.5288 31.5443 14.3979 32.5478 14.6306 33.4737C14.8439 34.3414 15.4207 35.0734 16.2642 35.3982C17.0981 35.7133 18.1112 35.66 18.9353 35.3449C19.8079 35.0104 20.4333 34.3075 20.6417 33.3913C20.855 32.4945 20.7775 31.4764 20.5787 30.5893Z" fill="#653C31"/>
<path d="M20.4967 32.727C20.4482 33.619 20.1477 34.4625 19.3526 34.9424C18.64 35.3739 17.6996 35.4902 16.89 35.3399C16.0659 35.1897 15.3775 34.6758 15.0285 33.905C14.6697 33.11 14.6794 32.1938 14.8297 31.3551C14.9752 30.5407 15.2369 29.7263 15.7411 29.0622C16.3034 28.3205 17.1615 27.7193 18.131 27.9278C18.1407 27.9326 18.1552 27.9326 18.1649 27.9375C18.4607 27.952 18.7273 28.0878 18.96 28.2671C19.0327 28.3205 19.1054 28.3835 19.1684 28.4513C19.2848 28.5677 19.3963 28.6937 19.4884 28.8149C19.881 29.3191 20.1331 29.8814 20.2785 30.4971C20.4724 31.2194 20.5355 31.9902 20.4967 32.727Z" fill="white"/>
<path d="M27.4047 33.3039C27.6374 34.2105 28.2821 34.8988 29.1644 35.2139C29.9982 35.5096 31.0114 35.5387 31.8355 35.1994C32.6741 34.8552 33.2268 34.1087 33.4207 33.2361C33.6291 32.3005 33.474 31.3067 33.188 30.405C32.9165 29.5518 32.4754 28.7762 31.7822 28.1993C31.5592 28.0151 31.3119 27.86 31.0502 27.7533C30.3957 27.3461 29.465 27.5061 28.859 27.9424C28.0397 28.5338 27.5986 29.5421 27.4095 30.5068C27.2253 31.394 27.1768 32.4168 27.4047 33.3039Z" fill="#653C31"/>
<path d="M27.6901 30.4052C27.821 29.7847 28.0537 29.2175 28.4367 28.7036C28.5288 28.5776 28.6354 28.4515 28.7518 28.3303C28.8148 28.2625 28.8826 28.1946 28.9554 28.1413C29.1832 27.9522 29.4498 27.8116 29.7407 27.7874C29.7504 27.7825 29.7649 27.7777 29.7746 27.7777C30.7393 27.545 31.6119 28.117 32.1936 28.849C32.7172 29.5035 32.9983 30.3082 33.1632 31.1178C33.3377 31.9564 33.3716 32.8726 33.0323 33.6725C32.7026 34.453 32.0337 34.9814 31.2095 35.1559C30.4 35.3256 29.4595 35.2335 28.7372 34.8214C27.9325 34.3609 27.6077 33.5222 27.535 32.6351C27.4817 31.8982 27.5204 31.1323 27.6901 30.4052Z" fill="white"/>
<mask id="mask0_139_5619" style="mask-type:luminance" maskUnits="userSpaceOnUse" x="14" y="27" width="7" height="9">
<path d="M20.4967 32.727C20.4482 33.619 20.1477 34.4625 19.3526 34.9424C18.64 35.3739 17.6996 35.4902 16.89 35.3399C16.0659 35.1897 15.3775 34.6758 15.0285 33.905C14.6697 33.11 14.6794 32.1938 14.8297 31.3551C14.9752 30.5407 15.2369 29.7263 15.7411 29.0622C16.3034 28.3205 17.1615 27.7193 18.131 27.9278C18.1407 27.9326 18.1552 27.9326 18.1649 27.9375C18.4607 27.952 18.7273 28.0878 18.96 28.2671C19.0327 28.3205 19.1054 28.3835 19.1684 28.4513C19.2848 28.5677 19.3963 28.6937 19.4884 28.8149C19.881 29.3191 20.1331 29.8814 20.2785 30.4971C20.4724 31.2194 20.5355 31.9902 20.4967 32.727Z" fill="white"/>
</mask>
<g mask="url(#mask0_139_5619)">
<path d="M19.6188 32.0242C19.6091 33.5076 18.688 34.705 17.5585 34.7001C16.429 34.6953 15.5176 33.4882 15.5225 32.0048C15.5322 30.5214 16.4532 29.324 17.5828 29.3289C18.7171 29.3337 19.6285 30.5408 19.6188 32.0242Z" fill="#613427"/>
<path d="M18.8622 32.1793C18.8574 33.0664 18.3047 33.779 17.6309 33.7742C16.9571 33.7693 16.4141 33.0519 16.419 32.1647C16.4238 31.2776 16.9716 30.565 17.6503 30.5698C18.3241 30.5747 18.8671 31.297 18.8622 32.1793Z" fill="#44788F"/>
<path d="M17.6459 31.234C17.641 31.7818 17.3211 32.2278 16.9236 32.2278C16.526 32.2278 16.2109 31.7769 16.2109 31.2291C16.2158 30.6765 16.5357 30.2354 16.9332 30.2354C17.3308 30.2354 17.6507 30.6813 17.6459 31.234Z" fill="white"/>
</g>
<mask id="mask1_139_5619" style="mask-type:luminance" maskUnits="userSpaceOnUse" x="27" y="27" width="7" height="9">
<path d="M27.6901 30.4052C27.821 29.7847 28.0537 29.2175 28.4367 28.7036C28.5288 28.5776 28.6354 28.4515 28.7518 28.3303C28.8148 28.2625 28.8826 28.1946 28.9554 28.1413C29.1832 27.9522 29.4498 27.8116 29.7407 27.7874C29.7504 27.7825 29.7649 27.7777 29.7746 27.7777C30.7393 27.545 31.6119 28.117 32.1936 28.849C32.7172 29.5035 32.9983 30.3082 33.1632 31.1178C33.3377 31.9564 33.3716 32.8726 33.0323 33.6725C32.7026 34.453 32.0337 34.9814 31.2095 35.1559C30.4 35.3256 29.4595 35.2335 28.7372 34.8214C27.9325 34.3609 27.6077 33.5222 27.535 32.6351C27.4817 31.8982 27.5204 31.1323 27.6901 30.4052Z" fill="white"/>
</mask>
<g mask="url(#mask1_139_5619)">
<path d="M32.4411 31.8594C32.4314 33.3428 31.5103 34.5402 30.3808 34.5353C29.2513 34.5305 28.3399 33.3234 28.3447 31.84C28.3544 30.3566 29.2755 29.1592 30.405 29.1641C31.5345 29.1689 32.4507 30.376 32.4411 31.8594Z" fill="#613427"/>
<path d="M31.6845 32.0145C31.6796 32.9016 31.127 33.6142 30.4532 33.6094C29.7793 33.6045 29.2364 32.8871 29.2412 31.9999C29.2461 31.1128 29.7939 30.4002 30.4726 30.4051C31.1464 30.4099 31.6893 31.1322 31.6845 32.0145Z" fill="#44788F"/>
<path d="M30.4681 31.0692C30.4633 31.617 30.1433 32.063 29.7458 32.063C29.3483 32.063 29.0332 31.6121 29.0332 31.0643C29.0381 30.5117 29.358 30.0706 29.7555 30.0706C30.153 30.0706 30.4681 30.5214 30.4681 31.0692Z" fill="white"/>
</g>
<path d="M22.3238 38.7672C22.7019 38.9999 23.114 39.1599 23.5648 39.2326C23.6569 39.2471 23.749 39.2617 23.8411 39.2714C23.274 39.0677 22.7504 38.7526 22.3287 38.326C21.9748 37.9673 21.6936 37.5262 21.5918 37.0317C21.5433 36.7893 21.5433 36.5324 21.587 36.2852C21.6257 36.0719 21.6936 35.8149 21.9117 35.7325C22.0281 35.6598 22.1638 35.621 22.2996 35.6065C22.5516 35.5774 22.7989 35.6356 23.0461 35.655C23.1091 35.6598 23.1722 35.6598 23.2352 35.6598C23.274 35.6598 23.3176 35.6598 23.3564 35.6598C23.4776 35.655 23.5939 35.6404 23.7102 35.6162C23.6036 35.5871 23.4969 35.558 23.3855 35.5386C23.463 35.1023 23.4969 34.6563 23.5163 34.2346C23.5697 33.0421 23.4388 31.8544 23.0607 30.72C23.0461 30.6812 22.9782 30.7152 22.9879 30.7539C23.303 31.8786 23.3709 33.0421 23.3127 34.2055C23.2885 34.6369 23.2546 35.0781 23.177 35.5095C23.1237 35.5047 23.0752 35.495 23.0219 35.4901C22.7068 35.4659 22.3626 35.4174 22.0475 35.4659C21.4755 35.5483 21.2864 36.1058 21.2573 36.6148C21.2088 37.4729 21.6839 38.2194 22.3238 38.7672Z" fill="#653C31"/>
<path d="M20.4958 26.7934C20.2146 26.168 19.8171 25.6251 19.2596 25.2179C18.6924 24.8058 17.9992 24.5198 17.2915 24.5149C16.4286 24.5101 15.6045 24.927 14.9694 25.4845C14.4071 25.9789 13.5975 26.837 13.8884 27.6562C13.9223 27.758 14.0629 27.7532 14.1308 27.6902C14.3538 27.4963 14.5525 27.2684 14.7852 27.0794C15.0324 26.8758 15.333 26.7546 15.6384 26.6576C16.2783 26.454 16.9521 26.4152 17.6114 26.5413C18.2125 26.6576 18.7797 26.8855 19.2936 27.22C19.5359 27.3799 19.7832 27.5399 20.0159 27.7193C20.2776 27.9229 20.4522 28.1992 20.6509 28.461C20.7236 28.5531 20.8933 28.4658 20.9175 28.3689C21.0533 27.8598 20.6994 27.249 20.4958 26.7934Z" fill="#613427"/>
<path d="M26.7495 28.301C26.7786 28.398 26.9483 28.4804 27.0161 28.3834C27.21 28.1217 27.3797 27.8356 27.6318 27.6272C27.8548 27.443 28.0972 27.2733 28.3395 27.1085C28.8437 26.7643 29.406 26.5171 30.0023 26.3862C30.6616 26.2456 31.3306 26.265 31.9802 26.4492C32.2856 26.5365 32.591 26.6528 32.8431 26.8467C33.0806 27.0309 33.2842 27.2491 33.512 27.4381C33.5848 27.4963 33.7205 27.5012 33.7544 27.3994C34.0259 26.5752 33.1921 25.7366 32.6201 25.2567C31.9705 24.7137 31.1367 24.3211 30.2738 24.3453C29.566 24.3695 28.8776 24.6701 28.325 25.0967C27.7772 25.5184 27.3942 26.0711 27.1276 26.7013C26.9386 27.1715 26.6041 27.7872 26.7495 28.301Z" fill="#613427"/>
<path d="M31.2969 40.1732C31.2775 40.1974 31.2436 40.2071 31.2193 40.2217C31.1854 40.2411 31.1515 40.2556 31.1175 40.2798C31.0642 40.3138 31.0109 40.3526 30.9576 40.3865C30.9091 40.4204 30.8606 40.4592 30.8073 40.4931C30.8024 40.4931 30.8024 40.498 30.7976 40.498C30.7976 40.498 30.7927 40.498 30.7927 40.5028C30.7831 40.5077 30.7734 40.5125 30.7637 40.5174C30.7346 40.5319 30.7055 40.5465 30.6764 40.561C30.5649 40.6192 30.4631 40.658 30.3613 40.6871C30.2256 40.7258 30.0801 40.7355 29.9444 40.7695C29.925 40.7743 29.8959 40.7937 29.8765 40.8179C29.7699 40.8276 29.6584 40.8325 29.5517 40.8325C29.0524 40.8422 28.5531 40.8131 28.0538 40.7985C26.8807 40.7598 25.7075 40.6919 24.5344 40.7889C23.3709 40.8858 22.2559 41.1864 21.141 41.5209C20.6611 41.6663 20.1763 41.8214 19.6915 41.9572C19.5073 42.0202 19.3279 42.0783 19.1437 42.1365C18.9304 42.1995 18.7171 42.2577 18.5038 42.3062C18.3342 42.345 18.1596 42.3934 17.9851 42.3983C17.767 42.408 17.4858 42.3692 17.321 42.2092C17.224 42.1171 17.2095 42.0105 17.2337 41.9087C17.1416 41.9911 17.0835 42.185 17.1271 42.2965C17.2192 42.534 17.5828 42.5486 17.7961 42.5534C18.0045 42.5583 18.2081 42.5389 18.4117 42.5146C18.5668 42.5583 18.7171 42.6892 18.8238 42.791C18.9886 42.9412 19.134 43.1061 19.2795 43.2757C19.6479 43.7072 20.0212 44.1338 20.4429 44.5167C21.2573 45.2487 22.2463 45.6511 23.3224 45.7868C25.2858 46.0389 27.4284 45.4233 28.8246 43.9835C29.2657 43.5278 29.6051 42.9897 29.9056 42.4322C30.0656 42.1317 30.2159 41.8214 30.3468 41.5015C30.4437 41.2688 30.5407 41.0264 30.7637 40.9004C30.7782 40.881 30.7927 40.8664 30.8073 40.847C30.9333 40.7889 31.0642 40.7016 31.1612 40.6095C31.2193 40.5562 31.2678 40.498 31.3066 40.4301C31.3308 40.3913 31.3502 40.3526 31.3599 40.3041C31.3648 40.275 31.3745 40.2459 31.389 40.2168C31.4423 40.1538 31.3405 40.1247 31.2969 40.1732Z" fill="#8A4A47"/>
<path d="M30.0119 41.6129C29.7502 42.2092 29.4351 42.7958 29.0521 43.3242C28.4607 44.1434 27.6026 44.7349 26.6719 45.1033C25.7169 45.4766 24.6649 45.6171 23.6421 45.5153C22.5319 45.4087 21.5139 45.0015 20.6801 44.2549C20.2147 43.8332 19.8269 43.3436 19.3955 42.8879C19.2597 42.7425 19.0658 42.5534 18.8525 42.437C19.2791 42.3498 19.7057 42.2237 20.1129 42.0977C21.4412 41.7002 22.7598 41.23 24.1462 41.0797C25.5424 40.9294 26.953 41.0264 28.354 41.0506C28.9745 41.0603 29.5999 41.0991 30.2107 40.973C30.2495 40.9682 30.2834 40.9682 30.3222 40.9633C30.3319 40.9633 30.3416 40.9633 30.3464 40.9585C30.2107 41.1476 30.1138 41.3851 30.0119 41.6129Z" fill="#AA2D2D"/>
<path d="M23.9721 44.0949C23.2401 44.2646 22.5129 44.4827 21.8246 44.793C21.7518 44.8269 21.6743 44.8608 21.6016 44.8996C22.2269 45.239 22.9153 45.4426 23.6424 45.5153C24.6653 45.6171 25.7173 45.4765 26.6723 45.1032C27.4237 44.8075 28.1266 44.3615 28.6792 43.775C27.1037 43.6295 25.5185 43.741 23.9721 44.0949Z" fill="#F26A60"/>
<path d="M21.5814 43.261C22.4588 43.4112 23.3508 43.3482 24.2331 43.2561C24.9748 43.1786 25.7116 43.0622 26.4339 42.8635C27.1708 42.6599 27.8931 42.3738 28.5136 41.923C28.8481 41.6806 29.1341 41.3849 29.3619 41.0553C29.0274 41.065 28.6929 41.0504 28.3633 41.0456C26.9623 41.0213 25.5516 40.9244 24.1555 41.0747C22.7691 41.2249 21.4505 41.6952 20.1222 42.0927C19.9089 42.1557 19.6908 42.2236 19.4678 42.2817C20.0592 42.8053 20.7815 43.1301 21.5814 43.261Z" fill="white"/>
<path d="M23.2787 36.13C23.2544 35.9797 23.1429 35.8973 23.012 35.8488C22.8618 35.7907 22.6873 35.7761 22.5273 35.7761C22.4837 35.7761 22.44 35.781 22.3915 35.7858H22.3867C22.2607 35.7664 22.1298 35.8101 22.0328 35.8876C21.931 35.97 21.8583 36.1009 21.8922 36.2367C21.931 36.3772 22.0716 36.4548 22.1976 36.5033C22.3237 36.5518 22.4643 36.5711 22.6 36.5808C22.7406 36.5905 22.886 36.5808 23.0217 36.5275C23.1817 36.4596 23.3029 36.3094 23.2787 36.13Z" fill="#F3D1BB"/>
<path d="M21.0733 40.9049C20.6467 40.9534 20.2347 41.1133 19.8275 41.2394C19.6239 41.3024 19.4203 41.3703 19.2167 41.4381C19.0228 41.5012 18.8143 41.569 18.6446 41.6854C18.6252 41.6999 18.601 41.7532 18.6398 41.7581C18.824 41.7872 19.0228 41.7339 19.2021 41.6902C19.4154 41.6369 19.6239 41.5739 19.8372 41.5109C20.2589 41.3848 20.6952 41.2636 21.0879 41.0649C21.1751 41.0261 21.1994 40.8904 21.0733 40.9049Z" fill="#F3D1BB"/>
<path d="M22.0036 40.6577C21.9745 40.648 21.9503 40.648 21.9212 40.6528C21.9115 40.6577 21.897 40.6577 21.8873 40.6625C21.863 40.6674 21.8436 40.6771 21.8194 40.6819C21.7709 40.6965 21.7225 40.7159 21.674 40.7449C21.6449 40.7595 21.6158 40.7886 21.6206 40.8225C21.6206 40.8322 21.6255 40.8467 21.64 40.8516C21.6546 40.8613 21.6691 40.8613 21.6885 40.8564C21.6934 40.8564 21.6934 40.8564 21.6982 40.8564C21.7031 40.8564 21.7079 40.8564 21.7128 40.8564C21.7273 40.8564 21.7418 40.8564 21.7515 40.8564C21.7758 40.8564 21.8 40.8564 21.8243 40.8613C21.8291 40.8613 21.8388 40.8613 21.8485 40.8661C21.863 40.871 21.8776 40.871 21.8921 40.871C21.9115 40.871 21.9261 40.8661 21.9406 40.8613C21.9697 40.8516 21.9891 40.8419 22.0133 40.8225C22.0327 40.808 22.0521 40.7837 22.0569 40.7595C22.0618 40.7401 22.0618 40.7256 22.0618 40.7062C22.0521 40.6819 22.0279 40.6674 22.0036 40.6577Z" fill="#F3D1BB"/>
<path d="M23.9282 46.916C23.8361 46.7609 23.6422 46.6834 23.4774 46.6446C23.2931 46.6009 23.0653 46.5816 22.8908 46.6737C22.8471 46.6979 22.7987 46.7318 22.7744 46.7755C22.755 46.8094 22.7357 46.8627 22.7502 46.9015C22.8229 47.0712 22.9829 47.1633 23.1526 47.2215C23.3319 47.2796 23.5307 47.2845 23.7052 47.2166C23.7149 47.2118 23.7246 47.2069 23.7343 47.2021C23.7779 47.1875 23.8167 47.1633 23.8555 47.139C23.9282 47.0809 23.9718 46.9888 23.9282 46.916Z" fill="#F3D1BB"/>
<path d="M48.404 15.542C48.4234 13.9568 47.8999 12.1389 46.5134 11.2178C46.2274 11.0239 45.9172 10.8882 45.5924 10.8009C45.6069 10.4761 45.5245 10.1319 45.4033 9.85077C45.1658 9.31268 44.778 8.84245 44.3029 8.49826C43.7987 8.13953 43.1831 7.94562 42.5626 8.01349C42.4753 8.02319 42.3929 8.03773 42.3105 8.05712C42.2814 7.72263 42.2281 7.38814 42.1408 7.05849C41.6803 5.28908 40.2114 3.85901 38.3741 3.59724C37.9912 3.54391 37.6179 3.54391 37.264 3.60693C36.9925 2.96703 36.2508 2.46287 35.6497 2.23503C34.908 1.95386 34.1275 1.93447 33.3713 2.07021C33.2647 1.90054 33.1386 1.74057 32.9932 1.59029C32.203 0.766178 31.0977 0.325037 29.9876 0.131129C28.2376 -0.169428 26.2258 0.019632 24.7036 1.01341C24.4709 1.16369 24.2625 1.33821 24.0831 1.52727C23.4384 1.06189 22.5706 0.897066 21.7756 0.974629C20.6364 1.08613 19.6329 1.62422 18.9155 2.50166C18.5761 2.31259 18.2222 2.15747 17.8635 2.03143C16.8988 1.68724 15.8614 1.57574 14.8482 1.70663C12.7928 1.96841 10.6695 3.28698 9.85511 5.24545C9.60303 5.85626 9.5497 6.47192 9.61273 7.08273C8.9292 6.87913 8.19235 6.85004 7.49428 6.94215C5.80728 7.16999 4.2948 8.37222 3.77609 10.0059C3.58703 10.5925 3.53856 11.2227 3.63551 11.8286C3.4513 11.9498 3.28163 12.1001 3.1362 12.2698C2.79686 12.6673 2.51084 13.2587 2.46237 13.8404C2.17635 13.9956 1.90003 14.1846 1.6528 14.4028C0.552372 15.3675 -0.106916 16.8896 0.014277 18.3585C0.062754 18.979 0.280901 19.5413 0.634783 20.0261C0.445722 20.8502 0.55722 21.747 1.08562 22.4257C1.16803 22.5324 1.26014 22.6245 1.35224 22.7166C1.1244 22.9977 0.945036 23.3225 0.814148 23.6813C0.213033 25.3489 1.19712 27.2686 2.87927 27.8018C3.36889 27.9569 3.91668 28.0103 4.42568 27.9375C4.68746 27.8988 4.90561 27.8067 5.10921 27.6855C5.27888 27.8697 5.49703 28.0151 5.73456 28.0927C5.77819 28.1072 5.82182 28.1169 5.8703 28.1266C5.79758 28.306 5.74426 28.495 5.72487 28.6986C5.657 29.3094 5.8703 29.896 6.23388 30.3808C6.8156 31.1613 7.80938 31.6557 8.78862 31.5491C8.92435 31.5345 9.05524 31.5055 9.18613 31.4715C9.22491 31.5588 9.26854 31.646 9.32186 31.7284C9.62727 32.2181 10.0975 32.5041 10.6695 32.5768C10.7325 32.5865 10.8198 32.5283 10.8489 32.4701C11.227 31.7721 11.2561 30.9771 11.2076 30.2014C11.1834 29.7991 11.1591 29.3822 11.0816 28.9846C11.0331 28.718 10.9652 28.4611 10.9022 28.1993C11.5179 28.1411 12.1044 27.8648 12.565 27.4479C13.1661 26.905 13.4763 26.173 13.646 25.3925C13.8108 24.6314 13.9514 23.6619 13.6412 22.9008C14.1696 22.9444 14.6883 22.7796 15.144 22.5178C15.6287 22.2366 16.1377 21.7761 16.3995 21.238C16.5255 21.3738 16.6661 21.4949 16.8261 21.5968C17.3739 21.9506 18.0865 22.0718 18.7313 22.0573C19.3227 22.0427 19.8947 21.8779 20.394 21.558C20.7285 21.3447 21.0339 21.0587 21.286 20.7339C21.2957 20.7436 21.3054 20.7581 21.3151 20.7678C21.8144 21.2477 22.5028 21.5531 23.1766 21.6937C25.0236 22.0767 26.8802 21.0005 28.194 19.7886C28.3879 19.6092 28.5915 19.4056 28.7805 19.1826C29.1441 19.7886 29.7646 20.2491 30.4675 20.3557C30.5693 20.3703 30.676 20.38 30.7778 20.38C30.8214 20.7533 30.9426 21.1217 31.1462 21.461C31.791 22.5372 33.1338 23.1044 34.3602 23.0753C34.3602 23.1238 34.3554 23.1723 34.3554 23.2256C34.3554 24.5926 35.1843 25.8094 36.4738 26.2748C36.7356 26.3669 37.0119 26.4299 37.2979 26.459C37.4094 27.3461 37.3997 28.2623 37.3949 29.1543C37.3949 30.0366 37.2058 30.9286 37.3222 31.8109C37.3319 31.8739 37.424 31.8981 37.4725 31.8836C37.8312 31.7672 38.059 31.423 38.2432 31.1128C38.4468 30.7638 38.5971 30.3905 38.7765 30.0318C38.8783 29.8281 38.9801 29.6294 39.0771 29.4258C39.1837 29.4646 39.3049 29.4791 39.397 29.4791C39.7751 29.4888 40.1629 29.4112 40.5314 29.324C41.3943 29.1204 42.2232 28.6065 42.6595 27.8115C42.6692 27.7921 42.6789 27.7727 42.6886 27.7533C42.994 27.8212 43.3576 27.7 43.6097 27.5497C43.9975 27.3219 44.3271 26.968 44.5307 26.5705C44.744 26.1633 44.8264 25.7076 44.778 25.2568C46.048 25.0822 47.2309 24.0982 47.7835 22.9929C48.404 21.7519 48.278 20.0746 47.2891 19.0469C47.5218 18.7415 47.7157 18.407 47.8708 18.0676C48.2247 17.2678 48.3943 16.4 48.404 15.542Z" fill="#331001"/>
<path d="M47.3763 18.3049C47.2503 18.6443 47.0709 18.9642 46.8576 19.2551C46.6879 19.4878 46.4989 19.7059 46.2953 19.9095C46.5861 19.7495 46.8382 19.5411 47.0612 19.2987C47.3666 19.6671 47.5896 20.1228 47.7011 20.6124C48.0307 21.9989 47.4587 23.395 46.3292 24.2385C45.8444 24.6021 45.2966 24.8299 44.7149 24.9317C44.6616 24.7281 44.584 24.5294 44.4968 24.3355C44.5404 24.5633 44.5501 24.7912 44.521 25.0238C44.5065 25.1402 44.4871 25.2517 44.4628 25.3632C44.4725 25.6686 44.4337 25.974 44.3174 26.2746C44.1817 26.6187 43.9441 26.929 43.6484 27.1471C43.503 27.2538 43.3479 27.3459 43.1685 27.3895C43.0473 27.4186 42.931 27.4138 42.8195 27.3992C42.8631 27.2635 42.8873 27.1181 42.897 26.9726C42.9116 26.706 42.8388 26.4491 42.7419 26.2018C42.7419 26.8514 42.5965 27.5253 42.1553 27.9955C41.9711 28.2185 41.7481 28.4124 41.5106 28.5724C41.0016 28.9069 40.4053 29.0474 39.7896 29.1056C39.6442 29.1202 39.4891 29.1299 39.3485 29.1008C39.2903 29.0862 39.2612 29.0765 39.237 29.0571C39.4891 28.4996 39.7072 27.9228 39.8139 27.312C39.8817 26.9387 39.9011 26.5606 39.8187 26.2018C39.809 26.8466 39.6103 27.4816 39.3097 28.0585C39.2079 28.3785 39.0819 28.6936 38.9461 28.9844C38.9267 28.999 38.9122 29.0184 38.9025 29.0329C38.8686 29.0911 38.8589 29.1395 38.8589 29.1783C38.8443 29.2123 38.8298 29.2413 38.8153 29.2753C38.631 29.6728 38.4323 30.0655 38.2432 30.4581C38.1317 30.6908 38.0202 30.9235 37.8796 31.1416C37.8118 31.2483 37.7245 31.3937 37.6179 31.4907C37.5791 31.0835 37.6082 30.6763 37.6421 30.2691C37.6809 29.8134 37.6954 29.3674 37.6857 28.9117C37.676 28.456 37.6615 27.9955 37.6179 27.5398C37.5839 27.1665 37.5161 26.8078 37.4337 26.4491C37.7585 26.4685 38.0881 26.4297 38.3935 26.3376C38.3353 26.3376 38.282 26.3327 38.2287 26.3279C37.9572 26.3036 37.6906 26.2503 37.4337 26.1679C37.3512 26.1437 37.2737 26.1146 37.1913 26.0903C37.0943 26.0758 36.9925 26.0564 36.8956 26.0322C36.3526 25.8867 35.8485 25.591 35.4655 25.179C35.1165 24.8009 34.8692 24.3112 34.748 23.7877C34.5105 22.9636 34.7044 22.1346 35.0243 21.3444C34.9904 21.3832 34.9565 21.4172 34.9225 21.4608C34.6268 21.8244 34.4572 22.2607 34.3845 22.7212C33.9482 22.7309 33.507 22.6582 33.0707 22.4982C32.1303 22.1492 31.3595 21.4026 31.1268 20.4331C31.0977 20.3313 31.0686 20.2295 31.0541 20.1228C30.9959 19.7108 31.0347 19.2939 31.1026 18.8818C30.8747 19.2308 30.7632 19.6284 30.7535 20.0404C30.7293 20.0404 30.705 20.0404 30.6808 20.0356C30.3512 20.0016 30.0312 19.8756 29.7597 19.6914C29.6192 19.5993 29.4931 19.4829 29.3768 19.3617C29.3428 19.3375 29.3089 19.3133 29.2798 19.289C28.8823 18.9497 28.6011 18.4843 28.4266 17.9947C28.4121 17.9607 28.4024 17.922 28.3927 17.888C28.3927 17.9123 28.3927 17.9414 28.3927 17.9656C28.4121 18.2855 28.4896 18.5909 28.6205 18.877C28.4751 19.0709 28.3103 19.2502 28.1406 19.4199C27.5492 20.0113 26.8463 20.5252 26.0997 20.8985C25.3144 21.2911 24.4273 21.5383 23.545 21.4123C22.939 21.3251 22.3476 21.0924 21.8338 20.7579C21.7223 20.6852 21.6108 20.593 21.5041 20.5009C21.4362 20.4525 21.3684 20.404 21.3054 20.3507C21.0824 20.1616 20.8933 19.9338 20.7285 19.6914C20.7382 19.7786 20.7527 19.8707 20.7818 19.958C20.8448 20.1616 20.9515 20.341 21.0775 20.5058C20.8739 20.7676 20.6558 21.0099 20.3843 21.2136C19.9625 21.5287 19.4584 21.708 18.93 21.7371C18.0332 21.7904 17.0879 21.5335 16.5207 20.8597C16.5788 20.6173 16.5788 20.3701 16.5061 20.1131C16.4916 20.0646 16.4577 20.0501 16.414 20.055C16.2444 20.7288 16.2298 21.4802 15.5899 21.9019C15.5851 21.9068 15.5802 21.9068 15.5754 21.9068C15.3863 22.0861 15.1779 22.2461 14.9694 22.3673C14.5477 22.6194 14.0677 22.76 13.5733 22.7212C13.5587 22.7212 13.549 22.7163 13.5345 22.7163C13.5296 22.7115 13.5296 22.7066 13.5248 22.7018C13.3115 22.7115 13.0933 22.7115 12.8752 22.7066C13.0109 22.7648 13.1515 22.8181 13.2969 22.8521C13.4812 23.5695 13.486 24.2967 13.3648 25.0287C13.2485 25.7316 13.0594 26.4491 12.594 27.0066C12.2353 27.4332 11.7457 27.7337 11.2027 27.8501C11.0234 27.9228 10.8343 27.9761 10.6356 27.9858C9.88417 28.0246 9.14247 27.5689 8.65285 27.0356C8.4444 26.8078 8.26019 26.546 8.1196 26.26C8.14869 26.4345 8.20201 26.609 8.27958 26.7739C8.64316 27.5447 9.47696 28.0779 10.3059 28.1894C10.3932 28.1991 10.4756 28.2088 10.5628 28.2088C10.5919 28.4657 10.655 28.7226 10.7131 28.9796C10.7955 29.3674 10.8246 29.7649 10.8537 30.1576C10.907 30.8702 10.907 31.6119 10.6162 32.2712C10.1314 32.1888 9.76782 31.9076 9.50605 31.5392C9.27336 31.3307 9.08914 31.0641 8.94856 30.7781C8.97765 30.9187 9.01158 31.0592 9.06006 31.195C8.61407 31.2968 8.13415 31.2531 7.67362 31.0689C6.79133 30.7102 6.0254 29.8376 5.99146 28.8584C5.98177 28.616 6.02055 28.3833 6.08842 28.1506C6.29687 28.1555 6.50532 28.107 6.64105 27.9616C6.68468 27.9179 6.67984 27.8355 6.60712 27.8355C6.60712 27.8355 6.60712 27.8355 6.60227 27.8355C6.57803 27.8452 6.54895 27.8549 6.52471 27.8646C6.2387 27.947 5.91875 27.9664 5.63758 27.8549C5.34672 27.7386 5.14312 27.5059 5.02677 27.2199C4.89103 26.8902 4.8571 26.483 4.92497 26.1049C4.8571 26.26 4.79893 26.42 4.76499 26.5848C4.70197 26.8999 4.76499 27.2247 4.93951 27.4913C4.82317 27.5495 4.70682 27.598 4.57593 27.6271C4.13964 27.7192 3.66941 27.6852 3.23797 27.5834C2.51081 27.4041 1.88546 26.9629 1.46371 26.3473C1.00318 25.654 0.775336 24.7766 0.969244 23.9574C1.0662 23.5501 1.24072 23.1672 1.4831 22.8278C1.74488 23.0411 2.04543 23.2011 2.37023 23.2981C2.2151 23.2011 2.06482 23.0896 1.93394 22.9587C1.62368 22.663 1.36676 22.2994 1.1777 21.9019C1.05166 21.6789 0.964397 21.4317 0.911072 21.1748C0.906224 21.1602 0.906224 21.1457 0.906224 21.1311C0.823813 20.7821 0.794727 20.4234 0.833509 20.0792C0.896529 19.449 1.14861 18.8721 1.51703 18.3728C1.20193 18.7121 0.949853 19.1096 0.780184 19.5459C0.765641 19.5217 0.751098 19.5023 0.736555 19.4781C0.562037 19.1824 0.445693 18.8673 0.397216 18.5279C0.290566 17.8105 0.382672 17.0833 0.634753 16.4046C0.959549 15.532 1.52188 14.7952 2.26358 14.2813C2.3266 14.2135 2.39447 14.1505 2.46718 14.0923C2.64655 13.9565 2.855 13.8547 3.06345 13.7723C3.43672 13.6221 3.81 13.4766 4.19297 13.3457C3.71789 13.3797 3.24766 13.496 2.80652 13.6851C2.81137 13.6366 2.81622 13.5881 2.82591 13.5396C2.89863 13.113 3.09254 12.6961 3.37855 12.3713C3.47551 12.2647 3.57731 12.1726 3.68396 12.0853C3.73243 12.2938 3.8003 12.4974 3.88756 12.6913C3.9021 12.7204 3.92634 12.7301 3.95058 12.7301C3.89241 12.3423 3.83908 11.9351 3.87302 11.5424C3.83908 11.1255 3.85363 10.7086 3.95058 10.2965C4.1251 9.56453 4.50322 8.89554 5.04131 8.36714C6.229 7.18915 8.06628 6.83527 9.64663 7.34428C9.64663 7.35882 9.65148 7.36852 9.65148 7.38306C9.72904 7.4073 9.8066 7.42669 9.87932 7.45093C9.87932 7.44123 9.87447 7.43154 9.87447 7.42184C9.98112 7.46062 10.0829 7.5091 10.1799 7.56243C10.3835 7.65938 10.5628 7.79027 10.7422 7.94055C11.0525 8.20717 11.3433 8.50773 11.5809 8.84222C11.2561 8.19263 10.8828 7.62545 10.2041 7.2958C10.0878 7.23763 9.96658 7.18915 9.84539 7.14552C9.79691 6.65106 9.82599 6.15659 9.97627 5.66213C10.2817 4.6538 10.9991 3.79576 11.8475 3.1898C13.4618 2.03605 15.5027 1.64823 17.4078 2.2445C17.8199 2.37538 18.2028 2.5499 18.5664 2.7535C18.6052 2.7632 18.6488 2.77774 18.6827 2.78744C18.9057 2.86015 19.119 2.9668 19.3275 3.0783C19.565 3.20919 19.7832 3.36432 19.9868 3.54368C20.0159 3.57277 20.0498 3.59701 20.0789 3.62609C19.9383 3.38371 19.7783 3.15586 19.6038 2.94257C19.4341 2.81653 19.2596 2.70018 19.0754 2.58868C19.3275 2.30267 19.6087 2.04574 19.9286 1.83729C20.84 1.24587 22.0713 1.07135 23.1038 1.41069C23.3753 1.5028 23.6177 1.63369 23.8407 1.79851C23.6371 2.07967 23.4917 2.39962 23.4141 2.74866C23.5741 2.42386 23.7777 2.11361 24.0346 1.84214C24.151 1.72094 24.2818 1.61429 24.4127 1.51249C25.1253 0.930769 26.124 0.601125 26.9529 0.450847C27.8013 0.29572 28.6787 0.290872 29.5271 0.407217C30.5693 0.552648 31.6116 0.901683 32.4163 1.5949C32.6102 1.76457 32.7799 1.95363 32.9301 2.15724C32.9253 2.15724 32.9253 2.15724 32.9204 2.16209C33.2016 2.42386 33.4488 2.70988 33.6621 3.02982C33.7639 3.1801 33.8561 3.34008 33.9385 3.50005C33.8318 3.06376 33.6912 2.63716 33.4731 2.2445C34.1033 2.17663 34.7383 2.22511 35.3443 2.4481C35.8242 2.63231 36.2944 2.90863 36.6241 3.30614C36.7307 3.43218 36.8083 3.56307 36.8665 3.69881C36.5514 3.80061 36.2508 3.95089 35.9697 4.15934C36.3817 3.99452 36.7792 3.78122 37.2301 3.76667C37.4724 3.75698 37.71 3.79576 37.9378 3.86363C38.0299 3.87332 38.122 3.88787 38.2141 3.90241C39.0286 4.05754 39.7993 4.43081 40.4198 4.9883C41.3361 5.8124 41.7724 6.93222 41.8887 8.10537C41.9081 8.21686 41.9226 8.32836 41.9323 8.44471C41.976 8.86161 41.9856 9.28336 41.9905 9.70026C41.9953 10.219 41.9614 10.7377 41.9081 11.2564C42.2086 10.2917 42.3735 9.26882 42.3201 8.27019C42.3929 8.26049 42.4656 8.25565 42.5431 8.2508C43.1103 8.23141 43.6339 8.44471 44.0847 8.78405C44.4919 9.08945 44.8361 9.5112 45.0445 9.97658C45.1463 10.2044 45.2191 10.4565 45.2336 10.7086C45.2336 10.7134 45.2336 10.7183 45.2336 10.7183C44.9379 10.6698 44.6373 10.665 44.3368 10.6843C44.681 10.7522 45.0155 10.8492 45.3354 10.9994C45.4081 11.0334 45.476 11.0673 45.5439 11.1061C45.5487 11.0964 45.5487 11.0867 45.5536 11.077C45.7426 11.1497 45.9268 11.2418 46.1013 11.3533C46.7219 11.746 47.1921 12.3471 47.4975 13.0064C48.1665 14.4559 48.1907 16.201 47.6526 17.6893C47.5751 17.9026 47.4829 18.1062 47.3763 18.3049Z" fill="#613427"/>
<path opacity="0.38" d="M47.0612 19.2939C46.8382 19.5362 46.5812 19.7495 46.2952 19.9047C46.4988 19.7011 46.6879 19.4829 46.8576 19.2502C47.0709 18.9594 47.2502 18.6394 47.3763 18.3001C47.4829 18.1062 47.575 17.9026 47.6526 17.6844C48.1955 16.1962 48.1664 14.451 47.4974 13.0015C47.192 12.3423 46.7218 11.7411 46.1013 11.3485C45.9268 11.237 45.7426 11.1449 45.5535 11.0722C45.5487 11.0819 45.5487 11.0916 45.5438 11.1012C45.476 11.0625 45.4081 11.0237 45.3354 10.9946C45.0154 10.8443 44.6809 10.7522 44.3367 10.6795C44.6373 10.6601 44.9379 10.665 45.2336 10.7134C45.2336 10.7086 45.2336 10.7037 45.2336 10.7037C45.219 10.4517 45.1463 10.1996 45.0445 9.97173C44.8361 9.50635 44.4919 9.0846 44.0847 8.7792C43.6338 8.43986 43.1103 8.23141 42.5431 8.24595C42.4704 8.24595 42.3928 8.25565 42.3201 8.26534C42.3734 9.26397 42.2086 10.2917 41.908 11.2515C41.9614 10.7377 41.9953 10.219 41.9905 9.69541C41.9856 9.27851 41.9759 8.85676 41.9323 8.43986C41.9226 8.32836 41.9081 8.21202 41.8887 8.10052C41.7723 6.92738 41.336 5.8124 40.4198 4.98345C39.8041 4.42596 39.0334 4.05269 38.2141 3.89756C38.122 3.87817 38.0299 3.86848 37.9378 3.85878C37.7051 3.79091 37.4724 3.75213 37.23 3.76183C36.7792 3.77637 36.3817 3.99452 35.9696 4.15449C36.2508 3.94604 36.5513 3.79576 36.8664 3.69396C36.8083 3.55822 36.7307 3.42734 36.6241 3.3013C36.2944 2.90863 35.8242 2.63231 35.3443 2.4578C34.7383 2.2348 34.1032 2.18632 33.473 2.25419C33.6912 2.64201 33.8318 3.06861 33.9384 3.50975C33.856 3.34977 33.7639 3.1898 33.6621 3.03952C33.4488 2.70988 33.2016 2.42386 32.9253 2.16209C32.9301 2.16209 32.9301 2.16209 32.935 2.15724C32.7847 1.95363 32.615 1.76457 32.4211 1.5949C31.6164 0.901683 30.5741 0.552648 29.5319 0.407217C28.6787 0.290872 27.8012 0.29572 26.9577 0.450847C26.1288 0.601125 25.1302 0.930769 24.4175 1.51249C24.2818 1.60945 24.1558 1.72094 24.0394 1.84214C23.7776 2.11361 23.574 2.42386 23.4141 2.75835C23.4916 2.40447 23.6371 2.08937 23.8407 1.8082C23.6177 1.64338 23.3753 1.50765 23.1038 1.42039C22.0713 1.0762 20.8399 1.25556 19.9286 1.84698C19.6086 2.05544 19.3275 2.31236 19.0754 2.59838C19.2596 2.70503 19.4341 2.82622 19.6038 2.95226C19.7734 3.16556 19.9383 3.3934 20.074 3.63579C20.0449 3.6067 20.011 3.58246 19.9819 3.55338C19.7783 3.37401 19.5601 3.21888 19.3226 3.088C19.1142 2.9765 18.9009 2.86985 18.6779 2.79713C18.6391 2.78259 18.6003 2.7729 18.5615 2.7632C18.1979 2.5596 17.815 2.38508 17.4029 2.25419C15.5026 1.66277 13.4569 2.05059 11.8426 3.19949C10.9943 3.80546 10.2768 4.6635 9.97139 5.67182C9.82111 6.16629 9.79687 6.66075 9.8405 7.15522C9.96169 7.19885 10.0829 7.24732 10.1992 7.3055C10.8779 7.63029 11.2512 8.20232 11.576 8.85191C11.3384 8.51742 11.0476 8.21686 10.7373 7.95024C10.5628 7.79996 10.3834 7.66907 10.175 7.57212C10.078 7.5188 9.97624 7.47032 9.86959 7.43154C9.86959 7.44123 9.87444 7.45093 9.87444 7.46062C9.79687 7.43638 9.72416 7.41215 9.6466 7.39276C9.6466 7.37821 9.64175 7.36852 9.64175 7.35397C8.0614 6.84496 6.22897 7.19885 5.03643 8.37684C4.50318 8.90524 4.12022 9.57422 3.9457 10.3062C3.84874 10.7183 3.8342 11.1352 3.86813 11.5521C3.82935 11.9447 3.88753 12.352 3.9457 12.7398C3.91661 12.7398 3.89237 12.7301 3.88268 12.701C3.79542 12.5022 3.72755 12.2986 3.67907 12.095C3.57242 12.1823 3.46578 12.2744 3.37367 12.381C3.08765 12.7058 2.89375 13.1227 2.82103 13.5493C2.81134 13.5978 2.80649 13.6463 2.80164 13.6948C3.24278 13.5057 3.70816 13.3942 4.18808 13.3603C3.80996 13.4912 3.43184 13.6366 3.05857 13.7869C2.85012 13.8693 2.64167 13.9711 2.4623 14.1068C2.38959 14.165 2.32172 14.228 2.2587 14.2959C1.517 14.8097 0.954666 15.5466 0.62987 16.4192C0.37779 17.0979 0.285683 17.825 0.392333 18.5425C0.44081 18.8818 0.557155 19.2018 0.731672 19.4926C0.746215 19.5169 0.760758 19.5362 0.775301 19.5605C0.944971 19.1242 1.19705 18.7267 1.51215 18.3873C1.14857 18.8915 0.896494 19.4635 0.828626 20.0937C0.794692 20.4428 0.823778 20.8015 0.901341 21.1457C0.906189 21.1602 0.906189 21.1748 0.906189 21.1893C0.954666 21.4462 1.04677 21.6886 1.17281 21.9165C1.36187 22.314 1.6188 22.6776 1.92905 22.9733C2.06479 23.1042 2.21022 23.2157 2.36535 23.3126C2.04055 23.2157 1.73999 23.0557 1.47822 22.8424C1.23583 23.1817 1.06132 23.5647 0.964361 23.9719C0.770453 24.796 0.993448 25.6734 1.46852 26.357C1.89512 26.9726 2.51563 27.4138 3.24278 27.5931C3.67423 27.6998 4.14445 27.7337 4.58075 27.6368C4.71163 27.6077 4.83283 27.5592 4.94432 27.501C4.76981 27.2344 4.70679 26.9048 4.76981 26.5945C4.80374 26.4297 4.86191 26.2697 4.92978 26.1146C4.86191 26.4927 4.89585 26.8951 5.03158 27.2295C5.14793 27.5107 5.35153 27.7483 5.64239 27.8646C5.92356 27.9761 6.24351 27.9567 6.52952 27.8743C6.55376 27.8646 6.58285 27.8549 6.60709 27.8452C6.60709 27.8452 6.60709 27.8452 6.61193 27.8452C6.68465 27.8452 6.6895 27.9276 6.64587 27.9712C6.51013 28.1167 6.29683 28.1652 6.09323 28.1603C6.02536 28.3881 5.98658 28.6257 5.99628 28.8681C6.03021 29.8473 6.79615 30.7199 7.67843 31.0786C8.13896 31.2677 8.61403 31.3113 9.06487 31.2047C9.01639 31.0689 8.98246 30.9283 8.95337 30.7878C9.09396 31.0738 9.27817 31.3356 9.51086 31.5489C9.77264 31.9173 10.1362 32.1984 10.621 32.2809C10.9118 31.6216 10.907 30.875 10.8585 30.1673C10.8294 29.7746 10.8003 29.3771 10.7179 28.9893C10.6646 28.7275 10.6016 28.4754 10.5677 28.2185C10.4804 28.2136 10.398 28.2088 10.3107 28.1991C9.47693 28.0876 8.64797 27.5543 8.28439 26.7836C8.20683 26.6187 8.1535 26.4442 8.12442 26.2697C8.265 26.5509 8.44437 26.8126 8.65766 27.0453C9.14728 27.5786 9.88898 28.0343 10.6404 27.9955C10.8391 27.9858 11.0282 27.9325 11.2076 27.8598C11.7505 27.7434 12.2401 27.4428 12.5988 27.0163C13.0691 26.4588 13.2581 25.7413 13.3696 25.0384C13.4908 24.3064 13.486 23.5792 13.3018 22.8618C13.1563 22.8278 13.0157 22.7794 12.88 22.7163C13.0982 22.7212 13.3163 22.7212 13.5296 22.7115C13.5345 22.7163 13.5345 22.7212 13.5393 22.726C13.5538 22.726 13.5635 22.7309 13.5781 22.7309C14.0725 22.7697 14.5525 22.6242 14.9742 22.377C15.1827 22.2558 15.3911 22.0958 15.5802 21.9165C15.585 21.9165 15.5899 21.9116 15.5947 21.9116C16.2346 21.4899 16.2492 20.7385 16.4188 20.0646C16.4576 20.0598 16.4964 20.0743 16.5109 20.1228C16.5837 20.3749 16.5837 20.627 16.5255 20.8694C17.0927 21.5432 18.038 21.8001 18.9348 21.7468C19.4583 21.7177 19.9674 21.5383 20.3891 21.2232C20.6606 21.0196 20.8787 20.7773 21.0823 20.5155C20.9563 20.3507 20.8496 20.1713 20.7866 19.9677C20.7575 19.8756 20.743 19.7883 20.7333 19.7011C20.8981 19.9435 21.0823 20.1713 21.3102 20.3604C21.3732 20.4137 21.4411 20.4622 21.5089 20.5106C21.6156 20.6076 21.7222 20.6948 21.8386 20.7676C22.3476 21.1069 22.9438 21.3347 23.5498 21.422C24.4321 21.5529 25.3192 21.3057 26.1045 20.9081C26.8511 20.53 27.554 20.021 28.1454 19.4296C28.3151 19.2599 28.4751 19.0806 28.6253 18.8867C28.4993 18.5958 28.4169 18.2952 28.3975 17.9753C28.3975 17.951 28.3975 17.922 28.3975 17.8977C28.4072 17.9317 28.4217 17.9704 28.4314 18.0044C28.606 18.494 28.8871 18.9594 29.2846 19.2987C29.3137 19.3229 29.3477 19.3472 29.3816 19.3714C29.4979 19.4926 29.624 19.6041 29.7646 19.7011C30.0409 19.8853 30.356 20.0113 30.6856 20.0453C30.7099 20.0501 30.7341 20.0501 30.7583 20.0501C30.768 19.6381 30.8795 19.2405 31.1074 18.8915C31.0395 19.3036 31.0007 19.7205 31.0589 20.1325C31.0734 20.2392 31.1025 20.3458 31.1316 20.4428C31.3643 21.4172 32.1351 22.1589 33.0755 22.5079C33.5118 22.6679 33.953 22.7406 34.3893 22.7309C34.462 22.2752 34.6316 21.8389 34.9274 21.4705C34.9613 21.4317 34.9952 21.3929 35.0292 21.3541C34.7092 22.1443 34.5153 22.9733 34.7528 23.7974C34.8789 24.3209 35.1261 24.8105 35.4703 25.1887C35.8533 25.6056 36.3574 25.8964 36.9004 26.0419C36.9973 26.0661 37.0991 26.0855 37.1961 26.1C37.2785 26.1291 37.3561 26.1534 37.4385 26.1776C37.6954 26.2552 37.9669 26.3133 38.2335 26.3376C38.2868 26.3424 38.345 26.3473 38.3983 26.3473C38.0881 26.4394 37.7633 26.4733 37.4385 26.4588C37.5209 26.8175 37.5887 27.1762 37.6227 27.5495C37.6663 28.0052 37.6809 28.4609 37.6905 28.9214C37.7002 29.3771 37.6857 29.8279 37.6469 30.2788C37.613 30.686 37.5839 31.0932 37.6227 31.5004C37.7293 31.4034 37.8166 31.258 37.8845 31.1513C38.0202 30.9332 38.1365 30.7005 38.248 30.4678C38.4322 30.0703 38.631 29.6825 38.8201 29.285C38.8346 29.2559 38.8491 29.222 38.8637 29.188C38.8637 29.1444 38.8782 29.0959 38.9073 29.0426C38.917 29.0232 38.9316 29.0087 38.951 28.9941C39.0818 28.6984 39.2079 28.3882 39.3145 28.0682C39.6151 27.4913 39.8138 26.8563 39.8235 26.2115C39.9059 26.5703 39.8866 26.9484 39.8187 27.3217C39.7072 27.9325 39.4939 28.5093 39.2418 29.0668C39.266 29.0862 39.2951 29.1008 39.3533 29.1105C39.4939 29.1395 39.649 29.125 39.7944 29.1153C40.4101 29.062 41.0064 28.9214 41.5154 28.5821C41.7529 28.4269 41.9759 28.2282 42.1601 28.0052C42.6013 27.535 42.7467 26.8611 42.7467 26.2115C42.8437 26.4588 42.9164 26.7157 42.9018 26.9823C42.897 27.1277 42.8679 27.2732 42.8243 27.4089C42.9406 27.4235 43.0521 27.4283 43.1733 27.3992C43.3478 27.3556 43.5078 27.2683 43.6532 27.1568C43.9489 26.9338 44.1816 26.6236 44.3222 26.2842C44.4434 25.9837 44.4822 25.6783 44.4676 25.3729C44.4919 25.2614 44.5113 25.145 44.5258 25.0335C44.55 24.8008 44.5404 24.5682 44.5016 24.3452C44.5937 24.5391 44.6664 24.733 44.7197 24.9414C45.3014 24.8396 45.8492 24.6118 46.334 24.2482C47.4684 23.3999 48.0355 22.0086 47.7059 20.6221C47.5896 20.118 47.3666 19.6671 47.0612 19.2939ZM42.291 18.0771C42.1892 18.8867 41.6947 19.6526 41.0936 20.1858C40.7931 20.4573 40.444 20.6803 40.0611 20.8112C39.6781 20.9421 39.2806 20.9372 38.8879 20.8694C37.9717 20.7094 37.0313 20.2246 36.4204 19.5169C36.1393 19.1921 35.926 18.8042 35.8824 18.3728C35.863 18.1886 35.8824 18.0044 35.9308 17.8347C35.8096 18.0141 35.7078 18.2031 35.6254 18.4067C35.4558 18.8333 35.3588 19.2842 35.2522 19.7253C35.2376 19.7786 35.1697 19.8174 35.1164 19.7835C34.7238 19.5169 34.3893 19.1678 34.205 18.7267C33.9093 18.0044 34.1032 17.1948 34.4523 16.5307C34.4717 16.4919 34.4959 16.4531 34.5201 16.4095C33.8075 16.6858 32.9883 16.6664 32.2999 16.3028C31.2431 15.7502 30.5935 14.5674 30.4917 13.4039C30.4869 13.3651 30.5208 13.3215 30.5596 13.3166C31.4952 13.1276 32.4938 12.6331 32.8283 11.6927C32.5229 11.7993 32.2272 11.9254 31.9315 12.0465C31.2964 12.3083 30.6226 12.5895 29.9245 12.604C29.6143 12.6137 29.2992 12.5604 29.018 12.4198C28.8289 12.3277 28.669 12.1968 28.5284 12.0465C28.6593 12.5846 28.8047 13.1373 29.3525 13.3797C29.4301 13.4136 29.401 13.5203 29.3331 13.5445C28.7175 13.7675 28.063 13.879 27.4086 13.8596C26.3275 13.8305 25.2416 13.4572 24.4418 12.7155C24.0927 12.3956 23.8261 12.0175 23.6322 11.6054C23.5207 11.969 23.3656 12.3229 23.1862 12.6525C22.6627 13.6027 21.7465 14.3686 20.6121 14.3347C19.8607 14.3104 19.1529 13.9614 18.6391 13.4281C18.3482 14.3928 17.4708 15.2121 16.477 15.4157C16.1668 15.4787 15.8468 15.4739 15.5462 15.3866C15.6044 15.692 15.619 16.0023 15.5996 16.3174C15.5462 17.1027 15.2699 17.8638 14.8433 18.5182C14.4313 19.1581 13.8689 19.7205 13.2 20.0937C12.5795 20.4379 11.8571 20.6124 11.1542 20.4767C10.8779 20.4234 10.621 20.3264 10.3786 20.1907C10.3834 20.7191 10.301 21.2475 10.0829 21.7323C9.37997 23.2981 7.25183 23.7634 5.74904 23.1963C4.95887 22.9006 4.23171 22.3576 3.76149 21.6498C3.56758 21.3541 3.41245 21.0099 3.32034 20.6658C3.24278 20.3749 3.17976 19.9822 3.42215 19.7495C3.45123 19.7205 3.49971 19.7108 3.53364 19.735C3.91661 19.9725 4.22202 20.3216 4.55651 20.6221C4.85222 20.8839 5.18671 21.1311 5.58422 21.1845C5.36607 20.9227 5.08491 20.7239 4.84252 20.4815C4.55651 20.2004 4.30928 19.861 4.11052 19.512C3.74694 18.877 3.53364 18.1547 3.48517 17.4226C3.45608 17.0251 3.49486 16.6276 3.55303 16.235C3.62575 15.7744 3.74209 15.3042 3.96509 14.8921C4.1493 14.5577 4.44016 14.2571 4.84252 14.2619C4.89585 14.2619 4.92978 14.3007 4.93463 14.3541C4.98311 14.7903 5.07036 15.2266 5.23034 15.6387C5.37092 15.9974 5.58907 16.3707 5.93326 16.5646C5.88478 16.1429 5.78782 15.7356 5.69572 15.3187C5.60846 14.9261 5.53574 14.5237 5.5309 14.1214C5.52605 13.719 5.59876 13.3118 5.71996 12.9288C5.91871 12.3083 6.27744 11.7702 6.71858 11.3048C5.95749 11.4163 5.23519 11.9544 4.94432 12.6671C4.91524 12.7446 4.79405 12.764 4.76981 12.6671C4.56136 11.872 4.57105 11.014 4.85707 10.2432C5.10915 9.56452 5.55998 8.97795 6.17079 8.58529C6.71374 8.23625 7.36333 8.06174 8.00322 8.02296C8.87581 7.96963 9.82111 8.18778 10.5143 8.72587C10.5192 8.72587 10.524 8.73072 10.5289 8.73072C11.0282 8.9925 11.3821 9.48211 11.639 9.97173C11.8184 10.3111 11.9589 10.6698 12.0801 11.0382C12.0995 10.8395 12.1238 10.6407 12.1674 10.442C12.2886 9.836 12.531 9.23488 12.9721 8.78889C13.389 8.37199 13.9368 8.16839 14.5088 8.12476C14.4361 8.07143 14.3586 8.0278 14.2665 8.00841C13.9901 7.94539 13.6993 8.06174 13.4278 8.12476C13.2872 8.15869 13.1418 8.18293 12.9964 8.18293C12.8994 8.18293 12.8024 8.15384 12.7055 8.16839C12.5164 8.19263 12.4777 8.01326 12.4098 7.87268C12.2934 7.63514 12.2837 7.38306 12.3225 7.12613C12.3613 6.83042 12.4583 6.54441 12.5698 6.26809C12.657 6.04994 12.754 5.83664 12.88 5.63789C13.1224 5.25492 13.423 4.91558 13.7671 4.61987C14.441 4.04784 15.2748 3.66003 16.1522 3.52914C16.9618 3.40794 17.8247 3.51459 18.5324 3.95089C19.3178 4.43566 19.788 5.25492 19.977 6.14205C19.9916 6.20022 19.9383 6.28263 19.8655 6.25354C19.502 6.10327 19.1045 6.30687 18.7991 6.50563C18.5567 6.6656 18.3337 6.85466 18.1301 7.05826C18.4888 7.01948 18.8524 6.971 19.216 6.98555C19.9867 7.01463 20.6897 7.39276 21.1599 8.00357C21.5283 8.48834 21.7222 9.07006 21.9258 9.64209C21.9791 9.25427 21.921 8.86646 21.7319 8.50288C21.5138 8.07628 21.1938 7.71755 20.8981 7.34428C20.8545 7.28611 20.869 7.21824 20.9369 7.18915C21.0387 7.15037 21.1405 7.11644 21.2423 7.0922C21.601 7.00494 21.9743 7.02918 22.3088 7.18915C22.4445 7.25217 22.5706 7.33458 22.6821 7.43154C22.7063 6.64136 22.9826 5.87542 23.4238 5.20644C24.0297 4.29023 24.912 3.54853 25.8912 3.05891C26.3518 2.83107 26.8511 2.64201 27.3601 2.55475C27.8206 2.47719 28.286 2.46264 28.7514 2.50627C29.687 2.59353 30.6274 2.89409 31.3885 3.45642C32.1496 4.01875 32.6635 4.82832 32.7895 5.77362C32.7992 5.83664 32.7265 5.87058 32.6732 5.86088C32.2951 5.80271 31.9072 5.79786 31.5388 5.89966C31.2334 5.98207 30.9619 6.1372 30.7196 6.33111C31.0443 6.32626 31.374 6.30687 31.6988 6.33596C32.0478 6.36989 32.3823 6.47169 32.6683 6.68014C33.0028 6.92738 33.2597 7.27641 33.4488 7.63999C33.8075 8.34291 33.9481 9.13308 34.2923 9.836C34.3262 9.76813 34.3553 9.70026 34.3747 9.62755C34.4523 9.35607 34.462 9.06521 34.4474 8.78405C34.4426 8.6774 34.4426 8.5659 34.4135 8.4641C34.3844 8.36714 34.3408 8.27019 34.2923 8.17808C34.1905 7.96963 34.079 7.76603 33.9918 7.54788C33.9239 7.37821 33.9239 7.24248 34.0014 7.07765C34.1808 6.71408 34.5929 6.49593 34.9516 6.3408C35.3443 6.17598 35.766 6.05964 36.1926 6.01116C37.2106 5.89481 38.2141 6.38443 38.8152 7.19885C39.4793 8.09567 39.5521 9.29305 39.2079 10.3353C39.0043 10.9461 38.6552 11.4891 38.2044 11.9399C38.4662 11.8963 38.7377 11.8817 39.0043 11.9011C39.6587 11.9496 40.2841 12.1968 40.7785 12.6331C41.2294 13.0355 41.5445 13.5687 41.6705 14.1553C41.8208 14.8437 41.7917 15.7405 41.4427 16.4143C41.7093 16.5549 41.9468 16.7537 42.0971 17.0251C42.2959 17.3548 42.3395 17.7232 42.291 18.0771Z" fill="#613427"/>
<path opacity="0.38" d="M47.0611 19.2939C46.8381 19.5362 46.5812 19.7495 46.2952 19.9047C46.4988 19.7011 46.6878 19.4829 46.8575 19.2502C47.0708 18.9594 47.2502 18.6394 47.3762 18.3001C47.4829 18.1062 47.575 17.9026 47.6525 17.6844C48.1955 16.1962 48.1664 14.451 47.4974 13.0015C47.192 12.3423 46.7218 11.7411 46.1013 11.3485C45.9268 11.237 45.7425 11.1449 45.5535 11.0722C45.5486 11.0819 45.5486 11.0916 45.5438 11.1012C45.4759 11.0625 45.4081 11.0237 45.3353 10.9946C45.0154 10.8443 44.6809 10.7522 44.3367 10.6795C44.6373 10.6601 44.9378 10.665 45.2335 10.7134C45.2335 10.7086 45.2335 10.7037 45.2335 10.7037C45.219 10.4517 45.1463 10.1996 45.0445 9.97173C44.836 9.50635 44.4918 9.0846 44.0846 8.7792C43.6338 8.43986 43.1102 8.23141 42.5431 8.24595C42.4703 8.24595 42.3928 8.25565 42.3201 8.26534C42.3734 9.26397 42.2086 10.2917 41.908 11.2515C41.9613 10.7377 41.9953 10.219 41.9904 9.69541C41.9856 9.27851 41.9759 8.85676 41.9323 8.43986C41.9226 8.32836 41.908 8.21202 41.8886 8.10052C41.7723 6.92738 41.336 5.8124 40.4198 4.98345C39.8041 4.42596 39.0333 4.05269 38.2141 3.89756C38.122 3.87817 38.0299 3.86848 37.9377 3.85878C37.7051 3.79091 37.4724 3.75213 37.23 3.76183C36.7791 3.77637 36.3816 3.99452 35.9696 4.15449C36.2507 3.94604 36.5513 3.79576 36.8664 3.69396C36.8082 3.55822 36.7307 3.42734 36.624 3.3013C36.2944 2.90863 35.8242 2.63231 35.3442 2.4578C34.7383 2.2348 34.1032 2.18632 33.473 2.25419C33.6912 2.64201 33.8317 3.06861 33.9384 3.50975C33.856 3.34977 33.7639 3.1898 33.6621 3.03952C33.4488 2.70988 33.2015 2.42386 32.9252 2.16209C32.9301 2.16209 32.9301 2.16209 32.9349 2.15724C32.7846 1.95363 32.615 1.76457 32.4211 1.5949C31.6163 0.901683 30.5741 0.552648 29.5318 0.407217C28.6786 0.290872 27.8012 0.29572 26.9577 0.450847C26.1287 0.601125 25.1301 0.930769 24.4175 1.51249C24.2818 1.60945 24.1557 1.72094 24.0394 1.84214C23.7776 2.11361 23.574 2.42386 23.414 2.75835C23.4916 2.40447 23.637 2.08937 23.8406 1.8082C23.6176 1.64338 23.3752 1.50765 23.1038 1.42039C22.0712 1.0762 20.8399 1.25556 19.9285 1.84698C19.6086 2.05544 19.3274 2.31236 19.0753 2.59838C19.2596 2.70503 19.4341 2.82622 19.6037 2.95226C19.7734 3.16556 19.9382 3.3934 20.074 3.63579C20.0449 3.6067 20.0109 3.58246 19.9819 3.55338C19.7783 3.37401 19.5601 3.21888 19.3226 3.088C19.1141 2.9765 18.9008 2.86985 18.6778 2.79713C18.639 2.78259 18.6003 2.7729 18.5615 2.7632C18.1979 2.5596 17.8149 2.38508 17.4029 2.25419C15.5026 1.66277 13.4569 2.05059 11.8426 3.19949C10.9942 3.80546 10.2768 4.6635 9.97136 5.67182C9.82108 6.16629 9.79684 6.66075 9.84047 7.15522C9.96166 7.19885 10.0829 7.24732 10.1992 7.3055C10.7082 7.54788 11.0427 7.926 11.3142 8.37199C11.3772 8.42047 11.4402 8.47379 11.4984 8.52712C11.4838 8.49318 11.4644 8.4641 11.4499 8.43016C11.2075 7.91146 11.0427 7.35882 11.0088 6.78679C10.9506 5.8124 11.4596 4.9689 12.1771 4.34355C12.9527 3.67457 13.9174 3.20434 14.9112 2.96196C16.0601 2.68079 17.3544 2.67594 18.4597 3.13647C18.9348 3.33523 19.3759 3.62124 19.7589 3.97028C20.0012 4.19327 20.2291 4.4502 20.3842 4.74591C20.4133 4.70713 20.4375 4.67319 20.4666 4.63441C20.8835 4.12056 21.475 3.74728 22.1536 3.74244C22.4542 3.74244 22.745 3.80546 22.9874 3.98967C23.0068 4.00421 23.0262 4.02845 23.0456 4.04299C23.2104 3.69881 23.4043 3.36916 23.6322 3.06376C24.2333 2.26389 25.0574 1.64823 26.0027 1.30404C27.0159 0.930769 28.126 0.882292 29.1828 1.0762C30.2687 1.27496 31.3303 1.73549 32.2126 2.39962C32.9446 2.95226 33.5748 3.68426 33.8705 4.55685C33.8899 4.54231 33.9045 4.52292 33.9239 4.50837C34.268 4.20782 34.7043 3.97028 35.1746 3.97997C35.2376 3.97997 35.2957 4.05754 35.257 4.11571C35.0097 4.47929 34.7964 4.8671 34.6655 5.27916C35.0388 4.97375 35.4703 4.75561 35.9599 4.66835C36.7937 4.52292 37.6372 4.75561 38.3692 5.14827C39.1594 5.57487 39.8429 6.20022 40.3664 6.92253C40.8512 7.59151 41.2245 8.39138 41.273 9.22519C41.3166 9.95234 41.0597 10.6456 40.5507 11.1594C40.8803 11.1885 41.2051 11.2515 41.5154 11.3776C42.0825 11.6054 42.5334 12.0175 42.8436 12.541C43.1151 13.0015 43.2799 13.5202 43.3914 14.0438C43.5126 13.4863 43.5271 12.8997 43.3769 12.3568C43.3575 12.2792 43.4399 12.2114 43.5078 12.2502C44.2543 12.6864 44.8651 13.3312 45.2917 14.0874C45.6747 14.7661 45.9122 15.5224 45.9704 16.298C46.0189 16.9379 45.9316 17.5826 45.7862 18.1983C45.6262 18.8721 45.3887 19.5362 45.0493 20.1422C44.7488 20.6852 44.3464 21.2087 43.8083 21.5335C43.7501 21.5674 43.6677 21.5287 43.6677 21.4559C43.7162 20.7045 43.6386 19.7108 43.1102 19.1193C43.1587 19.7495 43.0957 20.3846 42.9066 20.9906C42.4897 22.314 41.4135 23.4532 40.0174 23.7295C39.4551 23.841 38.8249 23.8168 38.3207 23.5114C37.962 23.2981 37.7487 22.9636 37.6469 22.5855C37.5354 23.2205 37.4966 23.8555 37.6081 24.5051C37.6178 24.5682 37.5693 24.6457 37.4966 24.6166C37.0215 24.4421 36.5852 24.1755 36.2653 23.7828C35.4509 22.7988 35.4897 21.4172 35.9696 20.2683C35.6787 20.3216 35.383 20.341 35.0873 20.3264C33.9432 20.2731 32.8234 19.7592 32.0284 18.9351C31.2819 18.1547 30.8843 17.1269 30.9619 16.0604C30.5402 16.5646 30.0748 17.1851 30.322 17.8444C30.3511 17.9171 30.2735 17.9656 30.2105 17.9559C29.8324 17.8977 29.4688 17.7717 29.1246 17.6069C28.4944 17.3015 27.9272 16.8603 27.4522 16.3513C27.4473 16.7343 27.3988 17.1172 27.3116 17.4857C27.1322 18.2468 26.7783 18.9933 26.216 19.5508C25.6585 20.0986 24.912 20.404 24.1266 20.3604C23.1135 20.3022 22.0955 19.7641 21.4313 19.003C21.058 18.5764 20.8157 18.0674 20.7478 17.5051C20.709 17.2142 20.7139 16.9185 20.7236 16.6228C20.6799 16.7294 20.6315 16.8361 20.5781 16.9379C20.2 17.6602 19.5989 18.2419 18.8766 18.6103C18.5275 18.7897 18.1591 18.94 17.7762 19.0272C17.4271 19.1048 17.0538 19.1242 16.7194 18.9691C16.6854 18.9545 16.666 18.9012 16.6757 18.8673C16.7921 18.4504 16.9181 18.0335 16.9617 17.6069C16.9957 17.2966 16.9763 16.9961 16.9084 16.7003C16.8163 17.1803 16.6466 17.6456 16.4188 18.0868C15.8807 19.129 15.0372 20.0307 14.0289 20.6367C13.4908 20.9566 12.8994 21.1942 12.2837 21.2911C12.2934 21.296 12.2983 21.3057 12.3031 21.3154C12.7006 22.0571 12.9721 22.886 13.0157 23.7295C13.0545 24.4615 12.8994 25.2129 12.4388 25.7995C11.9783 26.3812 11.2705 26.7254 10.5288 26.7399C9.21996 26.7593 7.92078 25.8334 7.62507 24.5488C7.37299 25.2226 7.39238 25.9691 7.69778 26.6333C7.72687 26.6915 7.69778 26.7739 7.62022 26.7739C7.27119 26.7593 6.927 26.7012 6.59736 26.5848C6.0738 26.4006 5.5648 26.0758 5.29332 25.5813C5.08972 25.2129 5.06063 24.8057 5.14304 24.413C4.90066 24.7863 4.72614 25.2081 4.91036 25.6104C4.93459 25.6637 4.92005 25.7268 4.85703 25.7462C4.6098 25.8286 4.34317 25.8286 4.08625 25.7801C3.21366 25.6201 2.09869 24.8057 2.30714 23.8022C2.32168 23.7441 2.38955 23.7198 2.44288 23.7441C2.76767 23.9186 3.13125 24.0204 3.49483 24.0688C3.7663 24.1076 4.04746 24.1125 4.31894 24.0688C3.70813 23.8265 3.14579 23.4629 2.69011 22.983C1.82722 22.0667 1.41516 20.7966 1.47818 19.5508C1.53636 18.3583 2.00658 17.2094 2.79191 16.3125C2.03567 16.6276 1.41516 17.3015 1.134 18.0577C1.10491 18.1353 0.983717 18.1547 0.959479 18.0577C0.775266 17.3112 0.770418 16.5404 0.925545 15.789C0.930392 15.7744 0.930392 15.7599 0.93524 15.7502C0.814048 15.9635 0.712246 16.1865 0.624987 16.4192C0.372907 17.0979 0.2808 17.825 0.38745 18.5425C0.435927 18.8818 0.552272 19.2018 0.726789 19.4926C0.741332 19.5169 0.755875 19.5362 0.770418 19.5605C0.940088 19.1242 1.19217 18.7267 1.50727 18.3873C1.14369 18.8915 0.891611 19.4635 0.823743 20.0937C0.789809 20.4428 0.818895 20.8015 0.896459 21.1457C0.901306 21.1602 0.901306 21.1748 0.901306 21.1893C0.949783 21.4462 1.04189 21.6886 1.16793 21.9165C1.35699 22.314 1.61392 22.6776 1.92417 22.9733C2.05991 23.1042 2.20534 23.2157 2.36046 23.3126C2.03567 23.2157 1.73511 23.0557 1.47334 22.8424C1.23095 23.1817 1.05643 23.5647 0.959479 23.9719C0.765571 24.796 0.988565 25.6734 1.46364 26.357C1.89024 26.9726 2.51074 27.4138 3.2379 27.5931C3.66934 27.6998 4.13957 27.7337 4.57586 27.6368C4.70675 27.6077 4.82794 27.5592 4.93944 27.501C4.76492 27.2344 4.7019 26.9048 4.76492 26.5945C4.79886 26.4297 4.85703 26.2697 4.9249 26.1146C4.85703 26.4927 4.89096 26.8951 5.0267 27.2295C5.14304 27.5107 5.34665 27.7483 5.63751 27.8646C5.91868 27.9761 6.23863 27.9567 6.52464 27.8743C6.54888 27.8646 6.57796 27.8549 6.6022 27.8452C6.6022 27.8452 6.6022 27.8452 6.60705 27.8452C6.67977 27.8452 6.68461 27.9276 6.64099 27.9712C6.50525 28.1167 6.29195 28.1652 6.08835 28.1603C6.02048 28.3881 5.9817 28.6257 5.99139 28.8681C6.02533 29.8473 6.79126 30.7199 7.67355 31.0786C8.13408 31.2677 8.60915 31.3113 9.05999 31.2047C9.01151 31.0689 8.97758 30.9283 8.94849 30.7878C9.08907 31.0738 9.27329 31.3356 9.50598 31.5489C9.76775 31.9173 10.1313 32.1984 10.6161 32.2809C10.907 31.6216 10.9021 30.875 10.8536 30.1673C10.8246 29.7746 10.7955 29.3771 10.7131 28.9893C10.6597 28.7275 10.5967 28.4754 10.5628 28.2185C10.4755 28.2136 10.3931 28.2088 10.3058 28.1991C9.47204 28.0876 8.64309 27.5543 8.27951 26.7836C8.20194 26.6187 8.14862 26.4442 8.11953 26.2697C8.26012 26.5509 8.43948 26.8126 8.65278 27.0453C9.1424 27.5786 9.8841 28.0343 10.6355 27.9955C10.8342 27.9858 11.0233 27.9325 11.2027 27.8598C11.7456 27.7434 12.2352 27.4428 12.594 27.0163C13.0642 26.4588 13.2532 25.7413 13.3647 25.0384C13.4859 24.3064 13.4811 23.5792 13.2969 22.8618C13.1514 22.8278 13.0109 22.7794 12.8751 22.7163C13.0933 22.7212 13.3114 22.7212 13.5247 22.7115C13.5296 22.7163 13.5296 22.7212 13.5344 22.726C13.549 22.726 13.5587 22.7309 13.5732 22.7309C14.0677 22.7697 14.5476 22.6242 14.9693 22.377C15.1778 22.2558 15.3862 22.0958 15.5753 21.9165C15.5801 21.9165 15.585 21.9116 15.5898 21.9116C16.2297 21.4899 16.2443 20.7385 16.414 20.0646C16.4527 20.0598 16.4915 20.0743 16.5061 20.1228C16.5788 20.3749 16.5788 20.627 16.5206 20.8694C17.0878 21.5432 18.0331 21.8001 18.9299 21.7468C19.4535 21.7177 19.9625 21.5383 20.3842 21.2232C20.6557 21.0196 20.8738 20.7773 21.0774 20.5155C20.9514 20.3507 20.8447 20.1713 20.7817 19.9677C20.7526 19.8756 20.7381 19.7883 20.7284 19.7011C20.8932 19.9435 21.0774 20.1713 21.3053 20.3604C21.3683 20.4137 21.4362 20.4622 21.504 20.5106C21.6107 20.6076 21.7173 20.6948 21.8337 20.7676C22.3427 21.1069 22.939 21.3347 23.5449 21.422C24.4272 21.5529 25.3143 21.3057 26.0997 20.9081C26.8462 20.53 27.5491 20.021 28.1405 19.4296C28.3102 19.2599 28.4702 19.0806 28.6205 18.8867C28.4944 18.5958 28.412 18.2952 28.3926 17.9753C28.3926 17.951 28.3926 17.922 28.3926 17.8977C28.4023 17.9317 28.4169 17.9704 28.4266 18.0044C28.6011 18.494 28.8822 18.9594 29.2798 19.2987C29.3088 19.3229 29.3428 19.3472 29.3767 19.3714C29.493 19.4926 29.6191 19.6041 29.7597 19.7011C30.036 19.8853 30.3511 20.0113 30.6807 20.0453C30.705 20.0501 30.7292 20.0501 30.7535 20.0501C30.7631 19.6381 30.8746 19.2405 31.1025 18.8915C31.0346 19.3036 30.9958 19.7205 31.054 20.1325C31.0686 20.2392 31.0976 20.3458 31.1267 20.4428C31.3594 21.4172 32.1302 22.1589 33.0707 22.5079C33.5069 22.6679 33.9481 22.7406 34.3844 22.7309C34.4571 22.2752 34.6268 21.8389 34.9225 21.4705C34.9564 21.4317 34.9903 21.3929 35.0243 21.3541C34.7043 22.1443 34.5104 22.9733 34.748 23.7974C34.874 24.3209 35.1212 24.8105 35.4654 25.1887C35.8484 25.6056 36.3525 25.8964 36.8955 26.0419C36.9924 26.0661 37.0942 26.0855 37.1912 26.1C37.2736 26.1291 37.3512 26.1534 37.4336 26.1776C37.6905 26.2552 37.962 26.3133 38.2286 26.3376C38.2819 26.3424 38.3401 26.3473 38.3934 26.3473C38.0832 26.4394 37.7584 26.4733 37.4336 26.4588C37.516 26.8175 37.5839 27.1762 37.6178 27.5495C37.6614 28.0052 37.676 28.4609 37.6857 28.9214C37.6954 29.3771 37.6808 29.8279 37.642 30.2788C37.6081 30.686 37.579 31.0932 37.6178 31.5004C37.7244 31.4034 37.8117 31.258 37.8796 31.1513C38.0153 30.9332 38.1317 30.7005 38.2431 30.4678C38.4274 30.0703 38.6261 29.6825 38.8152 29.285C38.8297 29.2559 38.8443 29.222 38.8588 29.188C38.8588 29.1444 38.8734 29.0959 38.9024 29.0426C38.9121 29.0232 38.9267 29.0087 38.9461 28.9941C39.077 28.6984 39.203 28.3882 39.3096 28.0682C39.6102 27.4913 39.809 26.8563 39.8187 26.2115C39.9011 26.5703 39.8817 26.9484 39.8138 27.3217C39.7023 27.9325 39.489 28.5093 39.2369 29.0668C39.2612 29.0862 39.2903 29.1008 39.3484 29.1105C39.489 29.1395 39.6441 29.125 39.7896 29.1153C40.4052 29.062 41.0015 28.9214 41.5105 28.5821C41.748 28.4269 41.971 28.2282 42.1552 28.0052C42.5964 27.535 42.7418 26.8611 42.7418 26.2115C42.8388 26.4588 42.9115 26.7157 42.8969 26.9823C42.8921 27.1277 42.863 27.2732 42.8194 27.4089C42.9357 27.4235 43.0472 27.4283 43.1684 27.3992C43.3429 27.3556 43.5029 27.2683 43.6483 27.1568C43.944 26.9338 44.1767 26.6236 44.3173 26.2842C44.4385 25.9837 44.4773 25.6783 44.4628 25.3729C44.487 25.2614 44.5064 25.145 44.5209 25.0335C44.5452 24.8008 44.5355 24.5682 44.4967 24.3452C44.5888 24.5391 44.6615 24.733 44.7148 24.9414C45.2966 24.8396 45.8443 24.6118 46.3291 24.2482C47.4635 23.3999 48.0307 22.0086 47.701 20.6221C47.5895 20.118 47.3665 19.6671 47.0611 19.2939Z" fill="#613427"/>
</g>
<defs>
<clipPath id="clip0_139_5619">
<rect width="48.4043" height="60" fill="white"/>
</clipPath>
</defs>
</svg>
