<svg width="64" height="74" viewBox="0 0 64 74" fill="none" xmlns="http://www.w3.org/2000/svg">
<rect x="8.22552" y="52.6536" width="10.5192" height="19.8384" transform="rotate(-3.0354 8.22552 52.6536)" fill="#2D7DF5" stroke="#020B0A" stroke-width="1.2"/>
<rect x="21.7411" y="43.5376" width="10.5192" height="28.2257" transform="rotate(-3.0354 21.7411 43.5376)" fill="#2D7DF5" stroke="#020B0A" stroke-width="1.2"/>
<rect x="35.207" y="33.4915" width="10.5192" height="37.5449" transform="rotate(-3.0354 35.207 33.4915)" fill="#2D7DF5" stroke="#020B0A" stroke-width="1.2"/>
<rect x="48.6728" y="23.4451" width="10.5192" height="46.8641" transform="rotate(-3.0354 48.6728 23.4451)" fill="#2D7DF5" stroke="#020B0A" stroke-width="1.2"/>
<path d="M1.4902 43.8448L0.193467 45.1836L2.87106 47.777L4.1678 46.4382L1.4902 43.8448ZM21.4096 25.9582L23.1113 25.198L21.9876 22.6826L20.0708 24.6615L21.4096 25.9582ZM26.7042 37.8095L25.0024 38.5697L26.1723 41.1883L28.09 39.0558L26.7042 37.8095ZM4.1678 46.4382L22.7484 27.255L20.0708 24.6615L1.4902 43.8448L4.1678 46.4382ZM19.7078 26.7185L25.0024 38.5697L28.4059 37.0492L23.1113 25.198L19.7078 26.7185ZM28.09 39.0558L53.6467 10.6369L50.875 8.1443L25.3183 36.5632L28.09 39.0558Z" fill="#050308"/>
<path d="M48.7654 7.02056L55.5891 4.53124L54.3331 11.6854L48.7654 7.02056Z" fill="#050308" stroke="#050308" stroke-width="0.93192"/>
</svg>
