<svg width="50" height="50" viewBox="0 0 50 50" fill="none" xmlns="http://www.w3.org/2000/svg">
<circle cx="25" cy="25" r="25" fill="#F4F8FE"/>
<g clip-path="url(#clip0_271_545)">
<path fill-rule="evenodd" clip-rule="evenodd" d="M28.8113 15.5246C28.8139 16.0949 29.2022 17.0127 29.8756 18.04C30.8865 19.5823 32.3892 21.2138 33.8247 22.3277C34.3442 22.7308 35.224 23.3268 35.7313 23.6192L35.8487 23.6868L22.4243 23.6882L9 23.6896V24.3336V24.9776L22.4243 24.9789L35.8487 24.9803L35.7313 25.0479C35.2235 25.3407 34.3433 25.937 33.8247 26.3395C32.0207 27.74 30.1253 29.9553 29.2704 31.6625C28.9997 32.2029 28.8129 32.8054 28.8113 33.1426L28.8107 33.2882H29.4547H30.0987V33.193C30.0987 32.6008 30.9105 31.2323 32.1345 29.7616C32.5507 29.2615 33.5749 28.2194 34.0393 27.8237C35.0489 26.9634 36.1344 26.2484 37.29 25.6827C38.1084 25.282 38.7226 25.0794 39.36 24.9998L39.682 24.9597C39.682 24.9597 39.6634 24.5857 39.6667 24.3333C39.6699 24.081 39.6985 23.6672 39.6985 23.6672L39.6214 23.6819C39.516 23.7021 39.0988 23.6393 38.7467 23.5504C37.9057 23.338 36.7158 22.7553 35.5573 21.9886C34.0337 20.9803 32.6752 19.6738 31.4429 18.0316C30.643 16.9655 30.0987 15.93 30.0987 15.4742V15.3789H29.4547H28.8107L28.8113 15.5246ZM9.01303 24.3336C9.01303 24.6962 9.01745 24.8446 9.02288 24.6632C9.02831 24.4819 9.02831 24.1852 9.02288 24.0039C9.01745 23.8226 9.01303 23.9709 9.01303 24.3336Z" fill="#2D7DF5" stroke="#2D7DF5" stroke-width="0.958333"/>
</g>
<defs>
<clipPath id="clip0_271_545">
<rect width="30.6667" height="30.6667" fill="white" transform="translate(9 9)"/>
</clipPath>
</defs>
</svg>
