<svg width="504" height="530" viewBox="0 0 504 530" fill="none" xmlns="http://www.w3.org/2000/svg">
<g opacity="0.1">
<path d="M58.7785 432.311C33.5141 445.451 16.757 469.411 16.757 496.978V498.524C16.757 514.497 22.1709 529.183 31.9673 541.034C35.0609 545.414 38.9279 549.278 43.0527 552.885C58.5207 566.025 79.6604 574.011 103.12 574.011H218.615C242.848 574.011 262.957 591.015 262.957 612.142C262.957 633.268 242.848 650.272 218.615 650.272H118.33C94.0972 650.272 74.2466 633.268 74.2466 612.142H17.0148C17.0148 660.577 62.3878 699.996 118.33 699.996H218.615C274.558 699.996 319.931 660.577 319.931 612.142C319.931 591.015 311.165 571.693 296.986 556.492C295.697 555.204 294.666 554.173 293.377 552.885C275.073 535.366 248.52 524.287 218.615 524.287H103.12C87.1366 524.287 73.731 512.694 73.731 498.781V497.236C73.731 483.323 87.1366 471.729 103.12 471.729H151.845C157.258 472.245 162.672 472.502 168.344 472.502C261.152 472.502 336.688 397.272 336.688 304.265C336.688 211.516 261.41 136.028 168.344 136.028C75.5356 136.028 0 211.258 0 304.265C0 355.535 22.9443 401.137 59.0363 432.053L58.7785 432.311ZM155.969 421.748C96.6752 415.565 50.2711 365.583 50.2711 304.523C50.2711 239.341 103.12 186.783 168.086 186.783C233.31 186.783 285.901 239.598 285.901 304.523C285.901 377.692 226.607 425.355 155.712 421.748H155.969Z" fill="#F4F8FE"/>
<path d="M468.422 65.6895C463.008 94.0295 458.368 98.9246 432.846 105.108C458.368 111.291 462.751 116.186 468.422 144.526C473.836 116.186 478.476 111.291 503.999 105.108C478.476 98.9246 474.094 94.0295 468.422 65.6895Z" fill="#F4F8FE"/>
<path d="M362.211 55.6484C351.125 111.813 342.36 121.604 291.573 133.97C342.36 146.079 351.383 156.127 362.211 212.292C373.296 156.127 382.061 146.337 432.848 133.97C382.061 121.861 373.038 111.813 362.211 55.6484Z" fill="#F4F8FE"/>
<path d="M403.976 69.562C408.874 44.5712 412.741 40.1914 435.428 34.781C412.999 29.3706 408.874 24.9908 403.976 0C399.078 24.9908 395.211 29.3706 372.524 34.781C394.953 40.1914 399.078 44.5712 403.976 69.562Z" fill="#F4F8FE"/>
</g>
</svg>
