<svg width="32" height="32" viewBox="0 0 32 32" fill="none" xmlns="http://www.w3.org/2000/svg">
<circle cx="16" cy="16" r="16" fill="#F9F6FF"/>
<path d="M19.1131 8.4654C19.1131 8.12441 18.9777 7.79738 18.7365 7.55626C18.4954 7.31515 18.1684 7.17969 17.8274 7.17969C17.4864 7.17969 17.1594 7.31515 16.9183 7.55626C16.6771 7.79738 16.5417 8.12441 16.5417 8.4654V19.4968C16.5419 19.9783 16.3994 20.4489 16.1321 20.8494C15.8648 21.2498 15.4848 21.5619 15.0401 21.7463C14.5954 21.9307 14.106 21.9791 13.6338 21.8854C13.1616 21.7916 12.7278 21.5599 12.3873 21.2196C12.0468 20.8792 11.8148 20.4456 11.7208 19.9734C11.6268 19.5013 11.6749 19.0118 11.8591 18.567C12.0433 18.1222 12.3552 17.742 12.7555 17.4745C13.1558 17.207 13.6264 17.0643 14.1078 17.0643C14.4488 17.0643 14.7758 16.9288 15.017 16.6877C15.2581 16.4466 15.3935 16.1195 15.3935 15.7785C15.3935 15.4376 15.2581 15.1105 15.017 14.8694C14.7758 14.6283 14.4488 14.4928 14.1078 14.4928C13.1179 14.4928 12.1502 14.7864 11.327 15.3364C10.5039 15.8864 9.86238 16.6681 9.48355 17.5827C9.10471 18.4973 9.00559 19.5037 9.19872 20.4746C9.39185 21.4455 9.86855 22.3374 10.5686 23.0374C11.2686 23.7374 12.1604 24.2141 13.1313 24.4072C14.1023 24.6004 15.1087 24.5012 16.0233 24.1224C16.9379 23.7436 17.7196 23.102 18.2696 22.2789C18.8196 21.4558 19.1131 20.4881 19.1131 19.4981V13.7921C20.3144 14.7484 21.8051 15.268 23.3405 15.2655C23.6815 15.2655 24.0086 15.1301 24.2497 14.889C24.4908 14.6478 24.6263 14.3208 24.6263 13.9798C24.6263 13.6388 24.4908 13.3118 24.2497 13.0707C24.0086 12.8296 23.6815 12.6941 23.3405 12.6941C22.2194 12.6941 21.1441 12.2487 20.3513 11.4559C19.5585 10.6631 19.1131 9.58787 19.1131 8.46669V8.4654Z" fill="#9047FF"/>
</svg>
