<svg width="30" height="18" viewBox="0 0 30 18" fill="none" xmlns="http://www.w3.org/2000/svg">
<path fill-rule="evenodd" clip-rule="evenodd" d="M0.299805 2.69985C0.299805 2.1429 0.521054 1.60876 0.91488 1.21493C1.30871 0.821103 1.84285 0.599854 2.3998 0.599854H27.5998C28.1568 0.599854 28.6909 0.821103 29.0847 1.21493C29.4786 1.60876 29.6998 2.1429 29.6998 2.69985C29.6998 3.25681 29.4786 3.79095 29.0847 4.18478C28.6909 4.5786 28.1568 4.79985 27.5998 4.79985H2.3998C1.84285 4.79985 1.30871 4.5786 0.91488 4.18478C0.521054 3.79095 0.299805 3.25681 0.299805 2.69985ZM13 15.2999C13 14.7429 13.2213 14.2088 13.6151 13.8149C14.0089 13.4211 14.543 13.1999 15.1 13.1999H27.5998C28.1568 13.1999 28.6909 13.4211 29.0847 13.8149C29.4786 14.2088 29.6998 14.7429 29.6998 15.2999C29.6998 15.8568 29.4786 16.391 29.0847 16.7848C28.6909 17.1786 28.1568 17.3999 27.5998 17.3999H15.1C14.543 17.3999 14.0089 17.1786 13.6151 16.7848C13.2213 16.391 13 15.8568 13 15.2999Z" fill="#050308"/>
</svg>
