<svg width="319" height="307" viewBox="0 0 319 307" fill="none" xmlns="http://www.w3.org/2000/svg">
<path opacity="0.1" d="M69.8315 384.241C39.8162 401.281 19.9081 432.354 19.9081 468.105V470.11C19.9081 490.826 26.34 509.871 37.9786 525.24C41.6539 530.92 46.2481 535.932 51.1485 540.61C69.5253 557.65 94.6401 568.008 122.511 568.008H259.724C288.515 568.008 312.404 590.06 312.404 617.458C312.404 644.856 288.515 666.908 259.724 666.908H140.582C111.792 666.908 88.2083 644.856 88.2083 617.458H20.2144C20.2144 680.273 74.1194 731.394 140.582 731.394H259.724C326.187 731.394 380.092 680.273 380.092 617.458C380.092 590.06 369.678 565.001 352.833 545.288C351.302 543.617 350.077 542.28 348.545 540.61C326.799 517.89 295.253 503.522 259.724 503.522H122.511C103.522 503.522 87.5957 488.487 87.5957 470.444V468.439C87.5957 450.397 103.522 435.361 122.511 435.361H180.398C186.83 436.03 193.262 436.364 200 436.364C310.26 436.364 400 338.8 400 218.182C400 97.8978 310.567 0 200 0C89.7397 0 0 97.5637 0 218.182C0 284.672 27.2588 343.812 70.1378 383.906L69.8315 384.241ZM185.299 370.542C114.855 362.523 59.7243 297.703 59.7243 218.516C59.7243 133.983 122.511 65.8221 199.694 65.8221C277.182 65.8221 339.663 134.317 339.663 218.516C339.663 313.407 269.219 375.219 184.992 370.542H185.299Z" fill="#002724"/>
</svg>
