<svg width="12" height="12" viewBox="0 0 12 12" fill="none" xmlns="http://www.w3.org/2000/svg">
<path d="M10.0022 1.65527C10.0022 1.65527 5.45116 6.68131 2.08388 10.4003" stroke="#F4ECFF" stroke-width="0.9375" stroke-linecap="round"/>
<path d="M1.75227 2.20459L7.27083 10.528C7.43475 10.7752 7.51672 10.8989 7.64184 10.9658C7.76697 11.0327 7.9153 11.0322 8.21195 11.0313L9.82725 11.0263C10.3368 11.0247 10.5916 11.0239 10.6797 10.8598C10.7678 10.6956 10.6276 10.4829 10.3472 10.0574L4.7344 1.5412L4.7344 1.54119C4.57058 1.29262 4.48866 1.16834 4.36321 1.10105C4.23776 1.03376 4.08891 1.03427 3.79121 1.03529L2.37479 1.04015C1.76174 1.04226 1.45522 1.04331 1.34967 1.24074C1.24413 1.43817 1.41351 1.69365 1.75227 2.20459Z" fill="#050308" stroke="#F4ECFF" stroke-width="0.5"/>
</svg>
