<svg width="32" height="32" viewBox="0 0 32 32" fill="none" xmlns="http://www.w3.org/2000/svg">
<circle cx="16" cy="16" r="16" fill="#F9F6FF"/>
<path d="M22.4289 8.99609C22.4289 8.99609 15.1472 17.0377 9.75959 22.9882" stroke="#9047FF" stroke-width="1.5" stroke-linecap="round"/>
<path d="M9.2302 9.87424L18.0599 23.1917C18.3222 23.5873 18.4533 23.7851 18.6535 23.8921C18.8537 23.9992 19.091 23.9985 19.5657 23.997L22.1502 23.989C22.9655 23.9865 23.3732 23.9852 23.5141 23.7225C23.6551 23.4599 23.4307 23.1195 22.982 22.4387L14.0016 8.8128L14.0016 8.8128C13.7395 8.41508 13.6084 8.21623 13.4077 8.10857C13.207 8.0009 12.9688 8.00172 12.4925 8.00336L10.2262 8.01113C9.24535 8.0145 8.75492 8.01618 8.58604 8.33207C8.41716 8.64797 8.68818 9.05672 9.2302 9.87424Z" fill="#9047FF"/>
</svg>
