<svg width="24" height="33" viewBox="0 0 24 33" fill="none" xmlns="http://www.w3.org/2000/svg">
<path d="M3.30313 20.3467C2.14403 20.9499 1.37524 22.0499 1.37524 23.3154V23.3864C1.37524 24.1197 1.62362 24.7939 2.07306 25.3379C2.21499 25.539 2.39241 25.7164 2.58165 25.882C3.2913 26.4852 4.26116 26.8519 5.33747 26.8519H10.6362C11.748 26.8519 12.6706 27.6325 12.6706 28.6023C12.6706 29.5722 11.748 30.3528 10.6362 30.3528H6.0353C4.92351 30.3528 4.01279 29.5722 4.01279 28.6023H1.38706C1.38706 30.8259 3.46872 32.6355 6.0353 32.6355H10.6362C13.2028 32.6355 15.2845 30.8259 15.2845 28.6023C15.2845 27.6325 14.8823 26.7454 14.2318 26.0476C14.1727 25.9885 14.1254 25.9411 14.0662 25.882C13.2265 25.0777 12.0082 24.5691 10.6362 24.5691H5.33747C4.60416 24.5691 3.98913 24.0369 3.98913 23.3982V23.3272C3.98913 22.6886 4.60416 22.1563 5.33747 22.1563H7.57288C7.82126 22.18 8.06964 22.1918 8.32985 22.1918C12.5878 22.1918 16.0533 18.7382 16.0533 14.4684C16.0533 10.2105 12.5996 6.745 8.32985 6.745C4.07192 6.745 0.606445 10.1986 0.606445 14.4684C0.606445 16.8221 1.6591 18.9156 3.31496 20.3349L3.30313 20.3467ZM7.76213 19.8618C5.04178 19.5779 2.91282 17.2834 2.91282 14.4802C2.91282 11.4879 5.33747 9.07503 8.31802 9.07503C11.3104 9.07503 13.7232 11.4997 13.7232 14.4802C13.7232 17.8393 11.0029 20.0274 7.7503 19.8618H7.76213Z" fill="white"/>
<path d="M22.097 3.51611C21.8487 4.81715 21.6358 5.04187 20.4648 5.32573C21.6358 5.60959 21.8368 5.83432 22.097 7.13535C22.3454 5.83432 22.5583 5.60959 23.7293 5.32573C22.5583 5.04187 22.3573 4.81715 22.097 3.51611Z" fill="white"/>
<path d="M17.2242 3.05481C16.7156 5.63322 16.3134 6.08267 13.9834 6.65039C16.3134 7.20629 16.7274 7.66756 17.2242 10.246C17.7327 7.66756 18.1349 7.21811 20.4649 6.65039C18.1349 6.0945 17.7209 5.63322 17.2242 3.05481Z" fill="white"/>
<path d="M19.1402 3.69344C19.365 2.54617 19.5424 2.3451 20.5832 2.09672C19.5542 1.84834 19.365 1.64727 19.1402 0.5C18.9155 1.64727 18.7381 1.84834 17.6973 2.09672C18.7263 2.3451 18.9155 2.54617 19.1402 3.69344Z" fill="white"/>
</svg>
